<svg xmlns="http://www.w3.org/2000/svg" viewBox="0 0 190 62"><g fill="currentColor" fill-rule="evenodd"><path d="M12.2 61.183c-.49 0-.97-.006-1.455-.016-.902-.026-1.971-.077-3.015-.262a9.498 9.498 0 0 1-2.668-.876 8.656 8.656 0 0 1-2.25-1.627 8.527 8.527 0 0 1-1.646-2.233 9.154 9.154 0 0 1-.875-2.65c-.196-1.077-.246-2.167-.267-3C.013 50.181 0 49.06 0 49.06V12.107s.014-1.105.024-1.43C.045 9.84.095 8.748.29 7.682a9.094 9.094 0 0 1 .876-2.657A8.969 8.969 0 0 1 5.06 1.151a9.423 9.423 0 0 1 2.663-.87C8.811.086 9.909.038 10.748.017L12.2 0h165.588l1.47.02c.828.02 1.928.07 2.995.259a9.658 9.658 0 0 1 2.694.877c.828.422 1.584.97 2.242 1.626a8.856 8.856 0 0 1 1.65 2.245c.419.83.71 1.72.863 2.637.185 1.01.243 2.047.279 3.02.005.452.005.94.005 1.423.014.6.014 1.17.014 1.747V47.33c0 .58 0 1.148-.014 1.72 0 .52 0 .996-.007 1.487-.034.942-.092 1.978-.275 2.963a9.152 9.152 0 0 1-.87 2.673 8.84 8.84 0 0 1-1.636 2.217 8.753 8.753 0 0 1-2.254 1.635 9.487 9.487 0 0 1-2.689.879c-1.03.185-2.1.236-3.01.26-.484.012-.967.018-1.45.018l-1.746.003L12.2 61.183zm26.44-30.769c-.043-4.605 3.77-6.846 3.944-6.95-2.157-3.15-5.507-3.58-6.682-3.614-2.811-.294-5.537 1.683-6.97 1.683-1.46 0-3.667-1.654-6.043-1.606-3.058.049-5.92 1.818-7.49 4.569-3.237 5.606-.822 13.847 2.28 18.378 1.551 2.219 3.366 4.698 5.74 4.61 2.321-.095 3.19-1.481 5.992-1.481 2.778 0 3.593 1.48 6.014 1.425 2.491-.04 4.063-2.229 5.56-4.469 1.792-2.544 2.514-5.05 2.541-5.178-.056-.02-4.84-1.844-4.887-7.367zM34.064 16.87c1.25-1.564 2.103-3.688 1.866-5.845-1.808.079-4.069 1.25-5.372 2.779-1.15 1.346-2.18 3.554-1.914 5.628 2.03.15 4.117-1.025 5.42-2.562zm32.438 25.22l1.828 5.404h3.285l-7.22-19.996h-3.354l-7.219 19.996h3.229l1.829-5.404h7.622zm20.702-1.884c0-4.518-2.438-7.442-6.138-7.442-2.037 0-3.811 1.013-4.642 2.576h-.055v-2.425h-2.896v19.401h2.991v-7.22h.07c.86 1.621 2.51 2.55 4.587 2.55 3.658 0 6.083-2.91 6.083-7.44zm16.046 0c0-4.518-2.44-7.442-6.138-7.442-2.037 0-3.812 1.013-4.643 2.576h-.054v-2.425h-2.897v19.401h2.992v-7.22h.069c.86 1.621 2.51 2.55 4.587 2.55 3.659 0 6.084-2.91 6.084-7.44zm10.604 1.716h-3.064c.193 3.617 3.188 5.905 7.622 5.905 4.74 0 7.718-2.343 7.718-6.083 0-2.926-1.704-4.573-5.806-5.544l-2.203-.54c-2.578-.637-3.63-1.47-3.63-2.883 0-1.773 1.648-2.992 4.06-2.992 2.41 0 4.06 1.204 4.24 3.2h3.02c-.096-3.45-2.993-5.82-7.22-5.82-4.267 0-7.275 2.37-7.275 5.82 0 2.787 1.706 4.503 5.377 5.39l2.59.625c2.593.636 3.688 1.565 3.688 3.117 0 1.79-1.815 3.09-4.338 3.09-2.63 0-4.558-1.3-4.779-3.285zm18.736-12.456h-3.006v3.45h-2.12v2.37h2.12v8.356c0 2.826 1.151 3.935 4.103 3.935.665 0 1.33-.054 1.661-.138v-2.356c-.326.04-.655.064-.984.07-1.218 0-1.774-.582-1.774-1.831v-8.037h2.773v-2.37h-2.773v-3.449zm4.376 10.74c0 4.599 2.675 7.468 6.915 7.468s6.915-2.87 6.915-7.468c0-4.587-2.689-7.47-6.915-7.47-4.213 0-6.915 2.883-6.915 7.47zm16.297-7.29v14.578h2.993v-8.647c0-2.05 1.192-3.354 3.118-3.354.58 0 1.107.084 1.344.18v-2.798a4.644 4.644 0 0 0-1.026-.111c-1.718 0-3.048.984-3.505 2.632h-.07v-2.48h-2.854zm21.251 10.296h-2.84c-.401 1.26-1.706 2.05-3.367 2.05-2.356 0-3.923-1.634-3.923-4.129v-.18h10.297v-1.026c0-4.42-2.536-7.19-6.569-7.19-4.101 0-6.748 2.965-6.748 7.538 0 4.559 2.632 7.399 6.874 7.399 3.297 0 5.873-1.815 6.276-4.462zM59.296 12.448h-3.47v9.608h3.47c2.863 0 4.521-1.765 4.521-4.834 0-3.024-1.67-4.774-4.52-4.774zm6.207 5.979c0 2.35 1.298 3.77 3.422 3.77 2.117 0 3.417-1.42 3.417-3.77 0-2.337-1.306-3.762-3.417-3.762-2.117 0-3.422 1.425-3.422 3.762zm15.928 3.63l1.992-7.251H81.99l-1.293 5.532h-.112l-1.491-5.532h-1.372l-1.491 5.532h-.108l-1.298-5.532h-1.452l2 7.25h1.47l1.49-5.34h.115l1.498 5.34h1.484zm3.673-7.251v7.25h1.43v-4.243c0-1.13.673-1.837 1.73-1.837 1.06 0 1.566.58 1.566 1.746v4.334h1.431v-4.694c0-1.726-.892-2.697-2.51-2.697-1.092 0-1.812.487-2.164 1.292h-.106v-1.151h-1.377zm8.437 7.25h1.432V11.975H93.54v10.081zm3.42-3.63c0 2.352 1.298 3.77 3.422 3.77 2.117 0 3.417-1.418 3.417-3.77 0-2.336-1.306-3.76-3.417-3.76-2.118 0-3.422 1.424-3.422 3.76zm8.346 1.579c0 1.325 1.019 2.17 2.417 2.17.953 0 1.745-.412 2.177-1.138h.114v1.02h1.377v-4.955c0-1.532-1.025-2.437-2.842-2.437-1.646 0-2.817.8-2.963 2.044h1.385c.159-.512.713-.805 1.512-.805.977 0 1.483.433 1.483 1.198v.626l-1.963.113c-1.726.106-2.697.86-2.697 2.164zm7.965-1.578c0 2.297 1.166 3.748 3.01 3.748.998 0 1.845-.472 2.276-1.265h.115v1.146h1.37V11.975h-1.43v3.982h-.108c-.393-.799-1.23-1.272-2.223-1.272-1.831 0-3.01 1.45-3.01 3.742zm12.692 0c0 2.35 1.299 3.77 3.421 3.77 2.118 0 3.417-1.42 3.417-3.77 0-2.337-1.306-3.762-3.417-3.762-2.116 0-3.421 1.425-3.421 3.762zm8.759-3.621v7.25h1.43v-4.243c0-1.13.673-1.837 1.73-1.837 1.06 0 1.566.58 1.566 1.746v4.334h1.431v-4.694c0-1.726-.892-2.697-2.51-2.697-1.092 0-1.812.487-2.164 1.292h-.106v-1.151h-1.377zM148.965 13h-1.432v1.837h-1.15v1.206h1.15v4.094c0 1.398.633 1.958 2.224 1.958.279 0 .546-.033.78-.074v-1.191c-.2.02-.326.034-.546.034-.712 0-1.026-.334-1.026-1.094v-3.727h1.571v-1.206h-1.571V13zm3.526-1.026v10.081h1.43v-4.235c0-1.098.654-1.838 1.826-1.838 1.011 0 1.55.587 1.55 1.745v4.328h1.434v-4.68c0-1.725-.954-2.704-2.498-2.704-1.093 0-1.86.486-2.21 1.298h-.113v-3.995h-1.419zm14.582 8.123h-1.377c-.266.565-.858.88-1.726.88-1.143 0-1.882-.807-1.93-2.078v-.08h5.12v-.5c0-2.276-1.218-3.655-3.235-3.655-2.043 0-3.343 1.47-3.343 3.788 0 2.318 1.272 3.743 3.35 3.743 1.656 0 2.816-.798 3.14-2.098z"/><path d="M59.671 39.596h6.042l-2.98-8.77h-.083l-2.979 8.77zm24.459.61c0-2.952-1.525-4.892-3.853-4.892-2.285 0-3.823 1.98-3.823 4.892 0 2.937 1.538 4.905 3.823 4.905 2.328 0 3.853-1.928 3.853-4.905zm16.045 0c0-2.952-1.525-4.892-3.853-4.892-2.286 0-3.824 1.98-3.824 4.892 0 2.937 1.538 4.905 3.824 4.905 2.328 0 3.853-1.928 3.853-4.905zm47.573 0c0-3.146-1.442-5.004-3.866-5.004-2.425 0-3.866 1.87-3.866 5.004 0 3.16 1.44 5.001 3.866 5.001 2.424 0 3.866-1.842 3.866-5.001zM164.4 38.86h7.288c-.07-2.231-1.496-3.7-3.575-3.7-2.064 0-3.56 1.498-3.713 3.7zM57.319 20.697h1.811c2.01 0 3.167-1.251 3.167-3.455 0-2.17-1.177-3.436-3.167-3.436H57.32v6.891zm13.551-2.27c0-1.572-.707-2.49-1.945-2.49-1.245 0-1.944.918-1.944 2.49 0 1.584.7 2.497 1.944 2.497 1.238 0 1.945-.92 1.945-2.497zm31.458 0c0-1.572-.707-2.49-1.945-2.49-1.245 0-1.944.918-1.944 2.49 0 1.584.7 2.497 1.944 2.497 1.238 0 1.945-.92 1.945-2.497zm7.639.96v-.608l-1.77.113c-.998.068-1.45.407-1.45 1.047 0 .652.564 1.032 1.342 1.032 1.079 0 1.878-.686 1.878-1.585zm4.783-.96c0 1.537.725 2.463 1.937 2.463 1.206 0 1.952-.938 1.952-2.457 0-1.51-.754-2.463-1.952-2.463-1.204 0-1.937.932-1.937 2.457zm16.58 0c0-1.572-.707-2.49-1.945-2.49-1.244 0-1.943.918-1.943 2.49 0 1.584.699 2.497 1.943 2.497 1.238 0 1.945-.92 1.945-2.497zm30.71-.665h3.663c-.034-1.139-.727-1.88-1.786-1.88-1.058 0-1.797.748-1.878 1.88z"/></g></svg>