<svg xmlns="http://www.w3.org/2000/svg" fill="none" viewBox="0 0 16 16"><path fill="currentColor" fill-rule="evenodd" d="M7.5 2.461A2.666 2.666 0 1 0 6 7.333c.556 0 1.073-.17 1.5-.46a3.32 3.32 0 0 1-.833-2.206c0-.846.314-1.618.833-2.206zM5.278 8.667h-1.89a2 2 0 0 0-1.763 1.055l-.714 1.334C.197 12.388 1.162 14 2.674 14h1.175a1.992 1.992 0 0 1-.272-2.278l1.429-2.666a2 2 0 0 1 .272-.39zM13.108 4.667a2.666 2.666 0 1 1-5.332.001 2.666 2.666 0 0 1 5.332-.001zm-5.279 4a2 2 0 0 0-1.763 1.055l-.714 1.334C4.638 12.388 5.604 14 7.115 14h6.653c1.511 0 2.476-1.612 1.763-2.944l-.715-1.334a2 2 0 0 0-1.763-1.055H7.83z" clip-rule="evenodd"/></svg>