<svg xmlns="http://www.w3.org/2000/svg" viewBox="0 0 24 21"><g fill="none" fill-rule="evenodd"><path d="M0-1h24v24H0z"/><path fill="currentColor" fill-rule="nonzero" d="M23 .99H1a1 1 0 0 0-1 1v18a1 1 0 0 0 1 1h22a1 1 0 0 0 1-1v-18a1 1 0 0 0-1-1zM8.207 14.197l-2.5 2.5a.997.997 0 0 1-1.414 0 .999.999 0 0 1 0-1.414l2.5-2.5 1.414 1.414zm11.5 2.5a.997.997 0 0 1-1.414 0l-2.5-2.5 1.414-1.414 2.5 2.5a.999.999 0 0 1 0 1.414zm0-10l-7 7a.997.997 0 0 1-1.414 0l-7-7a.999.999 0 1 1 1.414-1.414L12 11.576l6.293-6.293a.999.999 0 1 1 1.414 1.414z"/></g></svg>