<svg viewBox="0 0 195 64" fill="none" xmlns="http://www.w3.org/2000/svg"><path d="M13.393 62.997c-.499 0-.985-.007-1.48-.018-.916-.024-2.001-.076-3.06-.264a9.664 9.664 0 0 1-2.71-.889 8.793 8.793 0 0 1-2.287-1.646 8.643 8.643 0 0 1-1.671-2.264 9.26 9.26 0 0 1-.889-2.686c-.2-1.091-.25-2.197-.271-3.04C1.013 51.85 1 50.71 1 50.71V13.269s.015-1.12.025-1.449c.02-.85.072-1.955.27-3.034a9.217 9.217 0 0 1 .89-2.694 8.655 8.655 0 0 1 1.661-2.266 9.109 9.109 0 0 1 2.295-1.658 9.588 9.588 0 0 1 2.705-.882c1.104-.194 2.22-.244 3.07-.266L13.394 1h168.202l1.495.021c.839.02 1.957.07 3.042.263a9.82 9.82 0 0 1 2.735.888 9.03 9.03 0 0 1 2.277 1.647 8.963 8.963 0 0 1 1.676 2.275 9.33 9.33 0 0 1 .877 2.673c.188 1.023.247 2.073.283 3.059.005.458.005.953.005 1.442.015.608.015 1.186.015 1.77V48.96c0 .589 0 1.164-.015 1.743 0 .526 0 1.01-.006 1.507-.035.955-.094 2.004-.28 3.004a9.256 9.256 0 0 1-.884 2.706 8.887 8.887 0 0 1-1.661 2.247 8.89 8.89 0 0 1-2.29 1.656 9.653 9.653 0 0 1-2.732.892c-1.047.188-2.132.24-3.059.264-.478.011-.982.018-1.469.018l-1.775.003-166.436-.003z" fill="#fff"/><path d="M13.393 62.997c-.499 0-.985-.007-1.48-.018-.916-.024-2.001-.076-3.06-.264a9.664 9.664 0 0 1-2.71-.889 8.793 8.793 0 0 1-2.287-1.646 8.643 8.643 0 0 1-1.671-2.264 9.26 9.26 0 0 1-.889-2.686c-.2-1.091-.25-2.197-.271-3.04C1.013 51.85 1 50.71 1 50.71V13.269s.015-1.12.025-1.449c.02-.85.072-1.955.27-3.034a9.217 9.217 0 0 1 .89-2.694 8.655 8.655 0 0 1 1.661-2.266 9.109 9.109 0 0 1 2.295-1.658 9.588 9.588 0 0 1 2.705-.882c1.104-.194 2.22-.244 3.07-.266L13.394 1h168.202l1.495.021c.839.02 1.957.07 3.042.263a9.82 9.82 0 0 1 2.735.888 9.03 9.03 0 0 1 2.277 1.647 8.963 8.963 0 0 1 1.676 2.275 9.33 9.33 0 0 1 .877 2.673c.188 1.023.247 2.073.283 3.059.005.458.005.953.005 1.442.015.608.015 1.186.015 1.77V48.96c0 .589 0 1.164-.015 1.743 0 .526 0 1.01-.006 1.507-.035.955-.094 2.004-.28 3.004a9.256 9.256 0 0 1-.884 2.706 8.887 8.887 0 0 1-1.661 2.247 8.89 8.89 0 0 1-2.29 1.656 9.653 9.653 0 0 1-2.732.892c-1.047.188-2.132.24-3.059.264-.478.011-.982.018-1.469.018l-1.775.003-166.436-.003" stroke="#34374C"/><path d="M40.153 31.819c-.043-4.666 3.82-6.938 3.997-7.044-2.186-3.191-5.58-3.627-6.771-3.66-2.849-.3-5.611 1.704-7.063 1.704-1.48 0-3.715-1.676-6.123-1.627-3.099.05-5.998 1.842-7.589 4.63-3.281 5.68-.834 14.03 2.309 18.622 1.572 2.248 3.411 4.761 5.816 4.671 2.353-.096 3.232-1.5 6.073-1.5 2.815 0 3.64 1.5 6.094 1.443 2.524-.039 4.116-2.258 5.634-4.527 1.816-2.578 2.547-5.117 2.574-5.248-.057-.02-4.904-1.868-4.951-7.464zM35.517 18.093c1.266-1.584 2.131-3.736 1.891-5.922-1.832.08-4.123 1.266-5.443 2.816-1.166 1.364-2.209 3.6-1.94 5.702 2.058.154 4.172-1.037 5.492-2.596z" fill="#34374C"/><path fill-rule="evenodd" clip-rule="evenodd" d="M60.663 43.65h7.724l1.852 5.475h3.328l-7.316-20.261h-3.399l-7.314 20.261h3.271l1.854-5.476zm6.923-2.528h-6.122l3.018-8.888h.085l3.019 8.888zM83.2 49.28c3.707 0 6.164-2.95 6.164-7.54 0-4.578-2.47-7.541-6.22-7.541-2.063 0-3.861 1.026-4.703 2.61h-.056v-2.457H75.45v19.659h3.032v-7.316h.07c.871 1.643 2.543 2.584 4.648 2.584zm-.856-12.497c2.359 0 3.904 1.966 3.904 4.957 0 3.017-1.545 4.97-3.904 4.97-2.316 0-3.874-1.994-3.874-4.97 0-2.95 1.558-4.957 3.874-4.957zM99.459 49.28c3.707 0 6.164-2.95 6.164-7.54 0-4.578-2.472-7.541-6.22-7.541-2.063 0-3.861 1.026-4.703 2.61h-.056v-2.457H91.71v19.659h3.031v-7.316h.07c.872 1.643 2.544 2.584 4.649 2.584zm-.856-12.497c2.359 0 3.904 1.966 3.904 4.957 0 3.017-1.545 4.97-3.904 4.97-2.317 0-3.875-1.994-3.875-4.97 0-2.95 1.558-4.957 3.875-4.957z" fill="#34374C"/><path d="M116.369 43.48c.223 2.01 2.176 3.328 4.842 3.328 2.557 0 4.396-1.318 4.396-3.131 0-1.573-1.11-2.514-3.737-3.159l-2.625-.633c-3.72-.899-5.448-2.638-5.448-5.462 0-3.495 3.048-5.897 7.372-5.897 4.283 0 7.218 2.402 7.316 5.897h-3.061c-.183-2.022-1.854-3.242-4.296-3.242-2.444 0-4.115 1.235-4.115 3.031 0 1.433 1.067 2.276 3.679 2.922l2.232.547c4.158.984 5.884 2.653 5.884 5.617 0 3.79-3.019 6.164-7.82 6.164-4.494 0-7.529-2.318-7.724-5.983h3.105zM135.353 30.857v3.495h2.81v2.402h-2.81v8.143c0 1.266.563 1.855 1.798 1.855.309 0 .802-.042.997-.07v2.387c-.336.085-1.01.14-1.683.14-2.991 0-4.158-1.124-4.158-3.987v-8.468h-2.147v-2.402h2.147v-3.495h3.046z" fill="#34374C"/><path fill-rule="evenodd" clip-rule="evenodd" d="M146.794 34.172c-4.268 0-7.006 2.92-7.006 7.569 0 4.66 2.71 7.567 7.006 7.567 4.298 0 7.008-2.908 7.008-7.568 0-4.648-2.725-7.568-7.008-7.568zm0 2.497c2.457 0 3.918 1.883 3.918 5.071 0 3.201-1.461 5.068-3.918 5.068s-3.917-1.867-3.917-5.068c0-3.175 1.46-5.07 3.917-5.07z" fill="#34374C"/><path d="M156.302 34.352h2.891v2.514h.072c.463-1.67 1.811-2.667 3.552-2.667.435 0 .799.057 1.039.112v2.836c-.24-.098-.773-.183-1.362-.183-1.952 0-3.159 1.322-3.159 3.399v8.761h-3.033V34.352z" fill="#34374C"/><path fill-rule="evenodd" clip-rule="evenodd" d="M171.475 49.308c3.341 0 5.952-1.839 6.36-4.521h-2.878c-.406 1.277-1.728 2.077-3.412 2.077-2.387 0-3.974-1.656-3.974-4.184v-.182h10.434v-1.04c0-4.478-2.57-7.286-6.657-7.286-4.156 0-6.838 3.005-6.838 7.639 0 4.619 2.667 7.497 6.965 7.497zm3.495-8.93h-7.385c.155-2.231 1.671-3.749 3.763-3.749 2.106 0 3.552 1.488 3.622 3.75zM65.666 18.452c0-3.065-1.694-4.838-4.582-4.838h-3.516v9.736h3.516c2.901 0 4.582-1.789 4.582-4.898zm-4.75 3.52h-1.835v-6.984h1.835c2.017 0 3.21 1.283 3.21 3.482 0 2.234-1.173 3.502-3.21 3.502zM70.841 15.86c-2.145 0-3.467 1.444-3.467 3.812 0 2.382 1.315 3.82 3.467 3.82 2.146 0 3.462-1.438 3.462-3.82 0-2.368-1.323-3.812-3.462-3.812zm0 1.29c1.255 0 1.971.93 1.971 2.522 0 1.598-.716 2.53-1.97 2.53-1.262 0-1.97-.925-1.97-2.53 0-1.593.708-2.523 1.97-2.523z" fill="#34374C"/><path d="M83.513 23.35H82.01l-1.518-5.413h-.115l-1.511 5.412h-1.49l-2.026-7.347h1.471l1.315 5.606h.11l1.51-5.606h1.39l1.511 5.606h.115l1.31-5.606h1.45l-2.018 7.347zM87.235 16.002h1.395v1.167h.108c.357-.816 1.087-1.309 2.193-1.309 1.64 0 2.544.984 2.544 2.733v4.756h-1.451v-4.392c0-1.181-.512-1.769-1.586-1.769-1.072 0-1.754.716-1.754 1.862v4.3h-1.449v-7.348zM95.784 23.35h1.45V13.133h-1.45v10.215z" fill="#34374C"/><path fill-rule="evenodd" clip-rule="evenodd" d="M102.717 15.86c-2.145 0-3.467 1.444-3.467 3.812 0 2.382 1.315 3.82 3.467 3.82 2.146 0 3.462-1.438 3.462-3.82 0-2.368-1.323-3.812-3.462-3.812zm0 1.29c1.255 0 1.971.93 1.971 2.522 0 1.598-.716 2.53-1.971 2.53-1.261 0-1.969-.925-1.969-2.53 0-1.593.708-2.523 1.969-2.523zM110.439 19.078c-1.749.108-2.733.871-2.733 2.193 0 1.342 1.033 2.199 2.449 2.199.966 0 1.769-.418 2.206-1.153h.116v1.032h1.395v-5.02c0-1.552-1.038-2.469-2.88-2.469-1.667 0-2.854.81-3.002 2.07h1.403c.162-.518.723-.815 1.532-.815.991 0 1.503.439 1.503 1.214v.635l-1.989.114zm1.989.95v.616c0 .91-.809 1.605-1.902 1.605-.789 0-1.361-.385-1.361-1.046 0-.647.458-.991 1.47-1.06l1.793-.114zM118.828 15.88c-1.855 0-3.05 1.47-3.05 3.792 0 2.328 1.182 3.798 3.05 3.798 1.011 0 1.87-.478 2.307-1.282h.116v1.161h1.388V13.134h-1.449v4.035h-.109c-.398-.81-1.247-1.289-2.253-1.289zm.411 6.288c-1.229 0-1.963-.938-1.963-2.497 0-1.545.742-2.49 1.963-2.49 1.214 0 1.977.966 1.977 2.497 0 1.538-.755 2.49-1.977 2.49zM132.105 15.86c-2.144 0-3.467 1.444-3.467 3.812 0 2.382 1.316 3.82 3.467 3.82 2.145 0 3.462-1.438 3.462-3.82 0-2.368-1.323-3.812-3.462-3.812zm0 1.29c1.254 0 1.971.93 1.971 2.522 0 1.598-.717 2.53-1.971 2.53-1.261 0-1.97-.925-1.97-2.53 0-1.593.709-2.523 1.97-2.523z" fill="#34374C"/><path d="M137.514 16.002h1.395v1.167h.107c.358-.816 1.087-1.309 2.193-1.309 1.64 0 2.544.984 2.544 2.733v4.756h-1.451v-4.392c0-1.181-.512-1.769-1.586-1.769-1.071 0-1.753.716-1.753 1.862v4.3h-1.449v-7.348zM151.945 14.173v1.862h1.593v1.221h-1.593v3.778c0 .77.318 1.108 1.039 1.108.224 0 .351-.015.554-.035v1.208a4.68 4.68 0 0 1-.79.075c-1.612 0-2.253-.568-2.253-1.984v-4.15h-1.167v-1.221h1.167v-1.862h1.45zM155.519 13.134h1.437v4.048h.114c.356-.823 1.133-1.315 2.24-1.315 1.565 0 2.531.992 2.531 2.74v4.742h-1.452v-4.386c0-1.173-.547-1.768-1.571-1.768-1.188 0-1.851.75-1.851 1.863v4.291h-1.448V13.134z" fill="#34374C"/><path fill-rule="evenodd" clip-rule="evenodd" d="M167.11 23.491c1.679 0 2.854-.809 3.184-2.126h-1.395c-.27.573-.87.891-1.749.891-1.159 0-1.908-.817-1.957-2.105v-.081h5.189v-.506c0-2.307-1.234-3.704-3.278-3.704-2.071 0-3.387 1.49-3.387 3.838 0 2.35 1.289 3.793 3.393 3.793zm1.795-4.493h-3.712c.082-1.147.831-1.904 1.903-1.904 1.073 0 1.775.75 1.809 1.904z" fill="#34374C"/></svg>