<svg xmlns="http://www.w3.org/2000/svg" xmlns:xlink="http://www.w3.org/1999/xlink" viewBox="0 0 216 153"><defs><path id="a" d="M13.323 25.952c6.899 0 12.49-5.592 12.49-12.49 0-6.898-5.591-12.49-12.49-12.49C6.425.971.833 6.562.833 13.461c0 6.898 5.592 12.49 12.49 12.49z"/><filter id="b" width="140%" height="140%" x="-20%" y="-20%" filterUnits="objectBoundingBox"><feOffset dx="-10" in="SourceAlpha" result="shadowOffsetInner1"/><feComposite in="shadowOffsetInner1" in2="SourceAlpha" k2="-1" k3="1" operator="arithmetic" result="shadowInnerInner1"/><feColorMatrix in="shadowInnerInner1" values="0 0 0 0 0.874509804 0 0 0 0 0.88627451 0 0 0 0 0.898039216 0 0 0 1 0"/></filter><path id="c" d="M12.591 25.708c6.898 0 12.49-5.592 12.49-12.49 0-6.899-5.592-12.49-12.49-12.49C5.693.727.101 6.318.101 13.217c0 6.898 5.592 12.49 12.49 12.49z"/><filter id="d" width="140%" height="140%" x="-20%" y="-20%" filterUnits="objectBoundingBox"><feOffset dx="-10" in="SourceAlpha" result="shadowOffsetInner1"/><feComposite in="shadowOffsetInner1" in2="SourceAlpha" k2="-1" k3="1" operator="arithmetic" result="shadowInnerInner1"/><feColorMatrix in="shadowInnerInner1" values="0 0 0 0 0.874509804 0 0 0 0 0.88627451 0 0 0 0 0.898039216 0 0 0 1 0"/></filter><path id="e" d="M33.366 24.634v5.528l-4.23 3.465-3.37.038C11.992 33.665.753 22.49.753 8.795v-5.15C.753 1.783 2.185.358 4.058.358h5.18c13.773 0 24.128 10.58 24.128 24.276z"/><filter id="f" width="136.8%" height="136%" x="-18.4%" y="-18%" filterUnits="objectBoundingBox"><feOffset dx="-12" in="SourceAlpha" result="shadowOffsetInner1"/><feComposite in="shadowOffsetInner1" in2="SourceAlpha" k2="-1" k3="1" operator="arithmetic" result="shadowInnerInner1"/><feColorMatrix in="shadowInnerInner1" values="0 0 0 0 0.874509804 0 0 0 0 0.88627451 0 0 0 0 0.898039216 0 0 0 1 0"/></filter><path id="g" d="M27.978 30.951V9.038c-.341-.328-.569-.657-.91-.986C22.29 3.452 15.92.931 9.208.931H3.636C1.7.93.222 2.355.222 4.218v5.15c0 13.694 11.603 24.87 25.822 24.87h1.934V30.951z"/><filter id="h" width="143.2%" height="136%" x="-21.6%" y="-18%" filterUnits="objectBoundingBox"><feOffset dx="-12" in="SourceAlpha" result="shadowOffsetInner1"/><feComposite in="shadowOffsetInner1" in2="SourceAlpha" k2="-1" k3="1" operator="arithmetic" result="shadowInnerInner1"/><feColorMatrix in="shadowInnerInner1" values="0 0 0 0 0.870588235 0 0 0 0 0.882352941 0 0 0 0 0.898039216 0 0 0 1 0"/></filter><path id="i" d="M.202 25.515v8.437h1.934c14.22 0 25.822-11.176 25.822-24.871V3.93c0-1.862-1.478-3.287-3.412-3.287h-5.347C11.692.644 4.98 3.712.203 8.753V25.515z"/><filter id="j" width="143.2%" height="136%" x="-21.6%" y="-18%" filterUnits="objectBoundingBox"><feOffset dx="-12" in="SourceAlpha" result="shadowOffsetInner1"/><feComposite in="shadowOffsetInner1" in2="SourceAlpha" k2="-1" k3="1" operator="arithmetic" result="shadowInnerInner1"/><feColorMatrix in="shadowInnerInner1" values="0 0 0 0 0.874509804 0 0 0 0 0.88627451 0 0 0 0 0.898039216 0 0 0 1 0"/></filter></defs><g fill="none" fill-rule="evenodd"><path fill="#F6F8FA" fill-rule="nonzero" d="M21.3 6.4h154.8c7.8 0 14.1 6.3 14.1 14.1s-6.3 14.1-14.1 14.1H21.3c-7.8 0-14.1-6.3-14.1-14.1S13.5 6.4 21.3 6.4z"/><path fill="#F6F8FA" fill-rule="nonzero" d="M46.9 34.5h154.8c7.8 0 14.1 6.3 14.1 14.1s-6.3 14.1-14.1 14.1H46.9c-7.8 0-14.1-6.3-14.1-14.1.1-7.8 6.4-14.1 14.1-14.1z"/><path fill="#F6F8FA" fill-rule="nonzero" d="M27.2 62.7H182c7.8 0 14.1 6.3 14.1 14.1s-6.3 14.1-14.1 14.1H27.2c-7.8 0-14.1-6.3-14.1-14.1s6.3-14.1 14.1-14.1z"/><path fill="#F6F8FA" fill-rule="nonzero" d="M54.2 90.8c-7.8 0-14.1 6.3-14.1 14.1S46.4 119 54.2 119h105.6c-7.8 0-14.1-6.3-14.1-14.1s6.3-14.1 14.1-14.1H54.2z"/><path fill="#F6F8FA" fill-rule="nonzero" d="M14.1 118.9h154.8c7.8 0 14.1 6.3 14.1 14.1s-6.3 14.1-14.1 14.1H14.1C6.3 147.1 0 140.8 0 133s6.3-14.1 14.1-14.1z"/><path fill="#004DFF" fill-rule="nonzero" d="M131.5 24.1c1 0 2-.6 2.5-1.5s.5-2 0-2.9c-.5-.9-1.5-1.5-2.5-1.5s-2 .6-2.5 1.5-.5 2 0 2.9c.5.9 1.5 1.5 2.5 1.5zm49.8 81.8c1.6 0 2.9-1.3 2.9-2.9 0-1.6-1.3-2.9-2.9-2.9-1.6 0-2.9 1.3-2.9 2.9 0 1.6 1.3 2.9 2.9 2.9z"/><path fill="#004DFF" fill-rule="nonzero" d="M163.7 5.8c1.6 0 2.9-1.3 2.9-2.9 0-1.6-1.3-2.9-2.9-2.9-1.6 0-2.9 1.3-2.9 2.9 0 1.6 1.3 2.9 2.9 2.9z" opacity=".6"/><path fill="#004DFF" fill-rule="nonzero" d="M21.8 55.2c2 0 3.6-1.6 3.6-3.6S23.8 48 21.8 48s-3.6 1.6-3.6 3.6 1.6 3.6 3.6 3.6zm6.8 54c1.7 0 3.1-1.4 3.1-3.1 0-1.7-1.4-3.1-3.1-3.1-1.7 0-3.1 1.4-3.1 3.1-.1 1.7 1.3 3.1 3.1 3.1zm174.9-24.3h1.3c.7 0 1.3-.6 1.3-1.3 0-.7-.6-1.3-1.3-1.3h-1.3V81c0-.5-.2-.9-.6-1.2-.4-.2-.9-.2-1.3 0s-.7.7-.6 1.2v1.3h-1.3c-.7 0-1.3.6-1.3 1.3 0 .7.6 1.3 1.3 1.3h1.3v1.3c0 .7.6 1.3 1.3 1.3.7 0 1.3-.6 1.3-1.3v-1.3h-.1z" opacity=".12"/><path fill="#004DFF" fill-rule="nonzero" d="M79.6 150.5h1.2c.7 0 1.2-.6 1.2-1.2s-.6-1.2-1.2-1.2h-1.2v-1.2c0-.7-.6-1.2-1.2-1.2-.7 0-1.2.6-1.2 1.2v1.2H76c-.7 0-1.2.6-1.2 1.2s.6 1.2 1.2 1.2h1.2v1.2c0 .7.6 1.2 1.2 1.2.7 0 1.2-.6 1.2-1.2v-1.2z" opacity=".6"/><path fill="#004DFF" fill-rule="nonzero" d="M46.7 23.9h1.2c.7 0 1.2-.6 1.2-1.2s-.6-1.2-1.2-1.2h-1.2v-1.2c0-.7-.6-1.2-1.2-1.2s-1.2.5-1.2 1.2v1.2H43c-.7 0-1.2.6-1.2 1.2s.6 1.2 1.2 1.2h1.2v1.2c0 .7.6 1.2 1.2 1.2s1.2-.5 1.2-1.2v-1.2h.1zm114.4 114.7h1.1c.6 0 1.1-.5 1.1-1.1 0-.6-.5-1.1-1.1-1.1h-1.1v-1.1c0-.6-.5-1.1-1.1-1.1-.6 0-1.1.5-1.1 1.1v1.1h-1.1c-.6 0-1.1.5-1.1 1.1 0 .6.5 1.1 1.1 1.1h1.1v1.1c0 .6.5 1.1 1.1 1.1.6 0 1.1-.5 1.1-1.1v-1.1z"/><g transform="translate(48 29)"><g transform="translate(0 32)"><use fill="#FFBF2F" xlink:href="#a"/><use fill="#000" filter="url(#b)" xlink:href="#a"/></g><path stroke="#34374C" stroke-width="5" d="M23.314 45.462c0 5.517-4.473 9.99-9.99 9.99-5.518 0-9.99-4.473-9.99-9.99 0-5.518 4.472-9.99 9.99-9.99 5.517 0 9.99 4.472 9.99 9.99z"/><path fill="#34374C" d="M14.023 41.381c.4 0 .814.052 1.244.156.429.104.806.285 1.132.544l-1.066 1.299a1.651 1.651 0 0 0-.61-.339 3.024 3.024 0 0 0-.7-.127v1.765l1.066.31c.488.149.879.391 1.171.728.292.337.439.764.439 1.282 0 .392-.07.737-.211 1.033-.14.296-.333.547-.578.755a2.77 2.77 0 0 1-.854.488 4.28 4.28 0 0 1-1.033.233v.777h-.733v-.777c-.488 0-.975-.066-1.46-.2a3.13 3.13 0 0 1-1.282-.699l1.177-1.321c.192.237.425.405.7.505.273.1.562.161.865.183V46.1l-.81-.244c-.563-.178-.99-.428-1.283-.75-.292-.322-.438-.764-.438-1.327 0-.347.07-.662.21-.943.142-.281.328-.522.562-.722.233-.2.503-.362.81-.488.307-.126.624-.208.95-.245v-.777h.732v.777zm-.733 1.566a1.552 1.552 0 0 0-.555.233c-.163.11-.244.285-.244.522 0 .17.033.303.1.4a.8.8 0 0 0 .233.227.93.93 0 0 0 .266.117c.09.022.156.04.2.055v-1.554zm.733 5.007a2.45 2.45 0 0 0 .339-.094c.114-.041.216-.095.305-.161a.83.83 0 0 0 .216-.24.625.625 0 0 0 .084-.327.666.666 0 0 0-.061-.3.63.63 0 0 0-.161-.205 1.039 1.039 0 0 0-.233-.144 4.785 4.785 0 0 0-.278-.117l-.211-.077v1.665z"/><g transform="translate(84 60)"><use fill="#FFBF2F" xlink:href="#c"/><use fill="#000" filter="url(#d)" xlink:href="#c"/></g><path stroke="#34374C" stroke-width="5" d="M106.581 73.217c0 5.518-4.472 9.99-9.99 9.99-5.517 0-9.99-4.472-9.99-9.99 0-5.517 4.473-9.99 9.99-9.99 5.518 0 9.99 4.473 9.99 9.99z"/><path fill="#34374C" d="M97.291 69.137c.399 0 .814.052 1.243.156.429.103.807.285 1.132.544l-1.065 1.299a1.659 1.659 0 0 0-.611-.339 3.024 3.024 0 0 0-.699-.128v1.766l1.065.31c.489.149.879.391 1.172.728.292.337.438.764.438 1.282 0 .392-.07.737-.211 1.033a2.23 2.23 0 0 1-.577.755c-.244.207-.529.37-.855.488-.326.118-.67.196-1.032.233v.777h-.733v-.777c-.489 0-.975-.066-1.46-.2a3.128 3.128 0 0 1-1.282-.7l1.176-1.32c.193.237.426.405.7.505.274.1.562.16.866.183v-1.876l-.811-.244c-.562-.178-.99-.428-1.282-.75-.292-.322-.439-.764-.439-1.327 0-.347.071-.662.211-.943.141-.282.328-.522.561-.722.233-.2.503-.363.811-.489.307-.125.623-.207.949-.244v-.777h.733v.777zm-.733 1.566a1.554 1.554 0 0 0-.555.233c-.163.11-.244.285-.244.522 0 .17.033.303.099.4a.804.804 0 0 0 .234.227.912.912 0 0 0 .266.116c.089.023.155.041.2.056v-1.554zm.733 5.007c.111-.022.224-.054.338-.094.115-.041.217-.095.306-.162a.833.833 0 0 0 .216-.238.62.62 0 0 0 .083-.328.616.616 0 0 0-.222-.505 1.014 1.014 0 0 0-.233-.144 4.99 4.99 0 0 0-.277-.117l-.211-.078v1.666z"/><g fill-rule="nonzero" transform="translate(32)"><use fill="#00D695" xlink:href="#e"/><use fill="#000" filter="url(#f)" xlink:href="#e"/></g><path stroke="#34374C" stroke-width="5.714" d="M62.509 24.634v4.175l-2.407 1.973-2.352.026C45.546 30.8 35.61 20.891 35.61 8.794v-5.15c0-.178.06-.268.108-.315.047-.047.146-.114.34-.114h5.18c12.166 0 21.27 9.273 21.27 21.419z"/><g fill-rule="nonzero" transform="translate(37 48)"><use fill="#00D695" xlink:href="#g"/><use fill="#000" filter="url(#h)" xlink:href="#g"/></g><path stroke="#34374C" stroke-width="5.714" d="M62.12 78.951v.412c-12.31-.469-22.04-10.27-22.04-21.996v-5.15c0-.148.049-.229.105-.283.061-.059.196-.146.45-.146H46.209c5.99 0 11.645 2.246 15.877 6.322v.001c.012.01.023.022.035.034v20.806z"/><g><g fill-rule="nonzero" transform="translate(60 24)"><use fill="#00D695" xlink:href="#i"/><use fill="#000" filter="url(#j)" xlink:href="#i"/></g><path stroke="#34374C" stroke-width="5.714" d="M63.06 55.077V33.93c4.185-4.013 9.835-6.428 16.14-6.428h5.346c.253 0 .388.087.45.145.056.055.105.135.105.284v5.15c0 11.725-9.731 21.527-22.041 21.996z"/></g><rect width="5.551" height="68.002" x="59.815" y="25.338" fill="#34374C" fill-rule="nonzero" rx="2.776"/><path fill="#34374C" d="M44.549 95.81a2.776 2.776 0 0 1 0-5.551h36.083a2.776 2.776 0 0 1 0 5.55H44.549z"/></g></g></svg>