<svg id="Layer_1" xmlns="http://www.w3.org/2000/svg" viewBox="0 0 215.8 153" enable-background="new 0 0 215.8 153"><style>.st1{opacity:.5;enable-background:new}.st1,.st3,.st6{display:none;fill:#004dff}.st6{fill:none;stroke:#34374c;stroke-width:5}.st10{fill:#f6f8fa}.st11,.st12{fill:#004dff}.st12{opacity:.6;enable-background:new}.st16{fill:#fff}</style><path class="st1" d="M173.8 19.9c1.6 0 2.9-1.3 2.9-2.9s-1.3-2.9-2.9-2.9c-1.6 0-2.9 1.3-2.9 2.9s1.3 2.9 2.9 2.9z"/><path class="st3" d="M97.1 153c1.6 0 3-1.3 3-3 0-1.6-1.3-3-3-3-1.6 0-3 1.3-3 3s1.4 3 3 3zM63.6 35.3h1.3c.7 0 1.3-.6 1.3-1.3s-.6-1.3-1.3-1.3h-1.3v-1.3c0-.7-.6-1.3-1.3-1.3s-1.2.6-1.3 1.3v1.3h-1.3c-.7 0-1.3.6-1.3 1.3s.6 1.3 1.3 1.3H61v1.3c0 .7.6 1.3 1.3 1.3s1.3-.6 1.3-1.3v-1.3z"/><path class="st1" d="M57.2 128.5l1.4.1c.8.1 1.3-.5 1.2-1.2-.1-.8-.7-1.4-1.5-1.5l-1.4-.1-.1-1.4c-.1-.8-.7-1.4-1.5-1.5s-1.3.5-1.2 1.2l.1 1.4-1.4-.1c-.8-.1-1.3.5-1.2 1.2.1.8.7 1.4 1.5 1.5l1.4.1.1 1.4c.1.8.7 1.4 1.5 1.5s1.3-.5 1.2-1.2l-.1-1.4z"/><path class="st3" d="M201.1 50.5h1.2c.7 0 1.2-.5 1.3-1.2s-.5-1.2-1.2-1.3h-1.3v-1.2c0-.7-.6-1.2-1.2-1.2s-1.2.6-1.2 1.2V48h-1.2c-.7 0-1.2.5-1.3 1.2s.5 1.2 1.2 1.3h1.3v1.2c0 .7.6 1.2 1.2 1.2s1.2-.6 1.2-1.2v-1.2zm-40 89.8h1.1c.6 0 1.1-.5 1.1-1.1s-.5-1.1-1.1-1.1h-1.1V137c0-.6-.5-1.1-1.2-1.1-.6 0-1 .5-1.1 1.1v1.1h-1.1c-.6 0-1.1.5-1.1 1.1s.5 1.1 1.1 1.1h1.1v1.1c0 .6.5 1.1 1.1 1.1s1.1-.5 1.1-1.1l.1-1.1z"/><path class="st6" d="M144.8 45.4c.5.2.7.6.7 1.1v27.2c0 20.6-12.3 39.2-31.5 47.3l-5.4 2.2h-.2c-.5.1-.6.1-.7.1s-.3 0-.7-.1l-4.7-2c-18.9-8.2-31-26.8-31-47.4V46.5c0-.5.3-.9.7-1.1L107.2 26c.4-.2.9-.2 1.3 0l36.3 19.4z"/><path class="st6" d="M139.5 49.9c.3.1.4.4.4.7v23.3c0 17.6-10.5 33.4-26.8 40.2l-4.6 1.9h-.2c-.4.1-.4.1-.5.1s-.2 0-.5-.1l-4-1.7c-16.1-7-26.4-22.8-26.4-40.4V50.5c0-.3.1-.5.4-.6l30.2-16.6c.2-.1.5-.1.8 0 .1 0 31.2 16.6 31.2 16.6z"/><path class="st3" d="M108.4 89.5c8.4 0 15.2-6.8 15.2-15.2s-6.8-15.2-15.2-15.2-15.2 6.8-15.2 15.2 6.8 15.2 15.2 15.2z"/><path class="st6" d="M121.1 74.3c0 7-5.7 12.7-12.7 12.7s-12.7-5.7-12.7-12.7 5.7-12.7 12.7-12.7 12.7 5.7 12.7 12.7z"/><g id="Page-1"><g id="easy"><path id="Rectangle" class="st10" d="M21.3 6.4h154.8c7.8 0 14.1 6.3 14.1 14.1s-6.3 14.1-14.1 14.1H21.3c-7.8 0-14.1-6.3-14.1-14.1S13.5 6.4 21.3 6.4z"/><path id="Rectangle_1_" class="st10" d="M46.9 34.5h154.8c7.8 0 14.1 6.3 14.1 14.1s-6.3 14.1-14.1 14.1H46.9c-7.8 0-14.1-6.3-14.1-14.1.1-7.8 6.4-14.1 14.1-14.1z"/><path id="Rectangle_2_" class="st10" d="M27.2 62.7H182c7.8 0 14.1 6.3 14.1 14.1s-6.3 14.1-14.1 14.1H27.2c-7.8 0-14.1-6.3-14.1-14.1s6.3-14.1 14.1-14.1z"/><path id="Path" class="st10" d="M54.2 90.8c-7.8 0-14.1 6.3-14.1 14.1S46.4 119 54.2 119h105.6c-7.8 0-14.1-6.3-14.1-14.1s6.3-14.1 14.1-14.1H54.2z"/><path id="Rectangle_3_" class="st10" d="M14.1 118.9h154.8c7.8 0 14.1 6.3 14.1 14.1s-6.3 14.1-14.1 14.1H14.1C6.3 147.1 0 140.8 0 133s6.3-14.1 14.1-14.1z"/><path id="Shape" class="st11" d="M131.5 24.1c1 0 2-.6 2.5-1.5s.5-2 0-2.9-1.5-1.5-2.5-1.5-2 .6-2.5 1.5-.5 2 0 2.9 1.5 1.5 2.5 1.5zm49.8 81.8c1.6 0 2.9-1.3 2.9-2.9s-1.3-2.9-2.9-2.9c-1.6 0-2.9 1.3-2.9 2.9s1.3 2.9 2.9 2.9z"/><path id="Path_1_" class="st12" d="M163.7 5.8c1.6 0 2.9-1.3 2.9-2.9S165.3 0 163.7 0c-1.6 0-2.9 1.3-2.9 2.9s1.3 2.9 2.9 2.9z"/><path id="Shape_1_" d="M21.8 55.2c2 0 3.6-1.6 3.6-3.6S23.8 48 21.8 48s-3.6 1.6-3.6 3.6 1.6 3.6 3.6 3.6zm6.8 54c1.7 0 3.1-1.4 3.1-3.1 0-1.7-1.4-3.1-3.1-3.1s-3.1 1.4-3.1 3.1c-.1 1.7 1.3 3.1 3.1 3.1zm174.9-24.3h1.3c.7 0 1.3-.6 1.3-1.3s-.6-1.3-1.3-1.3h-1.3V81c0-.5-.2-.9-.6-1.2-.4-.2-.9-.2-1.3 0s-.7.7-.6 1.2v1.3h-1.3c-.7 0-1.3.6-1.3 1.3s.6 1.3 1.3 1.3h1.3v1.3c0 .7.6 1.3 1.3 1.3.7 0 1.3-.6 1.3-1.3v-1.3z" opacity=".12" fill="#004dff" enable-background="new"/><path id="Path_2_" class="st12" d="M79.6 150.5h1.2c.7 0 1.2-.6 1.2-1.2s-.6-1.2-1.2-1.2h-1.2v-1.2c0-.7-.6-1.2-1.2-1.2-.7 0-1.2.6-1.2 1.2v1.2H76c-.7 0-1.2.6-1.2 1.2s.6 1.2 1.2 1.2h1.2v1.2c0 .7.6 1.2 1.2 1.2.7 0 1.2-.6 1.2-1.2v-1.2z"/><path id="Shape_2_" class="st11" d="M46.7 23.9h1.2c.7 0 1.2-.6 1.2-1.2s-.6-1.2-1.2-1.2h-1.2v-1.2c0-.7-.6-1.2-1.2-1.2s-1.2.5-1.2 1.2v1.2H43c-.7 0-1.2.6-1.2 1.2s.6 1.2 1.2 1.2h1.2v1.2c0 .7.6 1.2 1.2 1.2s1.2-.5 1.2-1.2v-1.2zm114.4 114.7h1.1c.6 0 1.1-.5 1.1-1.1s-.5-1.1-1.1-1.1h-1.1v-1.1c0-.6-.5-1.1-1.1-1.1-.6 0-1.1.5-1.1 1.1v1.1h-1.1c-.6 0-1.1.5-1.1 1.1s.5 1.1 1.1 1.1h1.1v1.1c0 .6.5 1.1 1.1 1.1.6 0 1.1-.5 1.1-1.1v-1.1z"/><g id="Group" transform="translate(72 39)"><g id="a-link"><path id="a" d="M36.4 68.6c20.5 0 37-16.6 37-37s-16.6-37-37-37c-20.5 0-37 16.6-37 37s16.6 37 37 37z" fill="#dfe2e5"/></g><g id="Clipped"><defs><filter id="Adobe_OpacityMaskFilter" filterUnits="userSpaceOnUse" x="-10.9" y="-5.5" width="74.1" height="74.1"><feColorMatrix values="1 0 0 0 0 0 1 0 0 0 0 0 1 0 0 0 0 0 1 0"/></filter></defs><mask maskUnits="userSpaceOnUse" x="-10.9" y="-5.5" width="74.1" height="74.1" id="mask-2_1_"><g filter="url(#Adobe_OpacityMaskFilter)"><path id="path-1_1_" class="st16" d="M36.4 68.6c20.5 0 37-16.6 37-37s-16.6-37-37-37c-20.5 0-37 16.6-37 37s16.6 37 37 37z"/></g></mask><path id="Path_3_" d="M26.1 68.6c20.5 0 37-16.6 37-37 0-20.5-16.6-37-37-37s-37 16.6-37 37 16.6 37 37 37z" mask="url(#mask-2_1_)" fill="#fff"/></g><g id="Clipped_1_"><defs><filter id="Adobe_OpacityMaskFilter_1_" filterUnits="userSpaceOnUse" x="-.6" y="-5.5" width="74.1" height="74.1"><feColorMatrix values="1 0 0 0 0 0 1 0 0 0 0 0 1 0 0 0 0 0 1 0"/></filter></defs><mask maskUnits="userSpaceOnUse" x="-.6" y="-5.5" width="74.1" height="74.1" id="mask-4_1_"><g filter="url(#Adobe_OpacityMaskFilter_1_)"><path id="path-3_1_" class="st16" d="M36.4 68.6c20.5 0 37-16.6 37-37s-16.6-37-37-37c-20.5 0-37 16.6-37 37s16.6 37 37 37z"/></g></mask><path id="Path_4_" d="M71 31.5C71 50.6 55.5 66 36.5 66S1.9 50.6 1.9 31.5 17.4-3 36.4-3 71 12.4 71 31.5z" mask="url(#mask-4_1_)" fill="none" stroke="#202050" stroke-width="5"/></g></g><path id="Path_5_" fill="none" stroke="#00d695" stroke-width="7.059" stroke-linecap="round" stroke-linejoin="round" d="M97.8 76.5l8.2 4.6 11.7-18.5"/></g></g></svg>