<svg id="Layer_1" xmlns="http://www.w3.org/2000/svg" viewBox="0 0 215.8 153"><style>.st0{fill:#f6f8fa}.st1{opacity:.1;enable-background:new}.st1,.st2{fill:#004dff}.st4{fill:#fff}.st7{fill:#fe2163}</style><g id="Page-1"><g id="free"><path id="Rectangle" class="st0" d="M47.5 8.8h154.3c7.7 0 14 6.3 14 14s-6.3 14-14 14H47.5c-7.7 0-14-6.3-14-14-.1-7.8 6.2-14 14-14z"/><path id="Path" class="st0" d="M27.1 36.8c-7.7 0-14 6.3-14 14s6.3 14 14 14h112.1c-7.7 0-14-6.3-14-14s6.3-14 14-14H27.1z"/><path id="Rectangle_1_" class="st0" d="M14 64.8h154.3c7.7 0 14 6.3 14 14s-6.3 14-14 14H14c-7.7 0-14-6.3-14-14s6.3-14 14-14z"/><path id="Path_1_" class="st0" d="M166.3 92.8c-7.7 0-14 6.3-14 14s6.3 14 14 14h49.1H61.1c-7.7 0-14-6.3-14-14s6.3-14 14-14h105.2z"/><path id="Rectangle_2_" class="st0" d="M40.2 120.8h154.3c7.7 0 14 6.3 14 14s-6.3 14-14 14H40.2c-7.7 0-14-6.3-14-14s6.3-14 14-14z"/><path id="Path_2_" class="st1" d="M191.7 6.7c1.6 0 2.9-1.3 2.9-2.9 0-1.6-1.3-2.9-2.9-2.9-1.6 0-2.9 1.3-2.9 2.9 0 1.6 1.3 2.9 2.9 2.9z"/><path id="Path_3_" class="st1" d="M205.8 95c1.6 0 2.9-1.3 2.9-2.9s-1.3-2.9-2.9-2.9c-1.6 0-2.9 1.3-2.9 2.9s1.3 2.9 2.9 2.9z"/><path id="Path_4_" class="st2" d="M113.2 5.8c1.6 0 2.9-1.3 2.9-2.9 0-1.6-1.3-2.9-2.9-2.9-1.6 0-2.9 1.3-2.9 2.9 0 1.6 1.3 2.9 2.9 2.9z"/><path id="Path_5_" class="st2" d="M19.2 82.8c1.6 0 3-1.3 3-3 0-1.6-1.3-3-3-3-1.6 0-3 1.3-3 3s1.4 3 3 3z"/><path id="Path_6_" class="st1" d="M99.9 152.8c1.7 0 3.1-1.4 3.1-3.1 0-1.7-1.4-3.1-3.1-3.1s-3.1 1.4-3.1 3.1c0 1.7 1.4 3.1 3.1 3.1z"/><path id="Path_7_" d="M35.2 16.1h1.3c.7 0 1.3-.6 1.3-1.3 0-.7-.6-1.3-1.3-1.3h-1.3v-1.3c0-.7-.6-1.3-1.3-1.3-.7 0-1.3.6-1.3 1.3v1.3h-1.3c-.7 0-1.3.6-1.3 1.3 0 .7.6 1.3 1.3 1.3h1.3v1.3c0 .7.6 1.3 1.3 1.3.7 0 1.3-.6 1.3-1.3v-1.3z" opacity=".5" fill="#004dff"/><path id="Path_8_" class="st2" d="M61.4 129.4h1.2c.7 0 1.2-.6 1.2-1.2 0-.7-.6-1.2-1.2-1.2h-1.2v-1.2c0-.7-.6-1.2-1.2-1.2-.7 0-1.2.6-1.2 1.2v1.2h-1.2c-.7 0-1.2.6-1.2 1.2 0 .7.6 1.2 1.2 1.2H59v1.2c0 .7.6 1.2 1.2 1.2.7 0 1.2-.6 1.2-1.2v-1.2z"/><path id="Path_9_" class="st2" d="M192.6 57.7h1.2c.7 0 1.2-.6 1.2-1.2 0-.7-.6-1.2-1.2-1.2h-1.2V54c0-.7-.6-1.2-1.2-1.2-.7 0-1.2.6-1.2 1.2v1.2H189c-.7 0-1.2.6-1.2 1.2 0 .7.6 1.2 1.2 1.2h1.2v1.2c0 .7.6 1.2 1.2 1.2s1.2-.6 1.2-1.2v-1.1z"/><path id="Path_10_" class="st2" d="M185.6 140.9h1.1c.6 0 1.1-.5 1.1-1.1s-.5-1.1-1.1-1.1h-1.1v-1.1c0-.6-.5-1.1-1.1-1.1s-1.1.5-1.1 1.1v1.1h-1.1c-.6 0-1.1.5-1.1 1.1s.5 1.1 1.1 1.1h1.1v1.1c0 .6.5 1.1 1.1 1.1s1.1-.5 1.1-1.1v-1.1z"/><path id="Path_11_" class="st4" d="M113.3 23.2c2.8-2.8 6.5-4.4 10.4-4.7l14.6-.9c4.6-.3 9 1.4 12.3 4.7l11.1 11.1c3.4 3.4 5.1 8.1 4.6 12.8L165 60c-.4 3.7-2 7.2-4.6 9.8L109.1 121c-6.2 6.2-16.4 6.2-22.6 0L62.3 96.9c-6.2-6.2-6.2-16.4 0-22.6l51-51.1z"/><path id="Path_12_" d="M123.9 21.1l14.6-.9c3.8-.2 7.6 1.2 10.3 3.9l11.1 11.1c2.8 2.8 4.3 6.8 3.9 10.8l-1.3 13.7c-.3 3.1-1.7 6-3.9 8.3l-51.3 51.3c-5.3 5.3-13.8 5.3-19.1 0L64.1 95.1c-5.3-5.3-5.3-13.8 0-19.1l51-51c2.4-2.3 5.5-3.7 8.8-3.9z" fill="none" stroke="#34374c" stroke-width="5"/><path id="Path_13_" class="st4" d="M125.4 58c5.9 5.9 15.6 5.9 21.5 0s5.9-15.6 0-21.5-15.6-5.9-21.5 0c-6 5.9-6 15.6 0 21.5z"/><path id="Path_14_" d="M145.1 56.2c-5 5-13 5-18 0s-5-13 0-18 13-5 18 0 5 13.1 0 18z" fill="none" stroke="#dbdbfd" stroke-width="5"/><path id="Shape" class="st2" d="M91.5 91.9l1.8-1.8c-2-2.2-2.7-4.7-2.5-6.9l2.3-.3c-.1 1.7.3 3.8 1.7 5.6l5-5c-1.5-2.7-3-5.5-.5-8.1 2.1-2.1 5.4-1.8 8.1.5l1.9-1.9 1.3 1.3-1.9 1.9c1.6 1.9 2.2 3.9 2.2 6l-2.3.2c.1-1.7-.5-3.3-1.5-4.6l-4.5 4.5c1.5 2.7 3 5.8.3 8.5-1.9 1.9-5 2.6-8.4-.4l-1.8 1.8-1.2-1.3zm9.6-1.9c1.3-1.3.7-3.1-.3-4.9l-4.7 4.7c2.2 1.8 4 1.2 5 .2zm.2-12.9c-1.1 1.1-.5 2.7.5 4.5l4.2-4.2c-1.6-1.3-3.5-1.5-4.7-.3z"/><path id="Shape_1_" class="st2" d="M91.5 91.9l-.4-.4-.4.4.4.4.4-.4zm1.9-1.8l.4.4.3-.3-.3-.4-.4.3zm-2.6-6.9l-.1-.5-.4.1v.4h.5zm2.4-.3h.5l.1-.6-.6.1v.5zm1.7 5.6l-.4.3.3.4.4-.4-.3-.3zm5-5l.4.4.3-.3-.2-.3-.5.2zm7.6-7.6l-.3.4.4.3.3-.3-.4-.4zm1.9-1.9l.4-.4-.4-.4-.4.4.4.4zm1.2 1.3l.4.4.4-.4-.4-.4-.4.4zm-1.8 1.9l-.4-.4-.3.3.3.4.4-.3zm2.1 6v.5h.4v-.4l-.4-.1zm-2.2.2h-.5v.6l.6-.1-.1-.5zm-1.5-4.6l.4-.3-.3-.5-.4.4.3.4zm-4.5 4.4l-.4-.4-.3.3.2.3.5-.2zm-8.1 8.1l.3-.4-.4-.3-.2.4.3.3zm-1.8 1.9l-.4.4.4.4.4-.4-.4-.4zm8-8.1l.4-.2-.3-.6-.5.5.4.3zm-4.7 4.7l-.4-.4-.4.4.4.3.4-.3zm5.7-8.1l-.4.2.3.6.5-.5-.4-.3zm4.2-4.2l.4.4.4-.4-.4-.4-.4.4zM91.9 92.3l1.8-1.8-.7-.8-1.8 1.8.7.8zm1.8-2.6c-1.9-2.1-2.5-4.4-2.4-6.5l-1-.1c-.2 2.3.6 4.9 2.7 7.2l.7-.6zm-2.8-6l2.3-.3-.1-1-2.3.3.1 1zm1.8-.8c-.2 1.8.3 4 1.8 6l.8-.6c-1.4-1.7-1.8-3.6-1.6-5.2l-1-.2zm2.6 6l5-5-.7-.7-5 5 .7.7zm5-5.6c-.8-1.3-1.5-2.7-1.7-3.9-.2-1.2 0-2.4 1.2-3.5l-.7-.7c-1.4 1.4-1.7 2.9-1.4 4.4.3 1.5 1 2.9 1.8 4.2l.8-.5zm-.5-7.5c1.9-1.9 4.9-1.7 7.4.5l.7-.8c-2.8-2.4-6.4-2.8-8.7-.4l.6.7zm8.1.5l1.9-1.9-.7-.7-1.9 1.9.7.7zm1.1-1.9l1.3 1.3.7-.7-1.3-1.3-.7.7zm1.3.5l-1.9 1.9.7.7 1.9-1.9-.7-.7zm-1.9 2.6c1.5 1.8 2.1 3.7 2.1 5.6h1c0-2.2-.7-4.4-2.3-6.3l-.8.7zm2.5 5.2l-2.3.2.1 1 2.3-.2-.1-1zm-1.7.7c.1-1.9-.5-3.6-1.6-5l-.8.6c.9 1.2 1.4 2.7 1.4 4.3l1 .1zm-2.4-5l-4.5 4.5.7.7 4.5-4.5-.7-.7zm-4.5 5.1c.8 1.4 1.5 2.7 1.7 4.1.2 1.3-.1 2.6-1.3 3.8l.7.7c1.5-1.5 1.8-3.1 1.6-4.7-.2-1.5-1-3.1-1.8-4.4l-.9.5zm.4 7.8c-.8.9-2 1.4-3.3 1.5-1.3 0-2.8-.5-4.4-1.9l-.7.8c1.8 1.5 3.5 2.2 5.1 2.1 1.6-.1 2.9-.8 3.9-1.8l-.6-.7zm-8.4-.3l-1.8 1.8.7.7 1.8-1.8-.7-.7zm-1.2 1.8l-1.3-1.3-.7.7 1.3 1.3.7-.7zm8.4-2.4c.8-.8 1-1.7.9-2.7-.1-.9-.6-1.9-1.1-2.8l-.9.5c.5.9.9 1.8 1 2.5.1.7-.1 1.3-.6 1.8l.7.7zm-1-5.6l-4.7 4.7.7.7 4.7-4.7-.7-.7zm-4.7 5.4c1.2.9 2.3 1.3 3.3 1.3s1.8-.5 2.4-1l-.7-.7c-.4.4-1 .7-1.7.8-.7 0-1.6-.2-2.6-1l-.7.6zm5.2-13.4c-.7.7-.9 1.6-.7 2.4.1.9.6 1.8 1.1 2.7l.9-.5c-.5-.9-.9-1.7-1-2.4-.1-.6 0-1.1.4-1.6l-.7-.6zm1.1 5.2l4.2-4.2-.7-.7-4.2 4.2.7.7zm4.2-4.9c-1.7-1.5-3.9-1.8-5.3-.3l.7.7c.9-.9 2.5-.9 4 .4l.6-.8z"/><path id="Rectangle_3_" transform="rotate(-45.001 110.89 70.645)" class="st7" d="M106.1 42.2h9.5v56.9h-9.5z"/><path id="Rectangle_4_" class="st7" d="M152.3 105.4L79.9 33c-1.9-1.9-4.9-1.9-6.7 0-1.9 1.9-1.9 4.9 0 6.7l72.4 72.4c1.9 1.9 4.9 1.9 6.7 0 1.9-1.8 1.9-4.8 0-6.7z"/></g></g></svg>