<svg xmlns="http://www.w3.org/2000/svg" xmlns:xlink="http://www.w3.org/1999/xlink" viewBox="0 0 216 153"><defs><path id="a" d="M113.3 23.2c2.8-2.8 6.5-4.4 10.4-4.7l14.6-.9c4.6-.3 9 1.4 12.3 4.7l11.1 11.1c3.4 3.4 5.1 8.1 4.6 12.8L165 60c-.4 3.7-2 7.2-4.6 9.8L109.1 121c-6.2 6.2-16.4 6.2-22.6 0L62.3 96.9c-6.2-6.2-6.2-16.4 0-22.6l51-51.1z"/><filter id="b" width="107.4%" height="107.4%" x="-3.7%" y="-3.7%" filterUnits="objectBoundingBox"><feOffset dx="-8" dy="-4" in="SourceAlpha" result="shadowOffsetInner1"/><feComposite in="shadowOffsetInner1" in2="SourceAlpha" k2="-1" k3="1" operator="arithmetic" result="shadowInnerInner1"/><feColorMatrix in="shadowInnerInner1" values="0 0 0 0 0.874509804 0 0 0 0 0.88627451 0 0 0 0 0.898039216 0 0 0 1 0"/></filter></defs><g fill="none" fill-rule="evenodd"><path fill="#F6F8FA" fill-rule="nonzero" d="M47.5 8.8h154.3c7.7 0 14 6.3 14 14s-6.3 14-14 14H47.5c-7.7 0-14-6.3-14-14-.1-7.8 6.2-14 14-14zm-20.4 28c-7.7 0-14 6.3-14 14s6.3 14 14 14h112.1c-7.7 0-14-6.3-14-14s6.3-14 14-14H27.1zM14 64.8h154.3c7.7 0 14 6.3 14 14s-6.3 14-14 14H14c-7.7 0-14-6.3-14-14s6.3-14 14-14zm152.3 28c-7.7 0-14 6.3-14 14s6.3 14 14 14h49.1H61.1c-7.7 0-14-6.3-14-14s6.3-14 14-14h105.2zm-126.1 28h154.3c7.7 0 14 6.3 14 14s-6.3 14-14 14H40.2c-7.7 0-14-6.3-14-14s6.3-14 14-14z"/><path fill="#FE2163" d="M112.198 20.597c-27.394 0-49.6 22.207-49.6 49.6 0 27.394 22.206 49.6 49.6 49.6 27.393 0 49.6-22.206 49.6-49.6 0-27.393-22.207-49.6-49.6-49.6zM54 70.197C54 38.057 80.056 12 112.198 12c32.14 0 58.197 26.056 58.197 58.198 0 32.14-26.056 58.197-58.197 58.197C80.056 128.394 54 102.337 54 70.196z"/><path fill="#004DFF" fill-rule="nonzero" d="M191.7 6.7c1.6 0 2.9-1.3 2.9-2.9 0-1.6-1.3-2.9-2.9-2.9-1.6 0-2.9 1.3-2.9 2.9 0 1.6 1.3 2.9 2.9 2.9zM205.8 95c1.6 0 2.9-1.3 2.9-2.9 0-1.6-1.3-2.9-2.9-2.9-1.6 0-2.9 1.3-2.9 2.9 0 1.6 1.3 2.9 2.9 2.9z" opacity=".1"/><path fill="#004DFF" fill-rule="nonzero" d="M113.2 5.8c1.6 0 2.9-1.3 2.9-2.9 0-1.6-1.3-2.9-2.9-2.9-1.6 0-2.9 1.3-2.9 2.9 0 1.6 1.3 2.9 2.9 2.9zm-94 77c1.6 0 3-1.3 3-3 0-1.6-1.3-3-3-3-1.6 0-3 1.3-3 3s1.4 3 3 3z"/><path fill="#004DFF" fill-rule="nonzero" d="M99.9 152.8c1.7 0 3.1-1.4 3.1-3.1 0-1.7-1.4-3.1-3.1-3.1-1.7 0-3.1 1.4-3.1 3.1 0 1.7 1.4 3.1 3.1 3.1z" opacity=".1"/><path fill="#004DFF" fill-rule="nonzero" d="M35.2 16.1h1.3c.7 0 1.3-.6 1.3-1.3 0-.7-.6-1.3-1.3-1.3h-1.3v-1.3c0-.7-.6-1.3-1.3-1.3-.7 0-1.3.6-1.3 1.3v1.3h-1.3c-.7 0-1.3.6-1.3 1.3 0 .7.6 1.3 1.3 1.3h1.3v1.3c0 .7.6 1.3 1.3 1.3.7 0 1.3-.6 1.3-1.3v-1.3z" opacity=".5"/><path fill="#004DFF" fill-rule="nonzero" d="M61.4 129.4h1.2c.7 0 1.2-.6 1.2-1.2 0-.7-.6-1.2-1.2-1.2h-1.2v-1.2c0-.7-.6-1.2-1.2-1.2-.7 0-1.2.6-1.2 1.2v1.2h-1.2c-.7 0-1.2.6-1.2 1.2 0 .7.6 1.2 1.2 1.2H59v1.2c0 .7.6 1.2 1.2 1.2.7 0 1.2-.6 1.2-1.2v-1.2zm131.2-71.7h1.2c.7 0 1.2-.6 1.2-1.2 0-.7-.6-1.2-1.2-1.2h-1.2V54c0-.7-.6-1.2-1.2-1.2-.7 0-1.2.6-1.2 1.2v1.2H189c-.7 0-1.2.6-1.2 1.2 0 .7.6 1.2 1.2 1.2h1.2v1.2c0 .7.6 1.2 1.2 1.2s1.2-.6 1.2-1.2v-1.1zm-7 83.2h1.1c.6 0 1.1-.5 1.1-1.1 0-.6-.5-1.1-1.1-1.1h-1.1v-1.1c0-.6-.5-1.1-1.1-1.1-.6 0-1.1.5-1.1 1.1v1.1h-1.1c-.6 0-1.1.5-1.1 1.1 0 .6.5 1.1 1.1 1.1h1.1v1.1c0 .6.5 1.1 1.1 1.1.6 0 1.1-.5 1.1-1.1v-1.1z"/><g fill-rule="nonzero"><use fill="#FFF" xlink:href="#a"/><use fill="#000" filter="url(#b)" xlink:href="#a"/></g><path stroke="#34374C" stroke-width="5" d="M123.9 21.1l14.6-.9c3.8-.2 7.6 1.2 10.3 3.9l11.1 11.1c2.8 2.8 4.3 6.8 3.9 10.8l-1.3 13.7c-.3 3.1-1.7 6-3.9 8.3l-51.3 51.3c-5.3 5.3-13.8 5.3-19.1 0L64.1 95.1c-5.3-5.3-5.3-13.8 0-19.1l51-51c2.4-2.3 5.5-3.7 8.8-3.9z"/><path fill="#FFF" fill-rule="nonzero" d="M125.4 58c5.9 5.9 15.6 5.9 21.5 0s5.9-15.6 0-21.5-15.6-5.9-21.5 0c-6 5.9-6 15.6 0 21.5z"/><path stroke="#DBDBFD" stroke-width="5" d="M145.1 56.2c-5 5-13 5-18 0s-5-13 0-18 13-5 18 0 5 13.1 0 18z"/><path fill="#004DFF" fill-rule="nonzero" d="M91.5 91.9l1.8-1.8c-2-2.2-2.7-4.7-2.5-6.9l2.3-.3c-.1 1.7.3 3.8 1.7 5.6l5-5c-1.5-2.7-3-5.5-.5-8.1 2.1-2.1 5.4-1.8 8.1.5l1.9-1.9 1.3 1.3-1.9 1.9c1.6 1.9 2.2 3.9 2.2 6l-2.3.2c.1-1.7-.5-3.3-1.5-4.6l-4.5 4.5c1.5 2.7 3 5.8.3 8.5-1.9 1.9-5 2.6-8.4-.4l-1.8 1.8-1.2-1.3zm9.6-1.9c1.3-1.3.7-3.1-.3-4.9l-4.7 4.7c2.2 1.8 4 1.2 5 .2zm.2-12.9c-1.1 1.1-.5 2.7.5 4.5l4.2-4.2c-1.6-1.3-3.5-1.5-4.7-.3z"/><path fill="#004DFF" fill-rule="nonzero" d="M91.5 91.9l-.4-.4-.4.4.4.4.4-.4zm1.9-1.8l.4.4.3-.3-.3-.4-.4.3zm-2.6-6.9l-.1-.5-.4.1v.4h.5zm2.4-.3h.5l.1-.6-.6.1v.5zm1.7 5.6l-.4.3.3.4.4-.4-.3-.3zm5-5l.4.4.3-.3-.2-.3-.5.2zm7.6-7.6l-.3.4.4.3.3-.3-.4-.4zm1.9-1.9l.4-.4-.4-.4-.4.4.4.4zm1.2 1.3l.4.4.4-.4-.4-.4-.4.4zm-1.8 1.9l-.4-.4-.3.3.3.4.4-.3zm2.1 6v.5h.4v-.4l-.4-.1zm-2.2.2h-.5v.6l.6-.1-.1-.5zm-1.5-4.6l.4-.3-.3-.5-.4.4.3.4zm-4.5 4.4l-.4-.4-.3.3.2.3.5-.2zm-8.1 8.1l.3-.4-.4-.3-.2.4.3.3zm-1.8 1.9l-.4.4.4.4.4-.4-.4-.4zm8-8.1l.4-.2-.3-.6-.5.5.4.3zm-4.7 4.7l-.4-.4-.4.4.4.3.4-.3zm5.7-8.1l-.4.2.3.6.5-.5-.4-.3zm4.2-4.2l.4.4.4-.4-.4-.4-.4.4zM91.9 92.3l1.8-1.8-.7-.8-1.8 1.8.7.8zm1.8-2.6c-1.9-2.1-2.5-4.4-2.4-6.5l-1-.1c-.2 2.3.6 4.9 2.7 7.2l.7-.6zm-2.8-6l2.3-.3-.1-1-2.3.3.1 1zm1.8-.8c-.2 1.8.3 4 1.8 6l.8-.6c-1.4-1.7-1.8-3.6-1.6-5.2l-1-.2zm2.6 6l5-5-.7-.7-5 5 .7.7zm5-5.6c-.8-1.3-1.5-2.7-1.7-3.9-.2-1.2 0-2.4 1.2-3.5l-.7-.7c-1.4 1.4-1.7 2.9-1.4 4.4.3 1.5 1 2.9 1.8 4.2l.8-.5zm-.5-7.5c1.9-1.9 4.9-1.7 7.4.5l.7-.8c-2.8-2.4-6.4-2.8-8.7-.4l.6.7zm8.1.5l1.9-1.9-.7-.7-1.9 1.9.7.7zm1.1-1.9l1.3 1.3.7-.7-1.3-1.3-.7.7zm1.3.5l-1.9 1.9.7.7 1.9-1.9-.7-.7zm-1.9 2.6c1.5 1.8 2.1 3.7 2.1 5.6h1c0-2.2-.7-4.4-2.3-6.3l-.8.7zm2.5 5.2l-2.3.2.1 1 2.3-.2-.1-1zm-1.7.7c.1-1.9-.5-3.6-1.6-5l-.8.6c.9 1.2 1.4 2.7 1.4 4.3l1 .1zm-2.4-5l-4.5 4.5.7.7 4.5-4.5-.7-.7zm-4.5 5.1c.8 1.4 1.5 2.7 1.7 4.1.2 1.3-.1 2.6-1.3 3.8l.7.7c1.5-1.5 1.8-3.1 1.6-4.7-.2-1.5-1-3.1-1.8-4.4l-.9.5zm.4 7.8c-.8.9-2 1.4-3.3 1.5-1.3 0-2.8-.5-4.4-1.9l-.7.8c1.8 1.5 3.5 2.2 5.1 2.1 1.6-.1 2.9-.8 3.9-1.8l-.6-.7zm-8.4-.3l-1.8 1.8.7.7 1.8-1.8-.7-.7zm-1.2 1.8l-1.3-1.3-.7.7 1.3 1.3.7-.7zm8.4-2.4c.8-.8 1-1.7.9-2.7-.1-.9-.6-1.9-1.1-2.8l-.9.5c.5.9.9 1.8 1 2.5.1.7-.1 1.3-.6 1.8l.7.7zm-1-5.6l-4.7 4.7.7.7 4.7-4.7-.7-.7zm-4.7 5.4c1.2.9 2.3 1.3 3.3 1.3s1.8-.5 2.4-1l-.7-.7c-.4.4-1 .7-1.7.8-.7 0-1.6-.2-2.6-1l-.7.6zm5.2-13.4c-.7.7-.9 1.6-.7 2.4.1.9.6 1.8 1.1 2.7l.9-.5c-.5-.9-.9-1.7-1-2.4-.1-.6 0-1.1.4-1.6l-.7-.6zm1.1 5.2l4.2-4.2-.7-.7-4.2 4.2.7.7zm4.2-4.9c-1.7-1.5-3.9-1.8-5.3-.3l.7.7c.9-.9 2.5-.9 4 .4l.6-.8z"/><path fill="#FE2163" fill-rule="nonzero" d="M87.389 53.919l6.717-6.718 40.235 40.234-6.717 6.717z"/><rect width="111.939" height="9.486" x="55.567" y="66.116" fill="#FE2163" fill-rule="nonzero" rx="4.743" transform="scale(-1 1) rotate(-45 0 340.132)"/></g></svg>