<svg xmlns="http://www.w3.org/2000/svg" xmlns:xlink="http://www.w3.org/1999/xlink" viewBox="0 0 216 153"><defs><path id="a" d="M33.113.715h9.077c6.765 0 10.868 12.775 12.074 19.163 0 7.938 1.692 22.584-6.865 30.914-2.302 2.241-5.227 4.033-8.911 5.123a2.414 2.414 0 0 1-1.633-.11c-3.6-1.541-6.835-2.926-9.415-5.482-4.446-4.405-6.536-5.225-6.034-30.445v-3.584c-.965-1.944 1.305-3.726 2.064-5.76 1.966-5.262 1.414-9.82 9.643-9.82z"/><filter id="b" width="121.1%" height="112.7%" x="-10.5%" y="-6.3%" filterUnits="objectBoundingBox"><feOffset dx="-7" in="SourceAlpha" result="shadowOffsetInner1"/><feComposite in="shadowOffsetInner1" in2="SourceAlpha" k2="-1" k3="1" operator="arithmetic" result="shadowInnerInner1"/><feColorMatrix in="shadowInnerInner1" values="0 0 0 0 0.458823529 0 0 0 0 0.219607843 0 0 0 0 0 0 0 0 1 0"/></filter><path id="c" d="M46.101.371c-5.806 7.016-16.8 7.62-25.065 7.732-1.56 7.79-1.594 22.33 6.962 30.66 2.304 2.244 5.23 4.036 8.918 5.126.535.158 1.109.11 1.622-.11l.005-.002c3.6-1.541 6.835-2.925 9.415-5.482 4.446-4.405 6.95-12.288 6.034-30.445-3.851-1.14-5.701-4.014-7.89-7.478z"/><filter id="d" width="120.6%" height="116.1%" x="-10.3%" y="-8%" filterUnits="objectBoundingBox"><feOffset dx="-7" dy="-2" in="SourceAlpha" result="shadowOffsetInner1"/><feComposite in="shadowOffsetInner1" in2="SourceAlpha" k2="-1" k3="1" operator="arithmetic" result="shadowInnerInner1"/><feColorMatrix in="shadowInnerInner1" values="0 0 0 0 1 0 0 0 0 0.780392157 0 0 0 0 0.549019608 0 0 0 1 0"/></filter><path id="e" d="M42.285 5.882c9.985 0 16.349 6.076 19.598 17.294 1.857 5.141 3.68 26.703 4.178 37.11-5.151 2.905-14.051 3.541-17.4 3.781l-.703.052v-5.824c4.446-4.405 6.95-12.288 6.034-30.445-3.851-1.14-5.701-4.014-7.89-7.479-5.807 7.016-16.801 7.62-25.066 7.732-1.56 7.79-1.594 22.33 6.962 30.66v5.55C14.073 64.773 4.79 59.38 4.79 59.38s9.23-14.237 9.747-32.465c.373-13.087 8.686-21.033 18.67-21.033h9.078z"/><filter id="f" width="111.4%" height="112%" x="-5.7%" y="-6%" filterUnits="objectBoundingBox"><feOffset dx="-7" dy="3" in="SourceAlpha" result="shadowOffsetInner1"/><feComposite in="shadowOffsetInner1" in2="SourceAlpha" k2="-1" k3="1" operator="arithmetic" result="shadowInnerInner1"/><feColorMatrix in="shadowInnerInner1" values="0 0 0 0 1 0 0 0 0 0.560784314 0 0 0 0 0.031372549 0 0 0 1 0"/></filter></defs><g fill="none" fill-rule="evenodd"><path fill="#F6F8FA" fill-rule="nonzero" d="M21.3 11.9h154.8c7.8 0 14.1 6.3 14.1 14.1s-6.3 14.1-14.1 14.1H21.3C13.5 40 7.2 33.7 7.2 26c0-7.8 6.3-14.1 14.1-14.1z"/><path fill="#F6F8FA" fill-rule="nonzero" d="M46.9 40h154.8c7.8 0 14.1 6.3 14.1 14.1s-6.3 14.1-14.1 14.1H46.9c-7.8 0-14.1-6.3-14.1-14.1.1-7.8 6.4-14.1 14.1-14.1zM27.2 68.2H182c7.8 0 14.1 6.3 14.1 14.1s-6.3 14.1-14.1 14.1H27.2c-7.8 0-14.1-6.3-14.1-14.1s6.3-14.1 14.1-14.1z"/><path fill="#F6F8FA" fill-rule="nonzero" d="M54.2 96.3c-7.8 0-14.1 6.3-14.1 14.1s6.3 14.1 14.1 14.1h105.6c-7.8 0-14.1-6.3-14.1-14.1s6.3-14.1 14.1-14.1H54.2zm-40.1 28.2h154.8c7.8 0 14.1 6.3 14.1 14.1s-6.3 14.1-14.1 14.1H14.1c-7.8 0-14.1-6.3-14.1-14.1s6.3-14.1 14.1-14.1z"/><path fill="#004DFF" fill-rule="nonzero" d="M164.3 42.9c1.6 0 2.9-1.3 2.9-2.9 0-1.6-1.3-2.9-2.9-2.9-1.6 0-2.9 1.3-2.9 2.9-.1 1.6 1.2 2.9 2.9 2.9zm17 68.5c1.6 0 2.9-1.3 2.9-2.9 0-1.6-1.3-2.9-2.9-2.9-1.6 0-2.9 1.3-2.9 2.9 0 1.6 1.3 2.9 2.9 2.9z"/><path fill="#004DFF" fill-rule="nonzero" d="M126.9 5.8c1.6 0 2.9-1.3 2.9-2.9 0-1.6-1.3-2.9-2.9-2.9-1.6 0-2.9 1.3-2.9 2.9 0 1.6 1.3 2.9 2.9 2.9z" opacity=".6"/><path fill="#004DFF" fill-rule="nonzero" d="M21.8 60.7c2 0 3.6-1.6 3.6-3.6s-1.6-3.6-3.6-3.6-3.6 1.6-3.6 3.6 1.6 3.6 3.6 3.6zm6.8 54c1.7 0 3.1-1.4 3.1-3.1 0-1.7-1.4-3.1-3.1-3.1-1.7 0-3.1 1.4-3.1 3.1-.1 1.7 1.3 3.1 3.1 3.1zm174.9-24.3h1.3c.7 0 1.3-.6 1.3-1.3 0-.7-.6-1.2-1.3-1.3h-1.3v-1.3c0-.7-.5-1.3-1.3-1.3-.7 0-1.3.5-1.3 1.3v1.4h-1.3c-.7 0-1.3.6-1.3 1.3 0 .7.6 1.3 1.3 1.3h1.3v1.3c0 .7.6 1.3 1.3 1.3.7 0 1.2-.6 1.3-1.3v-1.4z" opacity=".12"/><path fill="#004DFF" fill-rule="nonzero" d="M79.1 150.5h1.2c.7 0 1.2-.6 1.2-1.2s-.6-1.2-1.2-1.2h-1.2v-1.2c0-.7-.6-1.2-1.2-1.2s-1.2.6-1.2 1.2v1.2h-1.2c-.7 0-1.2.6-1.2 1.2s.6 1.2 1.2 1.2h1.2v1.2c0 .7.6 1.2 1.2 1.2s1.2-.6 1.2-1.2v-1.2z" opacity=".6"/><path fill="#004DFF" fill-rule="nonzero" d="M46.7 29.4h1.2c.7 0 1.2-.6 1.2-1.2 0-.7-.6-1.2-1.2-1.2h-1.2v-1.2c0-.7-.6-1.2-1.3-1.2-.7 0-1.2.5-1.2 1.2V27H43c-.7 0-1.2.6-1.2 1.2 0 .7.6 1.2 1.2 1.2h1.2v1.2c0 .7.6 1.2 1.3 1.2.7 0 1.2-.5 1.2-1.2v-1.2zm114.4 114.7h1.1c.6 0 1.1-.5 1.1-1.1 0-.6-.5-1.1-1.1-1.1h-1.1v-1.1c0-.6-.5-1.1-1.1-1.1-.6 0-1.1.5-1.1 1.1v1.1h-1.1c-.6 0-1.1.5-1.1 1.1 0 .6.5 1.1 1.1 1.1h1.1v1.1c0 .6.5 1.1 1.1 1.1.6 0 1.1-.5 1.1-1.1v-1.1z"/><g fill-rule="nonzero"><path fill="#AD7700" d="M169.786 116.584H95.518v-6.111c0-6.158 3.749-11.686 9.445-13.929l1.695-.667 15.782-7.197V78.323c2.58 2.556 5.815 3.94 9.415 5.482.517.221 1.094.27 1.633.11 3.684-1.09 6.609-2.882 8.911-5.123v9.749l17.382 7.336c5.663 2.39 10.005 7.954 10.005 14.137v6.57z"/><g transform="translate(95 28)"><use fill="#AD7700" xlink:href="#a"/><use fill="#000" filter="url(#b)" xlink:href="#a"/></g></g><path stroke="#34374C" stroke-linejoin="round" stroke-width="5" d="M142.399 88.54l17.382 7.337m-17.382-7.336l17.382 7.336M122.44 78.323c-4.446-4.405-6.536-5.225-6.034-30.445v-3.584c-.966-1.944 1.305-3.726 2.064-5.76 1.966-5.262 1.413-9.82 9.643-9.82h9.077c6.765 0 10.868 12.776 12.074 19.164 0 7.938 1.692 22.584-6.865 30.914m-19.959-.47V88.68l-15.782 7.197-1.695.667m17.477-18.221c2.58 2.556 5.815 3.94 9.415 5.482.517.221 1.094.27 1.633.11 3.684-1.09 6.609-2.882 8.911-5.123m27.387 31.222v6.57H95.518v-6.111m74.268-.46c0-6.153-4.336-11.744-10.005-14.136m10.005 14.137c0-6.183-4.342-11.747-10.005-14.137m-54.818.667c-5.696 2.243-9.445 7.771-9.445 13.93m9.445-13.93c-5.699 2.244-9.445 7.806-9.445 13.93"/><path fill="#34374C" d="M128.113 28.715c-8.23 0-9.742 3.917-11.707 9.178-.76 2.034-1.143 4.48-.801 8.372l.8 1.613c1.424-1.664 1.003-7.644 3.349-9.985 2.345-2.34 22.004-2.035 24.378 0 2.374 2.036 3.121 7.113 5.23 10.238v-5.757c-.928-6.544-2.187-13.66-12.172-13.66h-9.077z"/><path stroke="#34374C" stroke-linejoin="round" stroke-width="5" d="M149.362 48.131c0 7.685 1.185 28.168-6.963 30.66m6.963-30.66v-5.757c-.928-6.544-2.187-13.66-12.172-13.66h-9.077c-8.23 0-9.742 3.918-11.707 9.18-.76 2.033-1.143 4.48-.801 8.371l.8 1.613m32.957.253c-2.109-3.125-2.856-8.202-5.23-10.238-2.374-2.035-22.033-2.34-24.379 0-2.345 2.34-1.924 8.321-3.347 9.985m0 0c-.801 18.18.781 28.42 6.034 30.445M142 78v10.358l15.782 7.196 1.695.667M122.44 78.323c2.58 2.556 5.815 3.94 9.415 5.482.517.221 1.094.27 1.633.11 3.684-1.09 6.609-2.882 8.911-5.123m27.387 31.222v6.57H95.518v-6.111m74.268-.46c0-6.153-4.336-11.744-10.005-14.136m10.005 14.137c0-6.183-4.342-11.747-10.005-14.137m-54.818.667c-5.696 2.243-9.445 7.771-9.445 13.93m9.445-13.93c-5.699 2.244-9.445 7.806-9.445 13.93"/><path fill="#DBDBFD" fill-rule="nonzero" d="M169.786 116.226H95.519v-5.962a15.214 15.214 0 0 1 9.64-14.156l1.5-.59 10.503-4.79 4.747 4.376c6.084 5.61 15.442 5.653 21.579.1l4.946-4.475 11.348 4.789c5.669 2.393 10.004 7.983 10.004 14.137v6.57z"/><path stroke="#34374C" stroke-linejoin="round" stroke-width="5" d="M169.786 116.226H95.519v-5.962a15.214 15.214 0 0 1 9.64-14.156l1.5-.59 10.503-4.79 4.747 4.376c6.084 5.61 15.442 5.653 21.579.1l4.946-4.475 11.348 4.789c5.669 2.393 10.004 7.983 10.004 14.137v6.57z"/><g fill-rule="nonzero"><path fill="#FFE1BD" d="M46.612 124.556h74.268v-5.96a15.213 15.213 0 0 0-9.64-14.157l-1.5-.59-15.782-7.196V86.295c-2.58 2.557-5.815 3.941-9.415 5.482l-.005.002a2.398 2.398 0 0 1-1.622.11c-3.687-1.09-6.614-2.882-8.918-5.125v9.749l-17.381 7.336c-5.67 2.393-10.005 7.983-10.005 14.137v6.57z"/><g transform="translate(46 48)"><use fill="#FFE1BD" xlink:href="#c"/><use fill="#000" filter="url(#d)" xlink:href="#c"/></g></g><path stroke="#34374C" stroke-linejoin="round" stroke-width="5" d="M73.999 96.513v-4.2m0 4.2l-17.382 7.336m17.382-7.336l-17.382 7.336m17.382-11.536c-13.926.46-23.21-4.933-23.21-4.933s9.23-14.237 9.749-32.465c.372-13.087 8.685-21.033 18.67-21.033h9.077c9.985 0 16.349 6.076 19.598 17.294 1.857 5.141 3.68 26.703 4.178 37.11-5.151 2.905-14.051 3.541-17.4 3.781l-.703.052m-19.96.194v-5.55m19.96 5.356v4.534l15.782 7.196 1.5.59a15.213 15.213 0 0 1 9.64 14.156v5.962H46.612v-6.571c0-6.154 4.336-11.744 10.005-14.137m37.34-11.73v-5.824m0 0c4.447-4.405 6.95-12.288 6.035-30.445-3.851-1.14-5.701-4.014-7.89-7.478-5.807 7.015-16.801 7.618-25.066 7.731-1.56 7.79-1.594 22.33 6.963 30.66m19.959-.468c-2.58 2.556-5.815 3.941-9.415 5.482l-.005.002a2.398 2.398 0 0 1-1.622.11c-3.687-1.09-6.614-2.882-8.917-5.125"/><g transform="translate(46 28)"><use fill="#FFBF2F" xlink:href="#e"/><use fill="#000" filter="url(#f)" xlink:href="#e"/></g><path stroke="#34374C" stroke-linejoin="round" stroke-width="5" d="M73.999 92.313v4.2l-17.382 7.336c-5.67 2.393-10.005 7.983-10.005 14.137v6.57h74.268v-5.96a15.213 15.213 0 0 0-9.64-14.157l-1.5-.59-15.782-7.196v-4.534m-19.96.194c-13.925.46-23.208-4.933-23.208-4.933s9.23-14.237 9.747-32.465c.373-13.087 8.686-21.033 18.67-21.033h9.078c9.984 0 16.349 6.076 19.598 17.294 1.857 5.141 3.68 26.703 4.178 37.11-5.151 2.905-14.051 3.541-17.4 3.781l-.703.052m-19.96.194v-5.55m19.96 5.356v-5.824m0 0c4.446-4.405 6.95-12.288 6.034-30.445-3.851-1.14-5.701-4.014-7.89-7.478-5.807 7.015-16.801 7.618-25.066 7.731-1.56 7.79-1.594 22.33 6.962 30.66m19.96-.468c-2.58 2.556-5.815 3.941-9.415 5.482a2.413 2.413 0 0 1-1.633.11c-3.684-1.09-6.609-2.881-8.912-5.123"/><path fill="#00F" fill-rule="nonzero" d="M46.612 125.27h74.268v-5.962c0-6.25-3.824-11.866-9.64-14.155l-1.5-.591-10.504-4.79-4.746 4.377c-6.085 5.608-15.443 5.652-21.58.1l-4.946-4.476-11.347 4.789c-5.67 2.393-10.005 7.983-10.005 14.137v6.57z"/><path stroke="#34374C" stroke-linejoin="round" stroke-width="5" d="M46.612 125.27h74.268v-5.962c0-6.25-3.824-11.866-9.64-14.155l-1.5-.591-10.504-4.79-4.746 4.377c-6.085 5.608-15.443 5.652-21.58.1l-4.946-4.476-11.347 4.789c-5.67 2.393-10.005 7.983-10.005 14.137v6.57z"/></g></svg>