<svg id="Layer_1" xmlns="http://www.w3.org/2000/svg" viewBox="0 0 215.8 153"><style>.st0{fill:#f6f8fa}.st1{fill:#004dff}.st2{opacity:.6;enable-background:new}.st4{fill:#ad7700}.st5{fill:#34374c}.st6{fill:#ffe1bd}</style><path class="st0" d="M21.3 11.9h154.8c7.8 0 14.1 6.3 14.1 14.1s-6.3 14.1-14.1 14.1H21.3C13.5 40 7.2 33.7 7.2 26c0-7.8 6.3-14.1 14.1-14.1z"/><path class="st0" d="M46.9 40h154.8c7.8 0 14.1 6.3 14.1 14.1s-6.3 14.1-14.1 14.1H46.9c-7.8 0-14.1-6.3-14.1-14.1.1-7.8 6.4-14.1 14.1-14.1zM27.2 68.2H182c7.8 0 14.1 6.3 14.1 14.1s-6.3 14.1-14.1 14.1H27.2c-7.8 0-14.1-6.3-14.1-14.1s6.3-14.1 14.1-14.1z"/><path class="st0" d="M54.2 96.3c-7.8 0-14.1 6.3-14.1 14.1s6.3 14.1 14.1 14.1h105.6c-7.8 0-14.1-6.3-14.1-14.1s6.3-14.1 14.1-14.1H54.2zM14.1 124.5h154.8c7.8 0 14.1 6.3 14.1 14.1s-6.3 14.1-14.1 14.1H14.1c-7.8 0-14.1-6.3-14.1-14.1s6.3-14.1 14.1-14.1z"/><path class="st1" d="M164.3 42.9c1.6 0 2.9-1.3 2.9-2.9 0-1.6-1.3-2.9-2.9-2.9-1.6 0-2.9 1.3-2.9 2.9-.1 1.6 1.2 2.9 2.9 2.9zm17 68.5c1.6 0 2.9-1.3 2.9-2.9 0-1.6-1.3-2.9-2.9-2.9-1.6 0-2.9 1.3-2.9 2.9 0 1.6 1.3 2.9 2.9 2.9z"/><g class="st2"><path class="st1" d="M126.9 5.8c1.6 0 2.9-1.3 2.9-2.9 0-1.6-1.3-2.9-2.9-2.9-1.6 0-2.9 1.3-2.9 2.9s1.3 2.9 2.9 2.9z"/></g><path class="st1" d="M21.8 60.7c2 0 3.6-1.6 3.6-3.6s-1.6-3.6-3.6-3.6-3.6 1.6-3.6 3.6 1.6 3.6 3.6 3.6zm6.8 54c1.7 0 3.1-1.4 3.1-3.1 0-1.7-1.4-3.1-3.1-3.1-1.7 0-3.1 1.4-3.1 3.1-.1 1.7 1.3 3.1 3.1 3.1zm174.9-24.3h1.3c.7 0 1.3-.6 1.3-1.3 0-.7-.6-1.2-1.3-1.3h-1.3v-1.3c0-.7-.5-1.3-1.3-1.3-.7 0-1.3.5-1.3 1.3V87.9h-1.3c-.7 0-1.3.6-1.3 1.3s.6 1.3 1.3 1.3h1.3v1.3c0 .7.6 1.3 1.3 1.3.7 0 1.2-.6 1.3-1.3v-1.4z" opacity=".12"/><g class="st2"><path class="st1" d="M79.1 150.5h1.2c.7 0 1.2-.6 1.2-1.2s-.6-1.2-1.2-1.2h-1.2v-1.2c0-.7-.6-1.2-1.2-1.2s-1.2.6-1.2 1.2v1.2h-1.2c-.7 0-1.2.6-1.2 1.2s.6 1.2 1.2 1.2h1.2v1.2c0 .7.6 1.2 1.2 1.2s1.2-.6 1.2-1.2v-1.2z"/></g><path class="st1" d="M46.7 29.4h1.2c.7 0 1.2-.6 1.2-1.2 0-.7-.6-1.2-1.2-1.2h-1.2v-1.2c0-.7-.6-1.2-1.3-1.2-.7 0-1.2.5-1.2 1.2V27H43c-.7 0-1.2.6-1.2 1.2 0 .7.6 1.2 1.2 1.2h1.2v1.2c0 .7.6 1.2 1.3 1.2.7 0 1.2-.5 1.2-1.2v-1.2zm114.4 114.7h1.1c.6 0 1.1-.5 1.1-1.1 0-.6-.5-1.1-1.1-1.1h-1.1v-1.1c0-.6-.5-1.1-1.1-1.1s-1.1.5-1.1 1.1v1.1h-1.1c-.6 0-1.1.5-1.1 1.1 0 .6.5 1.1 1.1 1.1h1.1v1.1c0 .6.5 1.1 1.1 1.1.6 0 1.1-.5 1.1-1.1v-1.1z"/><path class="st4" d="M169.9 117.6H95.6v-6.1c0-6.2 3.7-11.7 9.4-13.9l1.7-.7 15.8-7.2V79.4c2.6 2.6 5.8 3.9 9.4 5.5.5.2 1.1.3 1.6.1 3.7-1.1 6.6-2.9 8.9-5.1v9.7l17.4 7.3c5.7 2.4 10 8 10 14.1v6.6z"/><path class="st4" d="M128.2 29.8h9.1c6.8 0 10.9 12.8 12.1 19.2 0 7.9 1.7 22.6-6.9 30.9-2.3 2.2-5.2 4-8.9 5.1-.5.2-1.1.1-1.6-.1-3.6-1.5-6.8-2.9-9.4-5.5-4.4-4.4-6.5-5.2-6-30.4v-3.6c-1-1.9 1.3-3.7 2.1-5.8 1.8-5.3 1.3-9.8 9.5-9.8z"/><path class="st5" d="M169.9 120.1H95.6c-1.4 0-2.5-1.1-2.5-2.5v-6.1h5v3.6h69.3V111h5v6.6c0 1.4-1.1 2.5-2.5 2.5zm-71.8-8.6h-5c0-7.2 4.3-13.6 11-16.3l.9 2.3-.9-2.3 1.6-.6 14.3-6.5v-7.7c-4.9-4.8-6.5-7.9-6-31.5v-3c-.8-2.3.5-4.3 1.4-5.6.4-.5.7-1.1.8-1.5l.9-2.7c1.2-4.1 2.6-8.8 11.1-8.8h9.1c10.2 0 14.1 19 14.5 21.2v.5c0 1 0 2.2.1 3.4.2 8.2.5 20.5-6.9 28.6v7.1l15.9 6.7c6.9 2.9 11.5 9.5 11.5 16.4h-5c0-4.9-3.5-9.7-8.5-11.8l1-2.3-1 2.3-17.4-7.3 1-2.3H140v-4.7c-1.7 1-3.6 1.9-5.7 2.5-1.1.3-2.3.2-3.3-.2-2.1-.9-4-1.7-5.9-2.8V90c0 1-.6 1.9-1.5 2.3l-15.8 7.2s-.1 0-.1.1l-1.7.7c-4.7 1.5-7.9 6.1-7.9 11.2zm26.2-33.9c2.2 2.2 5.2 3.5 8.6 5 3-.9 5.7-2.4 7.8-4.5 6.7-6.5 6.4-17.5 6.2-25.6 0-1.2-.1-2.3-.1-3.3-1.6-8.2-5.7-16.9-9.6-16.9h-9.1c-4.8 0-5.2 1.4-6.3 5.2-.3.9-.6 1.9-1 3-.3.9-.9 1.7-1.3 2.5-.3.4-.7 1.1-.8 1.4.1.3.2.7.2 1V49c-.5 23 1.2 24.6 4.7 28.1l.7.5zm-1.8 1.8z"/><path class="st5" d="M128.2 29.8c-8.2 0-9.7 3.9-11.7 9.2-.8 2-1.1 4.5-.8 8.4l.8 1.6c1.4-1.7 1-7.6 3.3-10 2.3-2.3 22-2 24.4 0 2.4 2 3.1 7.1 5.2 10.2v-5.8c-.9-6.5-2.2-13.7-12.2-13.7l-9 .1z"/><path class="st5" d="M169.9 120.1H95.6c-1.4 0-2.5-1.1-2.5-2.5v-6.1h5v3.6h69.3V111h5v6.6c0 1.4-1.1 2.5-2.5 2.5zm-71.8-8.6h-5c0-7.2 4.3-13.6 11-16.3l.9 2.3-.9-2.3 1.6-.6 14.3-6.5v-7.2c-5.1-3.4-6.8-12.8-6.1-31.4l-.5-1-.3-.9c-.3-3.9 0-6.8.9-9.5 2-5.3 4-10.8 14-10.8h9.1c12.4 0 13.8 9.9 14.6 15.8v8.8c.1 9.6.3 25.3-7 29.6V88l15.9 6.7c6.9 2.9 11.5 9.5 11.5 16.4h-5c0-4.9-3.5-9.7-8.5-11.8l1-2.3-1 2.3-17.4-7.3 1-2.3H140V85c-1.7 1-3.6 1.9-5.7 2.5-1.1.3-2.3.2-3.3-.2-2.1-.9-4-1.7-5.9-2.8v5.4c0 1-.6 1.9-1.5 2.3l-15.8 7.2s-.1 0-.1.1l-1.7.7c-4.7 1.6-7.9 6.2-7.9 11.3zm26.2-33.9c2.2 2.2 5.2 3.5 8.6 5 3-.9 5.7-2.4 7.8-4.5l1.7 1.8-.7-2.4c5.5-1.7 5.3-19 5.2-25.6v-2c-.8-1.4-1.4-3-2-4.5-.7-1.8-1.4-3.7-2.2-4.5-2.7-1.4-18.5-1.5-21.1-.1-.7.8-1.1 3-1.4 4.6-.3 1.7-.6 3.1-1.2 4.3-.7 16.7.8 25.9 4.5 27.3l-.9 2.3 1.7-1.7zm-2.8-36.8zm9.9-6c5.8 0 11.7.7 13.9 1.9-1.3-2.8-3.5-4.4-8-4.4h-9.1c-4.6 0-6.4 1.2-7.7 3.7 2.6-.9 6.7-1.2 10.9-1.2z"/><path class="st1" d="M169.9 117.3H95.6v-6c0-6.3 3.8-11.9 9.6-14.2l1.5-.6 10.5-4.8 4.7 4.4c6.1 5.6 15.4 5.7 21.6.1l4.9-4.5 11.3 4.8c5.7 2.4 10 8 10 14.1.2.1.2 6.7.2 6.7z"/><path class="st5" d="M169.9 119.8H95.6c-1.4 0-2.5-1.1-2.5-2.5v-6c0-7.3 4.4-13.8 11.2-16.5l1.4-.6 10.4-4.8c.9-.4 2-.2 2.7.4l4.7 4.4c5.2 4.8 13 4.8 18.2.1l4.9-4.5c.7-.7 1.8-.8 2.6-.4l11.3 4.8c6.9 2.9 11.5 9.5 11.5 16.4v6.6c.4 1.5-.7 2.6-2.1 2.6zm-71.8-5h69.3v-4.1c0-4.9-3.5-9.7-8.5-11.8l-9.9-4.2-3.8 3.4c-7.1 6.5-17.9 6.4-25-.1l-3.5-3.2-9 4.1s-.1 0-.1.1l-1.5.6c-4.9 1.9-8.1 6.6-8.1 11.8v3.4z"/><path class="st6" d="M46.7 125.6H121v-6c0-6.3-3.8-11.9-9.6-14.2l-1.5-.6-15.8-7.2V87.3c-2.6 2.6-5.8 3.9-9.4 5.5-.5.2-1.1.3-1.6.1-3.7-1.1-6.6-2.9-8.9-5.1v9.7l-17.4 7.3c-5.7 2.4-10 8-10 14.1v6.7z"/><path class="st6" d="M92.2 49.4c-5.8 7-16.8 7.6-25.1 7.7-1.6 7.8-1.6 22.3 7 30.7 2.3 2.2 5.2 4 8.9 5.1.5.2 1.1.1 1.6-.1 3.6-1.5 6.8-2.9 9.4-5.5 4.4-4.4 6.9-12.3 6-30.4-3.8-1.1-5.6-4-7.8-7.5z"/><path class="st5" d="M121 128.1H46.7c-1.4 0-2.5-1.1-2.5-2.5V119c0-6.9 4.6-13.5 11.5-16.4l1 2.3-1-2.3 15.9-6.7c-13-.2-21.6-5.1-22-5.3-.6-.3-1-.9-1.2-1.6-.2-.7 0-1.4.3-1.9.1-.1 8.9-13.9 9.3-31.2.4-13.8 9.1-23.5 21.2-23.5h9.1c10.9 0 18.3 6.4 22 19 2 5.7 3.8 27.7 4.3 37.8 0 .9-.4 1.8-1.3 2.3-4.9 2.8-12.6 3.6-16.8 4v.6l14.3 6.5 1.4.6c6.8 2.7 11.2 9.2 11.2 16.5v6c.1 1.3-1 2.4-2.4 2.4zm-71.8-5h69.3v-3.5c0-5.3-3.2-9.9-8.1-11.8l-1.5-.6s-.1 0-.1-.1L93 100c-.9-.4-1.5-1.3-1.5-2.3v-4.5H94h-2.5v-.9c-1.9 1.1-3.9 1.9-5.9 2.8-1 .4-2.2.5-3.3.2-2.1-.6-4-1.4-5.7-2.5v.5h-2.5 2.5v4.2h-2.5l1 2.3-17.4 7.3c-5 2.1-8.5 7-8.5 11.8v4.2zm5.2-35.8c3.1 1.3 9.2 3.4 17.2 3.5v-2.1c-5.2-5.7-9.9-17.2-6.9-32.2.2-1.2 1.2-2 2.4-2 9.2-.1 18.4-1 23.2-6.8.5-.6 1.3-.9 2.1-.9.8.1 1.5.5 2 1.2 2.2 3.5 3.6 5.6 6.5 6.4 1 .3 1.7 1.2 1.8 2.3.8 16.3-1 25.9-6 31.6v2.1c3.5-.3 9.1-1 13-2.6-.6-12-2.4-30.5-3.9-34.7v-.2c-3-10.4-8.6-15.5-17.2-15.5h-9.1c-9.2 0-15.9 7.7-16.2 18.6-.6 14.5-6.2 26.4-8.9 31.3zM75.8 86c2.1 2.1 4.8 3.6 7.9 4.5 3.4-1.5 6.3-2.8 8.6-5 2.9-2.9 6.1-8.5 5.4-26.9-2.6-1.2-4.4-3.2-5.9-5.3-5.8 4.9-14.1 6-22.5 6.2-1.1 7.4-.7 19.5 6.5 26.5l-1.7 1.8 1.7-1.8zm18.3 1.3z"/><path d="M88.4 34.9c10 0 16.3 6.1 19.6 17.3 1.9 5.1 3.7 26.7 4.2 37.1-5.2 2.9-14.1 3.5-17.4 3.8l-.7.1v-5.8c4.4-4.4 6.9-12.3 6-30.4-3.9-1.1-5.7-4-7.9-7.5-5.8 7-16.8 7.6-25.1 7.7-1.6 7.8-1.6 22.3 7 30.7v5.5c-13.9.5-23.2-4.9-23.2-4.9s9.2-14.2 9.7-32.5c.4-13.1 8.7-21 18.7-21 0-.1 9.1-.1 9.1-.1z" fill="#ffbf2f"/><path class="st5" d="M121 128.1H46.7c-1.4 0-2.5-1.1-2.5-2.5V119c0-6.9 4.6-13.5 11.5-16.4l15.9-6.7c-13-.2-21.6-5.1-22-5.3-.6-.3-1-.9-1.2-1.6-.2-.7 0-1.4.3-1.9.1-.1 8.9-13.9 9.3-31.2.4-13.8 9.1-23.5 21.2-23.5h9.1c10.9 0 18.3 6.4 22 19 2 5.7 3.8 27.7 4.3 37.8 0 .9-.4 1.8-1.3 2.3-4.9 2.8-12.6 3.6-16.8 4v.6l14.3 6.5 1.4.6c6.8 2.7 11.2 9.2 11.2 16.5v6c.1 1.3-1 2.4-2.4 2.4zm-71.8-5h69.3v-3.5c0-5.3-3.2-9.9-8.1-11.8l-1.5-.6s-.1 0-.1-.1L93 100c-.9-.4-1.5-1.3-1.5-2.3v-4.5H94h-2.5v-.9c-1.9 1.1-3.9 1.9-5.9 2.8-1 .5-2.2.5-3.3.2-2.1-.6-4-1.4-5.7-2.5v.5h-2.5 2.5v4.2c0 1-.6 1.9-1.5 2.3l-17.4 7.3c-5 2.1-8.5 7-8.5 11.8v4.2zm5.2-35.8c3.1 1.3 9.2 3.4 17.2 3.5v-2.1c-5.2-5.7-9.9-17.2-6.9-32.2.2-1.2 1.2-2 2.4-2 9.2-.1 18.4-1 23.2-6.8.5-.6 1.3-.9 2.1-.9.8.1 1.5.5 2 1.2 2.2 3.5 3.6 5.6 6.5 6.4 1 .3 1.7 1.2 1.8 2.3.8 16.3-1 25.9-6 31.6v2.1c3.5-.3 9.1-1 13-2.6-.6-12-2.4-30.5-3.9-34.7v-.2c-3-10.4-8.6-15.5-17.2-15.5h-9.1c-9.2 0-15.9 7.6-16.2 18.6-.6 14.5-6.2 26.4-8.9 31.3zM75.8 86c2.1 2.1 4.8 3.6 7.9 4.5 3.4-1.5 6.3-2.7 8.6-5 2.9-2.9 6.1-8.5 5.4-26.9-2.6-1.2-4.4-3.2-5.9-5.3-5.8 4.9-14.1 6-22.5 6.2-1.1 7.4-.7 19.5 6.5 26.5l-1.7 1.8 1.7-1.8zm18.3 1.3z"/><path d="M46.7 126.3H121v-6c0-6.3-3.8-11.9-9.6-14.2l-1.5-.6-10.5-4.8-4.7 4.4c-6.1 5.6-15.4 5.7-21.6.1l-4.9-4.5-11.3 4.8c-5.7 2.4-10 8-10 14.1-.2.1-.2 6.7-.2 6.7z" fill="#01ddff"/><path class="st5" d="M121 128.8H46.7c-1.4 0-2.5-1.1-2.5-2.5v-6.6c0-6.9 4.6-13.5 11.5-16.4L67 98.5c.9-.4 1.9-.2 2.6.4l4.9 4.5c5.2 4.7 13 4.7 18.2-.1l4.7-4.4c.7-.7 1.8-.9 2.7-.4l10.4 4.8 1.4.6c6.8 2.7 11.2 9.2 11.2 16.5v6c.4 1.3-.7 2.4-2.1 2.4zm-71.8-5h69.3v-3.5c0-5.3-3.2-9.9-8.1-11.8l-1.5-.6s-.1 0-.1-.1l-9-4.1-3.5 3.2c-7.1 6.5-17.8 6.6-25 .1l-3.8-3.4-9.9 4.2c-5 2.1-8.5 7-8.5 11.8v4.2z"/></svg>