<?xml version="1.0" encoding="UTF-8"?><!DOCTYPE svg PUBLIC "-//W3C//DTD SVG 1.1//EN" "http://www.w3.org/Graphics/SVG/1.1/DTD/svg11.dtd"><svg xmlns="http://www.w3.org/2000/svg"><symbol id="angellist" viewBox="0 0 18 24"><g fill="none" fill-rule="evenodd"><path d="M-3 0h24v24H-3z"/><path fill="currentColor" fill-rule="nonzero" d="M.55 17.035c0-1.917.815-2.93 2.4-3.364-.25-.628-.376-1.09-.376-1.389 0-1.103 1.394-2.47 2.447-2.47.266 0 .58.07.94.212-.752-2.15-1.293-3.78-1.623-4.895-.43-1.451-1.006-3.339 0-4.47C4.73.219 5.256 0 5.915 0c1.13 0 2.486 2.314 4.07 6.941l.4 1.153c.6-1.5 2.442-7.647 4.518-7.647.627 0 1.122.212 1.482.635 1.015 1.141.417 2.831 0 4.306-.33 1.145-.847 2.714-1.553 4.706.894.22 1.538.643 1.93 1.27.423.675.635 1.718.635 3.13 0 2.792-.831 5.075-2.494 6.847C13.209 23.114 11.06 24 8.456 24c-3.216 0-6.04-1.889-7.294-4.447-.408-.847-.612-1.686-.612-2.518zm1.53-.117c0 .982.656 2.169 1.246 2.964 1.385 1.79 3.195 2.565 5.318 2.565 2.024 0 3.726-.76 5.106-2.282 1.365-1.506 2.047-3.412 2.047-5.718 0-.789-.002-1.968-.588-2.47-.424-.361-1.255-.675-2.494-.942a17.758 17.758 0 0 0-3.953-.423c-.54 0-.824.081-.824.612 0 .643.361 1.098 1.083 1.364.784.33 2.078.494 3.882.494h.659c.369 0 .696.193.8.989-.677.676-1.79.767-2.541 1.34a5.48 5.48 0 0 0-1.506 1.624c-.361.612-.541 1.192-.541 1.741 0 .33.078.73.235 1.2.172.518.259.855.259 1.012-.004.146-.047.247-.224.318-.73.165-1.063-.192-1.376-.788-.267-.502-.416-1.145-.447-1.93-.095.032-.44.024-.542.024.016.078.024.172.024.282 0 .47-.18.87-.541 1.2-.361.33-.785.494-1.27.494-.738 0-1.483-.353-2.236-1.059-.753-.721-1.13-1.427-1.13-2.117 0-.41.176-.623.448-.894.392.486.658.823.8 1.011.658.926 1.254 1.389 1.788 1.389.3 0 .541-.222.541-.377 0-.125-.094-.353-.282-.682-.276-.516-1.361-1.956-1.93-2.424-.235-.22-.408-.33-.517-.33-.53 0-1.295.68-1.295 1.813zm2.117-4.494c0 .203.126.556.377 1.058.462.893 1.55 2.332 2.376 3.06.376.313.659.47.847.47.242 0 .494-.287.494-.541 0-.189-.14-.644-.423-1.365-.389-.944-1.216-2.672-2-3.318-.251-.235-.494-.353-.73-.353-.335 0-.94.615-.94.989zM5.256 2.259c0 .533.188 1.372.565 2.517.345 1.114.862 2.604 1.553 4.471.355-.213 1.215-.112 1.67-.07L7.421 4.47C6.98 3.216 6.636 2.4 6.385 2.024c-.204-.33-.407-.495-.611-.495-.342 0-.518.386-.518.73zm3.906 12c.152.39.301.783.447 1.176.314-.36.627-.659.941-.894-.479-.096-.864-.107-1.388-.282zm2.47-4.8l1.577.282a135.686 135.686 0 0 0 1.623-4.682c.217-.703.846-2.305.424-2.847-.143-.25-.582-.324-1.082.47-.298.455-.636 1.247-1.012 2.377l-1.53 4.4z"/></g></symbol><symbol id="appstore" viewBox="0 0 190 62"><g fill="currentColor" fill-rule="evenodd"><path d="M12.2 61.183c-.49 0-.97-.006-1.455-.016-.902-.026-1.971-.077-3.015-.262a9.498 9.498 0 0 1-2.668-.876 8.656 8.656 0 0 1-2.25-1.627 8.527 8.527 0 0 1-1.646-2.233 9.154 9.154 0 0 1-.875-2.65c-.196-1.077-.246-2.167-.267-3C.013 50.181 0 49.06 0 49.06V12.107s.014-1.105.024-1.43C.045 9.84.095 8.748.29 7.682a9.094 9.094 0 0 1 .876-2.657A8.969 8.969 0 0 1 5.06 1.151a9.423 9.423 0 0 1 2.663-.87C8.811.086 9.909.038 10.748.017L12.2 0h165.588l1.47.02c.828.02 1.928.07 2.995.259a9.658 9.658 0 0 1 2.694.877c.828.422 1.584.97 2.242 1.626a8.856 8.856 0 0 1 1.65 2.245c.419.83.71 1.72.863 2.637.185 1.01.243 2.047.279 3.02.005.452.005.94.005 1.423.014.6.014 1.17.014 1.747V47.33c0 .58 0 1.148-.014 1.72 0 .52 0 .996-.007 1.487-.034.942-.092 1.978-.275 2.963a9.152 9.152 0 0 1-.87 2.673 8.84 8.84 0 0 1-1.636 2.217 8.753 8.753 0 0 1-2.254 1.635 9.487 9.487 0 0 1-2.689.879c-1.03.185-2.1.236-3.01.26-.484.012-.967.018-1.45.018l-1.746.003L12.2 61.183zm26.44-30.769c-.043-4.605 3.77-6.846 3.944-6.95-2.157-3.15-5.507-3.58-6.682-3.614-2.811-.294-5.537 1.683-6.97 1.683-1.46 0-3.667-1.654-6.043-1.606-3.058.049-5.92 1.818-7.49 4.569-3.237 5.606-.822 13.847 2.28 18.378 1.551 2.219 3.366 4.698 5.74 4.61 2.321-.095 3.19-1.481 5.992-1.481 2.778 0 3.593 1.48 6.014 1.425 2.491-.04 4.063-2.229 5.56-4.469 1.792-2.544 2.514-5.05 2.541-5.178-.056-.02-4.84-1.844-4.887-7.367zM34.064 16.87c1.25-1.564 2.103-3.688 1.866-5.845-1.808.079-4.069 1.25-5.372 2.779-1.15 1.346-2.18 3.554-1.914 5.628 2.03.15 4.117-1.025 5.42-2.562zm32.438 25.22l1.828 5.404h3.285l-7.22-19.996h-3.354l-7.219 19.996h3.229l1.829-5.404h7.622zm20.702-1.884c0-4.518-2.438-7.442-6.138-7.442-2.037 0-3.811 1.013-4.642 2.576h-.055v-2.425h-2.896v19.401h2.991v-7.22h.07c.86 1.621 2.51 2.55 4.587 2.55 3.658 0 6.083-2.91 6.083-7.44zm16.046 0c0-4.518-2.44-7.442-6.138-7.442-2.037 0-3.812 1.013-4.643 2.576h-.054v-2.425h-2.897v19.401h2.992v-7.22h.069c.86 1.621 2.51 2.55 4.587 2.55 3.659 0 6.084-2.91 6.084-7.44zm10.604 1.716h-3.064c.193 3.617 3.188 5.905 7.622 5.905 4.74 0 7.718-2.343 7.718-6.083 0-2.926-1.704-4.573-5.806-5.544l-2.203-.54c-2.578-.637-3.63-1.47-3.63-2.883 0-1.773 1.648-2.992 4.06-2.992 2.41 0 4.06 1.204 4.24 3.2h3.02c-.096-3.45-2.993-5.82-7.22-5.82-4.267 0-7.275 2.37-7.275 5.82 0 2.787 1.706 4.503 5.377 5.39l2.59.625c2.593.636 3.688 1.565 3.688 3.117 0 1.79-1.815 3.09-4.338 3.09-2.63 0-4.558-1.3-4.779-3.285zm18.736-12.456h-3.006v3.45h-2.12v2.37h2.12v8.356c0 2.826 1.151 3.935 4.103 3.935.665 0 1.33-.054 1.661-.138v-2.356c-.326.04-.655.064-.984.07-1.218 0-1.774-.582-1.774-1.831v-8.037h2.773v-2.37h-2.773v-3.449zm4.376 10.74c0 4.599 2.675 7.468 6.915 7.468s6.915-2.87 6.915-7.468c0-4.587-2.689-7.47-6.915-7.47-4.213 0-6.915 2.883-6.915 7.47zm16.297-7.29v14.578h2.993v-8.647c0-2.05 1.192-3.354 3.118-3.354.58 0 1.107.084 1.344.18v-2.798a4.644 4.644 0 0 0-1.026-.111c-1.718 0-3.048.984-3.505 2.632h-.07v-2.48h-2.854zm21.251 10.296h-2.84c-.401 1.26-1.706 2.05-3.367 2.05-2.356 0-3.923-1.634-3.923-4.129v-.18h10.297v-1.026c0-4.42-2.536-7.19-6.569-7.19-4.101 0-6.748 2.965-6.748 7.538 0 4.559 2.632 7.399 6.874 7.399 3.297 0 5.873-1.815 6.276-4.462zM59.296 12.448h-3.47v9.608h3.47c2.863 0 4.521-1.765 4.521-4.834 0-3.024-1.67-4.774-4.52-4.774zm6.207 5.979c0 2.35 1.298 3.77 3.422 3.77 2.117 0 3.417-1.42 3.417-3.77 0-2.337-1.306-3.762-3.417-3.762-2.117 0-3.422 1.425-3.422 3.762zm15.928 3.63l1.992-7.251H81.99l-1.293 5.532h-.112l-1.491-5.532h-1.372l-1.491 5.532h-.108l-1.298-5.532h-1.452l2 7.25h1.47l1.49-5.34h.115l1.498 5.34h1.484zm3.673-7.251v7.25h1.43v-4.243c0-1.13.673-1.837 1.73-1.837 1.06 0 1.566.58 1.566 1.746v4.334h1.431v-4.694c0-1.726-.892-2.697-2.51-2.697-1.092 0-1.812.487-2.164 1.292h-.106v-1.151h-1.377zm8.437 7.25h1.432V11.975H93.54v10.081zm3.42-3.63c0 2.352 1.298 3.77 3.422 3.77 2.117 0 3.417-1.418 3.417-3.77 0-2.336-1.306-3.76-3.417-3.76-2.118 0-3.422 1.424-3.422 3.76zm8.346 1.579c0 1.325 1.019 2.17 2.417 2.17.953 0 1.745-.412 2.177-1.138h.114v1.02h1.377v-4.955c0-1.532-1.025-2.437-2.842-2.437-1.646 0-2.817.8-2.963 2.044h1.385c.159-.512.713-.805 1.512-.805.977 0 1.483.433 1.483 1.198v.626l-1.963.113c-1.726.106-2.697.86-2.697 2.164zm7.965-1.578c0 2.297 1.166 3.748 3.01 3.748.998 0 1.845-.472 2.276-1.265h.115v1.146h1.37V11.975h-1.43v3.982h-.108c-.393-.799-1.23-1.272-2.223-1.272-1.831 0-3.01 1.45-3.01 3.742zm12.692 0c0 2.35 1.299 3.77 3.421 3.77 2.118 0 3.417-1.42 3.417-3.77 0-2.337-1.306-3.762-3.417-3.762-2.116 0-3.421 1.425-3.421 3.762zm8.759-3.621v7.25h1.43v-4.243c0-1.13.673-1.837 1.73-1.837 1.06 0 1.566.58 1.566 1.746v4.334h1.431v-4.694c0-1.726-.892-2.697-2.51-2.697-1.092 0-1.812.487-2.164 1.292h-.106v-1.151h-1.377zM148.965 13h-1.432v1.837h-1.15v1.206h1.15v4.094c0 1.398.633 1.958 2.224 1.958.279 0 .546-.033.78-.074v-1.191c-.2.02-.326.034-.546.034-.712 0-1.026-.334-1.026-1.094v-3.727h1.571v-1.206h-1.571V13zm3.526-1.026v10.081h1.43v-4.235c0-1.098.654-1.838 1.826-1.838 1.011 0 1.55.587 1.55 1.745v4.328h1.434v-4.68c0-1.725-.954-2.704-2.498-2.704-1.093 0-1.86.486-2.21 1.298h-.113v-3.995h-1.419zm14.582 8.123h-1.377c-.266.565-.858.88-1.726.88-1.143 0-1.882-.807-1.93-2.078v-.08h5.12v-.5c0-2.276-1.218-3.655-3.235-3.655-2.043 0-3.343 1.47-3.343 3.788 0 2.318 1.272 3.743 3.35 3.743 1.656 0 2.816-.798 3.14-2.098z"/><path d="M59.671 39.596h6.042l-2.98-8.77h-.083l-2.979 8.77zm24.459.61c0-2.952-1.525-4.892-3.853-4.892-2.285 0-3.823 1.98-3.823 4.892 0 2.937 1.538 4.905 3.823 4.905 2.328 0 3.853-1.928 3.853-4.905zm16.045 0c0-2.952-1.525-4.892-3.853-4.892-2.286 0-3.824 1.98-3.824 4.892 0 2.937 1.538 4.905 3.824 4.905 2.328 0 3.853-1.928 3.853-4.905zm47.573 0c0-3.146-1.442-5.004-3.866-5.004-2.425 0-3.866 1.87-3.866 5.004 0 3.16 1.44 5.001 3.866 5.001 2.424 0 3.866-1.842 3.866-5.001zM164.4 38.86h7.288c-.07-2.231-1.496-3.7-3.575-3.7-2.064 0-3.56 1.498-3.713 3.7zM57.319 20.697h1.811c2.01 0 3.167-1.251 3.167-3.455 0-2.17-1.177-3.436-3.167-3.436H57.32v6.891zm13.551-2.27c0-1.572-.707-2.49-1.945-2.49-1.245 0-1.944.918-1.944 2.49 0 1.584.7 2.497 1.944 2.497 1.238 0 1.945-.92 1.945-2.497zm31.458 0c0-1.572-.707-2.49-1.945-2.49-1.245 0-1.944.918-1.944 2.49 0 1.584.7 2.497 1.944 2.497 1.238 0 1.945-.92 1.945-2.497zm7.639.96v-.608l-1.77.113c-.998.068-1.45.407-1.45 1.047 0 .652.564 1.032 1.342 1.032 1.079 0 1.878-.686 1.878-1.585zm4.783-.96c0 1.537.725 2.463 1.937 2.463 1.206 0 1.952-.938 1.952-2.457 0-1.51-.754-2.463-1.952-2.463-1.204 0-1.937.932-1.937 2.457zm16.58 0c0-1.572-.707-2.49-1.945-2.49-1.244 0-1.943.918-1.943 2.49 0 1.584.699 2.497 1.943 2.497 1.238 0 1.945-.92 1.945-2.497zm30.71-.665h3.663c-.034-1.139-.727-1.88-1.786-1.88-1.058 0-1.797.748-1.878 1.88z"/></g></symbol><symbol id="arrow-left" viewBox="0 0 24 24"><path fill="currentColor" d="M15.41 16.59L10.83 12l4.58-4.59L14 6l-6 6 6 6 1.41-1.41z"/><path fill="none" d="M0 0h24v24H0V0z"/></symbol><symbol id="arrow-right" viewBox="0 0 24 24"><path fill="currentColor" d="M8.59 16.59L13.17 12 8.59 7.41 10 6l6 6-6 6-1.41-1.41z"/><path fill="none" d="M0 0h24v24H0V0z"/></symbol><symbol id="download" viewBox="0 0 14 14"><path d="M2.61.39A1.333 1.333 0 0 0 .723 2.277L6.057 7.61c.52.521 1.365.521 1.886 0l5.333-5.333A1.333 1.333 0 1 0 11.39.391L7 4.78 2.61.391z" fill="currentColor"/><path d="M2.61 5.724A1.333 1.333 0 0 0 .723 7.609l5.333 5.334c.52.52 1.365.52 1.886 0l5.333-5.334a1.333 1.333 0 1 0-1.886-1.885L7 10.114l-4.39-4.39z" fill="currentColor"/></symbol><symbol id="facebook" viewBox="0 0 14 22"><path fill="currentColor" fill-rule="evenodd" d="M4.032 22L4 12H0V8h4V5.5C4 1.789 6.298 0 9.61 0c1.585 0 2.948.118 3.345.17v3.88H10.66c-1.8 0-2.15.856-2.15 2.112V8h5.241l-2 4H8.51v10H4.032z"/></symbol><symbol id="faq" viewBox="0 0 16 16"><path d="M0 8.012C0 12.426 3.58 16 8 16a7.92 7.92 0 0 0 3.676-.888L16 16l-.889-4.342A7.89 7.89 0 0 0 16 7.988C16 3.574 12.42 0 8 0S0 3.55 0 8.012zM4.883 4.5a.5.5 0 0 0 0 1h6.233a.5.5 0 1 0 0-1H4.883zm0 3a.5.5 0 0 0 0 1h6.233a.5.5 0 1 0 0-1H4.883zm-.5 3.5a.5.5 0 0 1 .5-.5h6.233a.5.5 0 1 1 0 1H4.883a.5.5 0 0 1-.5-.5z" fill="currentColor" fill-rule="evenodd"/></symbol><symbol id="instagram" viewBox="0 0 24 24"><g fill="currentColor" fill-rule="evenodd"><path fill-rule="nonzero" d="M12 2.162c3.204 0 3.584.012 4.849.07 1.366.062 2.633.336 3.608 1.311.975.975 1.249 2.242 1.311 3.608.058 1.265.07 1.645.07 4.849s-.012 3.584-.07 4.849c-.062 1.366-.336 2.633-1.311 3.608-.975.975-2.242 1.249-3.608 1.311-1.265.058-1.645.07-4.849.07s-3.584-.012-4.849-.07c-1.366-.062-2.633-.336-3.608-1.311-.975-.975-1.249-2.242-1.311-3.608-.058-1.265-.07-1.645-.07-4.849s.012-3.584.07-4.849c.062-1.366.336-2.633 1.311-3.608.975-.975 2.242-1.249 3.608-1.311 1.265-.058 1.645-.07 4.849-.07zM12 0C8.741 0 8.332.014 7.052.072c-1.95.089-3.663.567-5.038 1.942C.639 3.389.161 5.102.072 7.052.014 8.332 0 8.741 0 12c0 3.259.014 3.668.072 4.948.089 1.95.567 3.663 1.942 5.038 1.375 1.375 3.088 1.853 5.038 1.942C8.332 23.986 8.741 24 12 24c3.259 0 3.668-.014 4.948-.072 1.95-.089 3.663-.567 5.038-1.942 1.375-1.375 1.853-3.088 1.942-5.038.058-1.28.072-1.689.072-4.948 0-3.259-.014-3.668-.072-4.948-.089-1.95-.567-3.663-1.942-5.038C20.611.639 18.898.161 16.948.072 15.668.014 15.259 0 12 0z"/><path fill-rule="nonzero" d="M12.162 6a6.162 6.162 0 1 0 0 12.324 6.162 6.162 0 0 0 0-12.324zm0 10.162a4 4 0 1 1 0-8 4 4 0 0 1 0 8z"/><circle cx="18.44" cy="5.44" r="1.44"/></g></symbol><symbol id="linkedin" viewBox="0 0 24 24"><path fill="currentColor" fill-rule="nonzero" d="M23 0H1C.4 0 0 .4 0 1v22c0 .6.4 1 1 1h22c.6 0 1-.4 1-1V1c0-.6-.4-1-1-1zM7.1 20.5H3.6V9h3.6v11.5h-.1zM5.3 7.4c-1.1 0-2.1-.9-2.1-2.1 0-1.1.9-2.1 2.1-2.1 1.1 0 2.1.9 2.1 2.1 0 1.2-.9 2.1-2.1 2.1zm15.2 13.1h-3.6v-5.6c0-1.3 0-3-1.8-3-1.9 0-2.1 1.4-2.1 2.9v5.7H9.4V9h3.4v1.6c.5-.9 1.6-1.8 3.4-1.8 3.6 0 4.3 2.4 4.3 5.5v6.2z"/></symbol><symbol id="mail" viewBox="0 0 24 21"><g fill="none" fill-rule="evenodd"><path d="M0-1h24v24H0z"/><path fill="currentColor" fill-rule="nonzero" d="M23 .99H1a1 1 0 0 0-1 1v18a1 1 0 0 0 1 1h22a1 1 0 0 0 1-1v-18a1 1 0 0 0-1-1zM8.207 14.197l-2.5 2.5a.997.997 0 0 1-1.414 0 .999.999 0 0 1 0-1.414l2.5-2.5 1.414 1.414zm11.5 2.5a.997.997 0 0 1-1.414 0l-2.5-2.5 1.414-1.414 2.5 2.5a.999.999 0 0 1 0 1.414zm0-10l-7 7a.997.997 0 0 1-1.414 0l-7-7a.999.999 0 1 1 1.414-1.414L12 11.576l6.293-6.293a.999.999 0 1 1 1.414 1.414z"/></g></symbol><symbol id="seperator" viewBox="0 0 22 22"><rect width="13.348" height="13.348" x="2.764" y="2.764" fill="none" fill-rule="evenodd" stroke="currentColor" stroke-width="3.652" rx="1.826" transform="rotate(-45 12.853 8.024)"/></symbol><symbol id="twitter" viewBox="0 0 24 20"><path fill="currentColor" fill-rule="evenodd" d="M24 2.6c-.9.4-1.8.7-2.8.8 1-.6 1.8-1.6 2.2-2.7-1 .6-2 1-3.1 1.2-.9-1-2.2-1.6-3.6-1.6-2.7 0-4.9 2.2-4.9 4.9 0 .4 0 .8.1 1.1-4.2-.2-7.8-2.2-10.2-5.2-.5.8-.7 1.6-.7 2.5 0 1.7.9 3.2 2.2 4.1-.8 0-1.6-.2-2.2-.6v.1c0 2.4 1.7 4.4 3.9 4.8-.4.1-.8.2-1.3.2-.3 0-.6 0-.9-.1.6 2 2.4 3.4 4.6 3.4-1.7 1.3-3.8 2.1-6.1 2.1-.4 0-.8 0-1.2-.1 2.2 1.4 4.8 2.2 7.5 2.2 9.1 0 14-7.5 14-14v-.6c1-.7 1.8-1.6 2.5-2.5z"/></symbol><symbol id="youtube" viewBox="0 0 24 18"><path fill="currentColor" fill-rule="nonzero" d="M23.8 4.2s-.2-1.7-1-2.4c-.9-1-1.9-1-2.4-1C17 .6 12 .6 12 .6s-5 0-8.4.2c-.5.1-1.5.1-2.4 1-.7.7-1 2.4-1 2.4S0 6.1 0 8.1v1.8c0 1.9.2 3.9.2 3.9s.2 1.7 1 2.4c.9 1 2.1.9 2.6 1 1.9.2 8.2.2 8.2.2s5 0 8.4-.3c.5-.1 1.5-.1 2.4-1 .7-.7 1-2.4 1-2.4s.2-1.9.2-3.9V8c0-1.9-.2-3.8-.2-3.8zM9.5 12.1V5.4L16 8.8l-6.5 3.3z"/></symbol></svg>