<svg xmlns="http://www.w3.org/2000/svg" viewBox="0 0 171 24"><g fill="none" fill-rule="nonzero"><path fill="#00F" d="M2.619 13.954c3.37-3.308 8.833-3.308 12.203 0a8.361 8.361 0 0 1 2.51 5.484c-.255-2.102-2.08-3.737-4.29-3.737-2.385 0-4.323 1.905-4.323 4.244C8.72 22.285 6.79 24 4.405 24 2.024 24 0 22.286 0 19.947c0-.002-.005-.283 0-.422.1-2.026 1.042-4.023 2.619-5.57zm23.374 5.993l-.007-.285c-.083-3.639-1.728-6.907-4.307-9.178a13.033 13.033 0 0 1 8.637-3.244c7.026 0 12.741 5.498 12.934 12.352-.19-4.51-3.984-8.12-8.623-8.12-4.761 0-8.634 3.801-8.634 8.475z"/><path fill="#00E4ED" d="M20.82 9.785A17.354 17.354 0 0 1 34.625 3C44.143 3 52 10.602 52 19.946 52 22.285 49.956 24 47.573 24c-2.383 0-4.314-1.715-4.314-4.054 0-.12-.004-.238-.01-.355-.19-6.854-5.905-12.353-12.935-12.35a13.028 13.028 0 0 0-8.632 3.24c2.645 2.33 4.311 5.71 4.311 9.463 0 2.34-1.933 4.007-4.314 4.056-1.643.033-4.423-1.022-4.346-4.563a8.361 8.361 0 0 0-2.511-5.483c-3.37-3.308-8.833-3.308-12.203 0C1.042 15.502.1 17.498 0 19.524.227 12.707 6.045 7.231 13.042 7.231c2.917 0 5.61.95 7.778 2.554z"/><path fill="#00F" d="M139.603 9.592h-.002V.727h3.103V23.61h-3.103v-1.923c-.98 1.061-2.775 2.182-4.9 2.182-4.332 0-7.243-3.137-7.243-7.806v-.26c0-4.817 3.075-8.18 7.478-8.18 1.962 0 3.532.663 4.667 1.97zm-4.636 11.632c2.959 0 4.725-2.005 4.725-5.362v-.26c0-3.488-1.563-5.332-4.521-5.332-2.872 0-4.52 1.975-4.52 5.418v.261c0 3.253 1.653 5.275 4.316 5.275zm17.681-13.605c4.555 0 7.858 3.355 7.858 7.978v.23c0 4.64-3.317 8.006-7.887 8.006-4.536 0-7.829-3.356-7.829-7.978v-.23c0-4.64 3.305-8.006 7.858-8.006zm-4.541 8.007v.229c0 3.288 1.662 5.331 4.541 5.331 2.835 0 4.541-2.092 4.541-5.331v-.2c0-3.275-1.706-5.39-4.541-5.39-2.879 0-4.541 2.054-4.541 5.36zm-39.789 5.51c.669 0 1.227-.091 1.75-.294l.46-.176v2.731l-.225.079c-.503.174-1.116.335-2.192.335-2.797 0-4.466-1.608-4.466-4.3v-8.925h-2.195V7.912h2.195v-3.42h3.106v3.422h3.573v2.674h-3.573v8.694c0 1.249.513 1.855 1.567 1.855zm60.457-13.482c.548-.016 1.771-.016 1.771-.016v3.015s-1.916-.152-3.004.294c-1.674.687-2.037 2.064-2.037 4.08v8.582h-3.133v-9.03c0-5.743 3.691-6.838 6.403-6.925zm-94.38 15.957h-3.134v-9.322c0-2.159-.488-3.904-3.15-3.904-2.49 0-3.411 1.757-3.411 4.222v9.004h-3.133v-9.068c0-6.25 4.582-6.924 6.414-6.924 1.14 0 3.345.26 4.848 1.966 1.502-1.703 3.707-1.966 4.848-1.966 1.832 0 6.414.674 6.414 6.924v9.068h-3.133v-9.004c0-2.465-.919-4.222-3.41-4.222-2.665 0-3.15 1.745-3.15 3.904v9.322h-.003zm44.476-15.992c3.492 0 6.322 2.376 6.32 5.756l-.002 10.237h-3.102v-1.889c-1.851 3.08-6.23 2.219-7.739 1.04-1.179-.923-1.924-1.99-1.924-3.846 0-1.72 1.11-5.3 6.597-5.3 1.784 0 3.068.544 3.068.544v-.786c0-1.81-1.362-3.027-3.218-3.027-1.19 0-2.174.552-2.729 1.424l-2.61-1.48c1.122-1.637 3.092-2.673 5.339-2.673zm3.266 10.343v-1.257c-.832-.465-2.331-.532-2.852-.532-2.693 0-3.75 1.34-3.75 2.73 0 1.187 1.007 2.31 2.908 2.31 1.467 0 3.694-1.103 3.694-3.251zM92.98 7.619c3.49 0 6.32 2.376 6.32 5.756L99.3 23.612h-3.103v-1.889c-1.85 3.08-6.23 2.219-7.738 1.04-1.18-.923-1.925-1.99-1.925-3.846 0-1.72 1.11-5.3 6.597-5.3 1.785 0 3.068.544 3.068.544v-.786c0-1.81-1.362-3.027-3.218-3.027-1.19 0-2.173.552-2.729 1.424l-2.61-1.48c1.122-1.637 3.092-2.673 5.339-2.673zm3.266 10.343v-1.257c-.832-.465-2.33-.532-2.852-.532-2.693 0-3.75 1.34-3.75 2.73 0 1.187 1.008 2.31 2.908 2.31 1.468 0 3.694-1.103 3.694-3.251z"/></g></svg>