<svg viewBox="0 0 941 810" xmlns="http://www.w3.org/2000/svg"><path d="M4.909 383.632c-8.698-15.066-3.536-34.331 11.53-43.03L598.974 4.275c15.066-8.698 34.332-3.536 43.03 11.53l25.02 43.336c8.698 15.066 3.536 34.331-11.53 43.03L72.959 438.498c-15.067 8.698-34.332 3.536-43.03-11.53l-25.02-43.336zm111.467 29.799l35.658-20.587c15.066-8.699 34.331-3.537 43.03 11.53l25.02 43.335c8.668 15.015 3.571 34.2-11.376 42.94l-127.4 73.555c-15.067 8.699-20.229 27.964-11.53 43.03l25.02 43.335c8.698 15.067 27.963 20.229 43.029 11.53l582.536-336.327c15.066-8.698 20.228-27.963 11.53-43.03l-25.02-43.335c-8.675-15.026-27.86-20.2-42.908-11.6l91.558-52.861c15.066-8.698 20.228-27.964 11.53-43.03l-25.02-43.335c-8.699-15.067-27.964-20.228-43.03-11.53L116.468 413.378l-.092.053zm535.691-48.228c-14.99 8.725-20.111 27.939-11.431 42.973l25.019 43.335c8.688 15.048 27.918 20.216 42.976 11.561l159.931-92.336c15.066-8.698 34.331-3.536 43.03 11.53l25.019 43.335c8.699 15.067 3.539 34.332-11.53 43.03L342.546 804.958c-15.066 8.699-34.331 3.537-43.03-11.53l-25.019-43.335c-8.678-15.03-3.562-34.239 11.421-42.967l-43.4 25.057c-15.066 8.699-34.331 3.536-43.03-11.53l-25.02-43.335c-8.698-15.066-3.536-34.332 11.53-43.03l466.069-269.085z" fill="#FFF" fill-rule="evenodd"/></svg>