<svg width="1440" height="169" viewBox="0 0 1400 169" xmlns="http://www.w3.org/2000/svg" xmlns:xlink="http://www.w3.org/1999/xlink"><defs><path d="M0 0h1440v169C1248.667 68.333 1008.667 18 720 18S191.333 68.333 0 169V0z" id="a"/></defs><g fill="none" fill-rule="evenodd"><path d="M1440 169H0V0c191.333 100.667 431.333 151 720 151s528.667-50.333 720-151v169z" fill="#FFF"/><g transform="rotate(-180 720 84.5)"><mask id="b" fill="#fff"><use xlink:href="#a"/></mask><g mask="url(#b)"><g fill="#FCFCFC" transform="translate(-171 -210)"><path d="M944.68 869.406c329.995 82.278 648.47-28.772 692.173-204.06 43.704-175.288-187.907-398.713-525-438-337.092-39.287-957.295 4.712-1001 180C67.15 582.635 614.683 787.13 944.68 869.407v-.001z"/><ellipse transform="rotate(49 1530.097 883.315)" cx="1530.097" cy="883.315" rx="800.262" ry="425.085"/><ellipse cx="700.5" cy="594" rx="700.5" ry="372"/></g></g></g></g></svg>