<svg xmlns="http://www.w3.org/2000/svg" viewBox="0 0 1448 940"><g fill="none" fill-rule="nonzero"><path fill="#00F" d="M1448 545V0C1046.98 586.497 395 1006 0 915v15c310 35 661-16 1448-385z" opacity=".05"/><path fill="#00F" d="M1448 427V144.041C1021 666.377 628.858 838.09 294 912 199.59 932.839 68.509 928.892.012 925.37l.01.517C286.767 961.368 701.119 920.953 1448 427z" opacity=".1"/><path fill="#00F" d="M303 916.624l-.326-1.974-.04.007-.039.008.405 1.959zM.034 931.003c98.488.178 200.694 8.836 303.371-12.421l-.81-3.917C200.435 935.815 98.951 927.179.022 927.003l.012 4zm303.292-12.406C737.82 846.892 1202.7 563.38 1448 257v-6C1203.3 556.62 736.18 843.108 302.674 914.65l.652 3.947z"/><circle cx="454.5" cy="876.5" r="22.5" fill="#00F"/><path fill="#FFF" d="M454.632 888.554a.855.855 0 0 0 .855-.856v-2.074c3.736-.259 5.709-2.462 5.709-5.625 0-3.525-2.183-4.821-5.709-5.832v-4.536c.771.19 1.246.63 1.486 1.352.164.494.572.903 1.092.903h1.838c.574 0 1.039-.486.927-1.049-.522-2.622-2.445-3.96-5.343-4.213v-1.322a.856.856 0 0 0-1.711 0v1.296c-3.446.233-5.604 2.255-5.604 5.184 0 3.24 1.71 4.692 5.604 5.833v5.003c-1.152-.203-1.709-.835-1.935-1.857-.115-.52-.535-.943-1.068-.943h-1.929c-.568 0-1.03.475-.934 1.035.476 2.749 2.437 4.494 5.866 4.771v2.074c0 .473.383.856.856.856zm-2.671-17.083c0-1.037.658-1.711 1.815-1.892v4.07c-1.289-.493-1.815-1.089-1.815-2.178zm5.368 8.995c0 1.166-.658 1.944-1.842 2.152v-4.459c1.289.492 1.842 1.115 1.842 2.307z"/><circle cx="1271" cy="438" r="39.5" fill="#FFF" stroke="#00F" stroke-width="5"/><path fill="#00F" d="M1251.23 451.696c.54 0 .97-.435.97-.972v-2.357c4.25-.294 6.49-2.798 6.49-6.391 0-4.005-2.48-5.478-6.49-6.627v-5.154c.92.226 1.47.765 1.73 1.657.14.499.55.905 1.07.905h2.36c.58 0 1.04-.485.94-1.05-.55-3.073-2.75-4.636-6.1-4.929v-1.502a.968.968 0 0 0-.97-.972c-.54 0-.97.435-.97.972v1.473c-3.92.265-6.37 2.562-6.37 5.891 0 3.681 1.94 5.331 6.37 6.627v5.684c-1.36-.239-1.99-1-2.23-2.236-.1-.524-.52-.945-1.06-.945h-2.46c-.57 0-1.03.474-.94 1.035.5 3.206 2.73 5.242 6.69 5.562v2.357c0 .537.43.972.97.972zm-3.04-19.41c0-1.178.75-1.944 2.07-2.15v4.624c-1.47-.559-2.07-1.237-2.07-2.474zm6.1 10.22c0 1.326-.74 2.209-2.09 2.445v-5.066c1.47.56 2.09 1.267 2.09 2.621zM1271.15 451.696c.54 0 .97-.435.97-.972v-2.357c4.25-.294 6.49-2.798 6.49-6.391 0-4.005-2.48-5.478-6.49-6.627v-5.154c.92.226 1.47.765 1.73 1.657.14.499.55.905 1.08.905h2.35c.58 0 1.04-.485.94-1.05-.55-3.073-2.75-4.636-6.1-4.929v-1.502a.968.968 0 0 0-.97-.972c-.54 0-.97.435-.97.972v1.473c-3.92.265-6.37 2.562-6.37 5.891 0 3.681 1.94 5.331 6.37 6.627v5.684c-1.36-.239-1.99-1-2.23-2.236-.1-.524-.52-.945-1.06-.945h-2.46c-.57 0-1.03.474-.94 1.035.5 3.206 2.73 5.242 6.69 5.562v2.357c0 .537.43.972.97.972zm-3.04-19.41c0-1.178.75-1.944 2.07-2.15v4.624c-1.47-.559-2.07-1.237-2.07-2.474zm6.1 10.22c0 1.326-.74 2.209-2.09 2.445v-5.066c1.47.56 2.09 1.267 2.09 2.621zM1291.07 451.696c.54 0 .97-.435.97-.972v-2.357c4.25-.294 6.49-2.798 6.49-6.391 0-4.005-2.48-5.478-6.49-6.627v-5.154c.92.226 1.47.765 1.73 1.657.14.499.56.905 1.08.905h2.35c.58 0 1.04-.485.94-1.05-.55-3.073-2.75-4.636-6.1-4.929v-1.502a.968.968 0 0 0-.97-.972c-.54 0-.97.435-.97.972v1.473c-3.92.265-6.37 2.562-6.37 5.891 0 3.681 1.94 5.331 6.37 6.627v5.684c-1.36-.239-1.99-1-2.23-2.236-.1-.524-.52-.945-1.05-.945h-2.47c-.57 0-1.03.474-.94 1.035.5 3.206 2.73 5.242 6.69 5.562v2.357c0 .537.43.972.97.972zm-3.03-19.41c0-1.178.74-1.944 2.06-2.15v4.624c-1.47-.559-2.06-1.237-2.06-2.474zm6.09 10.22c0 1.326-.74 2.209-2.09 2.445v-5.066c1.47.56 2.09 1.267 2.09 2.621z"/></g></svg>