<svg viewBox="0 0 500 500" xmlns="http://www.w3.org/2000/svg" xmlns:xlink="http://www.w3.org/1999/xlink"><defs><linearGradient x1="84.691%" y1="3.029%" x2="20.046%" y2="76.917%" id="b"><stop stop-color="#27CBFE" offset="0%"/><stop stop-color="#0471FE" offset="100%"/></linearGradient><path d="M260 3.091C222.297 5.783 154.91 154.451 69.969 177.53 23.864 189.984 0 119.235 0 119.235s43.282-3.945 85.53-22.338C123.734 80.161 204.862-.079 260 3.091z" id="a"/></defs><g fill="none" fill-rule="evenodd"><rect fill="#FFF" y="-2" width="500" height="500" rx="100"/><g fill-rule="nonzero"><g opacity=".8"><path d="M322.622 382.54c-11.684-43.488-48.513-28.817-50.957-27.922-31.756 11.526-56.192 41.107-104.225 41.107-36.273 0-9.316-46.107-24.35-61.06-14.726-14.606-70.963 24.712-91.09-91.21 0 0 42.545-2.664 82.19-20.042 35.9-15.718 133.625-95.248 174.632-96.405h.905c36.295 0 32.095 70.317 79.691 47.395 36.273-17.465 49.091-50.452 49.091-50.452.013.074.031.147.055.219C483.17 291.963 340.6 449.45 322.622 382.54z" opacity=".08" fill="#34374C"/></g><path d="M322.51 356.258c-11.679-43.432-48.493-28.78-50.935-27.886-31.743 11.512-56.17 41.055-104.183 41.055-36.257 0-9.312-46.048-24.339-60.983-14.72-14.587-70.934 24.68-91.053-91.094 0 0 42.528-2.66 82.155-20.015 35.887-15.698 133.57-95.127 174.56-96.283h.906c36.28 0 32.081 70.228 79.658 47.335C425.537 130.945 438.349 98 438.349 98c.014.074.032.147.055.218 44.589 167.579-97.923 324.867-115.894 258.04z" fill="#33F" opacity=".9" style="mix-blend-mode:darken"/><path d="M312 101.08c-37.756 2.688-104.32 163.474-189.348 186.471C76.482 300.018 56 227.915 56 227.915s43.343-3.938 85.65-22.301C179.908 188.904 256.784 97.915 312 101.08z" fill="#34374C" opacity=".173"/><g fill-rule="evenodd" transform="translate(52 98)"><use fill="#FFF" xlink:href="#a"/><use fill="url(#b)" xlink:href="#a"/></g><path d="M438.594 98c48.495 167.888-105.746 317.547-117.2 257.465-6.247-32.66-37.019-30.346-54.436-26.198-1.987.47-9.401 1.092-7.709 0 22.265-15.13 69.668-52.615 110.289-99.063C430.131 160.854 438.594 98 438.594 98z" fill="#34374C" opacity=".08"/><path d="M386.454 0c48.634 167.626-103.806 326.031-115.294 266.035C262.323 219.981 219 230.37 219 230.37s59.136-32.995 112.162-93.34C391.929 67.811 386.454 0 386.454 0z" fill="url(#b)" transform="translate(52 98)"/></g></g></svg>