<?xml version="1.0" standalone="no"?>
<!DOCTYPE svg PUBLIC "-//W3C//DTD SVG 1.1//EN" "http://www.w3.org/Graphics/SVG/1.1/DTD/svg11.dtd" >
<svg xmlns="http://www.w3.org/2000/svg" xmlns:xlink="http://www.w3.org/1999/xlink" version="1.1">
<metadata>
Created by FontForge 20170731 at Wed Aug 30 20:56:51 2017
 By Aleksey,,,
Copyright (C)2017 Commercial Type.
</metadata>
<defs>
<font id="GraphikCompact-Regular" horiz-adv-x="520" >
  <font-face 
    font-family="Graphik Compact Regular"
    font-weight="400"
    font-stretch="normal"
    units-per-em="1000"
    panose-1="1 0 2 1 1 0 0 1 0 1"
    ascent="809"
    descent="-191"
    x-height="523"
    cap-height="715"
    bbox="-206 -211 971 1082"
    underline-thickness="66"
    underline-position="-224"
    unicode-range="U+0020-FB02"
  />
<missing-glyph horiz-adv-x="500" 
 />
    <glyph glyph-name="uniFB00" unicode="ff" horiz-adv-x="555" 
d="M87 0v455h-65v68h65v87q0 71 36 110.5t105 39.5q30 0 53 -9v-65q-19 7 -46 7q-67 0 -67 -79v-91h172v94q0 71 36 110.5t106 39.5q29 0 53 -8v-66q-17 7 -47 7q-68 0 -68 -79v-98h110v-68h-110v-455h-80v455h-172v-455h-81z" />
    <glyph glyph-name=".notdef" horiz-adv-x="500" 
 />
    <glyph glyph-name=".null" horiz-adv-x="0" 
 />
    <glyph glyph-name="nonmarkingreturn" horiz-adv-x="333" 
 />
    <glyph glyph-name="space" unicode=" " horiz-adv-x="204" 
 />
    <glyph glyph-name="exclam" unicode="!" horiz-adv-x="251" 
d="M96 193l-14 522h88l-14 -522h-60zM126 -4q-25 0 -42.5 16.5t-17.5 41.5t17.5 42t42.5 17q24 0 41 -17.5t17 -41.5t-17 -41t-41 -17z" />
    <glyph glyph-name="quotedbl" unicode="&#x22;" horiz-adv-x="332" 
d="M65 489l-15 226h87l-15 -226h-57zM210 489l-14 226h86l-14 -226h-58z" />
    <glyph glyph-name="numbersign" unicode="#" horiz-adv-x="462" 
d="M79 128l25 174h-76v67h85l18 125h-78v68h87l22 153h66l-22 -153h85l22 153h65l-22 -153h77v-68h-86l-18 -125h79v-67h-88l-25 -174h-65l25 174h-85l-25 -174h-66zM179 369h85l18 125h-85z" />
    <glyph glyph-name="dollar" unicode="$" horiz-adv-x="536" 
d="M295 -123h-53v115q-190 17 -202 213h81q4 -66 31 -102.5t90 -43.5v283q-92 32 -137 77t-45 125q0 75 50.5 124.5t131.5 54.5v84h53v-85q79 -8 126 -54.5t52 -129.5h-77q-11 103 -101 117v-251q99 -34 144.5 -79.5t45.5 -133.5q0 -86 -53 -139.5t-137 -59.5v-115zM138 550
q0 -47 22 -75.5t82 -51.5v234q-49 -4 -76.5 -33t-27.5 -74zM404 186q0 53 -24.5 83t-84.5 54v-265q49 7 79 41t30 87z" />
    <glyph glyph-name="percent" unicode="%" horiz-adv-x="682" 
d="M182 415q-60 0 -104.5 43t-44.5 108q0 67 44 111t105 44t105 -43.5t44 -109.5t-44.5 -109.5t-104.5 -43.5zM98 0l413 715h72l-414 -715h-71zM182 477q36 0 56.5 24t20.5 67q0 41 -21 66t-56 25t-56 -24t-21 -68q0 -43 21 -66.5t56 -23.5zM500 -7q-60 0 -104.5 42.5
t-44.5 108.5q0 67 44 111t105 44q62 0 105.5 -43.5t43.5 -109.5q0 -67 -44 -110t-105 -43zM500 55q36 0 56.5 23.5t20.5 66.5q0 42 -21 67t-56 25t-56 -24.5t-21 -68.5q0 -43 21 -66t56 -23z" />
    <glyph glyph-name="ampersand" unicode="&#x26;" horiz-adv-x="592" 
d="M470 0l-58 81q-68 -89 -173 -89q-87 0 -141 50t-54 136v32q0 74 33.5 118.5t100.5 78.5q-58 78 -58 155q0 76 46 117.5t112 41.5q64 0 105 -40t41 -106q0 -117 -140 -183l133 -186l70 162h74l-99 -225l102 -143h-94zM198 563q0 -52 54 -126q54 28 75 57.5t21 81.5
q0 38 -20 59.5t-51 21.5q-35 0 -57 -23.5t-22 -70.5zM125 185q0 -61 31 -93.5t89 -32.5q76 0 129 76l-163 227q-43 -25 -64.5 -58.5t-21.5 -86.5v-32z" />
    <glyph glyph-name="quotesingle" unicode="'" horiz-adv-x="187" 
d="M65 489l-15 226h87l-15 -226h-57z" />
    <glyph glyph-name="parenleft" unicode="(" horiz-adv-x="293" 
d="M198 -143q-150 196 -150 455q0 260 150 456h78q-146 -200 -146 -456q0 -255 146 -455h-78z" />
    <glyph glyph-name="parenright" unicode=")" horiz-adv-x="293" 
d="M94 -141h-77q146 201 146 455t-146 455h77q151 -197 151 -455t-151 -455z" />
    <glyph glyph-name="asterisk" unicode="*" horiz-adv-x="384" 
d="M128 438l-55 39l76 100l-111 26l21 63l106 -44l-7 121h70l-8 -121l106 44l20 -63l-112 -26l76 -100l-53 -39l-67 109z" />
    <glyph glyph-name="plus" unicode="+" horiz-adv-x="455" 
d="M192 134v175h-159v66h159v175h70v-175h160v-66h-160v-175h-70z" />
    <glyph glyph-name="comma" unicode="," horiz-adv-x="243" 
d="M80 -113l-51 23l80 205l78 -33z" />
    <glyph glyph-name="hyphen" unicode="-" horiz-adv-x="301" 
d="M52 239v74h196v-74h-196z" />
    <glyph glyph-name="period" unicode="." horiz-adv-x="243" 
d="M122 -4q-24 0 -41.5 17t-17.5 41q0 25 17.5 42t41.5 17t41 -17t17 -42t-17 -41.5t-41 -16.5z" />
    <glyph glyph-name="slash" unicode="/" horiz-adv-x="362" 
d="M2 -142l261 912h73l-261 -912h-73z" />
    <glyph glyph-name="zero" unicode="0" horiz-adv-x="578" 
d="M292 -9q-109 0 -174 75t-65 205v173q0 131 63.5 205.5t173.5 74.5t173 -75t63 -204v-172q0 -131 -62 -206.5t-172 -75.5zM292 61q148 0 148 213v172q0 99 -39 154.5t-111 55.5q-73 0 -112 -53.5t-39 -158.5v-172q0 -106 39.5 -158.5t113.5 -52.5z" />
    <glyph glyph-name="one" unicode="1" horiz-adv-x="346" 
d="M162 0v630l-133 -101v80l139 106h78v-715h-84z" />
    <glyph glyph-name="two" unicode="2" horiz-adv-x="487" 
d="M23 0v18l231 283q96 122 96 226v9q0 59 -27.5 89.5t-78.5 30.5q-110 0 -121 -140h-79q4 97 56.5 152.5t143.5 55.5q90 0 140.5 -50t50.5 -139v-10q0 -66 -31 -129.5t-94 -140.5l-160 -187h288v-68h-415z" />
    <glyph glyph-name="three" unicode="3" horiz-adv-x="521" 
d="M469 188q0 -92 -58 -144.5t-158 -52.5q-97 0 -155 54.5t-60 145.5h78q4 -61 38 -96t99 -35q130 0 130 129v15q0 72 -32.5 105t-102.5 33h-37v68h36q63 0 91.5 30t28.5 90v10q0 116 -108 116q-54 0 -86.5 -32t-37.5 -87h-76q2 81 57 134t143 53t139 -50t51 -133v-11
q0 -115 -108 -151q128 -30 128 -173v-18z" />
    <glyph glyph-name="four" unicode="4" horiz-adv-x="538" 
d="M338 0v158h-306v24l278 533h110v-489h87v-68h-87v-158h-82zM132 226h206v409z" />
    <glyph glyph-name="five" unicode="5" horiz-adv-x="507" 
d="M246 -9q-96 0 -148.5 49.5t-57.5 131.5h79q10 -56 37 -84.5t89 -28.5q60 0 92 40.5t32 118.5v21q0 76 -34 115.5t-94 39.5q-84 0 -143 -59h-25v380h351v-73h-281v-224q49 43 122 43q85 0 137.5 -57.5t52.5 -163.5v-23q0 -107 -58 -166.5t-151 -59.5z" />
    <glyph glyph-name="six" unicode="6" horiz-adv-x="529" 
d="M276 -9q-112 0 -167.5 70.5t-55.5 189.5v163q0 151 63.5 230.5t169.5 79.5q79 0 129 -41.5t60 -123.5h-81q-17 96 -112 96q-65 0 -104.5 -57.5t-40.5 -169.5v-59q47 85 157 85q85 0 139 -55.5t54 -147.5v-51q0 -98 -56.5 -153.5t-154.5 -55.5zM276 58q59 0 92.5 37.5
t33.5 102.5v51q0 66 -33.5 102.5t-95.5 36.5q-60 0 -96.5 -37t-36.5 -103v-32q0 -80 36 -119t100 -39z" />
    <glyph glyph-name="seven" unicode="7" horiz-adv-x="459" 
d="M127 0l210 647h-307v68h408v-11l-226 -704h-85z" />
    <glyph glyph-name="eight" unicode="8" horiz-adv-x="525" 
d="M263 -9q-88 0 -151 51.5t-63 146.5v27q0 65 32 108t85 62q-96 37 -96 147v12q0 84 56.5 131.5t136.5 47.5t136 -47.5t56 -129.5v-13q0 -106 -99 -148q119 -42 119 -169v-26q0 -96 -62 -148t-150 -52zM264 417q50 0 78 30t28 86v13q0 52 -29.5 81.5t-77.5 29.5
q-50 0 -79 -29t-29 -84v-13q0 -54 30 -84t79 -30zM263 60q58 0 92.5 34.5t34.5 99.5v26q0 63 -35 97t-91 34q-57 0 -93 -34t-36 -99v-26q0 -64 35.5 -98t92.5 -34z" />
    <glyph glyph-name="nine" unicode="9" horiz-adv-x="529" 
d="M249 -9q-86 0 -139.5 44.5t-62.5 128.5h81q16 -104 123 -104q141 0 142 216v69q-45 -83 -156 -83q-85 0 -140 55t-55 147v48q0 99 58.5 155.5t157.5 56.5q105 0 161.5 -66t56.5 -190v-188q0 -145 -59.5 -217t-167.5 -72zM258 658q-61 0 -96 -39t-35 -104v-48
q0 -66 33 -102.5t94 -36.5q62 0 98.5 36t36.5 102v34q0 79 -35 118.5t-96 39.5z" />
    <glyph glyph-name="colon" unicode=":" horiz-adv-x="251" 
d="M126 294q-24 0 -41.5 17t-17.5 42t17.5 42t41.5 17t41 -17t17 -42t-17 -42t-41 -17zM126 -4q-24 0 -41.5 17t-17.5 41q0 25 17.5 42t41.5 17t41 -17t17 -42t-17 -41.5t-41 -16.5z" />
    <glyph glyph-name="semicolon" unicode=";" horiz-adv-x="251" 
d="M133 294q-24 0 -41.5 17t-17.5 42t17.5 42t41.5 17t41.5 -17t17.5 -42t-17.5 -42t-41.5 -17zM67 -113l-51 23l80 205l78 -33z" />
    <glyph glyph-name="less" unicode="&#x3c;" horiz-adv-x="445" 
d="M388 120l-344 191v20l344 192v-77l-228 -125l228 -124v-77z" />
    <glyph glyph-name="equal" unicode="=" horiz-adv-x="436" 
d="M401 369h-366v69h366v-69zM401 204h-366v68h366v-68z" />
    <glyph glyph-name="greater" unicode="&#x3e;" horiz-adv-x="445" 
d="M57 120v77l228 124l-228 125v77l343 -192v-19z" />
    <glyph glyph-name="question" unicode="?" horiz-adv-x="430" 
d="M153 193v56q0 28 5.5 51t21 48.5t24.5 37t36 43.5q24 29 34.5 43t20.5 38.5t10 51.5q0 95 -90 95q-48 0 -75.5 -29.5t-31.5 -86.5h-76q4 86 53 134.5t131 48.5q85 0 127.5 -43.5t42.5 -117.5q0 -36 -14 -69.5t-26.5 -50t-45.5 -54.5q-40 -44 -57.5 -74.5t-17.5 -70.5v-51
h-72zM191 -4q-24 0 -41.5 17t-17.5 41q0 25 17.5 42t41.5 17t41 -17t17 -42t-17 -41.5t-41 -16.5z" />
    <glyph glyph-name="at" unicode="@" horiz-adv-x="790" 
d="M400 -141q-167 0 -261.5 103t-94.5 260v80q1 166 104 273t257 107q156 0 249 -91.5t93 -234.5v-83q0 -105 -48 -157.5t-110 -52.5q-89 0 -104 79q-19 -37 -52.5 -60.5t-74.5 -23.5q-63 0 -100.5 42t-34.5 116l4 56q3 89 47.5 143t112.5 54q80 0 103 -61l5 53h78l-27 -267
q-7 -74 45 -74q40 0 65 37t25 114v83q0 124 -72.5 195t-203.5 71q-132 0 -211.5 -86.5t-79.5 -231.5v-78q0 -132 74 -217.5t212 -85.5q127 0 200 79h71q-34 -65 -106.5 -103t-164.5 -38zM376 120q42 0 70 35.5t30 99.5l4 51q1 49 -20 74.5t-61 25.5q-41 0 -66.5 -35
t-26.5 -98l-5 -56q-1 -46 18.5 -71.5t56.5 -25.5z" />
    <glyph glyph-name="A" unicode="A" horiz-adv-x="564" 
d="M451 0l-51 194h-240l-51 -194h-79l195 715h117l192 -715h-83zM280 647l-102 -387h204z" />
    <glyph glyph-name="B" unicode="B" horiz-adv-x="540" 
d="M74 0v715h180q211 0 211 -174v-19q0 -111 -107 -145q70 -15 102.5 -54t32.5 -112v-16q0 -97 -56 -146t-161 -49h-202zM156 405h98q69 0 99 28t30 91v18q0 59 -31.5 83t-99.5 24h-96v-244zM156 66h118q137 0 137 128v19q0 69 -34 97.5t-111 28.5h-110v-273z" />
    <glyph glyph-name="C" unicode="C" horiz-adv-x="605" 
d="M321 -9q-125 0 -197 80t-72 218v137q0 134 75 216.5t194 82.5q100 0 166.5 -54t74.5 -159h-83q-9 74 -47.5 110t-109.5 36q-86 0 -135 -62t-49 -170v-136q0 -110 47.5 -170.5t136.5 -60.5q71 0 116 40t52 119h78q-10 -114 -76 -170.5t-171 -56.5z" />
    <glyph glyph-name="D" unicode="D" horiz-adv-x="600" 
d="M74 715h176q147 0 221.5 -76.5t74.5 -210.5v-140q0 -133 -74 -210.5t-222 -77.5h-176v715zM245 648h-88v-580h89q214 0 214 221v139q0 107 -51 163.5t-164 56.5z" />
    <glyph glyph-name="E" unicode="E" horiz-adv-x="490" 
d="M74 0v715h361v-68h-278v-241h226v-67h-226v-271h294v-68h-377z" />
    <glyph glyph-name="F" unicode="F" horiz-adv-x="469" 
d="M74 0v715h361v-68h-278v-255h220v-68h-220v-324h-83z" />
    <glyph glyph-name="G" unicode="G" horiz-adv-x="634" 
d="M343 291v69h241v-105q0 -129 -68.5 -196.5t-186.5 -67.5q-133 0 -205 80t-72 215v142q0 134 75.5 215.5t200.5 81.5q100 0 165.5 -49.5t76.5 -157.5h-83q-19 140 -157 140q-93 0 -142.5 -61t-49.5 -168v-142q0 -107 48.5 -167.5t142.5 -60.5q87 0 130 50.5t43 142.5v39
h-159z" />
    <glyph glyph-name="H" unicode="H" horiz-adv-x="610" 
d="M74 0v715h83v-322h296v322h83v-715h-83v322h-296v-322h-83z" />
    <glyph glyph-name="I" unicode="I" horiz-adv-x="241" 
d="M79 0v715h83v-715h-83z" />
    <glyph glyph-name="J" unicode="J" horiz-adv-x="358" 
d="M114 -7q-51 0 -85 16v68q37 -16 79 -16q97 0 97 116v538h84v-542q0 -92 -49 -136t-126 -44z" />
    <glyph glyph-name="K" unicode="K" horiz-adv-x="530" 
d="M74 0v715h83v-342l255 342h91l-261 -341l273 -374h-96l-262 357v-357h-83z" />
    <glyph glyph-name="L" unicode="L" horiz-adv-x="461" 
d="M74 0v715h83v-647h274v-68h-357z" />
    <glyph glyph-name="M" unicode="M" horiz-adv-x="722" 
d="M74 0v715h112l177 -532l172 532h114v-715h-83v588l-195 -588h-24l-198 588v-588h-75z" />
    <glyph glyph-name="N" unicode="N" horiz-adv-x="608" 
d="M74 0v715h106l277 -567v567h77v-715h-93l-290 599v-599h-77z" />
    <glyph glyph-name="O" unicode="O" horiz-adv-x="666" 
d="M335 -9q-126 0 -203.5 82.5t-77.5 212.5v142q0 131 77 213.5t203 82.5t202 -82t76 -212v-142q0 -131 -76 -214t-201 -83zM335 60q90 0 140.5 62.5t50.5 165.5v141q0 100 -50.5 163.5t-141.5 63.5q-93 0 -143.5 -61.5t-50.5 -165.5v-142q0 -104 53 -165.5t142 -61.5z" />
    <glyph glyph-name="P" unicode="P" horiz-adv-x="507" 
d="M74 0v715h178q101 0 161.5 -48t60.5 -146v-22q0 -98 -61 -147.5t-161 -49.5h-95v-302h-83zM157 368h99q65 0 99.5 33.5t34.5 97.5v22q0 68 -34 97.5t-100 29.5h-99v-280z" />
    <glyph glyph-name="Q" unicode="Q" horiz-adv-x="666" 
d="M335 -9q-126 0 -203.5 82.5t-77.5 212.5v142q0 131 77 213.5t203 82.5t202 -82t76 -212v-142q0 -151 -98 -235l73 -88l-55 -48l-80 97q-54 -23 -117 -23zM335 60q37 0 70 11l-64 77l56 48l70 -85q59 59 59 177v141q0 100 -50.5 163.5t-141.5 63.5q-93 0 -143.5 -61.5
t-50.5 -165.5v-142q0 -104 53 -165.5t142 -61.5z" />
    <glyph glyph-name="R" unicode="R" horiz-adv-x="542" 
d="M74 0v715h187q102 0 161.5 -46t59.5 -140v-19q0 -149 -148 -182l178 -328h-93l-171 320h-91v-320h-83zM157 386h107q135 0 135 124v19q0 64 -34 91.5t-101 27.5h-107v-262z" />
    <glyph glyph-name="S" unicode="S" horiz-adv-x="533" 
d="M272 -9q-110 0 -166.5 57t-62.5 157h81q5 -73 37.5 -109.5t110.5 -36.5q56 0 91.5 34t35.5 93q0 62 -31.5 93.5t-115.5 59.5q-99 33 -145 77.5t-46 127.5q0 80 54.5 130t141.5 50q93 0 147.5 -47t60.5 -139h-77q-12 118 -131 118q-56 0 -87 -28.5t-31 -77.5
q0 -53 28.5 -82t112.5 -56q106 -34 153.5 -81.5t47.5 -139.5q0 -91 -58.5 -145.5t-150.5 -54.5z" />
    <glyph glyph-name="T" unicode="T" horiz-adv-x="481" 
d="M198 0v647h-172v68h429v-68h-173l-1 -647h-83z" />
    <glyph glyph-name="U" unicode="U" horiz-adv-x="598" 
d="M444 715h85v-483q0 -116 -59.5 -178.5t-174.5 -62.5q-107 0 -166.5 60t-59.5 173v491h85v-484q0 -90 34.5 -130t108.5 -40q73 0 110 40.5t37 138.5v475z" />
    <glyph glyph-name="V" unicode="V" horiz-adv-x="550" 
d="M277 83l168 632h79l-197 -715h-107l-194 715h83z" />
    <glyph glyph-name="W" unicode="W" horiz-adv-x="788" 
d="M180 0l-151 715h85l115 -564l135 564h66l136 -566l116 566h77l-151 -715h-79l-133 549l-138 -549h-78z" />
    <glyph glyph-name="X" unicode="X" horiz-adv-x="557" 
d="M35 0l194 370l-182 345h91l146 -278l142 278h86l-182 -345l192 -370h-93l-155 304l-155 -304h-84z" />
    <glyph glyph-name="Y" unicode="Y" horiz-adv-x="512" 
d="M219 0v312l-199 403h92l151 -324l147 324h82l-188 -404v-311h-85z" />
    <glyph glyph-name="Z" unicode="Z" horiz-adv-x="501" 
d="M23 0v13l333 634h-301v68h413v-12l-328 -633h321v-70h-438z" />
    <glyph glyph-name="bracketleft" unicode="[" horiz-adv-x="307" 
d="M73 -143v912h198v-62h-119v-787h119v-63h-198z" />
    <glyph glyph-name="backslash" unicode="\" horiz-adv-x="362" 
d="M98 770l261 -912h-73l-261 912h73z" />
    <glyph glyph-name="bracketright" unicode="]" horiz-adv-x="307" 
d="M235 -143h-199v63h120v787h-120v62h199v-912z" />
    <glyph glyph-name="asciicircum" unicode="^" horiz-adv-x="442" 
d="M37 426l143 289h83l142 -289h-81l-104 219l-103 -219h-80z" />
    <glyph glyph-name="underscore" unicode="_" horiz-adv-x="343" 
d="M-1 -150v62h345v-62h-345z" />
    <glyph glyph-name="grave" unicode="`" horiz-adv-x="400" 
d="M178 605l-96 145h100l56 -145h-60z" />
    <glyph glyph-name="a" unicode="a" horiz-adv-x="471" 
d="M191 -8q-69 0 -111 38.5t-42 109.5v9q0 81 59 118t156 37h72v54q0 55 -21.5 80.5t-70.5 25.5q-89 0 -97 -84h-79q5 76 54 113.5t125 37.5q78 0 123.5 -41.5t45.5 -131.5v-358h-80v58q-47 -66 -134 -66zM203 55q56 0 89 27.5t33 80.5v83h-69q-139 0 -139 -97v-7
q0 -87 86 -87z" />
    <glyph glyph-name="b" unicode="b" horiz-adv-x="532" 
d="M68 764h80v-318q20 37 60.5 61t89.5 24q86 0 138 -57t52 -158v-103q0 -102 -52.5 -161.5t-141.5 -59.5q-51 0 -89 22.5t-57 58.5v-73h-80v764zM147 217q0 -79 35.5 -119t98.5 -40q125 0 125 153v102q0 76 -34 114t-90 38q-61 0 -98 -41t-37 -119v-88z" />
    <glyph glyph-name="c" unicode="c" horiz-adv-x="484" 
d="M255 -8q-94 0 -153 58t-59 163v95q0 103 60 163t149 60q80 0 133 -40.5t60 -130.5h-78q-10 105 -115 105q-58 0 -93 -41t-35 -116v-95q0 -78 35 -116.5t96 -38.5q48 0 81.5 29.5t36.5 89.5h75q-4 -87 -57 -136t-136 -49z" />
    <glyph glyph-name="d" unicode="d" horiz-adv-x="532" 
d="M463 764v-764h-80v77q-20 -36 -60.5 -60.5t-88.5 -24.5q-86 0 -138 56.5t-52 158.5v102q0 102 54 162t144 60q98 0 141 -81v314h80zM384 217v89q0 79 -34 119t-97 40q-62 0 -94.5 -39.5t-32.5 -115.5v-102q0 -76 32.5 -113t88.5 -37q62 0 99.5 40.5t37.5 118.5z" />
    <glyph glyph-name="e" unicode="e" horiz-adv-x="488" 
d="M253 -8q-96 0 -153 59.5t-57 163.5v93q0 102 56.5 162.5t148.5 60.5q88 0 143 -54t55 -164v-67h-322v-31q0 -157 130 -157q99 0 113 89h78q-9 -77 -59.5 -116t-132.5 -39zM248 465q-55 0 -89.5 -39.5t-34.5 -115.5h242v13q0 142 -118 142z" />
    <glyph glyph-name="f" unicode="f" horiz-adv-x="304" 
d="M87 0v455h-65v68h65v94q0 71 36 110.5t106 39.5q30 0 54 -8v-66q-19 7 -47 7q-68 0 -68 -79v-98h110v-68h-110v-455h-81z" />
    <glyph glyph-name="g" unicode="g" horiz-adv-x="528" 
d="M250 -187q-94 0 -143.5 40.5t-57.5 107.5h81q12 -81 119 -81q130 0 130 136v79q-20 -36 -59.5 -60.5t-86.5 -24.5q-85 0 -137 56.5t-52 153.5v95q0 96 54 156t142 60q96 0 139 -81v73h80v-510q0 -100 -56 -150t-153 -50zM246 76q61 0 97.5 40t36.5 113v82
q0 75 -33.5 114.5t-95.5 39.5q-60 0 -92.5 -39.5t-32.5 -109.5v-96q0 -70 32.5 -107t87.5 -37z" />
    <glyph glyph-name="h" unicode="h" horiz-adv-x="508" 
d="M68 0v764h80v-314q17 36 53.5 58.5t87.5 22.5q72 0 113.5 -44.5t41.5 -137.5v-349h-81v353q0 56 -23.5 83t-73.5 27t-84 -31.5t-34 -86.5v-345h-80z" />
    <glyph glyph-name="i" unicode="i" horiz-adv-x="220" 
d="M109 620q-22 0 -37 15t-15 37t15 37.5t37 15.5t37 -15.5t15 -37.5t-15 -37t-37 -15zM70 0v523h80v-523h-80z" />
    <glyph glyph-name="j" unicode="j" horiz-adv-x="220" 
d="M109 620q-22 0 -37 15t-15 37t15 37.5t37 15.5t37 -15.5t15 -37.5t-15 -37t-37 -15zM-4 -185v67q40 4 57 23t17 54v564h80v-558q0 -73 -36 -110.5t-118 -39.5z" />
    <glyph glyph-name="k" unicode="k" horiz-adv-x="452" 
d="M68 0v764h80v-482l187 241h89l-192 -243l205 -280h-93l-196 269v-269h-80z" />
    <glyph glyph-name="l" unicode="l" horiz-adv-x="223" 
d="M71 0v764h81v-764h-81z" />
    <glyph glyph-name="m" unicode="m" horiz-adv-x="772" 
d="M68 0v523h80v-71q17 35 51 57t81 22q98 0 129 -86q21 42 63 64t88 22q67 0 107.5 -44.5t40.5 -137.5v-349h-81v352q0 58 -21.5 84.5t-66.5 26.5q-46 0 -78.5 -31.5t-32.5 -87.5v-344h-80v352q0 111 -89 111q-46 0 -78.5 -31.5t-32.5 -87.5v-344h-80z" />
    <glyph glyph-name="n" unicode="n" horiz-adv-x="508" 
d="M68 0v523h80v-73q17 36 53.5 58.5t87.5 22.5q72 0 113.5 -44.5t41.5 -137.5v-349h-81v353q0 56 -23.5 83t-73.5 27t-84 -31.5t-34 -86.5v-345h-80z" />
    <glyph glyph-name="o" unicode="o" horiz-adv-x="512" 
d="M255 -8q-95 0 -153.5 61t-58.5 161v94q0 102 59 162.5t154 60.5t154 -60t59 -162v-94q0 -102 -59 -162.5t-155 -60.5zM256 58q62 0 96.5 41.5t34.5 114.5v93q0 74 -34.5 116t-96.5 42t-97 -41.5t-35 -115.5v-94q0 -73 34.5 -114.5t97.5 -41.5z" />
    <glyph glyph-name="p" unicode="p" horiz-adv-x="532" 
d="M68 523h80v-77q20 37 60.5 61t89.5 24q86 0 138 -57t52 -158v-103q0 -102 -52.5 -161.5t-141.5 -59.5q-51 0 -89 22.5t-57 58.5v-252h-80v702zM147 217q0 -79 35.5 -119t98.5 -40q125 0 125 153v102q0 76 -34 114t-90 38q-61 0 -98 -41t-37 -119v-88z" />
    <glyph glyph-name="q" unicode="q" horiz-adv-x="532" 
d="M463 523v-702h-80v256q-20 -36 -60.5 -60.5t-88.5 -24.5q-86 0 -138 56.5t-52 158.5v102q0 102 54 162t144 60q98 0 141 -81v73h80zM384 217v89q0 79 -34 119t-97 40q-62 0 -94.5 -39.5t-32.5 -115.5v-102q0 -76 32.5 -113t88.5 -37q62 0 99.5 40.5t37.5 118.5z" />
    <glyph glyph-name="r" unicode="r" horiz-adv-x="325" 
d="M68 0v523h80v-83q23 44 57 66t91 24v-75q-75 -4 -111.5 -34t-36.5 -105v-316h-80z" />
    <glyph glyph-name="s" unicode="s" horiz-adv-x="423" 
d="M216 -8q-84 0 -131.5 42.5t-48.5 119.5h78q6 -96 101 -96q92 0 92 80q0 37 -24 56.5t-81 38.5q-86 28 -120 62.5t-34 97.5q0 65 47 101.5t110 36.5q71 0 116 -35t50 -112h-77q-4 42 -26 61.5t-63 19.5q-38 0 -60 -18.5t-22 -50.5q0 -35 21.5 -53.5t83.5 -38.5
q81 -25 119 -58.5t38 -103.5q0 -69 -43 -109.5t-126 -40.5z" />
    <glyph glyph-name="t" unicode="t" horiz-adv-x="311" 
d="M87 637h81v-114h105v-68h-105v-325q0 -68 58 -68q32 0 51 8v-66q-22 -9 -59 -9q-65 0 -98 34.5t-33 94.5v331h-65v68h65v114z" />
    <glyph glyph-name="u" unicode="u" horiz-adv-x="505" 
d="M437 523v-523h-80v73q-17 -35 -53.5 -58t-86.5 -23q-71 0 -112 43t-41 132v356h81v-353q0 -56 23 -82.5t72 -26.5t83 31t34 86v345h80z" />
    <glyph glyph-name="v" unicode="v" horiz-adv-x="457" 
d="M179 0l-158 523h85l126 -438l122 438h82l-155 -523h-102z" />
    <glyph glyph-name="w" unicode="w" horiz-adv-x="686" 
d="M156 0l-133 523h85l98 -419l110 419h64l104 -419l99 419h80l-136 -523h-90l-90 383l-104 -383h-87z" />
    <glyph glyph-name="x" unicode="x" horiz-adv-x="453" 
d="M22 0l155 268l-146 255h90l106 -192l106 192h84l-146 -249l160 -274h-91l-116 211l-119 -211h-83z" />
    <glyph glyph-name="y" unicode="y" horiz-adv-x="460" 
d="M106 523l130 -367l122 367h82l-248 -702h-81l84 232l-174 470h85z" />
    <glyph glyph-name="z" unicode="z" horiz-adv-x="413" 
d="M19 0v11l259 445h-232v67h346v-14l-253 -440h247v-69h-367z" />
    <glyph glyph-name="braceleft" unicode="{" horiz-adv-x="335" 
d="M33 286v61q64 1 89.5 32t16.5 80l-21 122q-18 99 29 144.5t152 46.5v-61q-67 -2 -92 -30t-13 -101l21 -128q16 -107 -95 -135q111 -30 95 -136l-21 -131q-12 -73 13 -101t92 -30v-61q-215 0 -181 190l21 126q9 48 -16.5 79.5t-89.5 32.5z" />
    <glyph glyph-name="bar" unicode="|" horiz-adv-x="224" 
d="M79 -142v912h66v-912h-66z" />
    <glyph glyph-name="braceright" unicode="}" horiz-adv-x="335" 
d="M302 286q-64 -1 -89.5 -32.5t-16.5 -79.5l21 -126q34 -190 -181 -190v61q67 2 92 30t13 101l-20 131q-16 107 94 136q-112 28 -94 135l20 128q12 73 -13 101t-92 30v61q105 -1 152 -46.5t29 -144.5l-21 -122q-9 -49 16.5 -80t89.5 -32v-61z" />
    <glyph glyph-name="asciitilde" unicode="~" horiz-adv-x="395" 
d="M40 234q4 57 31 86.5t63 29.5q31 0 72 -21.5t52 -21.5q15 0 26 11.5t12 33.5h60q-4 -57 -30 -86.5t-61 -29.5q-33 0 -74.5 22t-51.5 22q-33 0 -39 -46h-60z" />
    <glyph glyph-name="uni00A0" unicode="&#xa0;" horiz-adv-x="204" 
 />
    <glyph glyph-name="exclamdown" unicode="&#xa1;" horiz-adv-x="251" 
d="M125 602q25 0 42.5 -16.5t17.5 -41.5t-17.5 -42t-42.5 -17q-23 0 -40.5 17.5t-17.5 41.5t17 41t41 17zM155 405l14 -522h-88l14 522h60z" />
    <glyph glyph-name="cent" unicode="&#xa2;" horiz-adv-x="482" 
d="M224 -123v117q-82 9 -131.5 66t-49.5 153v95q0 95 51 153.5t130 67.5v92h53v-91q70 -6 116 -47t52 -123h-78q-9 91 -90 103v-403q41 7 67.5 36t28.5 81h75q-4 -81 -50.5 -129t-120.5 -55v-116h-53zM124 213q0 -134 100 -152v401q-46 -8 -73 -48.5t-27 -105.5v-95z" />
    <glyph glyph-name="sterling" unicode="&#xa3;" horiz-adv-x="513" 
d="M39 316v60h61q-20 91 -20 159v1q0 87 53.5 137.5t137.5 50.5q85 0 132.5 -46t52.5 -130h-80q-8 56 -31.5 81.5t-73.5 25.5q-49 0 -78 -30.5t-29 -89.5v-1q0 -56 18 -158h175v-60h-165q10 -78 10 -127q0 -46 -14 -82q21 -5 72.5 -25t72.5 -20q67 0 71 69h71
q-4 -61 -38 -100t-94 -39q-41 0 -105.5 26.5t-85.5 26.5q-46 0 -52 -45h-70q3 37 25 69t61 41q12 34 12 80q0 51 -16 126h-73z" />
    <glyph glyph-name="yen" unicode="&#xa5;" horiz-adv-x="497" 
d="M70 165v56h143v66h-143v56h134l-179 372h89l143 -309l136 309h79l-167 -372h133v-56h-142v-66h142v-56h-142v-165h-83v165h-143z" />
    <glyph glyph-name="brokenbar" unicode="&#xa6;" horiz-adv-x="228" 
d="M79 367v403h65v-403h-65zM79 -142v439h65v-439h-65z" />
    <glyph glyph-name="section" unicode="&#xa7;" horiz-adv-x="474" 
d="M233 -122q-78 0 -124 40t-48 117h82q3 -47 24 -68.5t65 -21.5q85 0 85 85q0 40 -25.5 64t-98.5 52q-78 31 -119 70t-41 101q0 46 29.5 80t77.5 47q-61 48 -61 129q0 66 46.5 108t111.5 42q75 0 118 -38.5t44 -112.5h-80q-2 43 -20.5 63.5t-59.5 20.5t-62.5 -21.5
t-21.5 -58.5q0 -39 25 -64t94 -52q84 -33 124.5 -69t40.5 -105q0 -42 -28 -77t-76 -50q60 -46 60 -127q0 -68 -44.5 -111t-117.5 -43zM225 216q35 -14 53 -23q82 21 82 88q0 38 -28 62t-84 45q-44 19 -53 23q-83 -22 -83 -89q0 -35 28.5 -59.5t84.5 -46.5z" />
    <glyph glyph-name="dieresis" unicode="&#xa8;" horiz-adv-x="400" 
d="M116 621q-21 0 -36 15t-15 36t15 36t36 15t36 -15t15 -36t-15 -36t-36 -15zM285 621q-21 0 -36 15t-15 36t15 36t36 15t36 -15t15 -36t-15 -36t-36 -15z" />
    <glyph glyph-name="copyright" unicode="&#xa9;" horiz-adv-x="755" 
d="M377 31q-139 0 -235.5 96.5t-96.5 238.5q0 141 96.5 238.5t237.5 97.5q142 0 236.5 -96.5t94.5 -238.5q0 -143 -96 -239.5t-237 -96.5zM377 71q118 0 202.5 83.5t84.5 212.5t-83 211.5t-202 82.5q-121 0 -204 -83t-83 -212t84 -212t201 -83zM378 174q-76 0 -119.5 44.5
t-43.5 123.5v48q0 77 45 123t118 46q63 0 102.5 -31.5t43.5 -94.5h-71q-9 69 -75 69q-43 0 -66.5 -29t-23.5 -83v-47q0 -54 23.5 -83t66.5 -29q74 0 81 75h67q-4 -66 -43.5 -99t-104.5 -33z" />
    <glyph glyph-name="ordfeminine" unicode="&#xaa;" horiz-adv-x="368" 
d="M150 294q-55 0 -89 31.5t-34 91.5v5q0 65 48 95t127 30h55v38q0 41 -16 59.5t-54 18.5q-65 0 -73 -63h-73q4 61 45 93t104 32q141 0 141 -139v-285h-74v47q-38 -54 -107 -54zM165 352q41 0 66.5 21t25.5 62v60h-53q-102 0 -102 -72v-5q0 -33 14.5 -49.5t48.5 -16.5z" />
    <glyph glyph-name="guillemotleft" unicode="&#xab;" horiz-adv-x="442" 
d="M162 87l-112 174l112 174h77l-109 -174l109 -174h-77zM320 87l-112 174l112 174h77l-109 -174l109 -174h-77z" />
    <glyph glyph-name="registered" unicode="&#xae;" horiz-adv-x="468" 
d="M234 316q-85 0 -144 58.5t-59 146.5q0 86 59 145.5t145 59.5q87 0 145 -59t58 -145q0 -88 -59 -147t-145 -59zM234 350q71 0 118.5 48t47.5 124q0 75 -46.5 122.5t-118.5 47.5q-74 0 -120.5 -47.5t-46.5 -123.5t47.5 -123.5t118.5 -47.5zM165 418v211h70q75 0 75 -62v-3
q0 -42 -38 -54l49 -92h-47l-43 83h-21v-83h-45zM210 533h24q32 0 32 30v3q0 28 -32 28h-24v-61z" />
    <glyph glyph-name="macron" unicode="&#xaf;" horiz-adv-x="400" 
d="M81 635v62h238v-62h-238z" />
    <glyph glyph-name="degree" unicode="&#xb0;" horiz-adv-x="387" 
d="M194 434q-62 0 -105.5 42.5t-43.5 101.5q0 61 43.5 103.5t105.5 42.5t105.5 -42.5t43.5 -103.5q0 -59 -44 -101.5t-105 -42.5zM194 489q35 0 57.5 25.5t22.5 63.5q0 39 -22.5 65t-57.5 26q-36 0 -59.5 -26t-23.5 -65q0 -38 23.5 -63.5t59.5 -25.5z" />
    <glyph glyph-name="plusminus" unicode="&#xb1;" horiz-adv-x="455" 
d="M192 162v161h-160v66h160v161h70v-161h160v-66h-160v-161h-70zM32 26v67h390v-67h-390z" />
    <glyph glyph-name="twosuperior" unicode="&#xb2;" horiz-adv-x="272" 
d="M8 355v10l112 133q57 69 57 118v3q0 50 -45 50q-47 0 -53 -65h-61q2 55 32.5 85.5t83.5 30.5q52 0 80.5 -27t28.5 -73v-3q0 -60 -67 -136l-66 -76h136v-50h-238z" />
    <glyph glyph-name="threesuperior" unicode="&#xb3;" horiz-adv-x="291" 
d="M142 350q-58 0 -89.5 29t-32.5 81h60q5 -61 60 -61q56 0 56 57v7q0 56 -59 56h-21v46h21q55 0 55 52v3q0 50 -47 50q-50 0 -55 -54h-61q2 48 33 76t83 28q51 0 80.5 -26t29.5 -69v-4q0 -57 -57 -76q65 -13 65 -83v-7q0 -49 -32 -77t-89 -28z" />
    <glyph glyph-name="acute" unicode="&#xb4;" horiz-adv-x="400" 
d="M161 605l55 145h101l-96 -145h-60z" />
    <glyph glyph-name="paragraph" unicode="&#xb6;" horiz-adv-x="523" 
d="M244 -88v458h-10q-89 0 -143 43.5t-54 126.5q0 85 55 130t142 45h213v-803h-66v748h-72v-748h-65z" />
    <glyph glyph-name="periodcentered" unicode="&#xb7;" horiz-adv-x="248" 
d="M124 274q-24 0 -41.5 17t-17.5 41q0 25 17.5 42t41.5 17t41 -17t17 -42t-17 -41.5t-41 -16.5z" />
    <glyph glyph-name="cedilla" unicode="&#xb8;" horiz-adv-x="400" 
d="M209 -207q-43 0 -69.5 21.5t-29.5 58.5h55q6 -34 40 -34q17 0 27.5 10t10.5 25t-10 24t-25 9t-26 -8l-32 28l41 73h52l-28 -51q36 5 63 -15.5t27 -61.5q0 -39 -27 -59t-69 -20z" />
    <glyph glyph-name="onesuperior" unicode="&#xb9;" horiz-adv-x="218" 
d="M97 355v293l-74 -52v58l82 61h59v-360h-67z" />
    <glyph glyph-name="ordmasculine" unicode="&#xba;" horiz-adv-x="425" 
d="M212 294q-79 0 -128.5 50.5t-49.5 133.5v61q0 84 50 135t129 51t129 -50.5t50 -134.5v-61q0 -85 -50.5 -135t-129.5 -50zM213 355q48 0 75 33t27 90v61q0 58 -27.5 91t-74.5 33q-48 0 -75 -33t-27 -91v-61q0 -57 27 -90t75 -33z" />
    <glyph glyph-name="guillemotright" unicode="&#xbb;" horiz-adv-x="442" 
d="M45 87l109 174l-109 174h77l112 -174l-112 -174h-77zM203 87l108 174l-108 174h77l112 -174l-112 -174h-77z" />
    <glyph glyph-name="onequarter" unicode="&#xbc;" horiz-adv-x="641" 
d="M100 355v293l-74 -52v58l82 61h59v-360h-67zM48 0l462 715h63l-462 -715h-63zM512 0v76h-161v20l142 264h82v-235h44v-49h-44v-76h-63zM421 125h92v181z" />
    <glyph glyph-name="onehalf" unicode="&#xbd;" horiz-adv-x="649" 
d="M41 0l462 715h63l-462 -715h-63zM100 355v293l-74 -52v58l82 61h59v-360h-67zM381 0v10l112 133q57 69 57 118v3q0 50 -45 50q-47 0 -53 -65h-61q2 55 32.5 85.5t83.5 30.5q52 0 80.5 -27t28.5 -73v-3q0 -60 -67 -136l-66 -76h136v-50h-238z" />
    <glyph glyph-name="threequarters" unicode="&#xbe;" horiz-adv-x="666" 
d="M145 350q-58 0 -89.5 29t-32.5 81h60q5 -61 60 -61q56 0 56 57v7q0 56 -59 56h-21v46h21q55 0 55 52v3q0 50 -47 50q-50 0 -55 -54h-61q2 48 33 76t83 28q51 0 80.5 -26t29.5 -69v-4q0 -57 -57 -76q65 -13 65 -83v-7q0 -49 -32 -77t-89 -28zM92 0l462 715h63l-462 -715
h-63zM536 0v76h-161v20l142 264h82v-235h44v-49h-44v-76h-63zM445 125h92v181z" />
    <glyph glyph-name="questiondown" unicode="&#xbf;" horiz-adv-x="430" 
d="M239 602q24 0 41.5 -17t17.5 -41q0 -25 -17.5 -42t-41.5 -17t-41 17t-17 42t17 41.5t41 16.5zM277 405v-56q0 -28 -5.5 -51t-21 -48.5t-24.5 -37t-36 -43.5q-24 -29 -34.5 -43t-20.5 -38.5t-10 -51.5q0 -95 90 -95q48 0 75.5 29.5t31.5 86.5h76q-4 -86 -53 -134.5
t-131 -48.5q-85 0 -127.5 43.5t-42.5 117.5q0 36 14 69.5t26.5 50t45.5 54.5q40 44 57.5 74.5t17.5 70.5v51h72z" />
    <glyph glyph-name="Agrave" unicode="&#xc0;" horiz-adv-x="564" 
d="M257 768l-90 125h100l50 -125h-60zM451 0l-51 194h-240l-51 -194h-79l195 715h117l192 -715h-83zM280 647l-102 -387h204z" />
    <glyph glyph-name="Aacute" unicode="&#xc1;" horiz-adv-x="564" 
d="M244 768l50 125h100l-90 -125h-60zM451 0l-51 194h-240l-51 -194h-79l195 715h117l192 -715h-83zM280 647l-102 -387h204z" />
    <glyph glyph-name="Acircumflex" unicode="&#xc2;" horiz-adv-x="564" 
d="M149 768l96 125h73l95 -125h-59l-74 59l-74 -59h-57zM451 0l-51 194h-240l-51 -194h-79l195 715h117l192 -715h-83zM280 647l-102 -387h204z" />
    <glyph glyph-name="Atilde" unicode="&#xc3;" horiz-adv-x="564" 
d="M331 771q-22 0 -55 19t-44 19q-26 0 -35 -40h-56q5 49 30 78.5t60 29.5q22 0 55 -19t44 -19q26 0 35 41h56q-5 -49 -30 -79t-60 -30zM451 0l-51 194h-240l-51 -194h-79l195 715h117l192 -715h-83zM280 647l-102 -387h204z" />
    <glyph glyph-name="Adieresis" unicode="&#xc4;" horiz-adv-x="564" 
d="M189 784q-20 0 -35 14.5t-15 35.5t15 36t35 15q21 0 36 -15t15 -36t-15 -35.5t-36 -14.5zM371 784q-21 0 -36 14.5t-15 35.5t15 36t36 15t35.5 -15t14.5 -36t-14.5 -35.5t-35.5 -14.5zM451 0l-51 194h-240l-51 -194h-79l195 715h117l192 -715h-83zM280 647l-102 -387h204
z" />
    <glyph glyph-name="Aring" unicode="&#xc5;" horiz-adv-x="564" 
d="M281 755q-41 0 -69.5 28t-28.5 67t28.5 67t69.5 28t69.5 -28t28.5 -67t-28.5 -67t-69.5 -28zM281 798q21 0 34 14.5t13 37.5q0 22 -13 37t-34 15t-34 -15t-13 -37q0 -23 13 -37.5t34 -14.5zM451 0l-51 194h-240l-51 -194h-79l195 715h117l192 -715h-83zM280 647
l-102 -387h204z" />
    <glyph glyph-name="AE" unicode="&#xc6;" horiz-adv-x="795" 
d="M24 0l289 715h431v-68h-269v-241h217v-67h-217v-271h283v-68h-367v194h-208l-76 -194h-83zM362 647l-153 -387h182v387h-29z" />
    <glyph glyph-name="Ccedilla" unicode="&#xc7;" horiz-adv-x="605" 
d="M313 -207q-43 0 -69.5 21.5t-29.5 58.5h55q6 -34 40 -34q17 0 27.5 10t10.5 25t-10 24t-25 9t-26 -8l-32 28l37 65q-112 10 -175.5 89t-63.5 208v137q0 134 75 216.5t194 82.5q100 0 166.5 -54t74.5 -159h-83q-9 74 -47.5 110t-109.5 36q-86 0 -135 -62t-49 -170v-136
q0 -110 47.5 -170.5t136.5 -60.5q71 0 116 40t52 119h78q-9 -108 -69.5 -164.5t-156.5 -61.5l-23 -43q36 5 63 -15.5t27 -61.5q0 -39 -27 -59t-69 -20z" />
    <glyph glyph-name="Egrave" unicode="&#xc8;" horiz-adv-x="490" 
d="M231 768l-90 125h100l50 -125h-60zM74 0v715h361v-68h-278v-241h226v-67h-226v-271h294v-68h-377z" />
    <glyph glyph-name="Eacute" unicode="&#xc9;" horiz-adv-x="490" 
d="M219 768l50 125h100l-90 -125h-60zM74 0v715h361v-68h-278v-241h226v-67h-226v-271h294v-68h-377z" />
    <glyph glyph-name="Ecircumflex" unicode="&#xca;" horiz-adv-x="490" 
d="M123 768l96 125h73l95 -125h-59l-74 59l-74 -59h-57zM74 0v715h361v-68h-278v-241h226v-67h-226v-271h294v-68h-377z" />
    <glyph glyph-name="Edieresis" unicode="&#xcb;" horiz-adv-x="490" 
d="M164 784q-20 0 -35 14.5t-15 35.5t15 36t35 15q21 0 36 -15t15 -36t-15 -35.5t-36 -14.5zM346 784q-21 0 -36 14.5t-15 35.5t15 36t36 15t35.5 -15t14.5 -36t-14.5 -35.5t-35.5 -14.5zM74 0v715h361v-68h-278v-241h226v-67h-226v-271h294v-68h-377z" />
    <glyph glyph-name="Igrave" unicode="&#xcc;" horiz-adv-x="241" 
d="M96 768l-90 125h100l50 -125h-60zM79 0v715h83v-715h-83z" />
    <glyph glyph-name="Iacute" unicode="&#xcd;" horiz-adv-x="241" 
d="M84 768l50 125h100l-90 -125h-60zM79 0v715h83v-715h-83z" />
    <glyph glyph-name="Icircumflex" unicode="&#xce;" horiz-adv-x="241" 
d="M-12 768l96 125h73l95 -125h-59l-74 59l-74 -59h-57zM79 0v715h83v-715h-83z" />
    <glyph glyph-name="Idieresis" unicode="&#xcf;" horiz-adv-x="241" 
d="M29 784q-20 0 -35 14.5t-15 35.5t15 36t35 15q21 0 36 -15t15 -36t-15 -35.5t-36 -14.5zM211 784q-21 0 -36 14.5t-15 35.5t15 36t36 15t35.5 -15t14.5 -36t-14.5 -35.5t-35.5 -14.5zM79 0v715h83v-715h-83z" />
    <glyph glyph-name="Eth" unicode="&#xd0;" horiz-adv-x="617" 
d="M91 0v327h-63v66h63v322h176q147 0 221.5 -76.5t74.5 -210.5v-140q0 -133 -73.5 -210.5t-221.5 -77.5h-177zM175 68h88q214 0 214 221v139q0 107 -51 163.5t-164 56.5h-87v-255h164v-66h-164v-259z" />
    <glyph glyph-name="Ntilde" unicode="&#xd1;" horiz-adv-x="608" 
d="M361 771q-22 0 -55 19t-44 19q-26 0 -35 -40h-56q5 49 30 78.5t60 29.5q22 0 55 -19t44 -19q26 0 35 41h56q-5 -49 -30 -79t-60 -30zM74 0v715h106l277 -567v567h77v-715h-93l-290 599v-599h-77z" />
    <glyph glyph-name="Ograve" unicode="&#xd2;" horiz-adv-x="666" 
d="M309 768l-90 125h100l50 -125h-60zM335 -9q-126 0 -203.5 82.5t-77.5 212.5v142q0 131 77 213.5t203 82.5t202 -82t76 -212v-142q0 -131 -76 -214t-201 -83zM335 60q90 0 140.5 62.5t50.5 165.5v141q0 100 -50.5 163.5t-141.5 63.5q-93 0 -143.5 -61.5t-50.5 -165.5v-142
q0 -104 53 -165.5t142 -61.5z" />
    <glyph glyph-name="Oacute" unicode="&#xd3;" horiz-adv-x="666" 
d="M295 768l50 125h100l-90 -125h-60zM335 -9q-126 0 -203.5 82.5t-77.5 212.5v142q0 131 77 213.5t203 82.5t202 -82t76 -212v-142q0 -131 -76 -214t-201 -83zM335 60q90 0 140.5 62.5t50.5 165.5v141q0 100 -50.5 163.5t-141.5 63.5q-93 0 -143.5 -61.5t-50.5 -165.5v-142
q0 -104 53 -165.5t142 -61.5z" />
    <glyph glyph-name="Ocircumflex" unicode="&#xd4;" horiz-adv-x="666" 
d="M201 768l96 125h73l95 -125h-59l-74 59l-74 -59h-57zM335 -9q-126 0 -203.5 82.5t-77.5 212.5v142q0 131 77 213.5t203 82.5t202 -82t76 -212v-142q0 -131 -76 -214t-201 -83zM335 60q90 0 140.5 62.5t50.5 165.5v141q0 100 -50.5 163.5t-141.5 63.5q-93 0 -143.5 -61.5
t-50.5 -165.5v-142q0 -104 53 -165.5t142 -61.5z" />
    <glyph glyph-name="Otilde" unicode="&#xd5;" horiz-adv-x="666" 
d="M383 771q-22 0 -55 19t-44 19q-26 0 -35 -40h-56q5 49 30 78.5t60 29.5q22 0 55 -19t44 -19q26 0 35 41h56q-5 -49 -30 -79t-60 -30zM335 -9q-126 0 -203.5 82.5t-77.5 212.5v142q0 131 77 213.5t203 82.5t202 -82t76 -212v-142q0 -131 -76 -214t-201 -83zM335 60
q90 0 140.5 62.5t50.5 165.5v141q0 100 -50.5 163.5t-141.5 63.5q-93 0 -143.5 -61.5t-50.5 -165.5v-142q0 -104 53 -165.5t142 -61.5z" />
    <glyph glyph-name="Odieresis" unicode="&#xd6;" horiz-adv-x="666" 
d="M241 784q-20 0 -35 14.5t-15 35.5t15 36t35 15q21 0 36 -15t15 -36t-15 -35.5t-36 -14.5zM423 784q-21 0 -36 14.5t-15 35.5t15 36t36 15t35.5 -15t14.5 -36t-14.5 -35.5t-35.5 -14.5zM335 -9q-126 0 -203.5 82.5t-77.5 212.5v142q0 131 77 213.5t203 82.5t202 -82
t76 -212v-142q0 -131 -76 -214t-201 -83zM335 60q90 0 140.5 62.5t50.5 165.5v141q0 100 -50.5 163.5t-141.5 63.5q-93 0 -143.5 -61.5t-50.5 -165.5v-142q0 -104 53 -165.5t142 -61.5z" />
    <glyph glyph-name="multiply" unicode="&#xd7;" horiz-adv-x="408" 
d="M75 152l-46 44l131 136l-131 136l46 45l129 -135l129 135l47 -45l-132 -136l132 -136l-47 -44l-129 135z" />
    <glyph glyph-name="Oslash" unicode="&#xd8;" horiz-adv-x="666" 
d="M71 -29l-44 36l75 100q-54 77 -54 182v137q0 131 79.5 214.5t206.5 83.5q108 0 184 -63l57 76l44 -36l-61 -81q61 -80 61 -193v-136q0 -131 -78.5 -215.5t-204.5 -84.5q-116 0 -196 72zM134 280q0 -59 20 -104l320 427q-55 53 -140 53q-94 0 -147 -63t-53 -167v-146z
M336 61q91 0 144 63.5t53 167.5v146q0 67 -25 116l-322 -430q55 -63 150 -63z" />
    <glyph glyph-name="Ugrave" unicode="&#xd9;" horiz-adv-x="598" 
d="M268 768l-90 125h100l50 -125h-60zM444 715h85v-483q0 -116 -59.5 -178.5t-174.5 -62.5q-107 0 -166.5 60t-59.5 173v491h85v-484q0 -90 34.5 -130t108.5 -40q73 0 110 40.5t37 138.5v475z" />
    <glyph glyph-name="Uacute" unicode="&#xda;" horiz-adv-x="598" 
d="M256 768l50 125h100l-90 -125h-60zM444 715h85v-483q0 -116 -59.5 -178.5t-174.5 -62.5q-107 0 -166.5 60t-59.5 173v491h85v-484q0 -90 34.5 -130t108.5 -40q73 0 110 40.5t37 138.5v475z" />
    <glyph glyph-name="Ucircumflex" unicode="&#xdb;" horiz-adv-x="598" 
d="M160 768l96 125h73l95 -125h-59l-74 59l-74 -59h-57zM444 715h85v-483q0 -116 -59.5 -178.5t-174.5 -62.5q-107 0 -166.5 60t-59.5 173v491h85v-484q0 -90 34.5 -130t108.5 -40q73 0 110 40.5t37 138.5v475z" />
    <glyph glyph-name="Udieresis" unicode="&#xdc;" horiz-adv-x="598" 
d="M201 784q-20 0 -35 14.5t-15 35.5t15 36t35 15q21 0 36 -15t15 -36t-15 -35.5t-36 -14.5zM383 784q-21 0 -36 14.5t-15 35.5t15 36t36 15t35.5 -15t14.5 -36t-14.5 -35.5t-35.5 -14.5zM444 715h85v-483q0 -116 -59.5 -178.5t-174.5 -62.5q-107 0 -166.5 60t-59.5 173v491
h85v-484q0 -90 34.5 -130t108.5 -40q73 0 110 40.5t37 138.5v475z" />
    <glyph glyph-name="Yacute" unicode="&#xdd;" horiz-adv-x="512" 
d="M221 768l50 125h100l-90 -125h-60zM219 0v312l-199 403h92l151 -324l147 324h82l-188 -404v-311h-85z" />
    <glyph glyph-name="Thorn" unicode="&#xde;" horiz-adv-x="506" 
d="M74 0v715h83v-138h93q102 0 162.5 -47t60.5 -145v-19q0 -98 -61 -147t-162 -49h-93v-170h-83zM157 237h98q134 0 134 129v19q0 68 -34 96.5t-100 28.5h-98v-273z" />
    <glyph glyph-name="germandbls" unicode="&#xdf;" horiz-adv-x="504" 
d="M283 -6q-47 0 -71 11v66q32 -10 65 -10q47 0 76 28t29 104v54q0 76 -40.5 115.5t-113.5 37.5v68q64 -1 93 32.5t29 88.5q0 113 -101 113q-46 0 -73.5 -31t-27.5 -85v-586h-80v582q0 85 52.5 135.5t129.5 50.5q81 0 129.5 -47t48.5 -132q0 -52 -27 -93.5t-77 -56.5
q66 -17 103.5 -67t37.5 -126v-51q0 -201 -182 -201z" />
    <glyph glyph-name="agrave" unicode="&#xe0;" horiz-adv-x="471" 
d="M208 605l-96 145h100l56 -145h-60zM191 -8q-69 0 -111 38.5t-42 109.5v9q0 81 59 118t156 37h72v54q0 55 -21.5 80.5t-70.5 25.5q-89 0 -97 -84h-79q5 76 54 113.5t125 37.5q78 0 123.5 -41.5t45.5 -131.5v-358h-80v58q-47 -66 -134 -66zM203 55q56 0 89 27.5t33 80.5v83
h-69q-139 0 -139 -97v-7q0 -87 86 -87z" />
    <glyph glyph-name="aacute" unicode="&#xe1;" horiz-adv-x="471" 
d="M195 605l55 145h101l-96 -145h-60zM191 -8q-69 0 -111 38.5t-42 109.5v9q0 81 59 118t156 37h72v54q0 55 -21.5 80.5t-70.5 25.5q-89 0 -97 -84h-79q5 76 54 113.5t125 37.5q78 0 123.5 -41.5t45.5 -131.5v-358h-80v58q-47 -66 -134 -66zM203 55q56 0 89 27.5t33 80.5v83
h-69q-139 0 -139 -97v-7q0 -87 86 -87z" />
    <glyph glyph-name="acircumflex" unicode="&#xe2;" horiz-adv-x="471" 
d="M97 605l95 143h73l94 -143h-60l-72 75l-72 -75h-58zM191 -8q-69 0 -111 38.5t-42 109.5v9q0 81 59 118t156 37h72v54q0 55 -21.5 80.5t-70.5 25.5q-89 0 -97 -84h-79q5 76 54 113.5t125 37.5q78 0 123.5 -41.5t45.5 -131.5v-358h-80v58q-47 -66 -134 -66zM203 55
q56 0 89 27.5t33 80.5v83h-69q-139 0 -139 -97v-7q0 -87 86 -87z" />
    <glyph glyph-name="atilde" unicode="&#xe3;" horiz-adv-x="471" 
d="M280 611q-22 0 -54 20.5t-43 20.5q-26 0 -35 -43h-55q4 50 29 80.5t60 30.5q22 0 54 -19.5t43 -19.5q27 0 35 42h55q-4 -50 -29 -81t-60 -31zM191 -8q-69 0 -111 38.5t-42 109.5v9q0 81 59 118t156 37h72v54q0 55 -21.5 80.5t-70.5 25.5q-89 0 -97 -84h-79q5 76 54 113.5
t125 37.5q78 0 123.5 -41.5t45.5 -131.5v-358h-80v58q-47 -66 -134 -66zM203 55q56 0 89 27.5t33 80.5v83h-69q-139 0 -139 -97v-7q0 -87 86 -87z" />
    <glyph glyph-name="adieresis" unicode="&#xe4;" horiz-adv-x="471" 
d="M147 621q-21 0 -36 15t-15 36t15 36t36 15t36 -15t15 -36t-15 -36t-36 -15zM316 621q-21 0 -36 15t-15 36t15 36t36 15t36 -15t15 -36t-15 -36t-36 -15zM191 -8q-69 0 -111 38.5t-42 109.5v9q0 81 59 118t156 37h72v54q0 55 -21.5 80.5t-70.5 25.5q-89 0 -97 -84h-79
q5 76 54 113.5t125 37.5q78 0 123.5 -41.5t45.5 -131.5v-358h-80v58q-47 -66 -134 -66zM203 55q56 0 89 27.5t33 80.5v83h-69q-139 0 -139 -97v-7q0 -87 86 -87z" />
    <glyph glyph-name="aring" unicode="&#xe5;" horiz-adv-x="471" 
d="M231 594q-41 0 -69.5 28t-28.5 67q0 40 28.5 68t69.5 28t69.5 -28t28.5 -68q0 -39 -28.5 -67t-69.5 -28zM231 637q21 0 34 15t13 37q0 23 -13 37.5t-34 14.5t-34 -14.5t-13 -37.5q0 -22 13 -37t34 -15zM191 -8q-69 0 -111 38.5t-42 109.5v9q0 81 59 118t156 37h72v54
q0 55 -21.5 80.5t-70.5 25.5q-89 0 -97 -84h-79q5 76 54 113.5t125 37.5q78 0 123.5 -41.5t45.5 -131.5v-358h-80v58q-47 -66 -134 -66zM203 55q56 0 89 27.5t33 80.5v83h-69q-139 0 -139 -97v-7q0 -87 86 -87z" />
    <glyph glyph-name="ae" unicode="&#xe6;" horiz-adv-x="751" 
d="M196 -8q-70 0 -114 39t-44 109v9q0 83 58.5 121.5t155.5 38.5h67v51q0 55 -21 79.5t-68 24.5q-85 0 -94 -84h-79q6 76 54 113.5t121 37.5q103 0 137 -74q52 74 147 74q85 0 139 -54t54 -164v-67h-311v-31q0 -157 119 -157q99 0 113 89h78q-9 -77 -59.5 -116t-132.5 -39
q-112 0 -160 91q-28 -47 -65.5 -69t-94.5 -22zM513 465q-54 0 -84.5 -39t-30.5 -116h231v21q0 134 -116 134zM203 55q54 0 85 27.5t31 80.5v85h-64q-68 0 -103 -23t-35 -76v-7q0 -87 86 -87z" />
    <glyph glyph-name="ccedilla" unicode="&#xe7;" horiz-adv-x="484" 
d="M248 -207q-43 0 -69.5 21.5t-29.5 58.5h55q6 -34 40 -34q17 0 27.5 10t10.5 25t-10 24t-25 9t-26 -8l-32 28l37 66q-83 9 -133 66.5t-50 153.5v95q0 103 60 163t149 60q80 0 133 -40.5t60 -130.5h-78q-10 105 -115 105q-58 0 -93 -41t-35 -116v-95q0 -78 35 -116.5
t96 -38.5q48 0 81.5 29.5t36.5 89.5h75q-4 -81 -50 -129t-120 -55l-24 -44q36 5 63 -15.5t27 -61.5q0 -39 -27 -59t-69 -20z" />
    <glyph glyph-name="egrave" unicode="&#xe8;" horiz-adv-x="488" 
d="M223 605l-96 145h100l56 -145h-60zM253 -8q-96 0 -153 59.5t-57 163.5v93q0 102 56.5 162.5t148.5 60.5q88 0 143 -54t55 -164v-67h-322v-31q0 -157 130 -157q99 0 113 89h78q-9 -77 -59.5 -116t-132.5 -39zM248 465q-55 0 -89.5 -39.5t-34.5 -115.5h242v13
q0 142 -118 142z" />
    <glyph glyph-name="eacute" unicode="&#xe9;" horiz-adv-x="488" 
d="M211 605l55 145h101l-96 -145h-60zM253 -8q-96 0 -153 59.5t-57 163.5v93q0 102 56.5 162.5t148.5 60.5q88 0 143 -54t55 -164v-67h-322v-31q0 -157 130 -157q99 0 113 89h78q-9 -77 -59.5 -116t-132.5 -39zM248 465q-55 0 -89.5 -39.5t-34.5 -115.5h242v13
q0 142 -118 142z" />
    <glyph glyph-name="ecircumflex" unicode="&#xea;" horiz-adv-x="488" 
d="M115 605l95 143h73l94 -143h-60l-72 75l-72 -75h-58zM253 -8q-96 0 -153 59.5t-57 163.5v93q0 102 56.5 162.5t148.5 60.5q88 0 143 -54t55 -164v-67h-322v-31q0 -157 130 -157q99 0 113 89h78q-9 -77 -59.5 -116t-132.5 -39zM248 465q-55 0 -89.5 -39.5t-34.5 -115.5
h242v13q0 142 -118 142z" />
    <glyph glyph-name="edieresis" unicode="&#xeb;" horiz-adv-x="488" 
d="M162 621q-21 0 -36 15t-15 36t15 36t36 15t36 -15t15 -36t-15 -36t-36 -15zM331 621q-21 0 -36 15t-15 36t15 36t36 15t36 -15t15 -36t-15 -36t-36 -15zM253 -8q-96 0 -153 59.5t-57 163.5v93q0 102 56.5 162.5t148.5 60.5q88 0 143 -54t55 -164v-67h-322v-31
q0 -157 130 -157q99 0 113 89h78q-9 -77 -59.5 -116t-132.5 -39zM248 465q-55 0 -89.5 -39.5t-34.5 -115.5h242v13q0 142 -118 142z" />
    <glyph glyph-name="igrave" unicode="&#xec;" horiz-adv-x="220" 
d="M87 605l-96 145h100l56 -145h-60zM70 0v523h80v-523h-80z" />
    <glyph glyph-name="iacute" unicode="&#xed;" horiz-adv-x="220" 
d="M74 605l55 145h101l-96 -145h-60zM70 0v523h80v-523h-80z" />
    <glyph glyph-name="icircumflex" unicode="&#xee;" horiz-adv-x="220" 
d="M-21 605l95 143h73l94 -143h-60l-72 75l-72 -75h-58zM70 0v523h80v-523h-80z" />
    <glyph glyph-name="idieresis" unicode="&#xef;" horiz-adv-x="220" 
d="M32 621q-21 0 -36 15t-15 36t15 36t36 15t36 -15t15 -36t-15 -36t-36 -15zM187 621q-21 0 -36 15t-15 36t15 36t36 15q20 0 35.5 -15t15.5 -36t-15.5 -36t-35.5 -15zM70 0v523h80v-523h-80z" />
    <glyph glyph-name="eth" unicode="&#xf0;" horiz-adv-x="512" 
d="M255 -8q-95 0 -153.5 61t-58.5 161v94q0 100 56.5 161.5t137.5 61.5q75 0 120 -58q-35 84 -109 163l-102 -58l-26 45l90 51q-52 48 -113 90h102q37 -21 75 -53l77 43l26 -45l-62 -35q154 -158 154 -356v-101q0 -103 -59.5 -164t-154.5 -61zM256 58q62 0 96.5 41.5
t34.5 114.5v93q0 74 -34.5 116t-96.5 42t-97 -41.5t-35 -115.5v-94q0 -73 34.5 -114.5t97.5 -41.5z" />
    <glyph glyph-name="ntilde" unicode="&#xf1;" horiz-adv-x="508" 
d="M301 611q-22 0 -54 20.5t-43 20.5q-26 0 -35 -43h-55q4 50 29 80.5t60 30.5q22 0 54 -19.5t43 -19.5q27 0 35 42h55q-4 -50 -29 -81t-60 -31zM68 0v523h80v-73q17 36 53.5 58.5t87.5 22.5q72 0 113.5 -44.5t41.5 -137.5v-349h-81v353q0 56 -23.5 83t-73.5 27t-84 -31.5
t-34 -86.5v-345h-80z" />
    <glyph glyph-name="ograve" unicode="&#xf2;" horiz-adv-x="512" 
d="M232 605l-96 145h100l56 -145h-60zM255 -8q-95 0 -153.5 61t-58.5 161v94q0 102 59 162.5t154 60.5t154 -60t59 -162v-94q0 -102 -59 -162.5t-155 -60.5zM256 58q62 0 96.5 41.5t34.5 114.5v93q0 74 -34.5 116t-96.5 42t-97 -41.5t-35 -115.5v-94q0 -73 34.5 -114.5
t97.5 -41.5z" />
    <glyph glyph-name="oacute" unicode="&#xf3;" horiz-adv-x="512" 
d="M219 605l55 145h101l-96 -145h-60zM255 -8q-95 0 -153.5 61t-58.5 161v94q0 102 59 162.5t154 60.5t154 -60t59 -162v-94q0 -102 -59 -162.5t-155 -60.5zM256 58q62 0 96.5 41.5t34.5 114.5v93q0 74 -34.5 116t-96.5 42t-97 -41.5t-35 -115.5v-94q0 -73 34.5 -114.5
t97.5 -41.5z" />
    <glyph glyph-name="ocircumflex" unicode="&#xf4;" horiz-adv-x="512" 
d="M124 605l95 143h73l94 -143h-60l-72 75l-72 -75h-58zM255 -8q-95 0 -153.5 61t-58.5 161v94q0 102 59 162.5t154 60.5t154 -60t59 -162v-94q0 -102 -59 -162.5t-155 -60.5zM256 58q62 0 96.5 41.5t34.5 114.5v93q0 74 -34.5 116t-96.5 42t-97 -41.5t-35 -115.5v-94
q0 -73 34.5 -114.5t97.5 -41.5z" />
    <glyph glyph-name="otilde" unicode="&#xf5;" horiz-adv-x="512" 
d="M304 611q-22 0 -54 20.5t-43 20.5q-26 0 -35 -43h-55q4 50 29 80.5t60 30.5q22 0 54 -19.5t43 -19.5q27 0 35 42h55q-4 -50 -29 -81t-60 -31zM255 -8q-95 0 -153.5 61t-58.5 161v94q0 102 59 162.5t154 60.5t154 -60t59 -162v-94q0 -102 -59 -162.5t-155 -60.5zM256 58
q62 0 96.5 41.5t34.5 114.5v93q0 74 -34.5 116t-96.5 42t-97 -41.5t-35 -115.5v-94q0 -73 34.5 -114.5t97.5 -41.5z" />
    <glyph glyph-name="odieresis" unicode="&#xf6;" horiz-adv-x="512" 
d="M171 621q-21 0 -36 15t-15 36t15 36t36 15t36 -15t15 -36t-15 -36t-36 -15zM340 621q-21 0 -36 15t-15 36t15 36t36 15t36 -15t15 -36t-15 -36t-36 -15zM255 -8q-95 0 -153.5 61t-58.5 161v94q0 102 59 162.5t154 60.5t154 -60t59 -162v-94q0 -102 -59 -162.5t-155 -60.5
zM256 58q62 0 96.5 41.5t34.5 114.5v93q0 74 -34.5 116t-96.5 42t-97 -41.5t-35 -115.5v-94q0 -73 34.5 -114.5t97.5 -41.5z" />
    <glyph glyph-name="divide" unicode="&#xf7;" horiz-adv-x="455" 
d="M227 448q-24 0 -41.5 17t-17.5 42t17.5 42t41.5 17q25 0 42 -17t17 -42t-17 -42t-42 -17zM32 309v66h390v-66h-390zM227 118q-24 0 -41.5 17t-17.5 41q0 25 17.5 42.5t41.5 17.5q25 0 42 -17.5t17 -42.5q0 -24 -17 -41t-42 -17z" />
    <glyph glyph-name="oslash" unicode="&#xf8;" horiz-adv-x="512" 
d="M65 -32l-43 32l59 78q-41 58 -41 139v88q0 102 60.5 164t155.5 62q79 0 137 -44l47 62l44 -30l-54 -71q42 -58 42 -142v-88q0 -103 -60.5 -164.5t-156.5 -61.5q-78 0 -137 46zM121 213q0 -36 10 -69l218 286q-36 36 -93 36q-62 0 -98.5 -43t-36.5 -117v-93zM256 58
q62 0 98.5 42.5t36.5 115.5v93q0 42 -12 72l-218 -287q36 -36 95 -36z" />
    <glyph glyph-name="ugrave" unicode="&#xf9;" horiz-adv-x="505" 
d="M228 605l-96 145h100l56 -145h-60zM437 523v-523h-80v73q-17 -35 -53.5 -58t-86.5 -23q-71 0 -112 43t-41 132v356h81v-353q0 -56 23 -82.5t72 -26.5t83 31t34 86v345h80z" />
    <glyph glyph-name="uacute" unicode="&#xfa;" horiz-adv-x="505" 
d="M215 605l55 145h101l-96 -145h-60zM437 523v-523h-80v73q-17 -35 -53.5 -58t-86.5 -23q-71 0 -112 43t-41 132v356h81v-353q0 -56 23 -82.5t72 -26.5t83 31t34 86v345h80z" />
    <glyph glyph-name="ucircumflex" unicode="&#xfb;" horiz-adv-x="505" 
d="M121 605l95 143h73l94 -143h-60l-72 75l-72 -75h-58zM437 523v-523h-80v73q-17 -35 -53.5 -58t-86.5 -23q-71 0 -112 43t-41 132v356h81v-353q0 -56 23 -82.5t72 -26.5t83 31t34 86v345h80z" />
    <glyph glyph-name="udieresis" unicode="&#xfc;" horiz-adv-x="505" 
d="M167 621q-21 0 -36 15t-15 36t15 36t36 15t36 -15t15 -36t-15 -36t-36 -15zM336 621q-21 0 -36 15t-15 36t15 36t36 15t36 -15t15 -36t-15 -36t-36 -15zM437 523v-523h-80v73q-17 -35 -53.5 -58t-86.5 -23q-71 0 -112 43t-41 132v356h81v-353q0 -56 23 -82.5t72 -26.5
t83 31t34 86v345h80z" />
    <glyph glyph-name="yacute" unicode="&#xfd;" horiz-adv-x="460" 
d="M197 605l55 145h101l-96 -145h-60zM106 523l130 -367l122 367h82l-248 -702h-81l84 232l-174 470h85z" />
    <glyph glyph-name="thorn" unicode="&#xfe;" horiz-adv-x="529" 
d="M68 -179v943h80v-318q20 36 60.5 60.5t88.5 24.5q86 0 139 -59t53 -162v-92q0 -103 -53 -164t-142 -61q-51 0 -89 22t-57 58v-252h-80zM281 59q126 0 126 157v90q0 77 -35 117.5t-90 40.5q-61 0 -98 -40.5t-37 -118.5v-88q0 -79 35.5 -118.5t98.5 -39.5z" />
    <glyph glyph-name="ydieresis" unicode="&#xff;" horiz-adv-x="460" 
d="M149 621q-21 0 -36 15t-15 36t15 36t36 15t36 -15t15 -36t-15 -36t-36 -15zM318 621q-21 0 -36 15t-15 36t15 36t36 15t36 -15t15 -36t-15 -36t-36 -15zM106 523l130 -367l122 367h82l-248 -702h-81l84 232l-174 470h85z" />
    <glyph glyph-name="Amacron" unicode="&#x100;" horiz-adv-x="564" 
d="M159 782v63h244v-63h-244zM451 0l-51 194h-240l-51 -194h-79l195 715h117l192 -715h-83zM280 647l-102 -387h204z" />
    <glyph glyph-name="amacron" unicode="&#x101;" horiz-adv-x="471" 
d="M112 635v62h238v-62h-238zM191 -8q-69 0 -111 38.5t-42 109.5v9q0 81 59 118t156 37h72v54q0 55 -21.5 80.5t-70.5 25.5q-89 0 -97 -84h-79q5 76 54 113.5t125 37.5q78 0 123.5 -41.5t45.5 -131.5v-358h-80v58q-47 -66 -134 -66zM203 55q56 0 89 27.5t33 80.5v83h-69
q-139 0 -139 -97v-7q0 -87 86 -87z" />
    <glyph glyph-name="Abreve" unicode="&#x102;" horiz-adv-x="564" 
d="M280 764q-50 0 -84.5 34.5t-36.5 89.5h61q8 -58 60 -58q55 0 64 58h60q-3 -55 -38.5 -89.5t-85.5 -34.5zM451 0l-51 194h-240l-51 -194h-79l195 715h117l192 -715h-83zM280 647l-102 -387h204z" />
    <glyph glyph-name="abreve" unicode="&#x103;" horiz-adv-x="471" 
d="M230 609q-49 0 -83 35t-36 93h60q10 -61 59 -61q53 0 62 61h60q-3 -58 -38 -93t-84 -35zM191 -8q-69 0 -111 38.5t-42 109.5v9q0 81 59 118t156 37h72v54q0 55 -21.5 80.5t-70.5 25.5q-89 0 -97 -84h-79q5 76 54 113.5t125 37.5q78 0 123.5 -41.5t45.5 -131.5v-358h-80
v58q-47 -66 -134 -66zM203 55q56 0 89 27.5t33 80.5v83h-69q-139 0 -139 -97v-7q0 -87 86 -87z" />
    <glyph glyph-name="Aogonek" unicode="&#x104;" horiz-adv-x="564" 
d="M392 -103q0 62 71 103h-12l-51 194h-240l-51 -194h-79l195 715h117l192 -715h-7q-59 -47 -59 -88q0 -34 35 -34q27 0 44 9v-56q-24 -11 -57 -11q-45 0 -71.5 20.5t-26.5 56.5zM280 647l-102 -387h204z" />
    <glyph glyph-name="aogonek" unicode="&#x105;" horiz-adv-x="471" 
d="M265 -103q0 62 71 103h-11v58q-47 -66 -134 -66q-69 0 -111 38.5t-42 109.5v9q0 81 59 118t156 37h72v54q0 55 -21.5 80.5t-70.5 25.5q-89 0 -97 -84h-79q5 76 54 113.5t125 37.5q78 0 123.5 -41.5t45.5 -131.5v-358h-5q-59 -47 -59 -88q0 -34 35 -34q27 0 44 9v-56
q-24 -11 -57 -11q-45 0 -71.5 20.5t-26.5 56.5zM203 55q56 0 89 27.5t33 80.5v83h-69q-139 0 -139 -97v-7q0 -87 86 -87z" />
    <glyph glyph-name="Cacute" unicode="&#x106;" horiz-adv-x="605" 
d="M286 768l50 125h100l-90 -125h-60zM321 -9q-125 0 -197 80t-72 218v137q0 134 75 216.5t194 82.5q100 0 166.5 -54t74.5 -159h-83q-9 74 -47.5 110t-109.5 36q-86 0 -135 -62t-49 -170v-136q0 -110 47.5 -170.5t136.5 -60.5q71 0 116 40t52 119h78q-10 -114 -76 -170.5
t-171 -56.5z" />
    <glyph glyph-name="cacute" unicode="&#x107;" horiz-adv-x="484" 
d="M215 605l55 145h101l-96 -145h-60zM255 -8q-94 0 -153 58t-59 163v95q0 103 60 163t149 60q80 0 133 -40.5t60 -130.5h-78q-10 105 -115 105q-58 0 -93 -41t-35 -116v-95q0 -78 35 -116.5t96 -38.5q48 0 81.5 29.5t36.5 89.5h75q-4 -87 -57 -136t-136 -49z" />
    <glyph glyph-name="Ccircumflex" unicode="&#x108;" horiz-adv-x="605" 
d="M191 768l96 125h73l95 -125h-59l-74 59l-74 -59h-57zM321 -9q-125 0 -197 80t-72 218v137q0 134 75 216.5t194 82.5q100 0 166.5 -54t74.5 -159h-83q-9 74 -47.5 110t-109.5 36q-86 0 -135 -62t-49 -170v-136q0 -110 47.5 -170.5t136.5 -60.5q71 0 116 40t52 119h78
q-10 -114 -76 -170.5t-171 -56.5z" />
    <glyph glyph-name="ccircumflex" unicode="&#x109;" horiz-adv-x="484" 
d="M120 605l95 143h73l94 -143h-60l-72 75l-72 -75h-58zM255 -8q-94 0 -153 58t-59 163v95q0 103 60 163t149 60q80 0 133 -40.5t60 -130.5h-78q-10 105 -115 105q-58 0 -93 -41t-35 -116v-95q0 -78 35 -116.5t96 -38.5q48 0 81.5 29.5t36.5 89.5h75q-4 -87 -57 -136
t-136 -49z" />
    <glyph glyph-name="Cdotaccent" unicode="&#x10a;" horiz-adv-x="605" 
d="M320 782q-21 0 -36.5 15.5t-15.5 36.5q0 22 15.5 37.5t36.5 15.5t36.5 -15.5t15.5 -37.5q0 -21 -15.5 -36.5t-36.5 -15.5zM321 -9q-125 0 -197 80t-72 218v137q0 134 75 216.5t194 82.5q100 0 166.5 -54t74.5 -159h-83q-9 74 -47.5 110t-109.5 36q-86 0 -135 -62
t-49 -170v-136q0 -110 47.5 -170.5t136.5 -60.5q71 0 116 40t52 119h78q-10 -114 -76 -170.5t-171 -56.5z" />
    <glyph glyph-name="cdotaccent" unicode="&#x10b;" horiz-adv-x="484" 
d="M251 619q-21 0 -36.5 15.5t-15.5 37.5t15.5 37.5t36.5 15.5t36.5 -15.5t15.5 -37.5t-15.5 -37.5t-36.5 -15.5zM255 -8q-94 0 -153 58t-59 163v95q0 103 60 163t149 60q80 0 133 -40.5t60 -130.5h-78q-10 105 -115 105q-58 0 -93 -41t-35 -116v-95q0 -78 35 -116.5
t96 -38.5q48 0 81.5 29.5t36.5 89.5h75q-4 -87 -57 -136t-136 -49z" />
    <glyph glyph-name="Ccaron" unicode="&#x10c;" horiz-adv-x="605" 
d="M286 768l-95 125h59l74 -60l74 60h57l-96 -125h-73zM321 -9q-125 0 -197 80t-72 218v137q0 134 75 216.5t194 82.5q100 0 166.5 -54t74.5 -159h-83q-9 74 -47.5 110t-109.5 36q-86 0 -135 -62t-49 -170v-136q0 -110 47.5 -170.5t136.5 -60.5q71 0 116 40t52 119h78
q-10 -114 -76 -170.5t-171 -56.5z" />
    <glyph glyph-name="ccaron" unicode="&#x10d;" horiz-adv-x="484" 
d="M213 605l-94 143h60l72 -75l72 75h58l-95 -143h-73zM255 -8q-94 0 -153 58t-59 163v95q0 103 60 163t149 60q80 0 133 -40.5t60 -130.5h-78q-10 105 -115 105q-58 0 -93 -41t-35 -116v-95q0 -78 35 -116.5t96 -38.5q48 0 81.5 29.5t36.5 89.5h75q-4 -87 -57 -136
t-136 -49z" />
    <glyph glyph-name="Dcaron" unicode="&#x10e;" horiz-adv-x="600" 
d="M231 768l-95 125h59l74 -60l74 60h57l-96 -125h-73zM74 715h176q147 0 221.5 -76.5t74.5 -210.5v-140q0 -133 -74 -210.5t-222 -77.5h-176v715zM245 648h-88v-580h89q214 0 214 221v139q0 107 -51 163.5t-164 56.5z" />
    <glyph glyph-name="dcaron" unicode="&#x10f;" horiz-adv-x="532" 
d="M500 601l10 163h88l-44 -163h-54zM463 764v-764h-80v77q-20 -36 -60.5 -60.5t-88.5 -24.5q-86 0 -138 56.5t-52 158.5v102q0 102 54 162t144 60q98 0 141 -81v314h80zM384 217v89q0 79 -34 119t-97 40q-62 0 -94.5 -39.5t-32.5 -115.5v-102q0 -76 32.5 -113t88.5 -37
q62 0 99.5 40.5t37.5 118.5z" />
    <glyph glyph-name="Dcroat" unicode="&#x110;" horiz-adv-x="617" 
d="M91 0v327h-63v66h63v322h176q147 0 221.5 -76.5t74.5 -210.5v-140q0 -133 -73.5 -210.5t-221.5 -77.5h-177zM175 68h88q214 0 214 221v139q0 107 -51 163.5t-164 56.5h-87v-255h164v-66h-164v-259z" />
    <glyph glyph-name="dcroat" unicode="&#x111;" horiz-adv-x="532" 
d="M231 609v59h152v96h80v-96h62v-59h-62v-609h-80v77q-20 -36 -60.5 -60.5t-88.5 -24.5q-86 0 -138 56.5t-52 158.5v102q0 102 54 162t144 60q98 0 141 -81v159h-152zM384 217v89q0 79 -34 119t-97 40q-62 0 -94.5 -39.5t-32.5 -115.5v-102q0 -76 32.5 -113t88.5 -37
q62 0 99.5 40.5t37.5 118.5z" />
    <glyph glyph-name="Emacron" unicode="&#x112;" horiz-adv-x="490" 
d="M133 782v63h244v-63h-244zM74 0v715h361v-68h-278v-241h226v-67h-226v-271h294v-68h-377z" />
    <glyph glyph-name="emacron" unicode="&#x113;" horiz-adv-x="488" 
d="M127 635v62h238v-62h-238zM253 -8q-96 0 -153 59.5t-57 163.5v93q0 102 56.5 162.5t148.5 60.5q88 0 143 -54t55 -164v-67h-322v-31q0 -157 130 -157q99 0 113 89h78q-9 -77 -59.5 -116t-132.5 -39zM248 465q-55 0 -89.5 -39.5t-34.5 -115.5h242v13q0 142 -118 142z" />
    <glyph glyph-name="Ebreve" unicode="&#x114;" horiz-adv-x="490" 
d="M259 764q-50 0 -84.5 34.5t-36.5 89.5h61q8 -58 60 -58q55 0 64 58h60q-3 -55 -38.5 -89.5t-85.5 -34.5zM74 0v715h361v-68h-278v-241h226v-67h-226v-271h294v-68h-377z" />
    <glyph glyph-name="ebreve" unicode="&#x115;" horiz-adv-x="488" 
d="M240 609q-49 0 -83 35t-36 93h60q10 -61 59 -61q53 0 62 61h60q-3 -58 -38 -93t-84 -35zM253 -8q-96 0 -153 59.5t-57 163.5v93q0 102 56.5 162.5t148.5 60.5q88 0 143 -54t55 -164v-67h-322v-31q0 -157 130 -157q99 0 113 89h78q-9 -77 -59.5 -116t-132.5 -39zM248 465
q-55 0 -89.5 -39.5t-34.5 -115.5h242v13q0 142 -118 142z" />
    <glyph glyph-name="Edotaccent" unicode="&#x116;" horiz-adv-x="490" 
d="M255 782q-21 0 -36.5 15.5t-15.5 36.5q0 22 15.5 37.5t36.5 15.5t36.5 -15.5t15.5 -37.5q0 -21 -15.5 -36.5t-36.5 -15.5zM74 0v715h361v-68h-278v-241h226v-67h-226v-271h294v-68h-377z" />
    <glyph glyph-name="edotaccent" unicode="&#x117;" horiz-adv-x="488" 
d="M246 619q-21 0 -36.5 15.5t-15.5 37.5t15.5 37.5t36.5 15.5t36.5 -15.5t15.5 -37.5t-15.5 -37.5t-36.5 -15.5zM253 -8q-96 0 -153 59.5t-57 163.5v93q0 102 56.5 162.5t148.5 60.5q88 0 143 -54t55 -164v-67h-322v-31q0 -157 130 -157q99 0 113 89h78q-9 -77 -59.5 -116
t-132.5 -39zM248 465q-55 0 -89.5 -39.5t-34.5 -115.5h242v13q0 142 -118 142z" />
    <glyph glyph-name="Eogonek" unicode="&#x118;" horiz-adv-x="490" 
d="M278 -103q0 62 71 103h-275v715h361v-68h-278v-241h226v-67h-226v-271h294v-68h-38q-59 -47 -59 -88q0 -34 35 -34q27 0 44 9v-56q-24 -11 -57 -11q-45 0 -71.5 20.5t-26.5 56.5z" />
    <glyph glyph-name="eogonek" unicode="&#x119;" horiz-adv-x="488" 
d="M375 -169q-24 -11 -57 -11q-45 0 -71.5 20.5t-26.5 56.5q0 56 60 96q-11 -1 -27 -1q-96 0 -153 59.5t-57 163.5v93q0 102 56.5 162.5t148.5 60.5q88 0 143 -54t55 -164v-67h-322v-31q0 -157 130 -157q99 0 113 89h78q-8 -65 -49 -107q-8 -8 -28 -25.5t-34 -30.5t-26 -33
t-12 -39q0 -34 37 -34q25 0 42 9v-56zM248 465q-55 0 -89.5 -39.5t-34.5 -115.5h242v13q0 142 -118 142z" />
    <glyph glyph-name="Ecaron" unicode="&#x11a;" horiz-adv-x="490" 
d="M221 768l-95 125h59l74 -60l74 60h57l-96 -125h-73zM74 0v715h361v-68h-278v-241h226v-67h-226v-271h294v-68h-377z" />
    <glyph glyph-name="ecaron" unicode="&#x11b;" horiz-adv-x="488" 
d="M209 605l-94 143h60l72 -75l72 75h58l-95 -143h-73zM253 -8q-96 0 -153 59.5t-57 163.5v93q0 102 56.5 162.5t148.5 60.5q88 0 143 -54t55 -164v-67h-322v-31q0 -157 130 -157q99 0 113 89h78q-9 -77 -59.5 -116t-132.5 -39zM248 465q-55 0 -89.5 -39.5t-34.5 -115.5h242
v13q0 142 -118 142z" />
    <glyph glyph-name="Gcircumflex" unicode="&#x11c;" horiz-adv-x="634" 
d="M193 768l96 125h73l95 -125h-59l-74 59l-74 -59h-57zM343 291v69h241v-105q0 -129 -68.5 -196.5t-186.5 -67.5q-133 0 -205 80t-72 215v142q0 134 75.5 215.5t200.5 81.5q100 0 165.5 -49.5t76.5 -157.5h-83q-19 140 -157 140q-93 0 -142.5 -61t-49.5 -168v-142
q0 -107 48.5 -167.5t142.5 -60.5q87 0 130 50.5t43 142.5v39h-159z" />
    <glyph glyph-name="gcircumflex" unicode="&#x11d;" horiz-adv-x="528" 
d="M119 605l95 143h73l94 -143h-60l-72 75l-72 -75h-58zM250 -187q-94 0 -143.5 40.5t-57.5 107.5h81q12 -81 119 -81q130 0 130 136v79q-20 -36 -59.5 -60.5t-86.5 -24.5q-85 0 -137 56.5t-52 153.5v95q0 96 54 156t142 60q96 0 139 -81v73h80v-510q0 -100 -56 -150
t-153 -50zM246 76q61 0 97.5 40t36.5 113v82q0 75 -33.5 114.5t-95.5 39.5q-60 0 -92.5 -39.5t-32.5 -109.5v-96q0 -70 32.5 -107t87.5 -37z" />
    <glyph glyph-name="Gbreve" unicode="&#x11e;" horiz-adv-x="634" 
d="M324 764q-50 0 -84.5 34.5t-36.5 89.5h61q8 -58 60 -58q55 0 64 58h60q-3 -55 -38.5 -89.5t-85.5 -34.5zM343 291v69h241v-105q0 -129 -68.5 -196.5t-186.5 -67.5q-133 0 -205 80t-72 215v142q0 134 75.5 215.5t200.5 81.5q100 0 165.5 -49.5t76.5 -157.5h-83
q-19 140 -157 140q-93 0 -142.5 -61t-49.5 -168v-142q0 -107 48.5 -167.5t142.5 -60.5q87 0 130 50.5t43 142.5v39h-159z" />
    <glyph glyph-name="gbreve" unicode="&#x11f;" horiz-adv-x="528" 
d="M249 609q-49 0 -83 35t-36 93h60q10 -61 59 -61q53 0 62 61h60q-3 -58 -38 -93t-84 -35zM250 -187q-94 0 -143.5 40.5t-57.5 107.5h81q12 -81 119 -81q130 0 130 136v79q-20 -36 -59.5 -60.5t-86.5 -24.5q-85 0 -137 56.5t-52 153.5v95q0 96 54 156t142 60q96 0 139 -81
v73h80v-510q0 -100 -56 -150t-153 -50zM246 76q61 0 97.5 40t36.5 113v82q0 75 -33.5 114.5t-95.5 39.5q-60 0 -92.5 -39.5t-32.5 -109.5v-96q0 -70 32.5 -107t87.5 -37z" />
    <glyph glyph-name="Gdotaccent" unicode="&#x120;" horiz-adv-x="634" 
d="M325 782q-21 0 -36.5 15.5t-15.5 36.5q0 22 15.5 37.5t36.5 15.5t36.5 -15.5t15.5 -37.5q0 -21 -15.5 -36.5t-36.5 -15.5zM343 291v69h241v-105q0 -129 -68.5 -196.5t-186.5 -67.5q-133 0 -205 80t-72 215v142q0 134 75.5 215.5t200.5 81.5q100 0 165.5 -49.5
t76.5 -157.5h-83q-19 140 -157 140q-93 0 -142.5 -61t-49.5 -168v-142q0 -107 48.5 -167.5t142.5 -60.5q87 0 130 50.5t43 142.5v39h-159z" />
    <glyph glyph-name="gdotaccent" unicode="&#x121;" horiz-adv-x="528" 
d="M250 619q-21 0 -36.5 15.5t-15.5 37.5t15.5 37.5t36.5 15.5t36.5 -15.5t15.5 -37.5t-15.5 -37.5t-36.5 -15.5zM250 -187q-94 0 -143.5 40.5t-57.5 107.5h81q12 -81 119 -81q130 0 130 136v79q-20 -36 -59.5 -60.5t-86.5 -24.5q-85 0 -137 56.5t-52 153.5v95q0 96 54 156
t142 60q96 0 139 -81v73h80v-510q0 -100 -56 -150t-153 -50zM246 76q61 0 97.5 40t36.5 113v82q0 75 -33.5 114.5t-95.5 39.5q-60 0 -92.5 -39.5t-32.5 -109.5v-96q0 -70 32.5 -107t87.5 -37z" />
    <glyph glyph-name="uni0122" unicode="&#x122;" horiz-adv-x="634" 
d="M343 291v69h241v-105q0 -129 -68.5 -196.5t-186.5 -67.5q-133 0 -205 80t-72 215v142q0 134 75.5 215.5t200.5 81.5q100 0 165.5 -49.5t76.5 -157.5h-83q-19 140 -157 140q-93 0 -142.5 -61t-49.5 -168v-142q0 -107 48.5 -167.5t142.5 -60.5q87 0 130 50.5t43 142.5v39
h-159zM298 -207l-50 21l48 149l78 -20z" />
    <glyph glyph-name="uni0123" unicode="&#x123;" horiz-adv-x="528" 
d="M287 602l-77 20l76 150l49 -21zM250 -187q-94 0 -143.5 40.5t-57.5 107.5h81q12 -81 119 -81q130 0 130 136v79q-20 -36 -59.5 -60.5t-86.5 -24.5q-85 0 -137 56.5t-52 153.5v95q0 96 54 156t142 60q96 0 139 -81v73h80v-510q0 -100 -56 -150t-153 -50zM246 76
q61 0 97.5 40t36.5 113v82q0 75 -33.5 114.5t-95.5 39.5q-60 0 -92.5 -39.5t-32.5 -109.5v-96q0 -70 32.5 -107t87.5 -37z" />
    <glyph glyph-name="Hcircumflex" unicode="&#x124;" horiz-adv-x="610" 
d="M173 768l96 125h73l95 -125h-59l-74 59l-74 -59h-57zM74 0v715h83v-322h296v322h83v-715h-83v322h-296v-322h-83z" />
    <glyph glyph-name="hcircumflex" unicode="&#x125;" horiz-adv-x="508" 
d="M133 812l96 125h73l95 -125h-59l-74 59l-74 -59h-57zM68 0v764h80v-314q17 36 53.5 58.5t87.5 22.5q72 0 113.5 -44.5t41.5 -137.5v-349h-81v353q0 56 -23.5 83t-73.5 27t-84 -31.5t-34 -86.5v-345h-80z" />
    <glyph glyph-name="Hbar" unicode="&#x126;" horiz-adv-x="610" 
d="M74 0v500h-61v64h61v151h83v-151h296v151h83v-151h61v-64h-61v-500h-83v322h-296v-322h-83zM157 393h296v107h-296v-107z" />
    <glyph glyph-name="hbar" unicode="&#x127;" horiz-adv-x="508" 
d="M68 0v609h-64v59h64v96h80v-96h150v-59h-150v-159q17 36 53.5 58.5t87.5 22.5q72 0 113.5 -44.5t41.5 -137.5v-349h-81v353q0 56 -23.5 83t-73.5 27t-84 -31.5t-34 -86.5v-345h-80z" />
    <glyph glyph-name="Itilde" unicode="&#x128;" horiz-adv-x="241" 
d="M172 771q-22 0 -55 19t-44 19q-26 0 -35 -40h-56q5 49 30 78.5t60 29.5q22 0 55 -19t44 -19q26 0 35 41h56q-5 -49 -30 -79t-60 -30zM79 0v715h83v-715h-83z" />
    <glyph glyph-name="itilde" unicode="&#x129;" horiz-adv-x="220" 
d="M159 611q-22 0 -54 20.5t-43 20.5q-26 0 -35 -43h-55q4 50 29 80.5t60 30.5q22 0 54 -19.5t43 -19.5q27 0 35 42h55q-4 -50 -29 -81t-60 -31zM70 0v523h80v-523h-80z" />
    <glyph glyph-name="Imacron" unicode="&#x12a;" horiz-adv-x="241" 
d="M-2 782v63h244v-63h-244zM79 0v715h83v-715h-83z" />
    <glyph glyph-name="imacron" unicode="&#x12b;" horiz-adv-x="220" 
d="M20 635v62h179v-62h-179zM70 0v523h80v-523h-80z" />
    <glyph glyph-name="Ibreve" unicode="&#x12c;" horiz-adv-x="241" 
d="M121 764q-50 0 -84.5 34.5t-36.5 89.5h61q8 -58 60 -58q55 0 64 58h60q-3 -55 -38.5 -89.5t-85.5 -34.5zM79 0v715h83v-715h-83z" />
    <glyph glyph-name="ibreve" unicode="&#x12d;" horiz-adv-x="220" 
d="M109 609q-49 0 -83 35t-36 93h60q10 -61 59 -61q53 0 62 61h60q-3 -58 -38 -93t-84 -35zM70 0v523h80v-523h-80z" />
    <glyph glyph-name="Iogonek" unicode="&#x12e;" horiz-adv-x="241" 
d="M21 -103q0 62 71 103h-13v715h83v-715h-6q-59 -47 -59 -88q0 -34 35 -34q27 0 44 9v-56q-24 -11 -57 -11q-45 0 -71.5 20.5t-26.5 56.5z" />
    <glyph glyph-name="iogonek" unicode="&#x12f;" horiz-adv-x="220" 
d="M109 620q-22 0 -37 15t-15 37t15 37.5t37 15.5t37 -15.5t15 -37.5t-15 -37t-37 -15zM11 -103q0 62 71 103h-12v523h80v-523h-4q-59 -47 -59 -88q0 -34 35 -34q27 0 44 9v-56q-24 -11 -57 -11q-45 0 -71.5 20.5t-26.5 56.5z" />
    <glyph glyph-name="Idotaccent" unicode="&#x130;" horiz-adv-x="241" 
d="M120 782q-21 0 -36.5 15.5t-15.5 36.5q0 22 15.5 37.5t36.5 15.5t36.5 -15.5t15.5 -37.5q0 -21 -15.5 -36.5t-36.5 -15.5zM79 0v715h83v-715h-83z" />
    <glyph glyph-name="dotlessi" unicode="&#x131;" horiz-adv-x="220" 
d="M70 0v523h80v-523h-80z" />
    <glyph glyph-name="IJ" unicode="&#x132;" horiz-adv-x="568" 
d="M79 0v715h83v-715h-83zM324 -7q-53 0 -85 16v68q37 -16 79 -16q97 0 97 116v538h84v-542q0 -92 -49 -136t-126 -44z" />
    <glyph glyph-name="ij" unicode="&#x133;" horiz-adv-x="439" 
d="M109 620q-22 0 -37 15t-15 37t15 37.5t37 15.5t37 -15.5t15 -37.5t-15 -37t-37 -15zM329 620q-22 0 -37 15t-15 37t15 37.5t37 15.5t37 -15.5t15 -37.5t-15 -37t-37 -15zM70 0v523h80v-523h-80zM216 -185v67q40 4 57 23t17 54v564h80v-558q0 -73 -36 -110.5t-118 -39.5z
" />
    <glyph glyph-name="Jcircumflex" unicode="&#x134;" horiz-adv-x="358" 
d="M113 768l96 125h73l95 -125h-59l-74 59l-74 -59h-57zM114 -7q-51 0 -85 16v68q37 -16 79 -16q97 0 97 116v538h84v-542q0 -92 -49 -136t-126 -44z" />
    <glyph glyph-name="jcircumflex" unicode="&#x135;" horiz-adv-x="220" 
d="M-21 605l95 143h73l94 -143h-60l-72 75l-72 -75h-58zM-4 -187v67q74 8 74 78v565h80v-560q0 -72 -36 -109.5t-118 -40.5z" />
    <glyph glyph-name="uni0136" unicode="&#x136;" horiz-adv-x="530" 
d="M74 0v715h83v-342l255 342h91l-261 -341l273 -374h-96l-262 357v-357h-83zM250 -207l-50 21l48 149l78 -20z" />
    <glyph glyph-name="uni0137" unicode="&#x137;" horiz-adv-x="452" 
d="M68 0v764h80v-482l187 241h89l-192 -243l205 -280h-93l-196 269v-269h-80zM206 -207l-50 21l48 149l78 -20z" />
    <glyph glyph-name="Lacute" unicode="&#x139;" horiz-adv-x="461" 
d="M81 768l50 125h100l-90 -125h-60zM74 0v715h83v-647h274v-68h-357z" />
    <glyph glyph-name="lacute" unicode="&#x13a;" horiz-adv-x="223" 
d="M77 812l50 125h100l-90 -125h-60zM71 0v764h81v-764h-81z" />
    <glyph glyph-name="uni013B" unicode="&#x13b;" horiz-adv-x="461" 
d="M74 0v715h83v-647h274v-68h-357zM224 -207l-50 21l48 149l78 -20z" />
    <glyph glyph-name="uni013C" unicode="&#x13c;" horiz-adv-x="223" 
d="M71 0v764h81v-764h-81zM84 -207l-50 21l48 149l78 -20z" />
    <glyph glyph-name="Lcaron" unicode="&#x13d;" horiz-adv-x="461" 
d="M227 552l10 163h88l-44 -163h-54zM74 0v715h83v-647h274v-68h-357z" />
    <glyph glyph-name="lcaron" unicode="&#x13e;" horiz-adv-x="223" 
d="M191 601l10 163h88l-44 -163h-54zM71 0v764h81v-764h-81z" />
    <glyph glyph-name="Ldot" unicode="&#x13f;" horiz-adv-x="461" 
d="M74 0v715h83v-647h274v-68h-357zM354 315q-25 0 -43 17.5t-18 42.5t18 42.5t43 17.5t42.5 -17.5t17.5 -42.5t-17.5 -42.5t-42.5 -17.5z" />
    <glyph glyph-name="ldot" unicode="&#x140;" horiz-adv-x="302" 
d="M71 0v764h81v-764h-81zM260 313q-24 0 -42 17.5t-18 42.5t18 42.5t42 17.5q25 0 42.5 -17.5t17.5 -42.5t-17.5 -42.5t-42.5 -17.5z" />
    <glyph glyph-name="Lslash" unicode="&#x141;" horiz-adv-x="477" 
d="M90 0v274l-58 -24v66l58 24v375h83v-340l165 68v-66l-165 -68v-241h274v-68h-357z" />
    <glyph glyph-name="lslash" unicode="&#x142;" horiz-adv-x="232" 
d="M80 0v363l-67 -40v67l67 40v334h81v-286l70 42v-67l-70 -42v-411h-81z" />
    <glyph glyph-name="Nacute" unicode="&#x143;" horiz-adv-x="608" 
d="M274 768l50 125h100l-90 -125h-60zM74 0v715h106l277 -567v567h77v-715h-93l-290 599v-599h-77z" />
    <glyph glyph-name="nacute" unicode="&#x144;" horiz-adv-x="508" 
d="M216 605l55 145h101l-96 -145h-60zM68 0v523h80v-73q17 36 53.5 58.5t87.5 22.5q72 0 113.5 -44.5t41.5 -137.5v-349h-81v353q0 56 -23.5 83t-73.5 27t-84 -31.5t-34 -86.5v-345h-80z" />
    <glyph glyph-name="uni0145" unicode="&#x145;" horiz-adv-x="608" 
d="M74 0v715h106l277 -567v567h77v-715h-93l-290 599v-599h-77zM267 -207l-50 21l48 149l78 -20z" />
    <glyph glyph-name="uni0146" unicode="&#x146;" horiz-adv-x="508" 
d="M68 0v523h80v-73q17 36 53.5 58.5t87.5 22.5q72 0 113.5 -44.5t41.5 -137.5v-349h-81v353q0 56 -23.5 83t-73.5 27t-84 -31.5t-34 -86.5v-345h-80zM225 -207l-50 21l48 149l78 -20z" />
    <glyph glyph-name="Ncaron" unicode="&#x147;" horiz-adv-x="608" 
d="M274 768l-95 125h59l74 -60l74 60h57l-96 -125h-73zM74 0v715h106l277 -567v567h77v-715h-93l-290 599v-599h-77z" />
    <glyph glyph-name="ncaron" unicode="&#x148;" horiz-adv-x="508" 
d="M215 605l-94 143h60l72 -75l72 75h58l-95 -143h-73zM68 0v523h80v-73q17 36 53.5 58.5t87.5 22.5q72 0 113.5 -44.5t41.5 -137.5v-349h-81v353q0 56 -23.5 83t-73.5 27t-84 -31.5t-34 -86.5v-345h-80z" />
    <glyph glyph-name="napostrophe" unicode="&#x149;" horiz-adv-x="507" 
d="M9 505l-51 23l74 197l79 -32zM68 0v523h80v-73q17 36 53.5 58.5t87.5 22.5q72 0 113.5 -44.5t41.5 -137.5v-349h-81v353q0 56 -23.5 83t-73.5 27t-84 -31.5t-34 -86.5v-345h-80z" />
    <glyph glyph-name="Eng" unicode="&#x14a;" horiz-adv-x="608" 
d="M363 -174q-56 0 -84 16v67q39 -15 79 -15q91 0 97 97l-304 608v-599h-77v715h106l277 -548v548h77v-709q0 -93 -47.5 -136.5t-123.5 -43.5z" />
    <glyph glyph-name="eng" unicode="&#x14b;" horiz-adv-x="507" 
d="M292 -187v67q39 4 55 23t16 55v395q0 56 -23.5 82.5t-73.5 26.5t-84 -31t-34 -86v-345h-80v523h80v-73q17 36 53.5 58.5t87.5 22.5q72 0 113 -44.5t41 -137.5v-386q0 -72 -35 -109.5t-116 -40.5z" />
    <glyph glyph-name="Omacron" unicode="&#x14c;" horiz-adv-x="666" 
d="M211 782v63h244v-63h-244zM335 -9q-126 0 -203.5 82.5t-77.5 212.5v142q0 131 77 213.5t203 82.5t202 -82t76 -212v-142q0 -131 -76 -214t-201 -83zM335 60q90 0 140.5 62.5t50.5 165.5v141q0 100 -50.5 163.5t-141.5 63.5q-93 0 -143.5 -61.5t-50.5 -165.5v-142
q0 -104 53 -165.5t142 -61.5z" />
    <glyph glyph-name="omacron" unicode="&#x14d;" horiz-adv-x="512" 
d="M136 635v62h238v-62h-238zM255 -8q-95 0 -153.5 61t-58.5 161v94q0 102 59 162.5t154 60.5t154 -60t59 -162v-94q0 -102 -59 -162.5t-155 -60.5zM256 58q62 0 96.5 41.5t34.5 114.5v93q0 74 -34.5 116t-96.5 42t-97 -41.5t-35 -115.5v-94q0 -73 34.5 -114.5t97.5 -41.5z
" />
    <glyph glyph-name="Obreve" unicode="&#x14e;" horiz-adv-x="666" 
d="M332 764q-50 0 -84.5 34.5t-36.5 89.5h61q8 -58 60 -58q55 0 64 58h60q-3 -55 -38.5 -89.5t-85.5 -34.5zM335 -9q-126 0 -203.5 82.5t-77.5 212.5v142q0 131 77 213.5t203 82.5t202 -82t76 -212v-142q0 -131 -76 -214t-201 -83zM335 60q90 0 140.5 62.5t50.5 165.5v141
q0 100 -50.5 163.5t-141.5 63.5q-93 0 -143.5 -61.5t-50.5 -165.5v-142q0 -104 53 -165.5t142 -61.5z" />
    <glyph glyph-name="obreve" unicode="&#x14f;" horiz-adv-x="512" 
d="M254 609q-49 0 -83 35t-36 93h60q10 -61 59 -61q53 0 62 61h60q-3 -58 -38 -93t-84 -35zM255 -8q-95 0 -153.5 61t-58.5 161v94q0 102 59 162.5t154 60.5t154 -60t59 -162v-94q0 -102 -59 -162.5t-155 -60.5zM256 58q62 0 96.5 41.5t34.5 114.5v93q0 74 -34.5 116
t-96.5 42t-97 -41.5t-35 -115.5v-94q0 -73 34.5 -114.5t97.5 -41.5z" />
    <glyph glyph-name="Ohungarumlaut" unicode="&#x150;" horiz-adv-x="666" 
d="M230 768l32 125h90l-65 -125h-57zM370 768l33 125h90l-65 -125h-58zM335 -9q-126 0 -203.5 82.5t-77.5 212.5v142q0 131 77 213.5t203 82.5t202 -82t76 -212v-142q0 -131 -76 -214t-201 -83zM335 60q90 0 140.5 62.5t50.5 165.5v141q0 100 -50.5 163.5t-141.5 63.5
q-93 0 -143.5 -61.5t-50.5 -165.5v-142q0 -104 53 -165.5t142 -61.5z" />
    <glyph glyph-name="ohungarumlaut" unicode="&#x151;" horiz-adv-x="512" 
d="M153 605l34 145h90l-67 -145h-57zM293 605l34 145h91l-67 -145h-58zM255 -8q-95 0 -153.5 61t-58.5 161v94q0 102 59 162.5t154 60.5t154 -60t59 -162v-94q0 -102 -59 -162.5t-155 -60.5zM256 58q62 0 96.5 41.5t34.5 114.5v93q0 74 -34.5 116t-96.5 42t-97 -41.5
t-35 -115.5v-94q0 -73 34.5 -114.5t97.5 -41.5z" />
    <glyph glyph-name="OE" unicode="&#x152;" horiz-adv-x="807" 
d="M352 0q-148 0 -226 80t-78 218v116q0 138 78.5 219.5t226.5 81.5h403v-68h-259v-241h207v-67h-207v-271h274v-68h-419zM355 67h59v580h-60q-110 0 -164.5 -60.5t-54.5 -173.5v-116q0 -230 220 -230z" />
    <glyph glyph-name="oe" unicode="&#x153;" horiz-adv-x="838" 
d="M257 -8q-94 0 -154 62.5t-60 162.5v88q0 102 60.5 164t154.5 62q124 0 176 -103q24 49 67 76t97 27q88 0 143 -54t55 -164v-67h-322v-31q0 -157 130 -157q99 0 113 89h78q-9 -77 -59.5 -116t-132.5 -39q-121 0 -170 102q-52 -102 -176 -102zM259 58q62 0 98 43t36 116v87
q0 75 -36 118t-98 43t-98 -43t-36 -117v-88q0 -74 35.5 -116.5t98.5 -42.5zM598 465q-55 0 -89.5 -39.5t-34.5 -115.5h242v13q0 142 -118 142z" />
    <glyph glyph-name="Racute" unicode="&#x154;" horiz-adv-x="542" 
d="M227 768l50 125h100l-90 -125h-60zM74 0v715h187q102 0 161.5 -46t59.5 -140v-19q0 -149 -148 -182l178 -328h-93l-171 320h-91v-320h-83zM157 386h107q135 0 135 124v19q0 64 -34 91.5t-101 27.5h-107v-262z" />
    <glyph glyph-name="racute" unicode="&#x155;" horiz-adv-x="325" 
d="M143 605l55 145h101l-96 -145h-60zM68 0v523h80v-83q23 44 57 66t91 24v-75q-75 -4 -111.5 -34t-36.5 -105v-316h-80z" />
    <glyph glyph-name="uni0156" unicode="&#x156;" horiz-adv-x="542" 
d="M74 0v715h187q102 0 161.5 -46t59.5 -140v-19q0 -149 -148 -182l178 -328h-93l-171 320h-91v-320h-83zM157 386h107q135 0 135 124v19q0 64 -34 91.5t-101 27.5h-107v-262zM239 -207l-50 21l48 149l78 -20z" />
    <glyph glyph-name="uni0157" unicode="&#x157;" horiz-adv-x="325" 
d="M68 0v523h80v-83q23 44 57 66t91 24v-75q-75 -4 -111.5 -34t-36.5 -105v-316h-80zM82 -207l-50 21l48 149l78 -20z" />
    <glyph glyph-name="Rcaron" unicode="&#x158;" horiz-adv-x="542" 
d="M227 768l-95 125h59l74 -60l74 60h57l-96 -125h-73zM74 0v715h187q102 0 161.5 -46t59.5 -140v-19q0 -149 -148 -182l178 -328h-93l-171 320h-91v-320h-83zM157 386h107q135 0 135 124v19q0 64 -34 91.5t-101 27.5h-107v-262z" />
    <glyph glyph-name="rcaron" unicode="&#x159;" horiz-adv-x="325" 
d="M141 605l-94 143h60l72 -75l72 75h58l-95 -143h-73zM68 0v523h80v-83q23 44 57 66t91 24v-75q-75 -4 -111.5 -34t-36.5 -105v-316h-80z" />
    <glyph glyph-name="Sacute" unicode="&#x15a;" horiz-adv-x="533" 
d="M218 768l50 125h100l-90 -125h-60zM272 -9q-110 0 -166.5 57t-62.5 157h81q5 -73 37.5 -109.5t110.5 -36.5q56 0 91.5 34t35.5 93q0 62 -31.5 93.5t-115.5 59.5q-99 33 -145 77.5t-46 127.5q0 80 54.5 130t141.5 50q93 0 147.5 -47t60.5 -139h-77q-12 118 -131 118
q-56 0 -87 -28.5t-31 -77.5q0 -53 28.5 -82t112.5 -56q106 -34 153.5 -81.5t47.5 -139.5q0 -91 -58.5 -145.5t-150.5 -54.5z" />
    <glyph glyph-name="sacute" unicode="&#x15b;" horiz-adv-x="423" 
d="M170 605l55 145h101l-96 -145h-60zM216 -8q-84 0 -131.5 42.5t-48.5 119.5h78q6 -96 101 -96q92 0 92 80q0 37 -24 56.5t-81 38.5q-86 28 -120 62.5t-34 97.5q0 65 47 101.5t110 36.5q71 0 116 -35t50 -112h-77q-4 42 -26 61.5t-63 19.5q-38 0 -60 -18.5t-22 -50.5
q0 -35 21.5 -53.5t83.5 -38.5q81 -25 119 -58.5t38 -103.5q0 -69 -43 -109.5t-126 -40.5z" />
    <glyph glyph-name="Scircumflex" unicode="&#x15c;" horiz-adv-x="533" 
d="M123 768l96 125h73l95 -125h-59l-74 59l-74 -59h-57zM272 -9q-110 0 -166.5 57t-62.5 157h81q5 -73 37.5 -109.5t110.5 -36.5q56 0 91.5 34t35.5 93q0 62 -31.5 93.5t-115.5 59.5q-99 33 -145 77.5t-46 127.5q0 80 54.5 130t141.5 50q93 0 147.5 -47t60.5 -139h-77
q-12 118 -131 118q-56 0 -87 -28.5t-31 -77.5q0 -53 28.5 -82t112.5 -56q106 -34 153.5 -81.5t47.5 -139.5q0 -91 -58.5 -145.5t-150.5 -54.5z" />
    <glyph glyph-name="scircumflex" unicode="&#x15d;" horiz-adv-x="423" 
d="M75 605l95 143h73l94 -143h-60l-72 75l-72 -75h-58zM216 -8q-84 0 -131.5 42.5t-48.5 119.5h78q6 -96 101 -96q92 0 92 80q0 37 -24 56.5t-81 38.5q-86 28 -120 62.5t-34 97.5q0 65 47 101.5t110 36.5q71 0 116 -35t50 -112h-77q-4 42 -26 61.5t-63 19.5q-38 0 -60 -18.5
t-22 -50.5q0 -35 21.5 -53.5t83.5 -38.5q81 -25 119 -58.5t38 -103.5q0 -69 -43 -109.5t-126 -40.5z" />
    <glyph glyph-name="Scedilla" unicode="&#x15e;" horiz-adv-x="533" 
d="M254 -207q-43 0 -69.5 21.5t-29.5 58.5h55q6 -34 40 -34q17 0 27.5 10t10.5 25t-10 24t-25 9t-26 -8l-32 28l37 66q-91 10 -137.5 66t-51.5 146h81q5 -73 37.5 -109.5t110.5 -36.5q56 0 91.5 34t35.5 93q0 62 -31.5 93.5t-115.5 59.5q-99 33 -145 77.5t-46 127.5
q0 80 54.5 130t141.5 50q93 0 147.5 -47t60.5 -139h-77q-12 118 -131 118q-56 0 -87 -28.5t-31 -77.5q0 -53 28.5 -82t112.5 -56q106 -34 153.5 -81.5t47.5 -139.5q0 -88 -55.5 -142t-142.5 -58l-23 -42q36 5 63 -15.5t27 -61.5q0 -39 -27 -59t-69 -20z" />
    <glyph glyph-name="scedilla" unicode="&#x15f;" horiz-adv-x="423" 
d="M207 -207q-43 0 -69.5 21.5t-29.5 58.5h55q6 -34 40 -34q17 0 27.5 10t10.5 25t-10 24t-25 9t-26 -8l-32 28l37 67q-69 8 -108.5 49.5t-40.5 110.5h78q6 -96 101 -96q92 0 92 80q0 37 -24 56.5t-81 38.5q-86 28 -120 62.5t-34 97.5q0 65 47 101.5t110 36.5q71 0 116 -35
t50 -112h-77q-4 42 -26 61.5t-63 19.5q-38 0 -60 -18.5t-22 -50.5q0 -35 21.5 -53.5t83.5 -38.5q81 -25 119 -58.5t38 -103.5q0 -65 -37.5 -104.5t-110.5 -44.5l-24 -44q36 5 63 -15.5t27 -61.5q0 -39 -27 -59t-69 -20z" />
    <glyph glyph-name="Scaron" unicode="&#x160;" horiz-adv-x="533" 
d="M218 768l-95 125h59l74 -60l74 60h57l-96 -125h-73zM272 -9q-110 0 -166.5 57t-62.5 157h81q5 -73 37.5 -109.5t110.5 -36.5q56 0 91.5 34t35.5 93q0 62 -31.5 93.5t-115.5 59.5q-99 33 -145 77.5t-46 127.5q0 80 54.5 130t141.5 50q93 0 147.5 -47t60.5 -139h-77
q-12 118 -131 118q-56 0 -87 -28.5t-31 -77.5q0 -53 28.5 -82t112.5 -56q106 -34 153.5 -81.5t47.5 -139.5q0 -91 -58.5 -145.5t-150.5 -54.5z" />
    <glyph glyph-name="scaron" unicode="&#x161;" horiz-adv-x="423" 
d="M168 605l-94 143h60l72 -75l72 75h58l-95 -143h-73zM216 -8q-84 0 -131.5 42.5t-48.5 119.5h78q6 -96 101 -96q92 0 92 80q0 37 -24 56.5t-81 38.5q-86 28 -120 62.5t-34 97.5q0 65 47 101.5t110 36.5q71 0 116 -35t50 -112h-77q-4 42 -26 61.5t-63 19.5q-38 0 -60 -18.5
t-22 -50.5q0 -35 21.5 -53.5t83.5 -38.5q81 -25 119 -58.5t38 -103.5q0 -69 -43 -109.5t-126 -40.5z" />
    <glyph glyph-name="uni0162" unicode="&#x162;" horiz-adv-x="481" 
d="M198 0v647h-172v68h429v-68h-173l-1 -647h-83zM212 -207l-50 21l48 149l78 -20z" />
    <glyph glyph-name="uni0163" unicode="&#x163;" horiz-adv-x="311" 
d="M87 637h81v-114h105v-68h-105v-325q0 -68 58 -68q32 0 51 8v-66q-22 -9 -59 -9q-65 0 -98 34.5t-33 94.5v331h-65v68h65v114zM145 -207l-50 21l48 149l78 -20z" />
    <glyph glyph-name="Tcaron" unicode="&#x164;" horiz-adv-x="481" 
d="M201 768l-95 125h59l74 -60l74 60h57l-96 -125h-73zM198 0v647h-172v68h429v-68h-173l-1 -647h-83z" />
    <glyph glyph-name="tcaron" unicode="&#x165;" horiz-adv-x="311" 
d="M225 601l10 163h88l-44 -163h-54zM87 637h81v-114h105v-68h-105v-325q0 -68 58 -68q32 0 51 8v-66q-22 -9 -59 -9q-65 0 -98 34.5t-33 94.5v331h-65v68h65v114z" />
    <glyph glyph-name="Tbar" unicode="&#x166;" horiz-adv-x="481" 
d="M198 0v357h-123v64h123v226h-172v68h429v-68h-173v-226h123v-64h-123l-1 -357h-83z" />
    <glyph glyph-name="tbar" unicode="&#x167;" horiz-adv-x="311" 
d="M22 291v57h65v107h-65v68h65v114h81v-114h105v-68h-105v-107h105v-57h-105v-161q0 -68 58 -68q32 0 51 8v-66q-22 -9 -59 -9q-65 0 -98 34.5t-33 94.5v167h-65z" />
    <glyph glyph-name="Utilde" unicode="&#x168;" horiz-adv-x="598" 
d="M342 771q-22 0 -55 19t-44 19q-26 0 -35 -40h-56q5 49 30 78.5t60 29.5q22 0 55 -19t44 -19q26 0 35 41h56q-5 -49 -30 -79t-60 -30zM444 715h85v-483q0 -116 -59.5 -178.5t-174.5 -62.5q-107 0 -166.5 60t-59.5 173v491h85v-484q0 -90 34.5 -130t108.5 -40
q73 0 110 40.5t37 138.5v475z" />
    <glyph glyph-name="utilde" unicode="&#x169;" horiz-adv-x="505" 
d="M301 611q-22 0 -54 20.5t-43 20.5q-26 0 -35 -43h-55q4 50 29 80.5t60 30.5q22 0 54 -19.5t43 -19.5q27 0 35 42h55q-4 -50 -29 -81t-60 -31zM437 523v-523h-80v73q-17 -35 -53.5 -58t-86.5 -23q-71 0 -112 43t-41 132v356h81v-353q0 -56 23 -82.5t72 -26.5t83 31t34 86
v345h80z" />
    <glyph glyph-name="Umacron" unicode="&#x16a;" horiz-adv-x="598" 
d="M170 782v63h244v-63h-244zM444 715h85v-483q0 -116 -59.5 -178.5t-174.5 -62.5q-107 0 -166.5 60t-59.5 173v491h85v-484q0 -90 34.5 -130t108.5 -40q73 0 110 40.5t37 138.5v475z" />
    <glyph glyph-name="umacron" unicode="&#x16b;" horiz-adv-x="505" 
d="M133 635v62h238v-62h-238zM437 523v-523h-80v73q-17 -35 -53.5 -58t-86.5 -23q-71 0 -112 43t-41 132v356h81v-353q0 -56 23 -82.5t72 -26.5t83 31t34 86v345h80z" />
    <glyph glyph-name="Ubreve" unicode="&#x16c;" horiz-adv-x="598" 
d="M291 764q-50 0 -84.5 34.5t-36.5 89.5h61q8 -58 60 -58q55 0 64 58h60q-3 -55 -38.5 -89.5t-85.5 -34.5zM444 715h85v-483q0 -116 -59.5 -178.5t-174.5 -62.5q-107 0 -166.5 60t-59.5 173v491h85v-484q0 -90 34.5 -130t108.5 -40q73 0 110 40.5t37 138.5v475z" />
    <glyph glyph-name="ubreve" unicode="&#x16d;" horiz-adv-x="505" 
d="M251 609q-49 0 -83 35t-36 93h60q10 -61 59 -61q53 0 62 61h60q-3 -58 -38 -93t-84 -35zM437 523v-523h-80v73q-17 -35 -53.5 -58t-86.5 -23q-71 0 -112 43t-41 132v356h81v-353q0 -56 23 -82.5t72 -26.5t83 31t34 86v345h80z" />
    <glyph glyph-name="Uring" unicode="&#x16e;" horiz-adv-x="598" 
d="M292 738q-41 0 -69.5 28t-28.5 67t28.5 67t69.5 28t69.5 -28t28.5 -67t-28.5 -67t-69.5 -28zM292 781q21 0 34 14.5t13 37.5q0 22 -13 37t-34 15t-34 -15t-13 -37q0 -23 13 -37.5t34 -14.5zM444 715h85v-483q0 -116 -59.5 -178.5t-174.5 -62.5q-107 0 -166.5 60
t-59.5 173v491h85v-484q0 -90 34.5 -130t108.5 -40q73 0 110 40.5t37 138.5v475z" />
    <glyph glyph-name="uring" unicode="&#x16f;" horiz-adv-x="505" 
d="M249 574q-41 0 -69.5 28t-28.5 67q0 40 28.5 68t69.5 28t69.5 -28t28.5 -68q0 -39 -28.5 -67t-69.5 -28zM249 617q21 0 34 15t13 37q0 23 -13 37.5t-34 14.5t-34 -14.5t-13 -37.5q0 -22 13 -37t34 -15zM437 523v-523h-80v73q-17 -35 -53.5 -58t-86.5 -23q-71 0 -112 43
t-41 132v356h81v-353q0 -56 23 -82.5t72 -26.5t83 31t34 86v345h80z" />
    <glyph glyph-name="Uhungarumlaut" unicode="&#x170;" horiz-adv-x="598" 
d="M191 768l32 125h90l-65 -125h-57zM331 768l33 125h90l-65 -125h-58zM444 715h85v-483q0 -116 -59.5 -178.5t-174.5 -62.5q-107 0 -166.5 60t-59.5 173v491h85v-484q0 -90 34.5 -130t108.5 -40q73 0 110 40.5t37 138.5v475z" />
    <glyph glyph-name="uhungarumlaut" unicode="&#x171;" horiz-adv-x="505" 
d="M149 605l34 145h90l-67 -145h-57zM289 605l34 145h91l-67 -145h-58zM437 523v-523h-80v73q-17 -35 -53.5 -58t-86.5 -23q-71 0 -112 43t-41 132v356h81v-353q0 -56 23 -82.5t72 -26.5t83 31t34 86v345h80z" />
    <glyph glyph-name="Uogonek" unicode="&#x172;" horiz-adv-x="598" 
d="M347 -180q-45 0 -71.5 20.5t-26.5 56.5q0 55 57 94h-11q-107 0 -166.5 60t-59.5 173v491h85v-484q0 -90 34.5 -130t108.5 -40q73 0 110 40.5t37 138.5v475h85v-483q0 -136 -87 -202q-6 -5 -45.5 -29t-55.5 -43t-16 -44q0 -36 35 -36q27 0 44 9v-56q-24 -11 -57 -11z" />
    <glyph glyph-name="uogonek" unicode="&#x173;" horiz-adv-x="505" 
d="M295 -103q0 62 71 103h-9v73q-17 -35 -53.5 -58t-86.5 -23q-71 0 -112 43t-41 132v356h81v-353q0 -56 23 -82.5t72 -26.5t83 31t34 86v345h80v-523h-7q-59 -47 -59 -88q0 -34 35 -34q27 0 44 9v-56q-24 -11 -57 -11q-45 0 -71.5 20.5t-26.5 56.5z" />
    <glyph glyph-name="Wcircumflex" unicode="&#x174;" horiz-adv-x="788" 
d="M261 768l96 125h73l95 -125h-59l-74 59l-74 -59h-57zM180 0l-151 715h85l115 -564l135 564h66l136 -566l116 566h77l-151 -715h-79l-133 549l-138 -549h-78z" />
    <glyph glyph-name="wcircumflex" unicode="&#x175;" horiz-adv-x="686" 
d="M212 605l95 143h73l94 -143h-60l-72 75l-72 -75h-58zM156 0l-133 523h85l98 -419l110 419h64l104 -419l99 419h80l-136 -523h-90l-90 383l-104 -383h-87z" />
    <glyph glyph-name="Ycircumflex" unicode="&#x176;" horiz-adv-x="512" 
d="M125 768l96 125h73l95 -125h-59l-74 59l-74 -59h-57zM219 0v312l-199 403h92l151 -324l147 324h82l-188 -404v-311h-85z" />
    <glyph glyph-name="ycircumflex" unicode="&#x177;" horiz-adv-x="460" 
d="M97 605l95 143h73l94 -143h-60l-72 75l-72 -75h-58zM106 523l130 -367l122 367h82l-248 -702h-81l84 232l-174 470h85z" />
    <glyph glyph-name="Ydieresis" unicode="&#x178;" horiz-adv-x="512" 
d="M166 784q-20 0 -35 14.5t-15 35.5t15 36t35 15q21 0 36 -15t15 -36t-15 -35.5t-36 -14.5zM348 784q-21 0 -36 14.5t-15 35.5t15 36t36 15t35.5 -15t14.5 -36t-14.5 -35.5t-35.5 -14.5zM219 0v312l-199 403h92l151 -324l147 324h82l-188 -404v-311h-85z" />
    <glyph glyph-name="Zacute" unicode="&#x179;" horiz-adv-x="501" 
d="M214 768l50 125h100l-90 -125h-60zM23 0v13l333 634h-301v68h413v-12l-328 -633h321v-70h-438z" />
    <glyph glyph-name="zacute" unicode="&#x17a;" horiz-adv-x="413" 
d="M177 605l55 145h101l-96 -145h-60zM19 0v11l259 445h-232v67h346v-14l-253 -440h247v-69h-367z" />
    <glyph glyph-name="Zdotaccent" unicode="&#x17b;" horiz-adv-x="501" 
d="M250 782q-21 0 -36.5 15.5t-15.5 36.5q0 22 15.5 37.5t36.5 15.5t36.5 -15.5t15.5 -37.5q0 -21 -15.5 -36.5t-36.5 -15.5zM23 0v13l333 634h-301v68h413v-12l-328 -633h321v-70h-438z" />
    <glyph glyph-name="zdotaccent" unicode="&#x17c;" horiz-adv-x="413" 
d="M213 619q-21 0 -36.5 15.5t-15.5 37.5t15.5 37.5t36.5 15.5t36.5 -15.5t15.5 -37.5t-15.5 -37.5t-36.5 -15.5zM19 0v11l259 445h-232v67h346v-14l-253 -440h247v-69h-367z" />
    <glyph glyph-name="Zcaron" unicode="&#x17d;" horiz-adv-x="501" 
d="M213 768l-95 125h59l74 -60l74 60h57l-96 -125h-73zM23 0v13l333 634h-301v68h413v-12l-328 -633h321v-70h-438z" />
    <glyph glyph-name="zcaron" unicode="&#x17e;" horiz-adv-x="413" 
d="M176 605l-94 143h60l72 -75l72 75h58l-95 -143h-73zM19 0v11l259 445h-232v67h346v-14l-253 -440h247v-69h-367z" />
    <glyph glyph-name="florin" unicode="&#x192;" horiz-adv-x="353" 
d="M33 -167l70 519h-76v67h85l21 156q20 146 156 146q31 0 54 -7v-69q-16 8 -51 8q-67 0 -79 -84l-20 -150h114v-67h-123l-70 -519h-81z" />
    <glyph glyph-name="Aringacute" unicode="&#x1fa;" horiz-adv-x="564" 
d="M253 957l50 125h100l-90 -125h-60zM286 744q-41 0 -69.5 28t-28.5 67t28.5 67t69.5 28t69.5 -28t28.5 -67t-28.5 -67t-69.5 -28zM286 787q21 0 34 14.5t13 37.5q0 22 -13 37t-34 15t-34 -15t-13 -37q0 -23 13 -37.5t34 -14.5zM451 0l-51 194h-240l-51 -194h-79l195 715
h117l192 -715h-83zM280 647l-102 -387h204z" />
    <glyph glyph-name="aringacute" unicode="&#x1fb;" horiz-adv-x="471" 
d="M203 808l50 125h100l-90 -125h-60zM233 580q-41 0 -69.5 28t-28.5 67q0 40 28.5 68t69.5 28t69.5 -28t28.5 -68q0 -39 -28.5 -67t-69.5 -28zM233 623q21 0 34 15t13 37q0 23 -13 37.5t-34 14.5t-34 -14.5t-13 -37.5q0 -22 13 -37t34 -15zM191 -8q-69 0 -111 38.5
t-42 109.5v9q0 81 59 118t156 37h72v54q0 55 -21.5 80.5t-70.5 25.5q-89 0 -97 -84h-79q5 76 54 113.5t125 37.5q78 0 123.5 -41.5t45.5 -131.5v-358h-80v58q-47 -66 -134 -66zM203 55q56 0 89 27.5t33 80.5v83h-69q-139 0 -139 -97v-7q0 -87 86 -87z" />
    <glyph glyph-name="AEacute" unicode="&#x1fc;" horiz-adv-x="795" 
d="M467 768l50 125h100l-90 -125h-60zM24 0l289 715h431v-68h-269v-241h217v-67h-217v-271h283v-68h-367v194h-208l-76 -194h-83zM362 647l-153 -387h182v387h-29z" />
    <glyph glyph-name="aeacute" unicode="&#x1fd;" horiz-adv-x="751" 
d="M339 605l55 145h101l-96 -145h-60zM196 -8q-70 0 -114 39t-44 109v9q0 83 58.5 121.5t155.5 38.5h67v51q0 55 -21 79.5t-68 24.5q-85 0 -94 -84h-79q6 76 54 113.5t121 37.5q103 0 137 -74q52 74 147 74q85 0 139 -54t54 -164v-67h-311v-31q0 -157 119 -157q99 0 113 89
h78q-9 -77 -59.5 -116t-132.5 -39q-112 0 -160 91q-28 -47 -65.5 -69t-94.5 -22zM513 465q-54 0 -84.5 -39t-30.5 -116h231v21q0 134 -116 134zM203 55q54 0 85 27.5t31 80.5v85h-64q-68 0 -103 -23t-35 -76v-7q0 -87 86 -87z" />
    <glyph glyph-name="Oslashacute" unicode="&#x1fe;" horiz-adv-x="666" 
d="M296 768l50 125h100l-90 -125h-60zM71 -29l-44 36l75 100q-54 77 -54 182v137q0 131 79.5 214.5t206.5 83.5q108 0 184 -63l57 76l44 -36l-61 -81q61 -80 61 -193v-136q0 -131 -78.5 -215.5t-204.5 -84.5q-116 0 -196 72zM134 280q0 -59 20 -104l320 427q-55 53 -140 53
q-94 0 -147 -63t-53 -167v-146zM336 61q91 0 144 63.5t53 167.5v146q0 67 -25 116l-322 -430q55 -63 150 -63z" />
    <glyph glyph-name="oslashacute" unicode="&#x1ff;" horiz-adv-x="512" 
d="M219 605l55 145h101l-96 -145h-60zM65 -32l-43 32l59 78q-41 58 -41 139v88q0 102 60.5 164t155.5 62q79 0 137 -44l47 62l44 -30l-54 -71q42 -58 42 -142v-88q0 -103 -60.5 -164.5t-156.5 -61.5q-78 0 -137 46zM121 213q0 -36 10 -69l218 286q-36 36 -93 36
q-62 0 -98.5 -43t-36.5 -117v-93zM256 58q62 0 98.5 42.5t36.5 115.5v93q0 42 -12 72l-218 -287q36 -36 95 -36z" />
    <glyph glyph-name="uni0218" unicode="&#x218;" horiz-adv-x="533" 
d="M272 -9q-110 0 -166.5 57t-62.5 157h81q5 -73 37.5 -109.5t110.5 -36.5q56 0 91.5 34t35.5 93q0 62 -31.5 93.5t-115.5 59.5q-99 33 -145 77.5t-46 127.5q0 80 54.5 130t141.5 50q93 0 147.5 -47t60.5 -139h-77q-12 118 -131 118q-56 0 -87 -28.5t-31 -77.5
q0 -53 28.5 -82t112.5 -56q106 -34 153.5 -81.5t47.5 -139.5q0 -91 -58.5 -145.5t-150.5 -54.5zM226 -207l-50 21l48 149l78 -20z" />
    <glyph glyph-name="uni0219" unicode="&#x219;" horiz-adv-x="423" 
d="M216 -8q-84 0 -131.5 42.5t-48.5 119.5h78q6 -96 101 -96q92 0 92 80q0 37 -24 56.5t-81 38.5q-86 28 -120 62.5t-34 97.5q0 65 47 101.5t110 36.5q71 0 116 -35t50 -112h-77q-4 42 -26 61.5t-63 19.5q-38 0 -60 -18.5t-22 -50.5q0 -35 21.5 -53.5t83.5 -38.5
q81 -25 119 -58.5t38 -103.5q0 -69 -43 -109.5t-126 -40.5zM180 -207l-50 21l48 149l78 -20z" />
    <glyph glyph-name="uni021A" unicode="&#x21a;" horiz-adv-x="481" 
d="M198 0v647h-172v68h429v-68h-173l-1 -647h-83zM212 -207l-50 21l48 149l78 -20z" />
    <glyph glyph-name="uni021B" unicode="&#x21b;" horiz-adv-x="311" 
d="M87 637h81v-114h105v-68h-105v-325q0 -68 58 -68q32 0 51 8v-66q-22 -9 -59 -9q-65 0 -98 34.5t-33 94.5v331h-65v68h65v114zM145 -207l-50 21l48 149l78 -20z" />
    <glyph glyph-name="uni0237" unicode="&#x237;" horiz-adv-x="220" 
d="M-4 -187v67q74 8 74 78v565h80v-560q0 -72 -36 -109.5t-118 -40.5z" />
    <glyph glyph-name="circumflex" unicode="&#x2c6;" horiz-adv-x="400" 
d="M69 605l95 143h73l94 -143h-60l-72 75l-72 -75h-58z" />
    <glyph glyph-name="caron" unicode="&#x2c7;" horiz-adv-x="400" 
d="M163 605l-94 143h60l72 -75l72 75h58l-95 -143h-73z" />
    <glyph glyph-name="breve" unicode="&#x2d8;" horiz-adv-x="400" 
d="M199 609q-49 0 -83 35t-36 93h60q10 -61 59 -61q53 0 62 61h60q-3 -58 -38 -93t-84 -35z" />
    <glyph glyph-name="dotaccent" unicode="&#x2d9;" horiz-adv-x="400" 
d="M200 619q-21 0 -36.5 15.5t-15.5 37.5t15.5 37.5t36.5 15.5t36.5 -15.5t15.5 -37.5t-15.5 -37.5t-36.5 -15.5z" />
    <glyph glyph-name="ring" unicode="&#x2da;" horiz-adv-x="400" 
d="M200 594q-41 0 -69.5 28t-28.5 67q0 40 28.5 68t69.5 28t69.5 -28t28.5 -68q0 -39 -28.5 -67t-69.5 -28zM200 637q21 0 34 15t13 37q0 23 -13 37.5t-34 14.5t-34 -14.5t-13 -37.5q0 -22 13 -37t34 -15z" />
    <glyph glyph-name="ogonek" unicode="&#x2db;" horiz-adv-x="400" 
d="M234 -180q-45 0 -71.5 20.5t-26.5 56.5q0 62 71 103h64q-59 -47 -59 -88q0 -34 35 -34q27 0 44 9v-56q-24 -11 -57 -11z" />
    <glyph glyph-name="tilde" unicode="&#x2dc;" horiz-adv-x="400" 
d="M249 611q-22 0 -54 20.5t-43 20.5q-26 0 -35 -43h-55q4 50 29 80.5t60 30.5q22 0 54 -19.5t43 -19.5q27 0 35 42h55q-4 -50 -29 -81t-60 -31z" />
    <glyph glyph-name="hungarumlaut" unicode="&#x2dd;" horiz-adv-x="400" 
d="M103 605l34 145h90l-67 -145h-57zM243 605l34 145h91l-67 -145h-58z" />
    <glyph glyph-name="Wgrave" unicode="&#x1e80;" horiz-adv-x="788" 
d="M372 768l-90 125h100l50 -125h-60zM180 0l-151 715h85l115 -564l135 564h66l136 -566l116 566h77l-151 -715h-79l-133 549l-138 -549h-78z" />
    <glyph glyph-name="wgrave" unicode="&#x1e81;" horiz-adv-x="686" 
d="M326 605l-96 145h100l56 -145h-60zM156 0l-133 523h85l98 -419l110 419h64l104 -419l99 419h80l-136 -523h-90l-90 383l-104 -383h-87z" />
    <glyph glyph-name="Wacute" unicode="&#x1e82;" horiz-adv-x="788" 
d="M366 768l50 125h100l-90 -125h-60zM180 0l-151 715h85l115 -564l135 564h66l136 -566l116 566h77l-151 -715h-79l-133 549l-138 -549h-78z" />
    <glyph glyph-name="wacute" unicode="&#x1e83;" horiz-adv-x="686" 
d="M314 605l55 145h101l-96 -145h-60zM156 0l-133 523h85l98 -419l110 419h64l104 -419l99 419h80l-136 -523h-90l-90 383l-104 -383h-87z" />
    <glyph glyph-name="Wdieresis" unicode="&#x1e84;" horiz-adv-x="788" 
d="M304 784q-20 0 -35 14.5t-15 35.5t15 36t35 15q21 0 36 -15t15 -36t-15 -35.5t-36 -14.5zM486 784q-21 0 -36 14.5t-15 35.5t15 36t36 15t35.5 -15t14.5 -36t-14.5 -35.5t-35.5 -14.5zM180 0l-151 715h85l115 -564l135 564h66l136 -566l116 566h77l-151 -715h-79
l-133 549l-138 -549h-78z" />
    <glyph glyph-name="wdieresis" unicode="&#x1e85;" horiz-adv-x="686" 
d="M262 621q-21 0 -36 15t-15 36t15 36t36 15t36 -15t15 -36t-15 -36t-36 -15zM431 621q-21 0 -36 15t-15 36t15 36t36 15t36 -15t15 -36t-15 -36t-36 -15zM156 0l-133 523h85l98 -419l110 419h64l104 -419l99 419h80l-136 -523h-90l-90 383l-104 -383h-87z" />
    <glyph glyph-name="Ygrave" unicode="&#x1ef2;" horiz-adv-x="512" 
d="M240 768l-90 125h100l50 -125h-60zM219 0v312l-199 403h92l151 -324l147 324h82l-188 -404v-311h-85z" />
    <glyph glyph-name="ygrave" unicode="&#x1ef3;" horiz-adv-x="460" 
d="M207 605l-96 145h100l56 -145h-60zM106 523l130 -367l122 367h82l-248 -702h-81l84 232l-174 470h85z" />
    <glyph glyph-name="uni2009" unicode="&#x2009;" horiz-adv-x="88" 
 />
    <glyph glyph-name="endash" unicode="&#x2013;" horiz-adv-x="517" 
d="M41 243v66h436v-66h-436z" />
    <glyph glyph-name="emdash" unicode="&#x2014;" horiz-adv-x="876" 
d="M41 243v66h795v-66h-795z" />
    <glyph glyph-name="quoteleft" unicode="&#x2018;" horiz-adv-x="228" 
d="M137 725l51 -22l-74 -198l-79 32z" />
    <glyph glyph-name="quoteright" unicode="&#x2019;" horiz-adv-x="228" 
d="M91 505l-51 23l74 197l79 -32z" />
    <glyph glyph-name="quotesinglbase" unicode="&#x201a;" horiz-adv-x="222" 
d="M88 -99l-49 22l72 200l77 -30z" />
    <glyph glyph-name="quotedblleft" unicode="&#x201c;" horiz-adv-x="386" 
d="M137 725l51 -22l-74 -198l-79 32zM295 725l51 -22l-74 -198l-79 32z" />
    <glyph glyph-name="quotedblright" unicode="&#x201d;" horiz-adv-x="386" 
d="M91 505l-51 23l74 197l79 -32zM249 505l-51 23l74 197l79 -32z" />
    <glyph glyph-name="quotedblbase" unicode="&#x201e;" horiz-adv-x="380" 
d="M88 -99l-49 22l72 200l77 -30zM247 -99l-49 22l71 200l78 -30z" />
    <glyph glyph-name="dagger" unicode="&#x2020;" horiz-adv-x="336" 
d="M133 249v283h-100v64h100v119h71v-119h98v-64h-98v-283h-71z" />
    <glyph glyph-name="daggerdbl" unicode="&#x2021;" horiz-adv-x="336" 
d="M133 249v119h-100v64h100v100h-100v64h100v119h71v-119h98v-64h-98v-100h98v-64h-98v-119h-71z" />
    <glyph glyph-name="bullet" unicode="&#x2022;" horiz-adv-x="305" 
d="M153 207q-44 0 -74.5 31t-30.5 74t30.5 74t74.5 31t74 -31t30 -74t-30 -74t-74 -31z" />
    <glyph glyph-name="ellipsis" unicode="&#x2026;" horiz-adv-x="702" 
d="M122 -4q-24 0 -41.5 17t-17.5 41q0 25 17.5 42t41.5 17t41 -17t17 -42t-17 -41.5t-41 -16.5zM352 -4q-25 0 -42 16.5t-17 41.5t17 42t42 17q24 0 41 -17.5t17 -41.5t-17 -41t-41 -17zM581 -4q-24 0 -41.5 17t-17.5 41q0 25 17.5 42t41.5 17t41.5 -17t17.5 -42
q0 -24 -17.5 -41t-41.5 -17z" />
    <glyph glyph-name="perthousand" unicode="&#x2030;" horiz-adv-x="1004" 
d="M179 420q-59 0 -102.5 42.5t-43.5 106.5q0 65 43.5 108.5t102.5 43.5q61 0 104 -43t43 -107q0 -65 -44 -108t-103 -43zM94 0l413 715h71l-413 -715h-71zM179 482q35 0 55.5 23.5t20.5 65.5q0 40 -21 64t-55 24t-54 -23.5t-20 -65.5t20 -65t54 -23zM490 -7q-59 0 -103 42
t-44 106q0 65 44 108.5t103 43.5q61 0 104 -43t43 -107q0 -66 -43.5 -108t-103.5 -42zM824 -7q-59 0 -103 42t-44 106q0 65 44 108.5t103 43.5q61 0 104 -43t43 -107q0 -66 -43.5 -108t-103.5 -42zM490 54q35 0 55.5 23t20.5 65q0 41 -21 65.5t-55 24.5t-54 -24t-20 -67
q0 -41 20 -64t54 -23zM824 54q35 0 55.5 23t20.5 65q0 41 -21 65.5t-55 24.5t-54 -24t-20 -67q0 -41 20 -64t54 -23z" />
    <glyph glyph-name="minute" unicode="&#x2032;" horiz-adv-x="186" 
d="M39 489l21 226h85l-49 -226h-57z" />
    <glyph glyph-name="second" unicode="&#x2033;" horiz-adv-x="332" 
d="M39 489l21 226h85l-49 -226h-57zM186 489l20 226h85l-49 -226h-56z" />
    <glyph glyph-name="guilsinglleft" unicode="&#x2039;" horiz-adv-x="284" 
d="M162 87l-112 174l112 174h77l-109 -174l109 -174h-77z" />
    <glyph glyph-name="guilsinglright" unicode="&#x203a;" horiz-adv-x="284" 
d="M45 87l109 174l-109 174h77l112 -174l-112 -174h-77z" />
    <glyph glyph-name="fraction" unicode="&#x2044;" horiz-adv-x="113" 
d="M-206 0l462 715h63l-462 -715h-63z" />
    <glyph glyph-name="Euro" unicode="&#x20ac;" horiz-adv-x="568" 
d="M24 270v56h60v66h-60v56h60v6q0 120 61 195t168 75q91 0 145.5 -51.5t61.5 -152.5h-79q-13 138 -128 138q-71 0 -108.5 -54t-37.5 -150v-6h200l-10 -56h-190v-66h179l-10 -56h-169v-11q0 -95 37 -147t109 -52q122 0 136 150h78q-8 -108 -64.5 -163.5t-149.5 -55.5
q-105 0 -167 74t-62 194v11h-60z" />
    <glyph glyph-name="trademark" unicode="&#x2122;" horiz-adv-x="595" 
d="M283 412v303h69l69 -200l68 200h70v-303h-50v233l-81 -233h-17l-82 233v-233h-46zM107 412v262h-78v41h208v-41h-78v-262h-52z" />
    <glyph glyph-name="onethird" unicode="&#x2153;" horiz-adv-x="676" 
d="M100 355v293l-74 -52v58l82 61h59v-360h-67zM47 0l462 715h63l-462 -715h-63zM523 -5q-58 0 -89.5 29t-32.5 81h60q5 -61 60 -61q56 0 56 57v8q0 55 -59 55h-21v46h21q55 0 55 52v4q0 49 -47 49q-50 0 -55 -54h-61q2 48 33 76t83 28q51 0 80.5 -26t29.5 -69v-4
q0 -57 -57 -76q65 -13 65 -82v-8q0 -49 -32 -77t-89 -28z" />
    <glyph glyph-name="twothirds" unicode="&#x2154;" horiz-adv-x="721" 
d="M11 355v10l112 133q57 69 57 118v3q0 50 -45 50q-47 0 -53 -65h-61q2 55 32.5 85.5t83.5 30.5q52 0 80.5 -27t28.5 -73v-3q0 -60 -67 -136l-66 -76h136v-50h-238zM100 0l462 715h63l-462 -715h-63zM567 -5q-58 0 -89.5 29t-32.5 81h60q5 -61 60 -61q56 0 56 57v8
q0 55 -59 55h-21v46h21q55 0 55 52v4q0 49 -47 49q-50 0 -55 -54h-61q2 48 33 76t83 28q51 0 80.5 -26t29.5 -69v-4q0 -57 -57 -76q65 -13 65 -82v-8q0 -49 -32 -77t-89 -28z" />
    <glyph glyph-name="oneeighth" unicode="&#x215b;" horiz-adv-x="681" 
d="M100 355v293l-74 -52v58l82 61h59v-360h-67zM48 0l462 715h63l-462 -715h-63zM528 -5q-53 0 -87 26t-34 75v14q0 61 61 83q-50 20 -50 71v8q0 43 32 68t79 25q48 0 79.5 -25t31.5 -67v-8q0 -51 -51 -71q62 -23 62 -85v-12q0 -49 -34 -75.5t-89 -26.5zM529 213
q22 0 35 12.5t13 36.5v9q0 22 -13 34t-35 12t-35 -12.5t-13 -35.5v-8q0 -23 13.5 -35.5t34.5 -12.5zM529 44q25 0 40.5 15t15.5 42v12q0 27 -15.5 42.5t-40.5 15.5t-40 -15t-15 -44v-12q0 -26 15 -41t40 -15z" />
    <glyph glyph-name="threeeighths" unicode="&#x215c;" horiz-adv-x="705" 
d="M145 350q-58 0 -89.5 29t-32.5 81h60q5 -61 60 -61q56 0 56 57v7q0 56 -59 56h-21v46h21q55 0 55 52v3q0 50 -47 50q-50 0 -55 -54h-61q2 48 33 76t83 28q51 0 80.5 -26t29.5 -69v-4q0 -57 -57 -76q65 -13 65 -83v-7q0 -49 -32 -77t-89 -28zM89 0l462 715h63l-462 -715
h-63zM552 -5q-53 0 -87 26t-34 75v14q0 61 61 83q-50 20 -50 71v8q0 43 32 68t79 25q48 0 79.5 -25t31.5 -67v-8q0 -51 -51 -71q62 -23 62 -85v-12q0 -49 -34 -75.5t-89 -26.5zM553 213q22 0 35 12.5t13 36.5v9q0 22 -13 34t-35 12t-35 -12.5t-13 -35.5v-8q0 -23 13.5 -35.5
t34.5 -12.5zM553 44q25 0 40.5 15t15.5 42v12q0 27 -15.5 42.5t-40.5 15.5t-40 -15t-15 -44v-12q0 -26 15 -41t40 -15z" />
    <glyph glyph-name="fiveeighths" unicode="&#x215d;" horiz-adv-x="705" 
d="M140 350q-55 0 -85 28t-32 76h61q3 -27 15.5 -40t40.5 -13q52 0 52 66v13q0 65 -60 65q-42 0 -67 -27h-26l2 197h200v-51h-148l-1 -97q23 25 68 25t72 -29.5t27 -82.5v-15q0 -54 -32.5 -84.5t-86.5 -30.5zM83 0l462 715h63l-462 -715h-63zM552 -5q-53 0 -87 26t-34 75v14
q0 61 61 83q-50 20 -50 71v8q0 43 32 68t79 25q48 0 79.5 -25t31.5 -67v-8q0 -51 -51 -71q62 -23 62 -85v-12q0 -49 -34 -75.5t-89 -26.5zM553 213q22 0 35 12.5t13 36.5v9q0 22 -13 34t-35 12t-35 -12.5t-13 -35.5v-8q0 -23 13.5 -35.5t34.5 -12.5zM553 44q25 0 40.5 15
t15.5 42v12q0 27 -15.5 42.5t-40.5 15.5t-40 -15t-15 -44v-12q0 -26 15 -41t40 -15z" />
    <glyph glyph-name="seveneighths" unicode="&#x215e;" horiz-adv-x="667" 
d="M66 355l101 306h-148v54h228v-10l-115 -350h-66zM35 0l462 715h63l-462 -715h-63zM514 -5q-53 0 -87 26t-34 75v14q0 61 61 83q-50 20 -50 71v8q0 43 32 68t79 25q48 0 79.5 -25t31.5 -67v-8q0 -51 -51 -71q62 -23 62 -85v-12q0 -49 -34 -75.5t-89 -26.5zM515 213
q22 0 35 12.5t13 36.5v9q0 22 -13 34t-35 12t-35 -12.5t-13 -35.5v-8q0 -23 13.5 -35.5t34.5 -12.5zM515 44q25 0 40.5 15t15.5 42v12q0 27 -15.5 42.5t-40.5 15.5t-40 -15t-15 -44v-12q0 -26 15 -41t40 -15z" />
    <glyph glyph-name="minus" unicode="&#x2212;" horiz-adv-x="455" 
d="M422 309h-389v66h389v-66z" />
    <glyph glyph-name="approxequal" unicode="&#x2248;" horiz-adv-x="446" 
d="M37 339q4 54 32 82t68 28q37 0 93.5 -19t77.5 -19q15 0 26.5 11t13.5 32h59q-4 -55 -31.5 -83t-66.5 -28q-38 0 -95 19t-78 19q-15 0 -26.5 -11t-14.5 -31h-58zM37 176q4 54 32 82.5t68 28.5q37 0 93.5 -19t77.5 -19q15 0 26.5 10.5t13.5 31.5h59q-4 -55 -31.5 -82.5
t-66.5 -27.5q-38 0 -95 19t-78 19q-35 0 -41 -43h-58z" />
    <glyph glyph-name="notequal" unicode="&#x2260;" horiz-adv-x="436" 
d="M104 108l37 97h-106v67h131l37 97h-168v69h194l37 98h70l-37 -98h102v-69h-128l-37 -97h165v-67h-190l-37 -97h-70z" />
    <glyph glyph-name="lessequal" unicode="&#x2264;" horiz-adv-x="445" 
d="M388 136l-344 184v19l344 184v-76l-227 -117l227 -117v-77zM44 26v67h344v-67h-344z" />
    <glyph glyph-name="greaterequal" unicode="&#x2265;" horiz-adv-x="445" 
d="M57 136v76l227 118l-227 117v75l344 -183v-19zM57 26v66h343v-66h-343z" />
    <glyph glyph-name="uni24C5" unicode="&#x24c5;" horiz-adv-x="755" 
d="M377 31q-139 0 -235.5 96.5t-96.5 238.5q0 141 96.5 238.5t237.5 97.5q142 0 236.5 -96.5t94.5 -238.5q0 -143 -96 -239.5t-237 -96.5zM377 71q118 0 202.5 83.5t84.5 212.5t-83 211.5t-202 82.5q-121 0 -204 -83t-83 -212t84 -212t201 -83zM272 182v372h116
q127 0 127 -110v-8q0 -109 -125 -109h-47v-145h-71zM343 379h45q59 0 59 57v8q0 56 -59 56h-45v-121z" />
    <glyph glyph-name="commaaccent" unicode="&#xf6c3;" horiz-adv-x="400" 
d="M186 -207l-50 21l48 149l78 -20z" />
    <glyph glyph-name="uniFB01" unicode="&#xfb01;" horiz-adv-x="515" 
d="M87 0v455h-65v68h65v94q0 71 36 110.5t105 39.5q30 0 47 -6v-67q-15 6 -41 6q-66 0 -66 -79v-98h107v-68h-107v-455h-81zM404 620q-22 0 -37 15t-15 37t15 37.5t37 15.5t37 -15.5t15 -37.5t-15 -37t-37 -15zM365 0v523h80v-523h-80z" />
    <glyph glyph-name="uniFB02" unicode="&#xfb02;" horiz-adv-x="518" 
d="M87 0v455h-65v68h65v94q0 71 36 110.5t105 39.5q30 0 47 -6v-67q-15 6 -41 6q-66 0 -66 -79v-98h107v-68h-107v-455h-81zM366 0v764h81v-764h-81z" />
    <glyph glyph-name="idotaccent" horiz-adv-x="220" 
d="M109 620q-22 0 -37 15t-15 37t15 37.5t37 15.5t37 -15.5t15 -37.5t-15 -37t-37 -15zM70 0v523h80v-523h-80z" />
    <glyph glyph-name="commaaccent.alt1alt" horiz-adv-x="396" 
d="M204 608q-22 0 -37 16t-15 42v13q0 94 96 101v-38q-45 -7 -45 -43q22 0 35.5 -12.5t13.5 -34.5q0 -19 -14 -31.5t-34 -12.5z" />
    <glyph glyph-name="hyphen.uc" horiz-adv-x="321" 
d="M52 297v74h217v-74h-217z" />
    <glyph glyph-name="endash.uc" horiz-adv-x="494" 
d="M38 296v66h418v-66h-418z" />
    <glyph glyph-name="emdash.uc" horiz-adv-x="853" 
d="M38 296v66h777v-66h-777z" />
    <glyph glyph-name="parenleft.uc" horiz-adv-x="293" 
d="M199 -97q-149 193 -149 439q0 247 149 440h77q-143 -193 -143 -440q0 -244 143 -439h-77z" />
    <glyph glyph-name="parenright.uc" horiz-adv-x="293" 
d="M17 -97q142 196 142 439q0 246 -142 440h77q148 -192 148 -440q0 -247 -148 -439h-77z" />
    <glyph glyph-name="bracketleft.uc" horiz-adv-x="307" 
d="M73 -84v862h198v-63h-119v-736h119v-63h-198z" />
    <glyph glyph-name="bracketright.uc" horiz-adv-x="307" 
d="M36 -84v63h120v736h-120v63h199v-862h-199z" />
    <glyph glyph-name="braceleft.uc" horiz-adv-x="335" 
d="M299 -86q-104 0 -150 42t-31 136l18 116q8 49 -15.5 79t-87.5 31v60q121 0 103 110l-18 113q-15 93 31.5 135t149.5 42v-60q-66 -2 -90 -26.5t-15 -92.5l17 -119q15 -105 -94 -132q109 -29 94 -133l-17 -122q-9 -67 15 -92t90 -27v-60z" />
    <glyph glyph-name="braceright.uc" horiz-adv-x="335" 
d="M36 -86v60q66 2 90.5 27t14.5 92l-17 122q-15 104 95 133q-110 27 -95 132l17 119q10 68 -14.5 92.5t-90.5 26.5v60q103 0 149.5 -42t31.5 -135l-17 -113q-18 -110 103 -110v-60q-121 -1 -103 -110l17 -116q15 -94 -31.5 -136t-149.5 -42z" />
    <glyph glyph-name="guilsinglleft.uc" horiz-adv-x="284" 
d="M162 128l-112 178l112 179h77l-109 -179l109 -178h-77z" />
    <glyph glyph-name="guilsinglright.uc" horiz-adv-x="284" 
d="M45 128l109 178l-109 179h77l112 -179l-112 -178h-77z" />
    <glyph glyph-name="guillemotleft.uc" horiz-adv-x="442" 
d="M162 128l-112 178l112 179h77l-109 -179l109 -178h-77zM320 128l-112 178l112 179h77l-109 -179l109 -178h-77z" />
    <glyph glyph-name="guillemotright.uc" horiz-adv-x="442" 
d="M45 128l109 178l-109 179h77l112 -179l-112 -178h-77zM203 128l108 178l-108 179h77l112 -179l-112 -178h-77z" />
    <glyph glyph-name="slash.uc" horiz-adv-x="362" 
d="M18 -78l248 852h73l-248 -852h-73z" />
    <glyph glyph-name="backslash.uc" horiz-adv-x="362" 
d="M270 -78l-248 852h73l248 -852h-73z" />
    <glyph glyph-name="bar.uc" horiz-adv-x="222" 
d="M79 -78v852h65v-852h-65z" />
    <glyph glyph-name="at.uc" horiz-adv-x="802" 
d="M404 -55q-165 0 -260 104t-95 258v64q0 164 103 271.5t257 107.5q153 0 248.5 -93t95.5 -233v-65q0 -108 -48 -161.5t-112 -53.5q-51 0 -74 19.5t-30 56.5q-19 -36 -52 -58.5t-73 -22.5q-64 0 -101 42t-35 117l4 54q3 84 48 137t112 53q78 0 102 -59l5 50h80l-27 -260
q-8 -74 42 -74q39 0 64.5 40t25.5 118v65q0 121 -72.5 192.5t-202.5 71.5q-131 0 -209.5 -86t-78.5 -229v-62q0 -130 73.5 -215.5t209.5 -85.5q70 0 115.5 18t84.5 56h73q-33 -62 -106.5 -99.5t-166.5 -37.5zM381 200q40 0 69.5 35t30.5 96l4 51q1 48 -20.5 72.5t-61.5 24.5
q-39 0 -64.5 -34t-26.5 -93l-3 -53q-1 -48 17.5 -73.5t54.5 -25.5z" />
    <glyph glyph-name="exclamdown.uc" horiz-adv-x="251" 
d="M125 719q25 0 42.5 -16.5t17.5 -41.5t-17.5 -42t-42.5 -17q-23 0 -40.5 17t-17.5 42q0 24 17 41t41 17zM155 522l14 -522h-88l14 522h60z" />
    <glyph glyph-name="questiondown.uc" horiz-adv-x="430" 
d="M239 719q24 0 41.5 -17t17.5 -41q0 -25 -17.5 -42t-41.5 -17t-41 17t-17 42t17 41.5t41 16.5zM277 522v-56q0 -28 -5.5 -51t-21 -48.5t-24.5 -37t-36 -43.5q-24 -29 -34.5 -43t-20.5 -38.5t-10 -51.5q0 -95 90 -95q48 0 75.5 29.5t31.5 86.5h76q-4 -86 -53 -134.5
t-131 -48.5q-85 0 -127.5 43.5t-42.5 117.5q0 36 14 69.5t26.5 50t45.5 54.5q40 44 57.5 74.5t17.5 70.5v51h72z" />
    <glyph glyph-name="acute.uc" horiz-adv-x="400" 
d="M162 768l50 125h100l-90 -125h-60z" />
    <glyph glyph-name="grave.uc" horiz-adv-x="400" 
d="M178 768l-90 125h100l50 -125h-60z" />
    <glyph glyph-name="hungarumlaut.uc" horiz-adv-x="400" 
d="M103 768l32 125h90l-65 -125h-57zM243 768l33 125h90l-65 -125h-58z" />
    <glyph glyph-name="circumflex.uc" horiz-adv-x="400" 
d="M68 768l96 125h73l95 -125h-59l-74 59l-74 -59h-57z" />
    <glyph glyph-name="caron.uc" horiz-adv-x="400" 
d="M163 768l-95 125h59l74 -60l74 60h57l-96 -125h-73z" />
    <glyph glyph-name="breve.uc" horiz-adv-x="400" 
d="M199 764q-50 0 -84.5 34.5t-36.5 89.5h61q8 -58 60 -58q55 0 64 58h60q-3 -55 -38.5 -89.5t-85.5 -34.5z" />
    <glyph glyph-name="tilde.uc" horiz-adv-x="400" 
d="M250 771q-22 0 -55 19t-44 19q-26 0 -35 -40h-56q5 49 30 78.5t60 29.5q22 0 55 -19t44 -19q26 0 35 41h56q-5 -49 -30 -79t-60 -30z" />
    <glyph glyph-name="macron.uc" horiz-adv-x="400" 
d="M78 782v63h244v-63h-244z" />
    <glyph glyph-name="dieresis.uc" horiz-adv-x="400" 
d="M109 784q-20 0 -35 14.5t-15 35.5t15 36t35 15q21 0 36 -15t15 -36t-15 -35.5t-36 -14.5zM291 784q-21 0 -36 14.5t-15 35.5t15 36t36 15t35.5 -15t14.5 -36t-14.5 -35.5t-35.5 -14.5z" />
    <glyph glyph-name="dotaccent.uc" horiz-adv-x="400" 
d="M200 782q-21 0 -36.5 15.5t-15.5 36.5q0 22 15.5 37.5t36.5 15.5t36.5 -15.5t15.5 -37.5q0 -21 -15.5 -36.5t-36.5 -15.5z" />
    <glyph glyph-name="ring.uc" horiz-adv-x="400" 
d="M200 755q-41 0 -69.5 28t-28.5 67t28.5 67t69.5 28t69.5 -28t28.5 -67t-28.5 -67t-69.5 -28zM200 798q21 0 34 14.5t13 37.5q0 22 -13 37t-34 15t-34 -15t-13 -37q0 -23 13 -37.5t34 -14.5z" />
    <glyph glyph-name="zero.den" horiz-adv-x="325" 
d="M162 -5q-62 0 -98 40t-36 110v68q0 70 36.5 111t97.5 41q62 0 98.5 -39.5t36.5 -110.5v-69q0 -69 -36 -110t-99 -41zM163 48q68 0 68 98v69q0 98 -69 98q-67 0 -67 -99v-69q0 -97 68 -97z" />
    <glyph glyph-name="one.den" horiz-adv-x="218" 
d="M97 0v293l-74 -52v58l82 61h59v-360h-67z" />
    <glyph glyph-name="two.den" horiz-adv-x="272" 
d="M8 0v10l112 133q57 69 57 118v3q0 50 -45 50q-47 0 -53 -65h-61q2 55 32.5 85.5t83.5 30.5q52 0 80.5 -27t28.5 -73v-3q0 -60 -67 -136l-66 -76h136v-50h-238z" />
    <glyph glyph-name="three.den" horiz-adv-x="292" 
d="M142 -5q-58 0 -89.5 29t-32.5 81h60q5 -61 60 -61q56 0 56 57v8q0 55 -59 55h-21v46h21q55 0 55 52v4q0 49 -47 49q-50 0 -55 -54h-61q2 48 33 76t83 28q51 0 80.5 -26t29.5 -69v-4q0 -57 -57 -76q65 -13 65 -82v-8q0 -49 -32 -77t-89 -28z" />
    <glyph glyph-name="four.den" horiz-adv-x="302" 
d="M176 0v76h-161v20l142 264h82v-235h44v-49h-44v-76h-63zM85 125h92v181z" />
    <glyph glyph-name="five.den" horiz-adv-x="285" 
d="M137 -5q-55 0 -85 28t-32 76h61q3 -27 15.5 -40t40.5 -13q52 0 52 66v14q0 64 -60 64q-42 0 -67 -27h-26l2 197h200v-51h-148l-1 -97q23 25 68 25t72 -29.5t27 -82.5v-15q0 -54 -32.5 -84.5t-86.5 -30.5z" />
    <glyph glyph-name="six.den" horiz-adv-x="302" 
d="M155 -5q-127 0 -127 147v60q0 78 36 120.5t98 42.5q46 0 75 -23.5t33 -69.5h-61q-6 43 -49 43q-64 0 -65 -106v-19q24 42 79 42q46 0 74.5 -28t28.5 -78v-19q0 -52 -32.5 -82t-89.5 -30zM155 43q26 0 41 16.5t15 44.5v20q0 29 -15 46t-41 17q-27 0 -43 -16t-16 -43v-21
q0 -30 15.5 -47t43.5 -17z" />
    <glyph glyph-name="seven.den" horiz-adv-x="255" 
d="M63 0l101 306h-148v54h228v-10l-115 -350h-66z" />
    <glyph glyph-name="eight.den" horiz-adv-x="297" 
d="M147 -5q-53 0 -87 26t-34 75v14q0 61 61 83q-50 20 -50 71v8q0 43 32 68t79 25q48 0 79.5 -25t31.5 -67v-8q0 -51 -51 -71q62 -23 62 -85v-12q0 -49 -34 -75.5t-89 -26.5zM148 213q22 0 35 12.5t13 36.5v9q0 22 -13 34t-35 12t-35 -12.5t-13 -35.5v-8q0 -23 13.5 -35.5
t34.5 -12.5zM148 44q25 0 40.5 15t15.5 42v12q0 27 -15.5 42.5t-40.5 15.5t-40 -15t-15 -44v-12q0 -26 15 -41t40 -15z" />
    <glyph glyph-name="nine.den" horiz-adv-x="302" 
d="M145 -5q-51 0 -81 24.5t-34 72.5h61q6 -46 53 -46q64 0 65 99v23q-25 -40 -78 -40q-45 0 -75 28.5t-30 79.5v14q0 53 32.5 84.5t88.5 31.5q63 0 95.5 -38t32.5 -107v-72q0 -154 -130 -154zM147 174q27 0 43 16t16 44v16q0 32 -15.5 49.5t-43.5 17.5q-26 0 -40.5 -17.5
t-14.5 -48.5v-13q0 -64 55 -64z" />
    <glyph glyph-name="zero.num" horiz-adv-x="325" 
d="M162 350q-62 0 -98 40t-36 110v68q0 70 36.5 111t97.5 41q62 0 98.5 -39.5t36.5 -110.5v-69q0 -69 -36 -110t-99 -41zM163 403q68 0 68 98v69q0 98 -69 98q-67 0 -67 -99v-69q0 -97 68 -97z" />
    <glyph glyph-name="one.num" horiz-adv-x="218" 
d="M97 355v293l-74 -52v58l82 61h59v-360h-67z" />
    <glyph glyph-name="two.num" horiz-adv-x="272" 
d="M8 355v10l112 133q57 69 57 118v3q0 50 -45 50q-47 0 -53 -65h-61q2 55 32.5 85.5t83.5 30.5q52 0 80.5 -27t28.5 -73v-3q0 -60 -67 -136l-66 -76h136v-50h-238z" />
    <glyph glyph-name="three.num" horiz-adv-x="291" 
d="M142 350q-58 0 -89.5 29t-32.5 81h60q5 -61 60 -61q56 0 56 57v7q0 56 -59 56h-21v46h21q55 0 55 52v3q0 50 -47 50q-50 0 -55 -54h-61q2 48 33 76t83 28q51 0 80.5 -26t29.5 -69v-4q0 -57 -57 -76q65 -13 65 -83v-7q0 -49 -32 -77t-89 -28z" />
    <glyph glyph-name="four.num" horiz-adv-x="301" 
d="M176 355v76h-161v20l142 264h82v-235h44v-49h-44v-76h-63zM85 480h92v181z" />
    <glyph glyph-name="five.num" horiz-adv-x="285" 
d="M137 350q-55 0 -85 28t-32 76h61q3 -27 15.5 -40t40.5 -13q52 0 52 66v13q0 65 -60 65q-42 0 -67 -27h-26l2 197h200v-51h-148l-1 -97q23 25 68 25t72 -29.5t27 -82.5v-15q0 -54 -32.5 -84.5t-86.5 -30.5z" />
    <glyph glyph-name="six.num" horiz-adv-x="302" 
d="M155 350q-127 0 -127 147v60q0 78 36 120.5t98 42.5q46 0 75 -23.5t33 -69.5h-61q-6 43 -49 43q-64 0 -65 -106v-19q24 42 79 42q46 0 74.5 -28t28.5 -78v-19q0 -52 -32.5 -82t-89.5 -30zM155 398q26 0 41 16.5t15 45.5v19q0 29 -15 46t-41 17q-27 0 -43 -16t-16 -43v-21
q0 -30 15.5 -47t43.5 -17z" />
    <glyph glyph-name="seven.num" horiz-adv-x="254" 
d="M63 355l101 306h-148v54h228v-10l-115 -350h-66z" />
    <glyph glyph-name="eight.num" horiz-adv-x="296" 
d="M147 350q-53 0 -87 26t-34 75v13q0 62 61 84q-50 20 -50 71v8q0 43 32 68t79 25q48 0 79.5 -25t31.5 -67v-7q0 -52 -51 -72q62 -23 62 -85v-12q0 -49 -34 -75.5t-89 -26.5zM148 568q22 0 35 12.5t13 36.5v8q0 23 -13 35t-35 12t-35 -12.5t-13 -35.5v-8q0 -23 13.5 -35.5
t34.5 -12.5zM148 399q25 0 40.5 15t15.5 42v12q0 27 -15.5 42.5t-40.5 15.5t-40 -15t-15 -44v-12q0 -26 15 -41t40 -15z" />
    <glyph glyph-name="nine.num" horiz-adv-x="302" 
d="M145 350q-51 0 -81 24.5t-34 72.5h61q6 -46 53 -46q64 0 65 99v23q-25 -40 -78 -40q-45 0 -75 28.5t-30 79.5v14q0 53 32.5 84.5t88.5 31.5q63 0 95.5 -38t32.5 -107v-72q0 -154 -130 -154zM147 529q27 0 43 16t16 44v16q0 32 -15.5 49.5t-43.5 17.5q-26 0 -40.5 -17.5
t-14.5 -48.5v-13q0 -64 55 -64z" />
    <glyph glyph-name="zero.old" horiz-adv-x="543" 
d="M272 -9q-102 0 -163.5 68t-61.5 183v130q0 117 61 184t164 67t163 -66.5t60 -182.5v-130q0 -117 -60 -185t-163 -68zM272 60q140 0 140 184v129q0 87 -36.5 135.5t-103.5 48.5q-68 0 -104.5 -47.5t-36.5 -136.5v-130q0 -89 36.5 -136t104.5 -47z" />
    <glyph glyph-name="one.old" horiz-adv-x="332" 
d="M161 0v531l-131 -99v79l137 104h76v-615h-82z" />
    <glyph glyph-name="two.old" horiz-adv-x="469" 
d="M19 0v17l192 210q63 69 93 118.5t30 102.5v7q0 49 -27 75.5t-76 26.5q-51 0 -80.5 -30.5t-36.5 -98.5h-75q5 90 55.5 142.5t136.5 52.5t136 -45.5t50 -123.5v-14q0 -55 -38 -114t-112 -139l-109 -119h264v-68h-403z" />
    <glyph glyph-name="three.old" horiz-adv-x="504" 
d="M242 -103q-95 0 -149.5 54t-57.5 147h77q9 -134 132 -134q129 0 129 125v26q0 69 -31.5 99.5t-99.5 30.5h-39v67h36q118 0 118 116v20q0 109 -105 109q-54 0 -87 -32t-37 -90h-74q2 84 56.5 136t141.5 52q86 0 135 -47.5t49 -125.5v-22q0 -107 -102 -146
q122 -29 122 -168v-25q0 -89 -58.5 -140.5t-155.5 -51.5z" />
    <glyph glyph-name="four.old" horiz-adv-x="532" 
d="M333 -95v160h-308v23l280 526h108v-485h88v-64h-88v-160h-80zM121 129h212v406z" />
    <glyph glyph-name="five.old" horiz-adv-x="487" 
d="M237 -103q-92 0 -143.5 48t-56.5 131h76q7 -56 35 -84t88 -28q58 0 89.5 37t31.5 104v47q0 68 -33.5 106t-90.5 38q-85 0 -139 -56h-23v374h341v-71h-274v-219q41 36 119 36q81 0 132 -55.5t51 -152.5v-47q0 -96 -57 -152t-146 -56z" />
    <glyph glyph-name="six.old" horiz-adv-x="519" 
d="M266 -9q-111 0 -163.5 69.5t-52.5 182.5v165q0 150 63 229.5t168 79.5q162 0 180 -164h-78q-8 51 -33 74.5t-73 23.5q-67 0 -106 -59.5t-39 -175.5v-50q21 37 61 59t88 22q85 0 138.5 -56t53.5 -145v-50q0 -95 -56 -150t-151 -55zM266 57q56 0 89.5 36.5t33.5 99.5v50
q0 65 -33 102.5t-91 37.5t-95.5 -37t-37.5 -100v-33q0 -77 36.5 -116.5t97.5 -39.5z" />
    <glyph glyph-name="seven.old" horiz-adv-x="449" 
d="M106 -95l223 643h-302v66h400v-11l-238 -698h-83z" />
    <glyph glyph-name="eight.old" horiz-adv-x="508" 
d="M254 -9q-86 0 -147.5 50t-61.5 143v32q0 64 32.5 105t86.5 60q-99 36 -99 145v14q0 84 54.5 130.5t134.5 46.5q79 0 133.5 -46.5t54.5 -128.5v-14q0 -107 -100 -146q120 -42 120 -164v-33q0 -93 -60.5 -143.5t-147.5 -50.5zM256 411q49 0 76.5 30t27.5 86v15
q0 51 -29.5 80.5t-76.5 29.5q-48 0 -77.5 -29.5t-29.5 -82.5v-15q0 -54 30.5 -84t78.5 -30zM254 59q56 0 90.5 33.5t34.5 95.5v33q0 60 -34 93t-89 33t-91 -33.5t-36 -94.5v-33q0 -61 35 -94t90 -33z" />
    <glyph glyph-name="nine.old" horiz-adv-x="519" 
d="M244 -103q-85 0 -135 44t-58 128h78q9 -53 37.5 -79.5t82.5 -26.5q74 0 106 57t32 179v49q-21 -37 -60.5 -59t-87.5 -22q-86 0 -139 56t-53 145v51q0 94 56 149t151 55q111 0 163.5 -71t52.5 -193v-153q0 -153 -57.5 -231t-168.5 -78zM255 232q58 0 95 37.5t37 103.5v29
q0 78 -36 116.5t-97 38.5q-57 0 -90.5 -36.5t-33.5 -99.5v-50q0 -64 33.5 -101.5t91.5 -37.5z" />
    <glyph glyph-name="dollar.old" horiz-adv-x="519" 
d="M235 -120v111q-184 14 -198 200h78q5 -60 31 -94.5t89 -41.5v276q-91 31 -134.5 75t-43.5 121q0 72 49.5 120t128.5 53v82h51v-83q78 -8 122 -52.5t51 -122.5h-73q-14 98 -100 112v-242q99 -34 142.5 -79.5t43.5 -134.5q0 -80 -51.5 -131.5t-134.5 -57.5v-111h-51z
M131 532q0 -46 22.5 -73.5t81.5 -48.5v227q-48 -4 -76 -32.5t-28 -72.5zM394 177q0 55 -24 85.5t-84 51.5v-259q49 7 78.5 39.5t29.5 82.5z" />
    <glyph glyph-name="sterling.old" horiz-adv-x="496" 
d="M38 309v60h57q-18 85 -18 148q0 85 52.5 135t133.5 50q82 0 128.5 -44t51.5 -128h-78q-8 55 -31 80t-71 25t-76 -31t-28 -87q0 -50 16 -148h171v-60h-161q11 -75 11 -133q0 -40 -14 -73q22 -5 72 -24t69 -19q64 0 69 68h67q-3 -60 -35.5 -98t-90.5 -38q-40 0 -102.5 26
t-83.5 26q-44 0 -50 -44h-68q3 35 24.5 66.5t58.5 39.5q11 30 11 71q0 54 -16 132h-69z" />
    <glyph glyph-name="yen.old" horiz-adv-x="482" 
d="M67 160v54h139v64h-139v55h130l-173 361h86l138 -302l133 302h77l-163 -361h130v-55h-139v-64h139v-54h-139v-160h-80v160h-139z" />
    <glyph glyph-name="Euro.old" horiz-adv-x="550" 
d="M23 261v55h60v64h-60v54h60v7q0 116 58 188.5t162 72.5q88 0 141 -49.5t60 -146.5h-77q-13 132 -124 132q-69 0 -105 -52.5t-36 -145.5v-6h194l-9 -54h-185v-64h173l-10 -55h-163v-9q0 -93 36 -143.5t108 -50.5q115 0 128 145h75q-7 -105 -60.5 -158.5t-142.5 -53.5
q-104 0 -163.5 72t-59.5 189v9h-60z" />
    <glyph glyph-name="zero.oldtab" 
d="M261 -9q-96 0 -154 63t-58 167v172q0 105 57 167.5t154 62.5t153.5 -62.5t56.5 -165.5v-172q0 -106 -56 -169t-153 -63zM261 60q63 0 94.5 42.5t31.5 120.5v172q0 75 -32.5 118.5t-94.5 43.5t-94.5 -42.5t-32.5 -120.5v-172q0 -77 33 -119.5t95 -42.5z" />
    <glyph glyph-name="one.oldtab" 
d="M271 0v527l-178 -138v81l184 145h76v-615h-82z" />
    <glyph glyph-name="two.oldtab" 
d="M44 0v17l194 210q62 70 91.5 119t29.5 102v7q0 49 -26.5 75.5t-76.5 26.5q-51 0 -80.5 -30.5t-36.5 -98.5h-75q6 90 56 142.5t136 52.5t136.5 -45.5t50.5 -123.5v-14q0 -55 -36.5 -111.5t-110.5 -137.5l-114 -123h265v-68h-403z" />
    <glyph glyph-name="three.oldtab" 
d="M250 -103q-95 0 -149.5 54t-57.5 147h77q9 -134 132 -134q129 0 129 125v26q0 70 -31.5 100t-99.5 30h-39v67h36q118 0 118 116v20q0 109 -105 109q-54 0 -87 -31.5t-37 -89.5h-75q3 84 57.5 135.5t141.5 51.5q86 0 135.5 -47.5t49.5 -125.5v-22q0 -107 -103 -146
q122 -28 122 -168v-25q0 -90 -58.5 -141t-155.5 -51z" />
    <glyph glyph-name="four.oldtab" 
d="M324 -95v160h-296v23l265 526h111v-485h83v-64h-83v-160h-80zM122 129h202v406z" />
    <glyph glyph-name="five.oldtab" 
d="M254 -103q-92 0 -143.5 48t-56.5 131h76q8 -56 35.5 -84t87.5 -28q58 0 89.5 37t31.5 104v47q0 68 -33 106t-90 38q-86 0 -140 -56h-23v374h341v-71h-274v-219q41 36 119 36q81 0 132 -55.5t51 -152.5v-47q0 -96 -57 -152t-146 -56z" />
    <glyph glyph-name="six.oldtab" 
d="M267 -9q-106 0 -158.5 68t-52.5 179v175q0 147 61 225.5t165 78.5q76 0 123.5 -40t56.5 -124h-79q-8 51 -33 74.5t-72 23.5q-66 0 -103.5 -59.5t-37.5 -175.5v-50q22 37 60 59t86 22q85 0 137 -55.5t52 -145.5v-50q0 -95 -55.5 -150t-149.5 -55zM267 57q54 0 87.5 37
t33.5 99v50q0 65 -32.5 102.5t-88.5 37.5t-93 -37t-37 -100v-37q0 -75 35.5 -113.5t94.5 -38.5z" />
    <glyph glyph-name="seven.oldtab" 
d="M133 -95l229 643h-301v66h403v-11l-248 -698h-83z" />
    <glyph glyph-name="eight.oldtab" 
d="M260 -9q-84 0 -144.5 50t-60.5 143v32q0 124 116 165q-96 36 -96 145v14q0 84 53.5 130.5t131.5 46.5t131.5 -46.5t53.5 -128.5v-14q0 -108 -98 -146q118 -42 118 -164v-33q0 -93 -59.5 -143.5t-145.5 -50.5zM262 411q47 0 74 30t27 86v15q0 51 -28.5 80.5t-74.5 29.5
t-74.5 -29.5t-28.5 -82.5v-15q0 -54 29 -84t76 -30zM260 59q55 0 88 33.5t33 95.5v33q0 60 -33 93t-86 33q-54 0 -88.5 -33.5t-34.5 -94.5v-33q0 -61 34 -94t87 -33z" />
    <glyph glyph-name="nine.oldtab" 
d="M244 -103q-84 0 -133.5 44t-57.5 128h78q9 -53 36.5 -79.5t81.5 -26.5q70 0 101 57t33 179v49q-22 -37 -60 -59t-85 -22q-84 0 -136.5 56t-52.5 145v51q0 92 56.5 148t148.5 56q106 0 158.5 -66.5t52.5 -175.5v-181q0 -303 -221 -303zM255 232q56 0 92 36.5t36 100.5v33
q0 77 -35.5 116t-93.5 39q-55 0 -88.5 -36.5t-33.5 -99.5v-50q0 -64 33 -101.5t90 -37.5z" />
    <glyph glyph-name="dollar.oldtab" 
d="M235 -120v111q-185 15 -197 200h77q6 -60 31.5 -94.5t88.5 -40.5v275q-91 31 -134.5 75.5t-43.5 120.5q0 72 49.5 120t128.5 53v82h52v-83q77 -8 121.5 -52.5t50.5 -122.5h-72q-16 98 -100 112v-243q98 -33 142 -79t44 -134q0 -80 -51.5 -131.5t-134.5 -57.5v-111h-52z
M132 532q0 -46 22 -73.5t81 -48.5v227q-48 -5 -75.5 -33.5t-27.5 -71.5zM394 177q0 55 -24 85.5t-83 51.5v-259q48 7 77.5 39.5t29.5 82.5z" />
    <glyph glyph-name="sterling.oldtab" 
d="M50 309v60h57q-18 85 -18 148q0 85 52.5 135t133.5 50q82 0 128.5 -44t50.5 -128h-78q-8 56 -30.5 80.5t-70.5 24.5t-76 -31t-28 -87q0 -61 16 -148h170v-60h-161q11 -75 11 -133q0 -39 -13 -73q21 -5 70.5 -24t69.5 -19q65 0 69 68h68q-3 -60 -36 -98t-91 -38
q-40 0 -102.5 26t-83.5 26q-44 0 -50 -44h-68q3 35 24.5 66.5t58.5 39.5q12 28 12 71q0 54 -16 132h-69z" />
    <glyph glyph-name="yen.oldtab" 
d="M86 160v54h139v64h-139v55h131l-169 361h86l133 -302l129 302h76l-159 -361h131v-55h-139v-64h139v-54h-139v-160h-80v160h-139z" />
    <glyph glyph-name="Euro.oldtab" 
d="M25 261v55h54v64h-54v54h54v15q0 117 54.5 185t153.5 68q84 0 132.5 -48.5t55.5 -146.5h-77q-12 131 -111 131q-129 0 -129 -189v-15h183l-10 -54h-173v-64h161l-9 -55h-152v-18q0 -185 132 -185q54 0 82 33.5t35 109.5h75q-7 -105 -57 -157.5t-135 -52.5q-99 0 -155 67
t-56 185v18h-54z" />
    <glyph glyph-name="zero.sub" horiz-adv-x="325" 
d="M162 -104q-62 0 -98 40t-36 110v68q0 71 36.5 111.5t97.5 40.5q62 0 98.5 -39.5t36.5 -110.5v-68q0 -70 -36 -111t-99 -41zM163 -50q68 0 68 98v68q0 98 -69 98q-67 0 -67 -99v-68q0 -97 68 -97z" />
    <glyph glyph-name="one.sub" horiz-adv-x="218" 
d="M97 -99v293l-74 -52v58l82 61h59v-360h-67z" />
    <glyph glyph-name="two.sub" horiz-adv-x="272" 
d="M8 -99v11l112 133q57 69 57 117v3q0 50 -45 50q-47 0 -53 -64h-61q2 55 32.5 85t83.5 30q52 0 80.5 -26.5t28.5 -73.5v-3q0 -59 -67 -136l-66 -75h136v-51h-238z" />
    <glyph glyph-name="three.sub" horiz-adv-x="292" 
d="M142 -104q-58 0 -89.5 29t-32.5 81h60q5 -60 60 -60q56 0 56 56v8q0 55 -59 55h-21v47h21q55 0 55 52v3q0 50 -47 50q-50 0 -55 -55h-61q2 48 33 76t83 28q51 0 80.5 -26t29.5 -69v-4q0 -58 -57 -75q65 -15 65 -83v-8q0 -49 -32 -77t-89 -28z" />
    <glyph glyph-name="four.sub" horiz-adv-x="302" 
d="M176 -99v77h-161v19l142 264h82v-235h44v-48h-44v-77h-63zM85 26h92v181z" />
    <glyph glyph-name="five.sub" horiz-adv-x="285" 
d="M137 -104q-55 0 -85 28t-32 76h61q6 -53 56 -53q52 0 52 66v14q0 64 -60 64q-43 0 -67 -26h-26l2 196h200v-50h-148l-1 -98q24 26 68 26q45 0 72 -30t27 -83v-15q0 -53 -32.5 -84t-86.5 -31z" />
    <glyph glyph-name="six.sub" horiz-adv-x="302" 
d="M155 -104q-65 0 -96 39.5t-31 107.5v61q0 78 36 120t98 42q46 0 75 -23.5t33 -69.5h-61q-6 43 -49 43q-64 0 -65 -106v-18q24 42 79 42q45 0 74 -28.5t29 -77.5v-20q0 -52 -32.5 -82t-89.5 -30zM155 -55q26 0 41 16.5t15 44.5v20q0 29 -15 45.5t-41 16.5q-27 0 -43 -15.5
t-16 -42.5v-21q0 -31 15.5 -47.5t43.5 -16.5z" />
    <glyph glyph-name="seven.sub" horiz-adv-x="255" 
d="M63 -99l101 307h-148v53h228v-10l-115 -350h-66z" />
    <glyph glyph-name="eight.sub" horiz-adv-x="297" 
d="M147 -104q-53 0 -87 26t-34 75v14q0 63 61 83q-50 22 -50 72v7q0 43 31.5 68t79.5 25t79.5 -24.5t31.5 -67.5v-7q0 -50 -51 -72q62 -23 62 -85v-11q0 -49 -34 -76t-89 -27zM148 115q48 0 48 49v8q0 23 -13 35t-35 12t-35 -12.5t-13 -36.5v-7q0 -24 13.5 -36t34.5 -12z
M148 -55q25 0 40.5 15t15.5 43v12q0 27 -15.5 42t-40.5 15t-40 -15t-15 -43v-12q0 -27 15 -42t40 -15z" />
    <glyph glyph-name="nine.sub" horiz-adv-x="302" 
d="M145 -104q-107 0 -115 98h61q6 -47 53 -47q64 0 65 99v24q-25 -41 -78 -41q-45 0 -75 29t-30 80v13q0 54 32.5 85t88.5 31q63 0 95.5 -38t32.5 -107v-71q0 -155 -130 -155zM147 76q27 0 43 16t16 44v16q0 66 -59 66q-26 0 -40.5 -17.5t-14.5 -47.5v-13q0 -64 55 -64z" />
    <glyph glyph-name="plus.sub" horiz-adv-x="314" 
d="M130 -50v100h-94v52h94v102h54v-102h94v-52h-94v-100h-54z" />
    <glyph glyph-name="minus.sub" horiz-adv-x="314" 
d="M36 50v52h242v-52h-242z" />
    <glyph glyph-name="zero.sup" horiz-adv-x="325" 
d="M162 406q-62 0 -98 40t-36 110v68q0 71 36.5 111.5t97.5 40.5q62 0 98.5 -39.5t36.5 -110.5v-68q0 -70 -36 -111t-99 -41zM163 460q68 0 68 98v68q0 98 -69 98q-67 0 -67 -99v-68q0 -97 68 -97z" />
    <glyph glyph-name="one.sup" horiz-adv-x="218" 
d="M97 411v294l-74 -53v58l82 61h59v-360h-67z" />
    <glyph glyph-name="two.sup" horiz-adv-x="272" 
d="M8 411v11l112 133q57 68 57 117v3q0 50 -45 50q-47 0 -53 -64h-61q2 55 32.5 85t83.5 30q52 0 80.5 -26.5t28.5 -73.5v-3q0 -59 -67 -136l-66 -75h136v-51h-238z" />
    <glyph glyph-name="three.sup" horiz-adv-x="292" 
d="M142 406q-58 0 -89.5 29t-32.5 81h60q5 -60 60 -60q56 0 56 56v8q0 55 -59 55h-21v47h21q55 0 55 51v4q0 49 -47 49q-51 0 -55 -54h-61q2 48 33 76t83 28q51 0 80.5 -26t29.5 -69v-4q0 -58 -57 -75q65 -15 65 -83v-8q0 -49 -32 -77t-89 -28z" />
    <glyph glyph-name="four.sup" horiz-adv-x="302" 
d="M176 411v76h-161v20l142 264h82v-235h44v-49h-44v-76h-63zM85 536h92v181z" />
    <glyph glyph-name="five.sup" horiz-adv-x="285" 
d="M137 406q-55 0 -85 28t-32 76h61q6 -53 56 -53q52 0 52 66v14q0 64 -60 64q-43 0 -67 -27h-26l2 197h200v-51h-148l-1 -97q24 26 68 26q45 0 72 -30t27 -83v-15q0 -53 -32.5 -84t-86.5 -31z" />
    <glyph glyph-name="six.sup" horiz-adv-x="302" 
d="M155 406q-65 0 -96 39.5t-31 107.5v60q0 79 36 121t98 42q46 0 75 -23.5t33 -69.5h-61q-6 43 -49 43q-64 0 -65 -106v-18q24 42 79 42q45 0 74 -28.5t29 -77.5v-20q0 -52 -32.5 -82t-89.5 -30zM155 455q26 0 41 16.5t15 44.5v20q0 29 -15 45.5t-41 16.5q-27 0 -43 -15.5
t-16 -42.5v-21q0 -31 15.5 -47.5t43.5 -16.5z" />
    <glyph glyph-name="seven.sup" horiz-adv-x="255" 
d="M63 411l101 306h-148v54h228v-10l-115 -350h-66z" />
    <glyph glyph-name="eight.sup" horiz-adv-x="297" 
d="M147 406q-53 0 -87 26t-34 75v13q0 64 61 84q-50 22 -50 72v7q0 43 32 68t79 25q48 0 79.5 -25t31.5 -67v-7q0 -50 -51 -72q62 -23 62 -85v-11q0 -49 -34 -76t-89 -27zM148 625q48 0 48 49v7q0 47 -48 47t-48 -48v-7q0 -24 13.5 -36t34.5 -12zM148 455q25 0 40.5 15
t15.5 43v12q0 27 -15.5 42t-40.5 15t-40 -15t-15 -43v-12q0 -27 15 -42t40 -15z" />
    <glyph glyph-name="nine.sup" horiz-adv-x="302" 
d="M145 406q-107 0 -115 98h61q6 -47 53 -47q64 0 65 99v23q-25 -40 -78 -40q-45 0 -75 29t-30 79v14q0 54 32.5 85t88.5 31q63 0 95.5 -38t32.5 -107v-71q0 -155 -130 -155zM147 586q27 0 43 15.5t16 43.5v17q0 66 -59 66q-26 0 -40.5 -17.5t-14.5 -47.5v-14q0 -63 55 -63z
" />
    <glyph glyph-name="plus.sup" horiz-adv-x="314" 
d="M130 466v100h-94v52h94v102h54v-102h94v-52h-94v-100h-54z" />
    <glyph glyph-name="minus.sup" horiz-adv-x="314" 
d="M36 566v52h242v-52h-242z" />
    <glyph glyph-name="f.short" horiz-adv-x="291" 
d="M87 0v455h-65v68h65v94q0 71 36 110.5t105 39.5q30 0 47 -6v-67q-15 6 -41 6q-66 0 -66 -79v-98h107v-68h-107v-455h-81z" />
    <glyph glyph-name="f_f.short" horiz-adv-x="544" 
d="M87 0v455h-65v68h65v87q0 71 36 110.5t105 39.5q30 0 53 -9v-65q-19 7 -46 7q-67 0 -67 -79v-91h172v94q0 71 35.5 110.5t105.5 39.5q31 0 47 -6v-67q-15 6 -42 6q-66 0 -66 -79v-98h108v-68h-108v-455h-80v455h-172v-455h-81z" />
    <glyph glyph-name="uni0163.altalt1" horiz-adv-x="296" 
d="M93 637h80v-114h99v-68h-99v-455h-80v455h-71v68h71v114zM90 -211v37q45 7 45 43q-22 0 -35.5 12.5t-13.5 34.5q0 19 13.5 31.5t33.5 12.5q23 0 38 -16t15 -43v-12q0 -95 -96 -100z" />
    <glyph glyph-name="uni0122.alt1" horiz-adv-x="634" 
d="M343 291v69h241v-105q0 -129 -68.5 -196.5t-186.5 -67.5q-133 0 -205 80t-72 215v142q0 134 75.5 215.5t200.5 81.5q100 0 165.5 -49.5t76.5 -157.5h-83q-19 140 -157 140q-93 0 -142.5 -61t-49.5 -168v-142q0 -107 48.5 -167.5t142.5 -60.5q87 0 130 50.5t43 142.5v39
h-159zM280 -211v37q45 7 45 43q-22 0 -35.5 12.5t-13.5 34.5q0 19 13.5 31.5t33.5 12.5q23 0 38 -16t15 -43v-12q0 -95 -96 -100z" />
    <glyph glyph-name="uni0136.alt1" horiz-adv-x="530" 
d="M74 0v715h83v-342l255 342h91l-261 -341l273 -374h-96l-262 357v-357h-83zM231 -211v37q45 7 45 43q-22 0 -35.5 12.5t-13.5 34.5q0 19 13.5 31.5t33.5 12.5q23 0 38 -16t15 -43v-12q0 -95 -96 -100z" />
    <glyph glyph-name="uni013B.alt1" horiz-adv-x="461" 
d="M74 0v715h83v-647h274v-68h-357zM211 -211v37q45 7 45 43q-22 0 -35.5 12.5t-13.5 34.5q0 19 13.5 31.5t33.5 12.5q23 0 38 -16t15 -43v-12q0 -95 -96 -100z" />
    <glyph glyph-name="uni0145.alt1" horiz-adv-x="608" 
d="M74 0v715h106l277 -567v567h77v-715h-93l-290 599v-599h-77zM250 -211v37q45 7 45 43q-22 0 -35.5 12.5t-13.5 34.5q0 19 13.5 31.5t33.5 12.5q23 0 38 -16t15 -43v-12q0 -95 -96 -100z" />
    <glyph glyph-name="uni0156.alt1" horiz-adv-x="542" 
d="M74 0v715h187q102 0 161.5 -46t59.5 -140v-19q0 -149 -148 -182l178 -328h-93l-171 320h-91v-320h-83zM157 386h107q135 0 135 124v19q0 64 -34 91.5t-101 27.5h-107v-262zM226 -211v37q45 7 45 43q-22 0 -35.5 12.5t-13.5 34.5q0 19 13.5 31.5t33.5 12.5q23 0 38 -16
t15 -43v-12q0 -95 -96 -100z" />
    <glyph glyph-name="uni0218.alt1" horiz-adv-x="533" 
d="M272 -9q-110 0 -166.5 57t-62.5 157h81q5 -73 37.5 -109.5t110.5 -36.5q56 0 91.5 34t35.5 93q0 62 -31.5 93.5t-115.5 59.5q-99 33 -145 77.5t-46 127.5q0 80 54.5 130t141.5 50q93 0 147.5 -47t60.5 -139h-77q-12 118 -131 118q-56 0 -87 -28.5t-31 -77.5
q0 -53 28.5 -82t112.5 -56q106 -34 153.5 -81.5t47.5 -139.5q0 -91 -58.5 -145.5t-150.5 -54.5zM216 -211v37q45 7 45 43q-22 0 -35.5 12.5t-13.5 34.5q0 19 13.5 31.5t33.5 12.5q23 0 38 -16t15 -43v-12q0 -95 -96 -100z" />
    <glyph glyph-name="uni0162.alt1" horiz-adv-x="481" 
d="M198 0v647h-172v68h429v-68h-173l-1 -647h-83zM192 -211v37q45 7 45 43q-22 0 -35.5 12.5t-13.5 34.5q0 19 13.5 31.5t33.5 12.5q23 0 38 -16t15 -43v-12q0 -95 -96 -100z" />
    <glyph glyph-name="uni0123.alt1" horiz-adv-x="528" 
d="M248 608q-22 0 -37 16t-15 42v13q0 94 96 101v-38q-45 -7 -45 -43q22 0 35.5 -12.5t13.5 -34.5q0 -19 -14 -31.5t-34 -12.5zM250 -187q-94 0 -143.5 40.5t-57.5 107.5h81q12 -81 119 -81q130 0 130 136v79q-20 -36 -59.5 -60.5t-86.5 -24.5q-85 0 -137 56.5t-52 153.5v95
q0 96 54 156t142 60q96 0 139 -81v73h80v-510q0 -100 -56 -150t-153 -50zM246 76q61 0 97.5 40t36.5 113v82q0 75 -33.5 114.5t-95.5 39.5q-60 0 -92.5 -39.5t-32.5 -109.5v-96q0 -70 32.5 -107t87.5 -37z" />
    <glyph glyph-name="uni0137.alt1" horiz-adv-x="452" 
d="M68 0v764h80v-482l187 241h89l-192 -243l205 -280h-93l-196 269v-269h-80zM193 -211v37q45 7 45 43q-22 0 -35.5 12.5t-13.5 34.5q0 19 13.5 31.5t33.5 12.5q23 0 38 -16t15 -43v-12q0 -95 -96 -100z" />
    <glyph glyph-name="uni013C.alt1" horiz-adv-x="223" 
d="M71 0v764h81v-764h-81zM64 -211v37q45 7 45 43q-22 0 -35.5 12.5t-13.5 34.5q0 19 13.5 31.5t33.5 12.5q23 0 38 -16t15 -43v-12q0 -95 -96 -100z" />
    <glyph glyph-name="uni0146.alt1" horiz-adv-x="508" 
d="M68 0v523h80v-73q17 36 53.5 58.5t87.5 22.5q72 0 113.5 -44.5t41.5 -137.5v-349h-81v353q0 56 -23.5 83t-73.5 27t-84 -31.5t-34 -86.5v-345h-80zM209 -211v37q45 7 45 43q-22 0 -35.5 12.5t-13.5 34.5q0 19 13.5 31.5t33.5 12.5q23 0 38 -16t15 -43v-12q0 -95 -96 -100
z" />
    <glyph glyph-name="uni0157.alt1" horiz-adv-x="325" 
d="M68 0v523h80v-83q23 44 57 66t91 24v-75q-75 -4 -111.5 -34t-36.5 -105v-316h-80zM65 -211v37q45 7 45 43q-22 0 -35.5 12.5t-13.5 34.5q0 19 13.5 31.5t33.5 12.5q23 0 38 -16t15 -43v-12q0 -95 -96 -100z" />
    <glyph glyph-name="uni0219.alt1" horiz-adv-x="423" 
d="M216 -8q-84 0 -131.5 42.5t-48.5 119.5h78q6 -96 101 -96q92 0 92 80q0 37 -24 56.5t-81 38.5q-86 28 -120 62.5t-34 97.5q0 65 47 101.5t110 36.5q71 0 116 -35t50 -112h-77q-4 42 -26 61.5t-63 19.5q-38 0 -60 -18.5t-22 -50.5q0 -35 21.5 -53.5t83.5 -38.5
q81 -25 119 -58.5t38 -103.5q0 -69 -43 -109.5t-126 -40.5zM166 -211v37q45 7 45 43q-22 0 -35.5 12.5t-13.5 34.5q0 19 13.5 31.5t33.5 12.5q23 0 38 -16t15 -43v-12q0 -95 -96 -100z" />
    <glyph glyph-name="uni0163.alt1" horiz-adv-x="311" 
d="M87 637h81v-114h105v-68h-105v-325q0 -68 58 -68q32 0 51 8v-66q-22 -9 -59 -9q-65 0 -98 34.5t-33 94.5v331h-65v68h65v114zM132 -211v37q45 7 45 43q-22 0 -35.5 12.5t-13.5 34.5q0 19 13.5 31.5t33.5 12.5q23 0 38 -16t15 -43v-12q0 -95 -96 -100z" />
    <glyph glyph-name="quoteleft.alt1" horiz-adv-x="201" 
d="M154 719v-42q-54 -9 -54 -52q27 1 42.5 -13t15.5 -40q0 -23 -15.5 -37.5t-39.5 -14.5q-26 0 -43 18.5t-17 49.5v14q0 110 111 117z" />
    <glyph glyph-name="quoteright.alt1" horiz-adv-x="201" 
d="M47 523v42q54 9 54 52q-27 -1 -43 13.5t-16 39.5q0 23 16 37.5t39 14.5q27 0 44 -18.5t17 -48.5v-15q0 -110 -111 -117z" />
    <glyph glyph-name="quotedblleft.alt1" horiz-adv-x="360" 
d="M154 719v-42q-54 -9 -54 -52q27 1 42.5 -13t15.5 -40q0 -23 -15.5 -37.5t-39.5 -14.5q-26 0 -43 18.5t-17 49.5v14q0 110 111 117zM313 719v-42q-54 -9 -54 -52q27 1 42.5 -13t15.5 -40q0 -23 -15.5 -37.5t-39.5 -14.5q-26 0 -43 18.5t-17 49.5v14q0 110 111 117z" />
    <glyph glyph-name="quotedblright.alt1" horiz-adv-x="360" 
d="M47 523v42q54 9 54 52q-27 -1 -43 13.5t-16 39.5q0 23 16 37.5t39 14.5q27 0 44 -18.5t17 -48.5v-15q0 -110 -111 -117zM205 523v42q54 9 54 52q-26 -1 -42 13.5t-16 39.5q0 23 16 37.5t39 14.5q27 0 43.5 -18.5t16.5 -48.5v-15q0 -110 -111 -117z" />
    <glyph glyph-name="quotesinglbase.alt1" horiz-adv-x="203" 
d="M47 -74v42q54 7 54 51q-27 -1 -43 13.5t-16 40.5q0 22 16 36.5t39 14.5q27 0 44 -18.5t17 -48.5v-15q0 -109 -111 -116z" />
    <glyph glyph-name="quotedblbase.alt1" horiz-adv-x="360" 
d="M205 -74v42q54 7 54 51q-27 -1 -42.5 13.5t-15.5 40.5q0 22 16 36.5t39 14.5q27 0 43.5 -18.5t16.5 -48.5v-15q0 -109 -111 -116zM47 -74v42q54 7 54 51q-27 -1 -43 13.5t-16 40.5q0 22 16 36.5t39 14.5q27 0 44 -18.5t17 -48.5v-15q0 -109 -111 -116z" />
    <glyph glyph-name="comma.alt1" horiz-adv-x="246" 
d="M66 -95v44q29 5 43.5 18t13.5 35q-60 0 -60 56q0 24 17 39.5t41 15.5q26 0 43 -18.5t17 -50.5v-18q0 -58 -32 -88.5t-83 -32.5z" />
    <glyph glyph-name="semicolon.alt1" horiz-adv-x="251" 
d="M126 294q-24 0 -41.5 17t-17.5 42t17.5 42t41.5 17t41 -17t17 -42t-17 -42t-41 -17zM70 -95v44q29 5 43.5 18t13.5 35q-60 0 -60 56q0 24 17 39.5t41 15.5q26 0 43 -18.5t17 -50.5v-18q0 -58 -32 -88.5t-83 -32.5z" />
    <glyph glyph-name="commaaccent.alt1" horiz-adv-x="396" 
d="M162 -211v37q45 7 45 43q-22 0 -35.5 12.5t-13.5 34.5q0 19 13.5 31.5t33.5 12.5q23 0 38 -16t15 -43v-12q0 -95 -96 -100z" />
    <glyph glyph-name="a.alt" horiz-adv-x="523" 
d="M455 522v-522h-80v77q-19 -37 -58.5 -61t-85.5 -24q-82 0 -134.5 57t-52.5 158v102q0 101 55 161.5t140 60.5q93 0 136 -80v71h80zM376 218v87q0 79 -33.5 119.5t-92.5 40.5q-58 0 -91 -40t-33 -115v-102q0 -75 32.5 -112.5t85.5 -37.5q59 0 95.5 41.5t36.5 118.5z" />
    <glyph glyph-name="agrave.alt" horiz-adv-x="523" 
d="M232 605l-96 145h100l56 -145h-60zM455 522v-522h-80v77q-19 -37 -58.5 -61t-85.5 -24q-82 0 -134.5 57t-52.5 158v102q0 101 55 161.5t140 60.5q93 0 136 -80v71h80zM376 218v87q0 79 -33.5 119.5t-92.5 40.5q-58 0 -91 -40t-33 -115v-102q0 -75 32.5 -112.5t85.5 -37.5
q59 0 95.5 41.5t36.5 118.5z" />
    <glyph glyph-name="aacute.alt" horiz-adv-x="523" 
d="M217 605l55 145h101l-96 -145h-60zM455 522v-522h-80v77q-19 -37 -58.5 -61t-85.5 -24q-82 0 -134.5 57t-52.5 158v102q0 101 55 161.5t140 60.5q93 0 136 -80v71h80zM376 218v87q0 79 -33.5 119.5t-92.5 40.5q-58 0 -91 -40t-33 -115v-102q0 -75 32.5 -112.5t85.5 -37.5
q59 0 95.5 41.5t36.5 118.5z" />
    <glyph glyph-name="acircumflex.alt" horiz-adv-x="523" 
d="M124 605l95 143h73l94 -143h-60l-72 75l-72 -75h-58zM455 522v-522h-80v77q-19 -37 -58.5 -61t-85.5 -24q-82 0 -134.5 57t-52.5 158v102q0 101 55 161.5t140 60.5q93 0 136 -80v71h80zM376 218v87q0 79 -33.5 119.5t-92.5 40.5q-58 0 -91 -40t-33 -115v-102
q0 -75 32.5 -112.5t85.5 -37.5q59 0 95.5 41.5t36.5 118.5z" />
    <glyph glyph-name="atilde.alt" horiz-adv-x="523" 
d="M302 611q-22 0 -54 20.5t-43 20.5q-26 0 -35 -43h-55q4 50 29 80.5t60 30.5q22 0 54 -19.5t43 -19.5q27 0 35 42h55q-4 -50 -29 -81t-60 -31zM455 522v-522h-80v77q-19 -37 -58.5 -61t-85.5 -24q-82 0 -134.5 57t-52.5 158v102q0 101 55 161.5t140 60.5q93 0 136 -80v71
h80zM376 218v87q0 79 -33.5 119.5t-92.5 40.5q-58 0 -91 -40t-33 -115v-102q0 -75 32.5 -112.5t85.5 -37.5q59 0 95.5 41.5t36.5 118.5z" />
    <glyph glyph-name="adieresis.alt" horiz-adv-x="523" 
d="M172 621q-21 0 -36 15t-15 36t15 36t36 15t36 -15t15 -36t-15 -36t-36 -15zM341 621q-21 0 -36 15t-15 36t15 36t36 15t36 -15t15 -36t-15 -36t-36 -15zM455 522v-522h-80v77q-19 -37 -58.5 -61t-85.5 -24q-82 0 -134.5 57t-52.5 158v102q0 101 55 161.5t140 60.5
q93 0 136 -80v71h80zM376 218v87q0 79 -33.5 119.5t-92.5 40.5q-58 0 -91 -40t-33 -115v-102q0 -75 32.5 -112.5t85.5 -37.5q59 0 95.5 41.5t36.5 118.5z" />
    <glyph glyph-name="aring.alt" horiz-adv-x="523" 
d="M250 594q-41 0 -69.5 28t-28.5 67q0 40 28.5 68t69.5 28t69.5 -28t28.5 -68q0 -39 -28.5 -67t-69.5 -28zM250 637q21 0 34 15t13 37q0 23 -13 37.5t-34 14.5t-34 -14.5t-13 -37.5q0 -22 13 -37t34 -15zM455 522v-522h-80v77q-19 -37 -58.5 -61t-85.5 -24q-82 0 -134.5 57
t-52.5 158v102q0 101 55 161.5t140 60.5q93 0 136 -80v71h80zM376 218v87q0 79 -33.5 119.5t-92.5 40.5q-58 0 -91 -40t-33 -115v-102q0 -75 32.5 -112.5t85.5 -37.5q59 0 95.5 41.5t36.5 118.5z" />
    <glyph glyph-name="amacron.alt" horiz-adv-x="523" 
d="M136 635v62h238v-62h-238zM455 522v-522h-80v77q-19 -37 -58.5 -61t-85.5 -24q-82 0 -134.5 57t-52.5 158v102q0 101 55 161.5t140 60.5q93 0 136 -80v71h80zM376 218v87q0 79 -33.5 119.5t-92.5 40.5q-58 0 -91 -40t-33 -115v-102q0 -75 32.5 -112.5t85.5 -37.5
q59 0 95.5 41.5t36.5 118.5z" />
    <glyph glyph-name="abreve.alt" horiz-adv-x="523" 
d="M254 609q-49 0 -83 35t-36 93h60q10 -61 59 -61q53 0 62 61h60q-3 -58 -38 -93t-84 -35zM455 522v-522h-80v77q-19 -37 -58.5 -61t-85.5 -24q-82 0 -134.5 57t-52.5 158v102q0 101 55 161.5t140 60.5q93 0 136 -80v71h80zM376 218v87q0 79 -33.5 119.5t-92.5 40.5
q-58 0 -91 -40t-33 -115v-102q0 -75 32.5 -112.5t85.5 -37.5q59 0 95.5 41.5t36.5 118.5z" />
    <glyph glyph-name="aogonek.alt" horiz-adv-x="523" 
d="M314 -103q0 62 71 103h-10v77q-19 -37 -58.5 -61t-85.5 -24q-82 0 -134.5 57t-52.5 158v102q0 101 55 161.5t140 60.5q93 0 136 -80v71h80v-522h-6q-59 -47 -59 -88q0 -34 35 -34q27 0 44 9v-56q-24 -11 -57 -11q-45 0 -71.5 20.5t-26.5 56.5zM376 218v87
q0 79 -33.5 119.5t-92.5 40.5q-58 0 -91 -40t-33 -115v-102q0 -75 32.5 -112.5t85.5 -37.5q59 0 95.5 41.5t36.5 118.5z" />
    <glyph glyph-name="aringacute.alt" horiz-adv-x="523" 
d="M221 808l50 125h100l-90 -125h-60zM250 580q-41 0 -69.5 28t-28.5 67q0 40 28.5 68t69.5 28t69.5 -28t28.5 -68q0 -39 -28.5 -67t-69.5 -28zM250 623q21 0 34 15t13 37q0 23 -13 37.5t-34 14.5t-34 -14.5t-13 -37.5q0 -22 13 -37t34 -15zM455 522v-522h-80v77
q-19 -37 -58.5 -61t-85.5 -24q-82 0 -134.5 57t-52.5 158v102q0 101 55 161.5t140 60.5q93 0 136 -80v71h80zM376 218v87q0 79 -33.5 119.5t-92.5 40.5q-58 0 -91 -40t-33 -115v-102q0 -75 32.5 -112.5t85.5 -37.5q59 0 95.5 41.5t36.5 118.5z" />
    <glyph glyph-name="t.alt" horiz-adv-x="296" 
d="M93 637h80v-114h99v-68h-99v-455h-80v455h-71v68h71v114z" />
    <glyph glyph-name="uni0163.alt" horiz-adv-x="296" 
d="M93 637h80v-114h99v-68h-99v-455h-80v455h-71v68h71v114zM107 -207l-50 21l48 149l78 -20z" />
    <glyph glyph-name="tcaron.alt" horiz-adv-x="296" 
d="M224 601l10 163h88l-44 -163h-54zM93 637h80v-114h99v-68h-99v-455h-80v455h-71v68h71v114z" />
    <glyph glyph-name="germandbls.alt" horiz-adv-x="527" 
d="M349 -8q-67 0 -105.5 36.5t-39.5 103.5h78q3 -74 67 -74q66 0 66 77q0 11 -2 20.5t-4 17t-8 16.5l-9 13.5t-13 14t-13 12.5t-16.5 15t-17.5 15q-3 2 -16.5 14t-16.5 15t-14.5 13.5t-14.5 15t-11 14.5t-10.5 17t-6.5 17t-5.5 20t-1.5 21q0 30 18.5 60t41.5 51.5t41.5 50
t18.5 55.5q0 39 -24 59t-68 20q-54 0 -84.5 -33t-30.5 -97v-572h-80v568q0 91 55 145.5t140 54.5q75 0 122.5 -38t47.5 -105q0 -36 -19 -70.5t-42 -55.5t-42 -45.5t-19 -44.5q0 -5 1.5 -10t3.5 -9.5t6.5 -10.5t8.5 -10t12.5 -11.5t14 -12.5t17.5 -15.5l20 -17.5
q52 -44 76.5 -80.5t24.5 -94.5q0 -69 -39.5 -107t-107.5 -38z" />
    <glyph glyph-name="tbar.alt" horiz-adv-x="296" 
d="M22 290v58h71v107h-71v68h71v114h80v-114h99v-68h-99v-107h99v-58h-99v-290h-80v290h-71z" />
    <glyph glyph-name="caron.alt" horiz-adv-x="400" 
d="M183 601l10 163h88l-44 -163h-54z" />
    <glyph glyph-name="registered.alt" horiz-adv-x="755" 
d="M377 31q-139 0 -235.5 96.5t-96.5 238.5q0 141 96.5 238.5t237.5 97.5q142 0 236.5 -96.5t94.5 -238.5q0 -143 -96 -239.5t-237 -96.5zM377 71q118 0 202.5 83.5t84.5 212.5t-83 211.5t-202 82.5q-121 0 -204 -83t-83 -212t84 -212t201 -83zM258 183v372h120
q128 0 128 -106v-8q0 -75 -70 -94l88 -164h-73l-82 153h-41v-153h-70zM328 385h49q59 0 59 54v8q0 29 -14.5 41.5t-44.5 12.5h-49v-116z" />
    <glyph glyph-name="commaaccent.alt" horiz-adv-x="400" 
d="M229 602l-77 20l76 150l49 -21z" />
    <glyph glyph-name="space.tab" horiz-adv-x="260" 
 />
    <glyph glyph-name="zero.tab" 
d="M262 -9q-99 0 -157.5 65t-58.5 190v219q0 128 57 193.5t158 65.5t157 -64.5t56 -189.5v-222q0 -126 -55.5 -191.5t-156.5 -65.5zM262 61q68 0 97.5 44t29.5 144v222q0 185 -128 185q-66 0 -98 -46.5t-32 -144.5v-218q0 -98 32.5 -142t98.5 -44z" />
    <glyph glyph-name="one.tab" 
d="M270 0v627l-181 -152v81l180 159h85v-715h-84z" />
    <glyph glyph-name="two.tab" 
d="M36 0v18l230 283q97 120 97 226v9q0 59 -27.5 89.5t-78.5 30.5q-110 0 -121 -140h-79q4 97 56.5 152.5t143.5 55.5q90 0 140.5 -50t50.5 -139v-10q0 -66 -31.5 -130.5t-94.5 -139.5l-159 -187h288v-68h-415z" />
    <glyph glyph-name="three.tab" 
d="M251 -9q-97 0 -154 54.5t-59 145.5h78q8 -131 135 -131q128 0 128 129v15q0 72 -32 105t-103 33h-36v68h35q122 0 122 120v10q0 116 -107 116q-55 0 -87 -32t-37 -87h-75q2 81 56.5 134t142.5 53t138.5 -50t50.5 -133v-11q0 -115 -110 -151q128 -30 128 -173v-18
q0 -92 -57.5 -144.5t-156.5 -52.5z" />
    <glyph glyph-name="four.tab" 
d="M329 0v158h-296v24l268 533h110v-489h73v-68h-73v-158h-82zM131 226h198v405z" />
    <glyph glyph-name="five.tab" 
d="M251 -9q-95 0 -147.5 49.5t-58.5 131.5h80q9 -56 36 -84.5t89 -28.5q61 0 93 40.5t32 118.5v25q0 76 -34 115.5t-94 39.5q-86 0 -143 -59h-25v376h351v-73h-281v-219q47 42 121 42q86 0 138.5 -57.5t52.5 -163.5v-27q0 -107 -58 -166.5t-152 -59.5z" />
    <glyph glyph-name="six.tab" 
d="M267 -9q-111 0 -167 68.5t-56 179.5v179q0 148 64 227t169 79q79 0 129.5 -41.5t59.5 -123.5h-82q-8 48 -34.5 72t-75.5 24q-66 0 -105.5 -57.5t-39.5 -169.5v-59q47 85 156 85q86 0 140 -56t54 -147v-51q0 -98 -57 -153.5t-155 -55.5zM267 58q59 0 92.5 37.5t33.5 102.5
v51q0 66 -33.5 102.5t-94.5 36.5q-60 0 -98 -37t-38 -103v-32q0 -80 37 -119t101 -39z" />
    <glyph glyph-name="seven.tab" 
d="M145 0l219 647h-303v68h407v-11l-238 -704h-85z" />
    <glyph glyph-name="eight.tab" 
d="M260 -9q-87 0 -150.5 51.5t-63.5 146.5v27q0 127 117 170q-97 37 -97 147v12q0 84 56.5 131.5t137.5 47.5q80 0 136 -47.5t56 -129.5v-13q0 -106 -98 -148q55 -20 87 -62.5t32 -106.5v-26q0 -96 -62 -148t-151 -52zM262 417q49 0 77 30t28 86v13q0 52 -29 81.5t-78 29.5
q-50 0 -79.5 -29t-29.5 -84v-13q0 -54 31 -84t80 -30zM260 60q58 0 92.5 34t34.5 100v26q0 63 -35 97t-91 34q-57 0 -93.5 -34t-36.5 -99v-26q0 -64 36 -98t93 -34z" />
    <glyph glyph-name="nine.tab" 
d="M248 -9q-86 0 -139.5 44.5t-63.5 128.5h82q16 -104 123 -104q141 0 141 216v69q-45 -83 -156 -83q-85 0 -140 55.5t-55 146.5v48q0 98 59 155t158 57q105 0 161.5 -63.5t56.5 -177.5v-208q0 -142 -59.5 -213t-167.5 -71zM257 658q-61 0 -96 -39t-35 -104v-48
q0 -67 32.5 -103t94.5 -36t100 36.5t38 101.5v34q0 79 -35.5 118.5t-98.5 39.5z" />
    <glyph glyph-name="parenleft.tab" horiz-adv-x="260" 
d="M163 -143q-121 202 -121 455q0 254 121 456h78q-117 -206 -117 -456q0 -249 117 -455h-78z" />
    <glyph glyph-name="parenright.tab" horiz-adv-x="260" 
d="M19 -143q117 206 117 455q0 250 -117 456h78q121 -202 121 -456q0 -253 -121 -455h-78z" />
    <glyph glyph-name="bracketleft.tab" horiz-adv-x="260" 
d="M59 -143v912h172v-62h-93v-787h93v-63h-172z" />
    <glyph glyph-name="bracketright.tab" horiz-adv-x="260" 
d="M30 -143v63h92v787h-92v62h171v-912h-171z" />
    <glyph glyph-name="braceleft.tab" horiz-adv-x="260" 
d="M232 -142q-192 0 -158 190l22 126q8 47 -10 74.5t-67 38.5v59q94 21 77 113l-22 122q-33 189 158 191v-61q-54 -2 -74 -30t-8 -101l22 -128q8 -54 -15 -85t-72 -50q49 -20 72 -51t15 -85l-22 -131q-11 -73 9 -101t73 -30v-61z" />
    <glyph glyph-name="braceright.tab" horiz-adv-x="260" 
d="M28 -142v61q53 2 73 30t9 101l-21 131q-8 54 14.5 85t71.5 51q-49 19 -72 50t-14 85l21 128q11 73 -9 101t-73 30v61q191 -2 158 -191l-22 -122q-17 -92 77 -113v-59q-49 -11 -67 -38.5t-10 -74.5l22 -126q34 -190 -158 -190z" />
    <glyph glyph-name="percent.tab" horiz-adv-x="700" 
d="M181 396q-59 0 -101.5 41.5t-42.5 107.5v24q0 68 42 110t103 42t103 -41.5t42 -108.5v-25q0 -67 -42.5 -108.5t-103.5 -41.5zM109 0l411 715h71l-412 -715h-70zM182 456q35 0 54 23t19 67v25q0 42 -19.5 65.5t-53.5 23.5t-53.5 -23t-19.5 -67v-24q0 -90 73 -90zM518 -7
q-60 0 -102.5 41.5t-42.5 107.5v24q0 68 42 109.5t103 41.5q62 0 103.5 -41t41.5 -108v-26q0 -67 -42 -108t-103 -41zM518 53q35 0 54 23t19 66v25q0 43 -19 66.5t-54 23.5q-34 0 -53.5 -23t-19.5 -67v-25q0 -89 73 -89z" />
    <glyph glyph-name="perthousand.tab" horiz-adv-x="900" 
d="M162 404q-52 0 -88 38.5t-36 106.5v24q0 70 35.5 109t89.5 39t89 -38.5t35 -107.5v-25q0 -69 -35.5 -107.5t-89.5 -38.5zM68 0l412 715h71l-412 -715h-71zM163 464q54 0 54 86v24q0 87 -54 87t-54 -87v-25q0 -85 54 -85zM454 -7q-53 0 -89 38t-36 106v25q0 70 35.5 108.5
t89.5 38.5t89 -38t35 -108v-24q0 -70 -35.5 -108t-88.5 -38zM738 -7q-53 0 -89 38t-36 106v25q0 70 35.5 108.5t89.5 38.5t89 -38t35 -108v-24q0 -70 -35.5 -108t-88.5 -38zM454 52q54 0 54 87v24q0 41 -14 64t-40 23q-55 0 -55 -88v-24q0 -86 55 -86zM738 52q54 0 54 87v24
q0 41 -14 64t-40 23q-55 0 -55 -88v-24q0 -86 55 -86z" />
    <glyph glyph-name="period.tab" horiz-adv-x="260" 
d="M130 -4q-24 0 -41.5 17t-17.5 41q0 25 17.5 42t41.5 17t41 -17t17 -42t-17 -41.5t-41 -16.5z" />
    <glyph glyph-name="comma.tab" horiz-adv-x="260" 
d="M87 -113l-51 23l80 205l78 -33z" />
    <glyph glyph-name="colon.tab" horiz-adv-x="260" 
d="M130 294q-24 0 -41.5 17t-17.5 42t17.5 42t41.5 17t41 -17t17 -42t-17 -42t-41 -17zM130 -4q-24 0 -41.5 17t-17.5 41q0 25 17.5 42t41.5 17t41 -17t17 -42t-17 -41.5t-41 -16.5z" />
    <glyph glyph-name="semicolon.tab" horiz-adv-x="260" 
d="M138 294q-24 0 -41.5 17t-17.5 42t17.5 42t41.5 17t41.5 -17t17.5 -42t-17.5 -42t-41.5 -17zM72 -113l-51 23l80 205l78 -33z" />
    <glyph glyph-name="plus.tab" 
d="M225 134v175h-160v66h160v175h70v-175h160v-66h-160v-175h-70z" />
    <glyph glyph-name="minus.tab" 
d="M65 309v66h390v-66h-390z" />
    <glyph glyph-name="plusminus.tab" 
d="M225 162v161h-160v66h160v161h70v-161h160v-66h-160v-161h-70zM65 26v67h390v-67h-390z" />
    <glyph glyph-name="divide.tab" 
d="M259 448q-24 0 -41.5 17t-17.5 42t17.5 42t41.5 17q25 0 42.5 -17t17.5 -42t-17.5 -42t-42.5 -17zM65 309v66h390v-66h-390zM259 118q-24 0 -41.5 17t-17.5 41q0 25 17.5 42.5t41.5 17.5q25 0 42.5 -17.5t17.5 -42.5q0 -24 -17.5 -41t-42.5 -17z" />
    <glyph glyph-name="multiply.tab" 
d="M129 152l-45 44l131 136l-131 136l45 45l130 -135l130 135l46 -45l-131 -136l131 -136l-46 -44l-130 135z" />
    <glyph glyph-name="equal.tab" 
d="M77 369v69h365v-69h-365zM77 205v67h365v-67h-365z" />
    <glyph glyph-name="less.tab" 
d="M425 120l-344 191v20l344 192v-76l-229 -126l229 -125v-76z" />
    <glyph glyph-name="greater.tab" 
d="M94 120v76l229 125l-229 126v76l344 -192v-20z" />
    <glyph glyph-name="lessequal.tab" 
d="M425 136l-344 184v19l344 184v-76l-227 -117l227 -117v-77zM81 26v67h344v-67h-344z" />
    <glyph glyph-name="greaterequal.tab" 
d="M94 136v76l227 118l-227 117v75l344 -183v-19zM94 26v66h343v-66h-343z" />
    <glyph glyph-name="approxequal.tab" 
d="M74 339q4 54 31.5 82t68.5 28q37 0 93 -19t77 -19q16 0 28 11t13 32h58q-4 -55 -31.5 -83t-66.5 -28q-38 0 -95 19t-77 19q-35 0 -41 -42h-58zM74 176q4 54 31.5 82.5t68.5 28.5q37 0 93 -19t77 -19q16 0 28 11t13 31h58q-4 -55 -31 -82.5t-67 -27.5q-38 0 -95 19t-77 19
q-35 0 -41 -43h-58z" />
    <glyph glyph-name="notequal.tab" 
d="M145 108l37 97h-105v67h130l37 97h-167v69h193l37 98h70l-37 -98h102v-69h-128l-37 -97h165v-67h-190l-37 -97h-70z" />
    <glyph glyph-name="dollar.tab" 
d="M288 -123h-54v115q-190 17 -202 213h81q5 -66 32 -102.5t89 -43.5v283q-92 32 -137 77t-45 125q0 75 50.5 124.5t131.5 54.5v84h54v-85q79 -8 126 -54.5t51 -129.5h-77q-11 103 -100 117v-251q65 -22 103.5 -46t62 -65t23.5 -102q0 -85 -52.5 -138.5t-136.5 -60.5v-115z
M130 550q0 -47 22 -75.5t82 -51.5v234q-49 -5 -76.5 -34t-27.5 -73zM397 186q0 53 -24.5 83t-84.5 54v-264q48 6 78.5 40t30.5 87z" />
    <glyph glyph-name="cent.tab" 
d="M243 -123v117q-82 9 -132 66t-50 153v95q0 95 51.5 153.5t130.5 67.5v92h53v-91q70 -7 116 -47.5t52 -122.5h-79q-9 91 -89 103v-403q40 6 66.5 35.5t29.5 81.5h74q-4 -81 -50 -129t-120 -55v-116h-53zM143 213q0 -135 100 -153v402q-47 -8 -73.5 -48t-26.5 -106v-95z
" />
    <glyph glyph-name="sterling.tab" 
d="M43 316v60h61q-20 91 -20 159q0 87 53.5 138t137.5 51t132 -46t53 -130h-81q-7 56 -30.5 81.5t-73.5 25.5q-49 0 -78 -31.5t-29 -88.5v-1q0 -56 18 -158h174v-60h-164q10 -78 10 -127q0 -46 -14 -83q23 -5 73.5 -24.5t70.5 -19.5q67 0 72 69h70q-4 -61 -38 -100t-93 -39
q-41 0 -105.5 26.5t-86.5 26.5q-45 0 -51 -45h-70q3 37 25 69.5t61 40.5q12 36 12 80q0 51 -16 126h-73z" />
    <glyph glyph-name="yen.tab" 
d="M81 165v56h142v66h-142v56h134l-174 372h88l138 -309l132 309h79l-164 -372h135v-56h-143v-66h143v-56h-143v-165h-83v165h-142z" />
    <glyph glyph-name="Euro.tab" 
d="M15 270v56h50v66h-50v56h50v21q0 117 57 186t158 69q178 0 193 -201h-80q-7 70 -34.5 102.5t-78.5 32.5q-132 0 -132 -190v-20h186l-10 -56h-176v-66h164l-10 -56h-154v-25q0 -185 132 -185q56 0 86 34.5t38 111.5h77q-8 -107 -60.5 -161t-140.5 -54q-100 0 -157.5 68
t-57.5 186v25h-50z" />
    <glyph glyph-name="florin.tab" 
d="M114 -167l70 519h-96v67h105l21 156q21 146 158 146q38 0 62 -10v-68q-24 10 -59 10q-68 0 -80 -84l-20 -150h129v-67h-138l-71 -519h-81z" />
    </font>
</defs>
</svg>
