<?xml version="1.0" standalone="no"?>
<!DOCTYPE svg PUBLIC "-//W3C//DTD SVG 1.1//EN" "http://www.w3.org/Graphics/SVG/1.1/DTD/svg11.dtd" >
<svg xmlns="http://www.w3.org/2000/svg" xmlns:xlink="http://www.w3.org/1999/xlink" version="1.1">
<metadata>
Created by FontForge 20170731 at Wed Aug 30 20:53:50 2017
 By Aleksey,,,
Copyright (C)2017 Commercial Type.
</metadata>
<defs>
<font id="GraphikCompact-Bold" horiz-adv-x="520" >
  <font-face 
    font-family="Graphik Compact Bold"
    font-weight="700"
    font-stretch="normal"
    units-per-em="1000"
    panose-1="1 0 2 1 1 0 0 1 0 1"
    ascent="809"
    descent="-191"
    x-height="523"
    cap-height="715"
    bbox="-220 -216 1056 1104"
    underline-thickness="66"
    underline-position="-224"
    unicode-range="U+0020-FB02"
  />
<missing-glyph horiz-adv-x="514" 
 />
    <glyph glyph-name="uniFB00" unicode="ff" horiz-adv-x="612" 
d="M72 0v418h-58v105h58v58q0 83 45.5 125.5t124.5 42.5q39 0 66 -9v-110q-15 5 -36 5q-51 0 -51 -55v-57h130v65q0 83 45.5 125t129.5 42q37 0 69 -8v-111q-16 6 -41 6q-55 0 -55 -56v-63h94v-105h-94v-418h-148v418h-130v-418h-149z" />
    <glyph glyph-name=".notdef" horiz-adv-x="514" 
 />
    <glyph glyph-name=".null" horiz-adv-x="0" 
 />
    <glyph glyph-name="nonmarkingreturn" horiz-adv-x="333" 
 />
    <glyph glyph-name="space" unicode=" " horiz-adv-x="168" 
 />
    <glyph glyph-name="exclam" unicode="!" horiz-adv-x="285" 
d="M82 218l-23 497h168l-23 -497h-122zM143 -8q-38 0 -64 24.5t-26 59.5q0 36 26 61t64 25q37 0 63 -25t26 -61q0 -35 -26 -59.5t-63 -24.5z" />
    <glyph glyph-name="quotedbl" unicode="&#x22;" horiz-adv-x="399" 
d="M56 466l-19 249h142l-19 -249h-104zM239 466l-19 249h142l-19 -249h-104z" />
    <glyph glyph-name="numbersign" unicode="#" horiz-adv-x="515" 
d="M77 125l21 145h-66v118h83l12 85h-73v116h90l18 126h104l-18 -126h63l18 126h103l-18 -126h68v-116h-84l-13 -85h75v-118h-91l-21 -145h-104l21 145h-63l-21 -145h-104zM219 388h63l12 85h-63z" />
    <glyph glyph-name="dollar" unicode="$" horiz-adv-x="563" 
d="M316 -123h-65v113q-108 9 -165.5 67.5t-61.5 156.5h149q2 -48 20 -74.5t58 -33.5v193q-114 34 -163.5 84t-49.5 141q0 85 57.5 139t155.5 61v83h65v-84q198 -18 208 -203h-145q-6 73 -63 87v-175q111 -32 164 -81t53 -144q0 -93 -56 -151.5t-161 -65.5v-113zM182 536
q0 -31 16 -50.5t53 -33.5v157q-69 -11 -69 -73zM386 189q0 34 -16.5 54.5t-53.5 34.5v-172q34 6 52 27.5t18 55.5z" />
    <glyph glyph-name="percent" unicode="%" horiz-adv-x="726" 
d="M195 393q-76 0 -123 46.5t-47 119.5q0 71 48.5 117t121.5 46q72 0 121 -45.5t49 -115.5q0 -73 -47.5 -120.5t-122.5 -47.5zM92 0l456 715h88l-456 -715h-88zM195 484q27 0 42 20t15 55q0 34 -15 53.5t-42 19.5q-26 0 -41.5 -20t-15.5 -54q0 -36 15 -55t42 -19zM531 -10
q-77 0 -123.5 46t-46.5 119q0 71 49 117t122 46q72 0 120.5 -45t48.5 -115q0 -74 -47.5 -121t-122.5 -47zM532 81q57 0 57 73q0 34 -15 54t-42 20t-42.5 -20t-15.5 -54q0 -73 58 -73z" />
    <glyph glyph-name="ampersand" unicode="&#x26;" horiz-adv-x="650" 
d="M453 0l-39 56q-68 -66 -169 -66q-100 0 -157.5 52t-57.5 148v28q0 129 135 192q-47 64 -47 136q0 86 56 132t142 46q82 0 134.5 -42t52.5 -120q0 -113 -134 -177l89 -128l45 114h129l-97 -226l101 -145h-183zM263 549q0 -50 39 -98q36 20 51.5 43.5t15.5 59.5
q0 30 -13.5 46t-36.5 16q-25 0 -40.5 -17t-15.5 -50zM183 204q0 -97 88 -97q44 0 79 40l-123 177q-44 -33 -44 -97v-23z" />
    <glyph glyph-name="quotesingle" unicode="'" horiz-adv-x="221" 
d="M56 466l-19 249h148l-20 -249h-109z" />
    <glyph glyph-name="parenleft" unicode="(" horiz-adv-x="318" 
d="M189 -144q-153 194 -153 457q0 261 153 457h118q-128 -203 -128 -457q0 -252 128 -457h-118z" />
    <glyph glyph-name="parenright" unicode=")" horiz-adv-x="318" 
d="M128 -143h-118q129 204 129 457q0 252 -129 456h118q154 -193 154 -456q0 -262 -154 -457z" />
    <glyph glyph-name="asterisk" unicode="*" horiz-adv-x="398" 
d="M147 406l-93 65l81 85l-107 14l30 105l100 -47l-19 113h121l-20 -113l100 47l30 -105l-107 -14l80 -85l-92 -65l-53 105z" />
    <glyph glyph-name="plus" unicode="+" horiz-adv-x="496" 
d="M186 115v170h-153v111h153v170h123v-170h154v-111h-154v-170h-123z" />
    <glyph glyph-name="comma" unicode="," horiz-adv-x="263" 
d="M104 -110l-89 33l72 236l139 -48z" />
    <glyph glyph-name="hyphen" unicode="-" horiz-adv-x="333" 
d="M44 226v115h245v-115h-245z" />
    <glyph glyph-name="period" unicode="." horiz-adv-x="259" 
d="M129 -8q-37 0 -62.5 24.5t-25.5 60.5t25.5 61.5t62.5 25.5t62.5 -25.5t25.5 -61.5t-25.5 -60.5t-62.5 -24.5z" />
    <glyph glyph-name="slash" unicode="/" horiz-adv-x="390" 
d="M-19 -143l283 914h121l-283 -914h-121z" />
    <glyph glyph-name="zero" unicode="0" horiz-adv-x="617" 
d="M307 -11q-126 0 -198 75t-72 215v156q0 138 75 214t196 76q123 0 197.5 -74t74.5 -214v-153q0 -141 -73 -218t-200 -77zM310 120q54 0 78.5 39t24.5 123v154q0 160 -104 160q-105 0 -105 -160v-155q0 -83 26 -122t80 -39z" />
    <glyph glyph-name="one" unicode="1" horiz-adv-x="380" 
d="M144 0v548l-118 -79v143l139 103h145v-715h-166z" />
    <glyph glyph-name="two" unicode="2" horiz-adv-x="531" 
d="M12 0v24l214 264q55 71 79.5 118t24.5 96v12q0 83 -69 83q-37 0 -56.5 -25.5t-24.5 -86.5h-153q3 117 65.5 178.5t174.5 61.5q111 0 170 -54.5t59 -150.5v-13q0 -66 -29 -124t-94 -139l-99 -117h224v-127h-486z" />
    <glyph glyph-name="three" unicode="3" horiz-adv-x="557" 
d="M522 195q0 -96 -63.5 -151t-182.5 -55q-242 0 -248 225h151q3 -50 24 -75t66 -25q83 0 83 86v21q0 49 -21.5 71t-71.5 22h-42v110h41q90 0 90 87v13q0 76 -73 76q-76 0 -83 -91h-148q3 101 63.5 158.5t170.5 57.5q108 0 168 -49t60 -139v-14q0 -115 -114 -146
q61 -12 95.5 -53t34.5 -107v-22z" />
    <glyph glyph-name="four" unicode="4" horiz-adv-x="582" 
d="M318 0v149h-299v59l255 507h205v-448h81v-118h-81v-149h-161zM174 267h147v313z" />
    <glyph glyph-name="five" unicode="5" horiz-adv-x="543" 
d="M265 -11q-117 0 -176 57t-62 158h154q5 -45 22.5 -66t59.5 -21q77 0 77 104v28q0 106 -91 106q-65 0 -109 -49h-89l12 409h411v-128h-288l-4 -177q48 62 139 62q86 0 136.5 -56.5t50.5 -163.5v-35q0 -106 -64 -167t-179 -61z" />
    <glyph glyph-name="six" unicode="6" horiz-adv-x="573" 
d="M300 -11q-133 0 -198 74.5t-65 208.5v151q0 143 73.5 222.5t190.5 79.5q214 0 232 -194h-156q-9 67 -72 67q-99 0 -102 -161v-55q46 78 147 78q85 0 139.5 -52.5t54.5 -149.5v-49q0 -104 -65 -162t-179 -58zM298 111q39 0 61 26t22 71v47q0 45 -22 70t-62 25t-63.5 -26
t-23.5 -72v-37q0 -51 23.5 -77.5t64.5 -26.5z" />
    <glyph glyph-name="seven" unicode="7" horiz-adv-x="496" 
d="M101 0l180 578h-258v137h462v-18l-216 -697h-168z" />
    <glyph glyph-name="eight" unicode="8" horiz-adv-x="565" 
d="M282 -11q-114 0 -182 50.5t-68 147.5v32q0 121 116 163q-93 38 -93 140v16q0 89 64.5 138t164.5 49t164 -49t64 -137v-16q0 -100 -94 -141q115 -39 115 -160v-31q0 -98 -68.5 -150t-182.5 -52zM284 429q35 0 55 21t20 60v20q0 37 -20.5 58t-54.5 21t-55 -20.5t-21 -58.5
v-20q0 -38 21 -59.5t55 -21.5zM283 108q39 0 62 23t23 67v39q0 43 -23 66.5t-62 23.5t-62.5 -23t-23.5 -68v-38q0 -44 23.5 -67t62.5 -23z" />
    <glyph glyph-name="nine" unicode="9" horiz-adv-x="574" 
d="M276 -11q-109 0 -171 49.5t-69 147.5h156q8 -70 79 -70q50 0 74.5 37t25.5 117v61q-44 -77 -143 -77q-88 0 -143.5 52t-55.5 149v48q0 103 66.5 162.5t181.5 59.5q128 0 194 -73.5t66 -209.5v-161q0 -143 -68 -217.5t-193 -74.5zM277 604q-41 0 -63.5 -27t-22.5 -71v-46
q0 -45 21.5 -70t62.5 -25q40 0 63.5 25.5t23.5 70.5v39q0 50 -22.5 77t-62.5 27z" />
    <glyph glyph-name="colon" unicode=":" horiz-adv-x="265" 
d="M132 282q-37 0 -62.5 24.5t-25.5 60.5t25.5 61.5t62.5 25.5t63 -25.5t26 -61.5t-25.5 -60.5t-63.5 -24.5zM132 -8q-37 0 -62.5 24.5t-25.5 60.5t25.5 61.5t62.5 25.5t63 -25.5t26 -61.5t-25.5 -60.5t-63.5 -24.5z" />
    <glyph glyph-name="semicolon" unicode=";" horiz-adv-x="271" 
d="M145 282q-37 0 -62 24.5t-25 60.5t25 61.5t62 25.5q38 0 64 -25.5t26 -61.5t-26 -60.5t-64 -24.5zM96 -110l-88 33l71 236l139 -48z" />
    <glyph glyph-name="less" unicode="&#x3c;" horiz-adv-x="457" 
d="M411 92l-375 215v30l375 215v-137l-178 -93l178 -97v-133z" />
    <glyph glyph-name="equal" unicode="=" horiz-adv-x="487" 
d="M453 358h-419v107h419v-107zM453 180h-419v106h419v-106z" />
    <glyph glyph-name="greater" unicode="&#x3e;" horiz-adv-x="457" 
d="M45 92v137l178 92l-178 97v134l375 -215v-29z" />
    <glyph glyph-name="question" unicode="?" horiz-adv-x="484" 
d="M148 218v33q0 36 14 69t26.5 49t44.5 54q2 3 7 8q20 23 29 34.5t17 31t8 40.5q0 64 -58 64q-64 0 -71 -85h-146q3 101 62.5 155t163.5 54q101 0 155 -46t54 -133q0 -48 -17.5 -83t-53.5 -77q-6 -7 -22.5 -24t-23 -24t-18 -21.5t-16.5 -24t-9.5 -23t-5.5 -26.5v-25h-140z
M218 -8q-38 0 -64 24.5t-26 60.5q0 37 26 61.5t64 24.5t64 -24.5t26 -61.5q0 -36 -26 -60.5t-64 -24.5z" />
    <glyph glyph-name="at" unicode="@" horiz-adv-x="806" 
d="M404 -152q-173 0 -273 103.5t-100 267.5v72q0 175 111 285t274 110q161 0 260 -91t99 -241v-73q0 -115 -52 -172t-128 -57q-108 0 -129 78q-39 -79 -121 -79q-65 0 -103 45t-36 123l3 50q3 93 48.5 148t116.5 55q75 0 98 -56l6 48h125l-29 -276q-8 -67 41 -67
q39 0 63 39.5t24 121.5v73q0 124 -75.5 195t-209.5 71q-139 0 -224 -90t-85 -242v-70q0 -137 76.5 -221t221.5 -84q146 0 221 86h82q-41 -69 -121 -110.5t-184 -41.5zM386 152q31 0 50 27.5t20 76.5l3 46q2 33 -13 52t-43 19q-30 0 -47 -26t-19 -73l-4 -50q-3 -72 53 -72z
" />
    <glyph glyph-name="A" unicode="A" horiz-adv-x="616" 
d="M429 0l-33 147h-195l-33 -147h-154l182 715h225l181 -715h-173zM298 576l-70 -312h141z" />
    <glyph glyph-name="B" unicode="B" horiz-adv-x="583" 
d="M58 0v715h252q108 0 164.5 -45.5t56.5 -131.5v-19q0 -114 -116 -146q138 -28 138 -164v-15q0 -194 -236 -194h-259zM221 424h64q48 0 68.5 19t20.5 64v17q0 42 -21.5 59t-68.5 17h-63v-176zM221 115h72q95 0 95 93v18q0 49 -23 70t-77 21h-67v-202z" />
    <glyph glyph-name="C" unicode="C" horiz-adv-x="631" 
d="M335 -11q-144 0 -221.5 79t-77.5 221v136q0 138 82.5 219t211.5 81q121 0 193 -59t80 -183h-170q-5 58 -30 84.5t-73 26.5q-58 0 -89 -42.5t-31 -123.5v-140q0 -166 123 -166q104 0 112 117h164q-7 -124 -80 -187t-194 -63z" />
    <glyph glyph-name="D" unicode="D" horiz-adv-x="634" 
d="M58 715h226q314 0 314 -291v-128q0 -144 -79.5 -220t-234.5 -76h-226v715zM277 586h-52v-457h54q77 0 111.5 40t34.5 127v125q0 87 -34 126t-114 39z" />
    <glyph glyph-name="E" unicode="E" horiz-adv-x="515" 
d="M58 0v715h413v-130h-247v-156h197v-121h-197v-178h261v-130h-427z" />
    <glyph glyph-name="F" unicode="F" horiz-adv-x="491" 
d="M58 0v715h408v-130h-241v-184h194v-125h-194v-276h-167z" />
    <glyph glyph-name="G" unicode="G" horiz-adv-x="656" 
d="M349 270v113h274v-122q0 -130 -73 -201t-212 -71q-145 0 -223.5 79.5t-78.5 219.5v138q0 138 83.5 218.5t217.5 80.5q118 0 192.5 -57t81.5 -179h-165q-10 105 -108 105q-62 0 -96 -43.5t-34 -123.5v-142q0 -167 134 -167q116 0 119 124v28h-112z" />
    <glyph glyph-name="H" unicode="H" horiz-adv-x="651" 
d="M58 0v715h166v-286h202v286h166v-715h-166v296h-202v-296h-166z" />
    <glyph glyph-name="I" unicode="I" horiz-adv-x="292" 
d="M62 0v715h168v-715h-168z" />
    <glyph glyph-name="J" unicode="J" horiz-adv-x="397" 
d="M131 -8q-64 0 -106 20v127q33 -12 71 -12q83 0 83 91v497h167v-501q0 -110 -55 -166t-160 -56z" />
    <glyph glyph-name="K" unicode="K" horiz-adv-x="606" 
d="M58 0v715h167v-297l189 297h172l-218 -331l229 -384h-187l-185 319v-319h-167z" />
    <glyph glyph-name="L" unicode="L" horiz-adv-x="486" 
d="M58 0v715h167v-584h233v-131h-400z" />
    <glyph glyph-name="M" unicode="M" horiz-adv-x="781" 
d="M58 0v715h213l120 -400l119 400h213v-715h-165v477l-151 -477h-52l-150 477v-477h-147z" />
    <glyph glyph-name="N" unicode="N" horiz-adv-x="649" 
d="M58 0v715h189l195 -433v433h148v-715h-163l-220 482v-482h-149z" />
    <glyph glyph-name="O" unicode="O" horiz-adv-x="681" 
d="M339 -11q-139 0 -220.5 80.5t-81.5 217.5v139q0 136 85 217.5t219 81.5q136 0 219.5 -78.5t83.5 -217.5v-138q0 -139 -82.5 -220.5t-222.5 -81.5zM341 122q62 0 96.5 43.5t34.5 123.5v138q0 78 -34.5 122t-96.5 44q-63 0 -97.5 -43t-34.5 -123v-139q0 -80 35 -123t97 -43
z" />
    <glyph glyph-name="P" unicode="P" horiz-adv-x="558" 
d="M58 0v715h228q248 0 248 -212v-30q0 -206 -243 -206h-67v-267h-166zM224 383h56q93 0 93 91v27q0 48 -22.5 68t-70.5 20h-56v-206z" />
    <glyph glyph-name="Q" unicode="Q" horiz-adv-x="681" 
d="M339 -11q-139 0 -220.5 80.5t-81.5 217.5v139q0 136 85 217.5t219 81.5q136 0 219.5 -78.5t83.5 -217.5v-138q0 -155 -100 -236l66 -72l-98 -93l-98 106q-34 -7 -75 -7zM209 285q0 -129 85 -159l-10 10l103 88l54 -59q31 43 31 120v142q0 78 -34.5 122t-96.5 44
q-63 0 -97.5 -43t-34.5 -123v-142z" />
    <glyph glyph-name="R" unicode="R" horiz-adv-x="591" 
d="M58 0v715h234q252 0 252 -205v-26q0 -130 -113 -173l144 -311h-175l-126 281h-50v-281h-166zM224 392h62q49 0 72.5 21t23.5 68v24q0 44 -23.5 63.5t-72.5 19.5h-62v-196z" />
    <glyph glyph-name="S" unicode="S" horiz-adv-x="561" 
d="M284 -11q-251 0 -257 226h160q2 -54 24 -78.5t73 -24.5q39 0 60.5 20.5t21.5 59.5q0 42 -24.5 62t-90.5 39q-112 34 -161 83.5t-49 144.5q0 92 63 148t171 56q228 0 238 -208h-156q-5 85 -83 85q-36 0 -55 -18t-19 -51q0 -37 22 -56t85 -38q55 -15 91 -31t68 -42t47 -65
t15 -93q0 -101 -65 -160t-179 -59z" />
    <glyph glyph-name="T" unicode="T" horiz-adv-x="523" 
d="M177 0v585h-157v130h483v-130h-158l-1 -585h-167z" />
    <glyph glyph-name="U" unicode="U" horiz-adv-x="640" 
d="M417 715h168v-469q0 -128 -69.5 -192.5t-197.5 -64.5q-127 0 -195 64.5t-68 190.5v471h167v-465q0 -68 22 -98t75 -30t75.5 30.5t22.5 100.5v462z" />
    <glyph glyph-name="V" unicode="V" horiz-adv-x="603" 
d="M311 179l124 536h154l-187 -715h-200l-189 715h175z" />
    <glyph glyph-name="W" unicode="W" horiz-adv-x="839" 
d="M157 0l-142 715h168l80 -469l95 469h129l101 -472l82 472h154l-143 -715h-159l-98 446l-99 -446h-168z" />
    <glyph glyph-name="X" unicode="X" horiz-adv-x="625" 
d="M19 0l181 368l-169 347h186l101 -232l99 232h168l-160 -342l181 -373h-187l-116 262l-115 -262h-169z" />
    <glyph glyph-name="Y" unicode="Y" horiz-adv-x="569" 
d="M205 0v305l-197 410h181l107 -259l107 259h158l-188 -410v-305h-168z" />
    <glyph glyph-name="Z" unicode="Z" horiz-adv-x="522" 
d="M12 0v19l270 570h-236v126h458v-19l-269 -568h256v-128h-479z" />
    <glyph glyph-name="bracketleft" unicode="[" horiz-adv-x="347" 
d="M58 -144v914h257v-109h-110v-695h110v-110h-257z" />
    <glyph glyph-name="backslash" unicode="\" horiz-adv-x="390" 
d="M125 771l283 -914h-121l-284 914h122z" />
    <glyph glyph-name="bracketright" unicode="]" horiz-adv-x="347" 
d="M289 -144h-257v110h110v695h-110v109h257v-914z" />
    <glyph glyph-name="asciicircum" unicode="^" horiz-adv-x="467" 
d="M23 413l143 302h136l142 -302h-132l-80 174l-79 -174h-130z" />
    <glyph glyph-name="underscore" unicode="_" horiz-adv-x="377" 
d="M-1 -152v78h379v-78h-379z" />
    <glyph glyph-name="grave" unicode="`" horiz-adv-x="400" 
d="M152 583l-96 158h157l49 -158h-110z" />
    <glyph glyph-name="a" unicode="a" horiz-adv-x="499" 
d="M178 -10q-67 0 -109.5 38t-42.5 113v12q0 85 58.5 122t170.5 37h52v37q0 40 -13 59t-48 19q-58 0 -63 -64h-141q4 85 60 128t151 43q202 0 202 -179v-355h-145v56q-41 -66 -132 -66zM230 92q36 0 56.5 18.5t20.5 54.5v55h-46q-46 0 -67 -13.5t-21 -45.5v-11q0 -58 57 -58
z" />
    <glyph glyph-name="b" unicode="b" horiz-adv-x="547" 
d="M47 750h149v-298q46 82 141 82q80 0 130.5 -58t50.5 -166v-95q0 -109 -51 -167t-134 -58q-100 0 -137 80v-70h-149v750zM193 218q0 -116 89 -116q85 0 85 112v96q0 112 -85 112q-42 0 -65.5 -29.5t-23.5 -85.5v-89z" />
    <glyph glyph-name="c" unicode="c" horiz-adv-x="500" 
d="M259 -10q-104 0 -167.5 57.5t-63.5 168.5v86q0 111 65 171.5t166 60.5q93 0 152 -45.5t64 -147.5h-140q-5 78 -73 78q-84 0 -84 -112v-92q0 -115 87 -115q74 0 78 89h134q-2 -97 -58.5 -148t-159.5 -51z" />
    <glyph glyph-name="d" unicode="d" horiz-adv-x="547" 
d="M500 750v-750h-149v74q-18 -37 -55 -60.5t-86 -23.5q-80 0 -130 57t-50 166v94q0 109 51 168t134 59q96 0 136 -78v294h149zM353 218v89q0 116 -87 116q-86 0 -86 -114v-96q0 -109 83 -109q43 0 66.5 29t23.5 85z" />
    <glyph glyph-name="e" unicode="e" horiz-adv-x="512" 
d="M264 -10q-108 0 -172 59.5t-64 168.5v84q0 108 65.5 170t167.5 62q100 0 162 -56.5t62 -171.5v-80h-309v-11q0 -119 91 -119q71 0 79 67h140q-7 -85 -64 -129t-158 -44zM262 432q-81 0 -86 -112h166v7q0 105 -80 105z" />
    <glyph glyph-name="f" unicode="f" horiz-adv-x="335" 
d="M72 0v418h-58v105h58v65q0 83 46 125t130 42q37 0 69 -8v-111q-18 6 -41 6q-55 0 -55 -56v-63h94v-105h-94v-418h-149z" />
    <glyph glyph-name="g" unicode="g" horiz-adv-x="547" 
d="M258 -188q-213 0 -228 166h147q9 -59 82 -59q92 0 92 97v81q-18 -36 -54.5 -58.5t-85.5 -22.5q-80 0 -130.5 55.5t-50.5 155.5v92q0 100 51.5 157.5t133.5 57.5q96 0 136 -78v67h149v-504q0 -103 -62.5 -155t-179.5 -52zM264 123q41 0 65 28t24 78v88q0 51 -22.5 78.5
t-64.5 27.5q-86 0 -86 -104v-95q0 -49 22 -75t62 -26z" />
    <glyph glyph-name="h" unicode="h" horiz-adv-x="531" 
d="M47 0v750h149v-301q42 85 145 85q68 0 107 -43.5t39 -128.5v-362h-149v337q0 78 -65 78q-35 0 -56 -22t-21 -64v-329h-149z" />
    <glyph glyph-name="i" unicode="i" horiz-adv-x="249" 
d="M124 578q-36 0 -60 23t-24 57t24 56.5t60 22.5q35 0 59.5 -22.5t24.5 -56.5t-24 -57t-60 -23zM50 0v523h149v-523h-149z" />
    <glyph glyph-name="j" unicode="j" horiz-adv-x="248" 
d="M124 578q-36 0 -60 23t-24 57t24 56.5t60 22.5q35 0 59.5 -22.5t24.5 -56.5t-24 -57t-60 -23zM-15 -181v111q35 3 50 17.5t15 45.5v530h148v-533q0 -84 -48.5 -127t-164.5 -44z" />
    <glyph glyph-name="k" unicode="k" horiz-adv-x="496" 
d="M47 0v750h149v-443l131 216h153l-152 -238l162 -285h-164l-130 237v-237h-149z" />
    <glyph glyph-name="l" unicode="l" horiz-adv-x="250" 
d="M50 0v750h149v-750h-149z" />
    <glyph glyph-name="m" unicode="m" horiz-adv-x="794" 
d="M47 0v523h149v-72q42 83 138 83q92 0 123 -80q51 80 149 80q66 0 105 -43.5t39 -127.5v-363h-149v341q0 74 -58 74q-32 0 -51.5 -21.5t-19.5 -60.5v-333h-147v341q0 74 -59 74q-32 0 -51 -21.5t-19 -60.5v-333h-149z" />
    <glyph glyph-name="n" unicode="n" horiz-adv-x="531" 
d="M47 0v523h149v-74q42 85 145 85q68 0 107 -43.5t39 -128.5v-362h-149v337q0 78 -65 78q-35 0 -56 -22t-21 -64v-329h-149z" />
    <glyph glyph-name="o" unicode="o" horiz-adv-x="531" 
d="M265 -10q-104 0 -170.5 60.5t-66.5 166.5v86q0 107 66.5 169t171.5 62t171 -61t66 -167v-86q0 -107 -67 -168.5t-171 -61.5zM266 101q87 0 87 115v92q0 114 -87 114q-88 0 -88 -113v-92q0 -116 88 -116z" />
    <glyph glyph-name="p" unicode="p" horiz-adv-x="547" 
d="M47 523h149v-71q46 82 141 82q80 0 130.5 -58t50.5 -166v-95q0 -109 -51 -167t-134 -58q-49 0 -84.5 21t-52.5 57v-243h-149v698zM193 218q0 -116 89 -116q85 0 85 112v96q0 112 -85 112q-42 0 -65.5 -29.5t-23.5 -85.5v-89z" />
    <glyph glyph-name="q" unicode="q" horiz-adv-x="547" 
d="M500 523v-698h-149v247q-19 -36 -55.5 -59t-85.5 -23q-80 0 -130 57t-50 166v94q0 109 51 168t134 59q96 0 136 -78v67h149zM353 218v89q0 116 -87 116q-86 0 -86 -114v-95q0 -110 83 -110q43 0 66.5 29t23.5 85z" />
    <glyph glyph-name="r" unicode="r" horiz-adv-x="364" 
d="M47 0v523h149v-91q40 97 146 97v-144q-73 1 -109.5 -23.5t-36.5 -79.5v-282h-149z" />
    <glyph glyph-name="s" unicode="s" horiz-adv-x="455" 
d="M229 -10q-98 0 -152 43.5t-55 127.5h139q2 -36 17.5 -53t49.5 -17q58 0 58 51q0 26 -20.5 38t-75.5 27q-88 24 -124.5 61t-36.5 109q0 75 54.5 116t137.5 41q187 0 197 -161h-137q-6 61 -60 61q-26 0 -40 -12.5t-14 -33.5q0 -24 18 -35.5t69 -25.5q92 -24 134.5 -60
t42.5 -109q0 -83 -52.5 -125.5t-149.5 -42.5z" />
    <glyph glyph-name="t" unicode="t" horiz-adv-x="339" 
d="M70 630h150v-107h92v-105h-92v-254q0 -53 49 -53q29 0 44 7v-114q-33 -11 -78 -11q-165 0 -165 157v268h-56v105h56v107z" />
    <glyph glyph-name="u" unicode="u" horiz-adv-x="530" 
d="M483 523v-523h-149v72q-42 -83 -141 -83q-68 0 -109 43.5t-41 126.5v364h150v-342q0 -77 63 -77q36 0 57 21.5t21 63.5v334h149z" />
    <glyph glyph-name="v" unicode="v" horiz-adv-x="502" 
d="M168 0l-159 523h158l93 -358l91 358h142l-158 -523h-167z" />
    <glyph glyph-name="w" unicode="w" horiz-adv-x="727" 
d="M141 0l-131 523h155l66 -329l82 329h115l76 -329l72 329h140l-137 -523h-146l-70 302l-74 -302h-148z" />
    <glyph glyph-name="x" unicode="x" horiz-adv-x="507" 
d="M11 0l145 267l-136 256h167l73 -156l71 156h151l-137 -246l150 -277h-167l-82 173l-85 -173h-150z" />
    <glyph glyph-name="y" unicode="y" horiz-adv-x="502" 
d="M169 523l94 -300l88 300h142l-237 -698h-144l74 220l-177 478h160z" />
    <glyph glyph-name="z" unicode="z" horiz-adv-x="434" 
d="M11 0v15l205 393h-182v115h387v-17l-209 -391h198v-115h-399z" />
    <glyph glyph-name="braceleft" unicode="{" horiz-adv-x="362" 
d="M26 263v106q54 1 76.5 24.5t15.5 63.5l-17 105q-18 110 39 159.5t190 49.5v-108q-55 -2 -74 -23t-12 -73l17 -118q14 -105 -98 -131q112 -28 98 -133l-17 -120q-7 -53 12 -75t74 -24v-109q-132 0 -189.5 51t-39.5 158l17 109q7 40 -15.5 63.5t-76.5 24.5z" />
    <glyph glyph-name="bar" unicode="|" horiz-adv-x="233" 
d="M63 -143v914h108v-914h-108z" />
    <glyph glyph-name="braceright" unicode="}" horiz-adv-x="362" 
d="M335 263q-54 -1 -76.5 -24.5t-15.5 -63.5l18 -109q18 -107 -39.5 -158t-189.5 -51v109q55 2 74 24t12 75l-17 120q-14 105 98 133q-112 26 -98 131l17 118q7 52 -12 73t-74 23v108q133 0 190 -49.5t39 -159.5l-18 -105q-7 -40 15.5 -63.5t76.5 -24.5v-106z" />
    <glyph glyph-name="asciitilde" unicode="~" horiz-adv-x="447" 
d="M28 221q4 85 38.5 126t84.5 41q34 0 77.5 -19t55.5 -19q33 0 38 40h97q-4 -82 -39 -125t-83 -43q-35 0 -78.5 19.5t-55.5 19.5q-33 0 -38 -40h-97z" />
    <glyph glyph-name="uni00A0" unicode="&#xa0;" horiz-adv-x="168" 
 />
    <glyph glyph-name="exclamdown" unicode="&#xa1;" horiz-adv-x="285" 
d="M144 606q38 0 64 -24.5t26 -59.5q0 -36 -26 -61t-64 -25q-37 0 -63 25t-26 61q0 35 26 59.5t63 24.5zM205 380l23 -497h-168l23 497h122z" />
    <glyph glyph-name="cent" unicode="&#xa2;" horiz-adv-x="515" 
d="M241 -123v113q-97 9 -154.5 67.5t-57.5 161.5v80q0 103 58.5 164t153.5 70v88h57v-88q84 -6 136.5 -52.5t57.5 -137.5h-136q-6 66 -58 77v-322q62 13 66 88h131q-3 -87 -54.5 -138t-142.5 -58v-113h-57zM175 219q0 -102 66 -119v320q-66 -18 -66 -116v-85z" />
    <glyph glyph-name="sterling" unicode="&#xa3;" horiz-adv-x="564" 
d="M32 298v97h50q-16 68 -16 121v3q0 96 64.5 151t168.5 55q112 0 169 -54.5t61 -155.5h-155q-5 42 -21 61t-49 19q-34 0 -52.5 -21t-18.5 -61v-5q0 -43 9 -113h158v-97h-147q4 -32 4 -73q0 -42 -13 -76q12 -3 34 -10t36.5 -10.5t25.5 -3.5q51 0 55 52h146
q-3 -83 -46.5 -134t-122.5 -51q-48 0 -109.5 23t-78.5 23q-37 0 -42 -38h-125q7 113 85 149q10 32 10 74q0 35 -8 75h-72z" />
    <glyph glyph-name="yen" unicode="&#xa5;" horiz-adv-x="555" 
d="M58 177v68h139v48h-139v68h120l-165 354h180l96 -249l94 249h158l-157 -354h121v-68h-139v-48h139v-68h-139v-177h-169v177h-139z" />
    <glyph glyph-name="brokenbar" unicode="&#xa6;" horiz-adv-x="235" 
d="M63 370v401h107v-401h-107zM63 -143v442h107v-442h-107z" />
    <glyph glyph-name="section" unicode="&#xa7;" horiz-adv-x="526" 
d="M261 -122q-96 0 -147.5 43.5t-54.5 124.5h139q3 -63 60 -63q54 0 54 52v1q0 25 -22.5 41t-84.5 38q-94 33 -139.5 74t-45.5 113v1q0 48 28 82t78 48q-53 45 -53 123v1q0 76 54.5 121.5t141.5 45.5q89 0 138.5 -43.5t52.5 -123.5h-138q-3 60 -55 60q-54 0 -54 -49
q0 -26 21 -42t80 -36q97 -34 143.5 -74t46.5 -114v-2q0 -45 -27.5 -79t-76.5 -51q54 -44 54 -121v-2q0 -78 -51.5 -123.5t-141.5 -45.5zM262 243q8 -3 47 -20q52 13 52 55v1q0 26 -22 42t-75 38q-35 14 -47 20q-54 -12 -54 -55q0 -24 23 -41.5t76 -39.5z" />
    <glyph glyph-name="dieresis" unicode="&#xa8;" horiz-adv-x="400" 
d="M104 582q-32 0 -54 21.5t-22 52.5q0 32 22 53.5t54 21.5t54 -22t22 -53t-22 -52.5t-54 -21.5zM296 582q-32 0 -54 21.5t-22 52.5t22 53t54 22t54.5 -22t22.5 -53t-22.5 -52.5t-54.5 -21.5z" />
    <glyph glyph-name="copyright" unicode="&#xa9;" horiz-adv-x="759" 
d="M379 19q-146 0 -246 99t-100 246q0 146 100.5 246t247.5 100t246 -99.5t99 -245.5q0 -147 -100 -246.5t-247 -99.5zM379 67q122 0 206 83t84 215t-82.5 215t-205.5 83q-125 0 -208 -83.5t-83 -215.5t84 -214.5t205 -82.5zM384 166q-88 0 -134 46t-46 129v47
q0 81 49 128.5t128 47.5q152 0 161 -139h-108q-6 54 -53 54q-64 0 -64 -87v-53q0 -87 65 -87q53 0 59 56h104q-3 -69 -46 -105.5t-115 -36.5z" />
    <glyph glyph-name="ordfeminine" unicode="&#xaa;" horiz-adv-x="420" 
d="M149 289q-55 0 -90 31t-35 93v5q0 131 186 131h43v24q0 28 -10 41t-34 13q-42 0 -47 -45v-2h-126v1q4 69 51 106t128 37q171 0 171 -147v-279h-131v46q-29 -55 -106 -55zM197 381q56 0 56 53v38h-36q-32 0 -46.5 -10t-14.5 -33v-7q0 -41 41 -41z" />
    <glyph glyph-name="guillemotleft" unicode="&#xab;" horiz-adv-x="435" 
d="M139 81l-108 180l108 180h103l-104 -180l104 -180h-103zM302 81l-108 180l108 180h103l-104 -180l104 -180h-103z" />
    <glyph glyph-name="registered" unicode="&#xae;" horiz-adv-x="470" 
d="M235 315q-87 0 -147 59t-60 147q0 87 60 146.5t148 59.5t147.5 -59.5t59.5 -146.5q0 -88 -60 -147t-148 -59zM235 352q72 0 119.5 47.5t47.5 121.5q0 75 -46.5 122t-119.5 47q-74 0 -121 -47t-47 -122t47.5 -122t119.5 -47zM159 418v211h79q80 0 80 -65v-4q0 -39 -32 -53
l43 -89h-62l-35 77h-13v-77h-60zM219 535h16q24 0 24 23v4q0 21 -24 21h-16v-48z" />
    <glyph glyph-name="macron" unicode="&#xaf;" horiz-adv-x="400" 
d="M63 607v91h273v-91h-273z" />
    <glyph glyph-name="degree" unicode="&#xb0;" horiz-adv-x="399" 
d="M200 417q-66 0 -112 45t-46 107q0 65 46 110t112 45q65 0 111 -45.5t46 -109.5q0 -62 -46 -107t-111 -45zM200 482q34 0 56.5 25t22.5 62q0 39 -22 64t-57 25t-58 -25t-23 -64q0 -37 23 -62t58 -25z" />
    <glyph glyph-name="plusminus" unicode="&#xb1;" horiz-adv-x="496" 
d="M186 178v150h-153v111h153v150h123v-150h154v-111h-154v-150h-123zM33 17v104h432v-104h-432z" />
    <glyph glyph-name="twosuperior" unicode="&#xb2;" horiz-adv-x="318" 
d="M5 336v15l114 132q34 40 49 65t15 49v5q0 35 -31 35q-33 0 -37 -51v-2h-104v1q2 66 40.5 101t106.5 35q67 0 102 -30.5t35 -82.5v-3q0 -37 -18 -69t-54 -71l-39 -46h113v-83h-292z" />
    <glyph glyph-name="threesuperior" unicode="&#xb3;" horiz-adv-x="334" 
d="M166 329q-146 0 -149 124v2h101v-2q3 -44 41 -44t38 39v7q0 41 -46 41h-24v67h24q46 0 46 38v5q0 35 -33 35q-34 0 -39 -41v-2h-101v2q3 56 40 88.5t103 32.5q64 0 100.5 -27t36.5 -76v-5q0 -62 -64 -79q33 -5 52 -26.5t19 -54.5v-9q0 -53 -37.5 -84t-107.5 -31z" />
    <glyph glyph-name="acute" unicode="&#xb4;" horiz-adv-x="400" 
d="M137 583l48 158h156l-95 -158h-109z" />
    <glyph glyph-name="paragraph" unicode="&#xb6;" horiz-adv-x="505" 
d="M233 -88v444h-6q-93 0 -147 45t-54 132q0 89 55 135.5t146 46.5h218v-803h-75v740h-63v-740h-74z" />
    <glyph glyph-name="periodcentered" unicode="&#xb7;" horiz-adv-x="263" 
d="M131 239q-38 0 -64 25t-26 62t26 63t64 26t64 -26t26 -63t-26 -62t-64 -25z" />
    <glyph glyph-name="cedilla" unicode="&#xb8;" horiz-adv-x="400" 
d="M206 -216q-50 0 -81 23t-36 65h77q4 -27 33 -27q15 0 23.5 8t8.5 21q0 14 -8.5 22.5t-23.5 8.5q-17 0 -30 -11l-36 35l45 71h65l-28 -44q42 5 71.5 -16.5t29.5 -65.5q0 -43 -30 -66.5t-80 -23.5z" />
    <glyph glyph-name="onesuperior" unicode="&#xb9;" horiz-adv-x="256" 
d="M94 336v266l-74 -46v95l90 64h98v-379h-114z" />
    <glyph glyph-name="ordmasculine" unicode="&#xba;" horiz-adv-x="455" 
d="M227 289q-89 0 -144.5 50.5t-55.5 139.5v51q0 90 56 142t145 52q88 0 144 -51t56 -140v-51q0 -90 -56 -141.5t-145 -51.5zM228 389q64 0 64 88v59q0 87 -64 87q-65 0 -65 -87v-58q0 -89 65 -89z" />
    <glyph glyph-name="guillemotright" unicode="&#xbb;" horiz-adv-x="435" 
d="M29 81l106 180l-106 180h104l108 -180l-108 -180h-104zM192 81l105 180l-105 180h104l108 -180l-108 -180h-104z" />
    <glyph glyph-name="onequarter" unicode="&#xbc;" horiz-adv-x="724" 
d="M97 332v270l-74 -47v96l89 64h100v-383h-115zM52 0l514 715h84l-513 -715h-85zM548 0v76h-170v39l143 268h137v-230h44v-77h-44v-76h-110zM477 153h74v150z" />
    <glyph glyph-name="onehalf" unicode="&#xbd;" horiz-adv-x="743" 
d="M47 0l514 715h84l-513 -715h-85zM97 332v270l-74 -47v96l89 64h100v-383h-115zM426 0v14l114 135q65 76 65 115v4q0 36 -31 36q-34 0 -38 -54h-104q2 68 40.5 103.5t106.5 35.5t102.5 -30.5t34.5 -83.5v-4q0 -37 -18 -69t-54 -72l-41 -47h115v-83h-292z" />
    <glyph glyph-name="threequarters" unicode="&#xbe;" horiz-adv-x="760" 
d="M169 326q-146 0 -149 126h101q3 -46 41 -46t38 39v9q0 39 -46 39h-24v68h24q46 0 46 39v4q0 37 -33 37q-36 0 -39 -44h-101q3 58 39.5 91t103.5 33q65 0 101 -27t36 -76v-6q0 -62 -64 -79q33 -6 52 -28t19 -56v-8q0 -54 -37 -84.5t-108 -30.5zM101 0l514 715h84
l-513 -715h-85zM583 0v76h-170v39l143 268h137v-230h44v-77h-44v-76h-110zM512 153h74v150z" />
    <glyph glyph-name="questiondown" unicode="&#xbf;" horiz-adv-x="484" 
d="M268 607q38 0 64 -24.5t26 -60.5q0 -37 -26 -61.5t-64 -24.5t-64 24.5t-26 61.5q0 36 26 60.5t64 24.5zM338 381v-33q0 -36 -14 -69t-26.5 -49t-44.5 -54q-2 -3 -7 -8q-20 -23 -29 -34.5t-17 -31t-8 -40.5q0 -64 58 -64q64 0 71 85h146q-3 -101 -62.5 -155t-163.5 -54
q-101 0 -155 46t-54 133q0 48 17.5 83t53.5 77q6 7 22.5 24t23 24t18 21.5t16.5 24t9.5 23t5.5 26.5v25h140z" />
    <glyph glyph-name="Agrave" unicode="&#xc0;" horiz-adv-x="616" 
d="M258 758l-90 138h160l44 -138h-114zM429 0l-33 147h-195l-33 -147h-154l182 715h225l181 -715h-173zM298 576l-70 -312h141z" />
    <glyph glyph-name="Aacute" unicode="&#xc1;" horiz-adv-x="616" 
d="M243 758l46 138h160l-92 -138h-114zM429 0l-33 147h-195l-33 -147h-154l182 715h225l181 -715h-173zM298 576l-70 -312h141z" />
    <glyph glyph-name="Acircumflex" unicode="&#xc2;" horiz-adv-x="616" 
d="M144 758l100 138h128l98 -138h-107l-57 49l-58 -49h-104zM429 0l-33 147h-195l-33 -147h-154l182 715h225l181 -715h-173zM298 576l-70 -312h141z" />
    <glyph glyph-name="Atilde" unicode="&#xc3;" horiz-adv-x="616" 
d="M365 758q-27 0 -62 16t-46 16q-23 0 -30 -32h-86q5 68 34.5 103.5t72.5 35.5q26 0 62 -15.5t48 -15.5q23 0 29 32h86q-5 -69 -35 -104.5t-73 -35.5zM429 0l-33 147h-195l-33 -147h-154l182 715h225l181 -715h-173zM298 576l-70 -312h141z" />
    <glyph glyph-name="Adieresis" unicode="&#xc4;" horiz-adv-x="616" 
d="M207 760q-31 0 -53 21t-22 52t22 52t53 21t53.5 -21.5t22.5 -51.5t-22.5 -51.5t-53.5 -21.5zM406 760q-31 0 -52.5 21t-21.5 52t21.5 52t52.5 21q32 0 54 -21t22 -52t-22 -52t-54 -21zM429 0l-33 147h-195l-33 -147h-154l182 715h225l181 -715h-173zM298 576l-70 -312
h141z" />
    <glyph glyph-name="Aring" unicode="&#xc5;" horiz-adv-x="616" 
d="M307 744q-46 0 -77.5 30.5t-31.5 74.5t31.5 74.5t77.5 30.5t77.5 -30.5t31.5 -74.5t-31.5 -74.5t-77.5 -30.5zM307 802q19 0 31 13.5t12 33.5t-12 33.5t-31 13.5t-31 -13t-12 -34t12 -34t31 -13zM429 0l-33 147h-195l-33 -147h-154l182 715h225l181 -715h-173zM298 576
l-70 -312h141z" />
    <glyph glyph-name="AE" unicode="&#xc6;" horiz-adv-x="833" 
d="M12 0l254 715h525v-130h-238v-156h188v-121h-188v-178h251v-130h-417v155h-166l-52 -155h-157zM366 585l-106 -316h127v316h-21z" />
    <glyph glyph-name="Ccedilla" unicode="&#xc7;" horiz-adv-x="631" 
d="M321 -216q-50 0 -81 23t-36 65h77q4 -27 33 -27q15 0 23.5 8t8.5 21q0 14 -8.5 22.5t-23.5 8.5q-17 0 -30 -11l-36 35l40 62q-122 13 -187 91t-65 207v136q0 138 82.5 219t211.5 81q121 0 193 -59t80 -183h-170q-5 58 -30 84.5t-73 26.5q-58 0 -89 -42.5t-31 -123.5v-140
q0 -166 123 -166q104 0 112 117h164q-7 -120 -75 -182.5t-183 -67.5l-21 -33q42 5 71.5 -16.5t29.5 -65.5q0 -43 -30 -66.5t-80 -23.5z" />
    <glyph glyph-name="Egrave" unicode="&#xc8;" horiz-adv-x="515" 
d="M218 758l-90 138h160l44 -138h-114zM58 0v715h413v-130h-247v-156h197v-121h-197v-178h261v-130h-427z" />
    <glyph glyph-name="Eacute" unicode="&#xc9;" horiz-adv-x="515" 
d="M204 758l46 138h160l-92 -138h-114zM58 0v715h413v-130h-247v-156h197v-121h-197v-178h261v-130h-427z" />
    <glyph glyph-name="Ecircumflex" unicode="&#xca;" horiz-adv-x="515" 
d="M105 758l100 138h128l98 -138h-107l-57 49l-58 -49h-104zM58 0v715h413v-130h-247v-156h197v-121h-197v-178h261v-130h-427z" />
    <glyph glyph-name="Edieresis" unicode="&#xcb;" horiz-adv-x="515" 
d="M168 760q-31 0 -53 21t-22 52t22 52t53 21t53.5 -21.5t22.5 -51.5t-22.5 -51.5t-53.5 -21.5zM367 760q-31 0 -52.5 21t-21.5 52t21.5 52t52.5 21q32 0 54 -21t22 -52t-22 -52t-54 -21zM58 0v715h413v-130h-247v-156h197v-121h-197v-178h261v-130h-427z" />
    <glyph glyph-name="Igrave" unicode="&#xcc;" horiz-adv-x="292" 
d="M96 758l-90 138h160l44 -138h-114zM62 0v715h168v-715h-168z" />
    <glyph glyph-name="Iacute" unicode="&#xcd;" horiz-adv-x="292" 
d="M82 758l46 138h160l-92 -138h-114zM62 0v715h168v-715h-168z" />
    <glyph glyph-name="Icircumflex" unicode="&#xce;" horiz-adv-x="292" 
d="M-17 758l100 138h128l98 -138h-107l-57 49l-58 -49h-104zM62 0v715h168v-715h-168z" />
    <glyph glyph-name="Idieresis" unicode="&#xcf;" horiz-adv-x="292" 
d="M46 760q-31 0 -53 21t-22 52t22 52t53 21t53.5 -21.5t22.5 -51.5t-22.5 -51.5t-53.5 -21.5zM245 760q-31 0 -52.5 21t-21.5 52t21.5 52t52.5 21q32 0 54 -21t22 -52t-22 -52t-54 -21zM62 0v715h168v-715h-168z" />
    <glyph glyph-name="Eth" unicode="&#xd0;" horiz-adv-x="653" 
d="M75 0v303h-51v119h51v293h224q158 0 238 -74.5t80 -220.5v-120q0 -146 -80.5 -223t-236.5 -77h-225zM242 131h52q78 0 113.5 40.5t35.5 127.5v118q0 89 -35 128t-115 39h-51v-162h107v-119h-107v-172z" />
    <glyph glyph-name="Ntilde" unicode="&#xd1;" horiz-adv-x="649" 
d="M396 758q-27 0 -62 16t-46 16q-23 0 -30 -32h-86q5 68 34.5 103.5t72.5 35.5q26 0 62 -15.5t48 -15.5q23 0 29 32h86q-5 -69 -35 -104.5t-73 -35.5zM58 0v715h189l195 -433v433h148v-715h-163l-220 482v-482h-149z" />
    <glyph glyph-name="Ograve" unicode="&#xd2;" horiz-adv-x="681" 
d="M290 758l-90 138h160l44 -138h-114zM339 -11q-139 0 -220.5 80.5t-81.5 217.5v139q0 136 85 217.5t219 81.5q136 0 219.5 -78.5t83.5 -217.5v-138q0 -139 -82.5 -220.5t-222.5 -81.5zM341 122q62 0 96.5 43.5t34.5 123.5v138q0 78 -34.5 122t-96.5 44q-63 0 -97.5 -43
t-34.5 -123v-139q0 -80 35 -123t97 -43z" />
    <glyph glyph-name="Oacute" unicode="&#xd3;" horiz-adv-x="681" 
d="M275 758l46 138h160l-92 -138h-114zM339 -11q-139 0 -220.5 80.5t-81.5 217.5v139q0 136 85 217.5t219 81.5q136 0 219.5 -78.5t83.5 -217.5v-138q0 -139 -82.5 -220.5t-222.5 -81.5zM341 122q62 0 96.5 43.5t34.5 123.5v138q0 78 -34.5 122t-96.5 44q-63 0 -97.5 -43
t-34.5 -123v-139q0 -80 35 -123t97 -43z" />
    <glyph glyph-name="Ocircumflex" unicode="&#xd4;" horiz-adv-x="681" 
d="M177 758l100 138h128l98 -138h-107l-57 49l-58 -49h-104zM339 -11q-139 0 -220.5 80.5t-81.5 217.5v139q0 136 85 217.5t219 81.5q136 0 219.5 -78.5t83.5 -217.5v-138q0 -139 -82.5 -220.5t-222.5 -81.5zM341 122q62 0 96.5 43.5t34.5 123.5v138q0 78 -34.5 122
t-96.5 44q-63 0 -97.5 -43t-34.5 -123v-139q0 -80 35 -123t97 -43z" />
    <glyph glyph-name="Otilde" unicode="&#xd5;" horiz-adv-x="681" 
d="M398 758q-27 0 -62 16t-46 16q-23 0 -30 -32h-86q5 68 34.5 103.5t72.5 35.5q26 0 62 -15.5t48 -15.5q23 0 29 32h86q-5 -69 -35 -104.5t-73 -35.5zM339 -11q-139 0 -220.5 80.5t-81.5 217.5v139q0 136 85 217.5t219 81.5q136 0 219.5 -78.5t83.5 -217.5v-138
q0 -139 -82.5 -220.5t-222.5 -81.5zM341 122q62 0 96.5 43.5t34.5 123.5v138q0 78 -34.5 122t-96.5 44q-63 0 -97.5 -43t-34.5 -123v-139q0 -80 35 -123t97 -43z" />
    <glyph glyph-name="Odieresis" unicode="&#xd6;" horiz-adv-x="681" 
d="M239 760q-31 0 -53 21t-22 52t22 52t53 21t53.5 -21.5t22.5 -51.5t-22.5 -51.5t-53.5 -21.5zM438 760q-31 0 -52.5 21t-21.5 52t21.5 52t52.5 21q32 0 54 -21t22 -52t-22 -52t-54 -21zM339 -11q-139 0 -220.5 80.5t-81.5 217.5v139q0 136 85 217.5t219 81.5
q136 0 219.5 -78.5t83.5 -217.5v-138q0 -139 -82.5 -220.5t-222.5 -81.5zM341 122q62 0 96.5 43.5t34.5 123.5v138q0 78 -34.5 122t-96.5 44q-63 0 -97.5 -43t-34.5 -123v-139q0 -80 35 -123t97 -43z" />
    <glyph glyph-name="multiply" unicode="&#xd7;" horiz-adv-x="481" 
d="M112 122l-80 77l131 135l-133 136l81 79l129 -134l129 132l80 -78l-131 -135l133 -136l-81 -78l-130 134z" />
    <glyph glyph-name="Oslash" unicode="&#xd8;" horiz-adv-x="680" 
d="M75 -29l-48 39l66 85q-61 80 -61 196v132q0 137 87 219.5t221 82.5q118 0 198 -59l54 70l48 -39l-57 -73q66 -79 66 -198v-131q0 -140 -85 -223t-225 -83q-121 0 -202 62zM202 288q0 -28 4 -48l239 307q-36 47 -105 47q-65 0 -101.5 -44.5t-36.5 -125.5v-136zM342 121
q63 0 99.5 45.5t36.5 126.5v137q0 27 -5 52l-240 -308q36 -53 109 -53z" />
    <glyph glyph-name="Ugrave" unicode="&#xd9;" horiz-adv-x="640" 
d="M266 758l-90 138h160l44 -138h-114zM417 715h168v-469q0 -128 -69.5 -192.5t-197.5 -64.5q-127 0 -195 64.5t-68 190.5v471h167v-465q0 -68 22 -98t75 -30t75.5 30.5t22.5 100.5v462z" />
    <glyph glyph-name="Uacute" unicode="&#xda;" horiz-adv-x="640" 
d="M253 758l46 138h160l-92 -138h-114zM417 715h168v-469q0 -128 -69.5 -192.5t-197.5 -64.5q-127 0 -195 64.5t-68 190.5v471h167v-465q0 -68 22 -98t75 -30t75.5 30.5t22.5 100.5v462z" />
    <glyph glyph-name="Ucircumflex" unicode="&#xdb;" horiz-adv-x="640" 
d="M153 758l100 138h128l98 -138h-107l-57 49l-58 -49h-104zM417 715h168v-469q0 -128 -69.5 -192.5t-197.5 -64.5q-127 0 -195 64.5t-68 190.5v471h167v-465q0 -68 22 -98t75 -30t75.5 30.5t22.5 100.5v462z" />
    <glyph glyph-name="Udieresis" unicode="&#xdc;" horiz-adv-x="640" 
d="M216 760q-31 0 -53 21t-22 52t22 52t53 21t53.5 -21.5t22.5 -51.5t-22.5 -51.5t-53.5 -21.5zM415 760q-31 0 -52.5 21t-21.5 52t21.5 52t52.5 21q32 0 54 -21t22 -52t-22 -52t-54 -21zM417 715h168v-469q0 -128 -69.5 -192.5t-197.5 -64.5q-127 0 -195 64.5t-68 190.5
v471h167v-465q0 -68 22 -98t75 -30t75.5 30.5t22.5 100.5v462z" />
    <glyph glyph-name="Yacute" unicode="&#xdd;" horiz-adv-x="569" 
d="M226 758l46 138h160l-92 -138h-114zM205 0v305l-197 410h181l107 -259l107 259h158l-188 -410v-305h-168z" />
    <glyph glyph-name="Thorn" unicode="&#xde;" horiz-adv-x="562" 
d="M59 0v715h168v-127h61q128 0 189 -51t61 -156v-24q0 -206 -244 -206h-67v-151h-168zM227 268h56q93 0 93 90v21q0 46 -23 66t-70 20h-56v-197z" />
    <glyph glyph-name="germandbls" unicode="&#xdf;" horiz-adv-x="547" 
d="M320 -7q-46 0 -75 9v112q30 -6 41 -6q83 0 83 104v59q0 121 -118 116v107q87 -1 87 85v4q0 78 -70 78q-33 0 -51.5 -22.5t-18.5 -63.5v-575h-151v566q0 98 64.5 148.5t164.5 50.5q97 0 151.5 -46t54.5 -132v-4q0 -50 -28 -86t-77 -50q66 -15 105.5 -62t39.5 -127v-52
q0 -107 -53.5 -160t-148.5 -53z" />
    <glyph glyph-name="agrave" unicode="&#xe0;" horiz-adv-x="499" 
d="M199 583l-96 158h157l49 -158h-110zM178 -10q-67 0 -109.5 38t-42.5 113v12q0 85 58.5 122t170.5 37h52v37q0 40 -13 59t-48 19q-58 0 -63 -64h-141q4 85 60 128t151 43q202 0 202 -179v-355h-145v56q-41 -66 -132 -66zM230 92q36 0 56.5 18.5t20.5 54.5v55h-46
q-46 0 -67 -13.5t-21 -45.5v-11q0 -58 57 -58z" />
    <glyph glyph-name="aacute" unicode="&#xe1;" horiz-adv-x="499" 
d="M190 583l48 158h156l-95 -158h-109zM178 -10q-67 0 -109.5 38t-42.5 113v12q0 85 58.5 122t170.5 37h52v37q0 40 -13 59t-48 19q-58 0 -63 -64h-141q4 85 60 128t151 43q202 0 202 -179v-355h-145v56q-41 -66 -132 -66zM230 92q36 0 56.5 18.5t20.5 54.5v55h-46
q-46 0 -67 -13.5t-21 -45.5v-11q0 -58 57 -58z" />
    <glyph glyph-name="acircumflex" unicode="&#xe2;" horiz-adv-x="499" 
d="M86 584l105 156h115l101 -156h-104l-57 59l-58 -59h-102zM178 -10q-67 0 -109.5 38t-42.5 113v12q0 85 58.5 122t170.5 37h52v37q0 40 -13 59t-48 19q-58 0 -63 -64h-141q4 85 60 128t151 43q202 0 202 -179v-355h-145v56q-41 -66 -132 -66zM230 92q36 0 56.5 18.5
t20.5 54.5v55h-46q-46 0 -67 -13.5t-21 -45.5v-11q0 -58 57 -58z" />
    <glyph glyph-name="atilde" unicode="&#xe3;" horiz-adv-x="499" 
d="M304 588q-27 0 -60 16t-43 16q-24 0 -29 -33h-83q4 70 31 106t70 36q26 0 60 -16t46 -16q22 0 29 33h83q-4 -70 -33 -106t-71 -36zM178 -10q-67 0 -109.5 38t-42.5 113v12q0 85 58.5 122t170.5 37h52v37q0 40 -13 59t-48 19q-58 0 -63 -64h-141q4 85 60 128t151 43
q202 0 202 -179v-355h-145v56q-41 -66 -132 -66zM230 92q36 0 56.5 18.5t20.5 54.5v55h-46q-46 0 -67 -13.5t-21 -45.5v-11q0 -58 57 -58z" />
    <glyph glyph-name="adieresis" unicode="&#xe4;" horiz-adv-x="499" 
d="M152 582q-32 0 -54 21.5t-22 52.5q0 32 22 53.5t54 21.5t54 -22t22 -53t-22 -52.5t-54 -21.5zM344 582q-32 0 -54 21.5t-22 52.5t22 53t54 22t54.5 -22t22.5 -53t-22.5 -52.5t-54.5 -21.5zM178 -10q-67 0 -109.5 38t-42.5 113v12q0 85 58.5 122t170.5 37h52v37
q0 40 -13 59t-48 19q-58 0 -63 -64h-141q4 85 60 128t151 43q202 0 202 -179v-355h-145v56q-41 -66 -132 -66zM230 92q36 0 56.5 18.5t20.5 54.5v55h-46q-46 0 -67 -13.5t-21 -45.5v-11q0 -58 57 -58z" />
    <glyph glyph-name="aring" unicode="&#xe5;" horiz-adv-x="499" 
d="M248 578q-45 0 -76.5 30.5t-31.5 73.5q0 44 31.5 75t76.5 31t76.5 -31t31.5 -75q0 -43 -31.5 -73.5t-76.5 -30.5zM248 636q19 0 31 13t12 33q0 21 -12 34t-31 13t-31 -13t-12 -34q0 -20 12 -33t31 -13zM178 -10q-67 0 -109.5 38t-42.5 113v12q0 85 58.5 122t170.5 37h52
v37q0 40 -13 59t-48 19q-58 0 -63 -64h-141q4 85 60 128t151 43q202 0 202 -179v-355h-145v56q-41 -66 -132 -66zM230 92q36 0 56.5 18.5t20.5 54.5v55h-46q-46 0 -67 -13.5t-21 -45.5v-11q0 -58 57 -58z" />
    <glyph glyph-name="ae" unicode="&#xe6;" horiz-adv-x="780" 
d="M198 -10q-78 0 -125 39.5t-47 113.5v13q0 162 228 162h53v32q0 40 -13.5 58.5t-47.5 18.5q-57 0 -63 -64h-140q4 83 59.5 127t147.5 44q101 0 140 -54q54 54 143 54q98 0 159 -57t61 -171v-79h-304v-11q0 -120 86 -120q70 0 79 67h140q-17 -173 -221 -173q-119 0 -171 79
q-53 -79 -164 -79zM531 432q-78 0 -82 -114h160v16q0 98 -78 98zM230 92q36 0 56.5 19t20.5 54v62h-46q-47 0 -68 -13.5t-21 -48.5v-15q0 -58 58 -58z" />
    <glyph glyph-name="ccedilla" unicode="&#xe7;" horiz-adv-x="500" 
d="M250 -216q-50 0 -81 23t-36 65h77q4 -27 33 -27q15 0 23.5 8t8.5 21q0 14 -8.5 22.5t-23.5 8.5q-17 0 -30 -11l-36 35l40 64q-87 11 -138 67.5t-51 155.5v86q0 111 65 171.5t166 60.5q93 0 152 -45.5t64 -147.5h-140q-5 78 -73 78q-84 0 -84 -112v-92q0 -115 87 -115
q74 0 78 89h134q-2 -92 -52.5 -142.5t-143.5 -55.5l-22 -35q42 5 71.5 -16.5t29.5 -65.5q0 -43 -30 -66.5t-80 -23.5z" />
    <glyph glyph-name="egrave" unicode="&#xe8;" horiz-adv-x="512" 
d="M209 583l-96 158h157l49 -158h-110zM264 -10q-108 0 -172 59.5t-64 168.5v84q0 108 65.5 170t167.5 62q100 0 162 -56.5t62 -171.5v-80h-309v-11q0 -119 91 -119q71 0 79 67h140q-7 -85 -64 -129t-158 -44zM262 432q-81 0 -86 -112h166v7q0 105 -80 105z" />
    <glyph glyph-name="eacute" unicode="&#xe9;" horiz-adv-x="512" 
d="M200 583l48 158h156l-95 -158h-109zM264 -10q-108 0 -172 59.5t-64 168.5v84q0 108 65.5 170t167.5 62q100 0 162 -56.5t62 -171.5v-80h-309v-11q0 -119 91 -119q71 0 79 67h140q-7 -85 -64 -129t-158 -44zM262 432q-81 0 -86 -112h166v7q0 105 -80 105z" />
    <glyph glyph-name="ecircumflex" unicode="&#xea;" horiz-adv-x="512" 
d="M97 584l105 156h115l101 -156h-104l-57 59l-58 -59h-102zM264 -10q-108 0 -172 59.5t-64 168.5v84q0 108 65.5 170t167.5 62q100 0 162 -56.5t62 -171.5v-80h-309v-11q0 -119 91 -119q71 0 79 67h140q-7 -85 -64 -129t-158 -44zM262 432q-81 0 -86 -112h166v7
q0 105 -80 105z" />
    <glyph glyph-name="edieresis" unicode="&#xeb;" horiz-adv-x="512" 
d="M162 582q-32 0 -54 21.5t-22 52.5q0 32 22 53.5t54 21.5t54 -22t22 -53t-22 -52.5t-54 -21.5zM354 582q-32 0 -54 21.5t-22 52.5t22 53t54 22t54.5 -22t22.5 -53t-22.5 -52.5t-54.5 -21.5zM264 -10q-108 0 -172 59.5t-64 168.5v84q0 108 65.5 170t167.5 62
q100 0 162 -56.5t62 -171.5v-80h-309v-11q0 -119 91 -119q71 0 79 67h140q-7 -85 -64 -129t-158 -44zM262 432q-81 0 -86 -112h166v7q0 105 -80 105z" />
    <glyph glyph-name="igrave" unicode="&#xec;" horiz-adv-x="249" 
d="M77 583l-96 158h157l49 -158h-110zM50 0v523h149v-523h-149z" />
    <glyph glyph-name="iacute" unicode="&#xed;" horiz-adv-x="249" 
d="M67 583l48 158h156l-95 -158h-109zM50 0v523h149v-523h-149z" />
    <glyph glyph-name="icircumflex" unicode="&#xee;" horiz-adv-x="249" 
d="M-35 584l105 156h115l101 -156h-104l-57 59l-58 -59h-102zM50 0v523h149v-523h-149z" />
    <glyph glyph-name="idieresis" unicode="&#xef;" horiz-adv-x="249" 
d="M32 582q-31 0 -52.5 21.5t-21.5 52.5t21.5 52.5t52.5 21.5t53 -21.5t22 -52.5t-22 -52.5t-53 -21.5zM216 582q-31 0 -52.5 21.5t-21.5 52.5t21.5 52.5t52.5 21.5t53 -21.5t22 -52.5t-22 -52.5t-53 -21.5zM50 0v523h149v-523h-149z" />
    <glyph glyph-name="eth" unicode="&#xf0;" horiz-adv-x="536" 
d="M265 -11q-106 0 -172 63t-66 173v81q0 104 57 164t135 60q63 0 104 -48q-28 64 -91 133l-120 -48l-24 53l99 40q-56 50 -117 92h178q22 -12 63 -42l90 36l24 -54l-65 -26q148 -144 148 -339v-94q0 -113 -66 -178.5t-177 -65.5zM268 102q87 0 87 116v88q0 117 -87 117
q-43 0 -66 -29.5t-23 -85.5v-88q0 -118 89 -118z" />
    <glyph glyph-name="ntilde" unicode="&#xf1;" horiz-adv-x="531" 
d="M323 588q-27 0 -60 16t-43 16q-24 0 -29 -33h-83q4 70 31 106t70 36q26 0 60 -16t46 -16q22 0 29 33h83q-4 -70 -33 -106t-71 -36zM47 0v523h149v-74q42 85 145 85q68 0 107 -43.5t39 -128.5v-362h-149v337q0 78 -65 78q-35 0 -56 -22t-21 -64v-329h-149z" />
    <glyph glyph-name="ograve" unicode="&#xf2;" horiz-adv-x="531" 
d="M215 583l-96 158h157l49 -158h-110zM265 -10q-104 0 -170.5 60.5t-66.5 166.5v86q0 107 66.5 169t171.5 62t171 -61t66 -167v-86q0 -107 -67 -168.5t-171 -61.5zM266 101q87 0 87 115v92q0 114 -87 114q-88 0 -88 -113v-92q0 -116 88 -116z" />
    <glyph glyph-name="oacute" unicode="&#xf3;" horiz-adv-x="531" 
d="M206 583l48 158h156l-95 -158h-109zM265 -10q-104 0 -170.5 60.5t-66.5 166.5v86q0 107 66.5 169t171.5 62t171 -61t66 -167v-86q0 -107 -67 -168.5t-171 -61.5zM266 101q87 0 87 115v92q0 114 -87 114q-88 0 -88 -113v-92q0 -116 88 -116z" />
    <glyph glyph-name="ocircumflex" unicode="&#xf4;" horiz-adv-x="531" 
d="M103 584l105 156h115l101 -156h-104l-57 59l-58 -59h-102zM265 -10q-104 0 -170.5 60.5t-66.5 166.5v86q0 107 66.5 169t171.5 62t171 -61t66 -167v-86q0 -107 -67 -168.5t-171 -61.5zM266 101q87 0 87 115v92q0 114 -87 114q-88 0 -88 -113v-92q0 -116 88 -116z" />
    <glyph glyph-name="otilde" unicode="&#xf5;" horiz-adv-x="531" 
d="M320 588q-27 0 -60 16t-43 16q-24 0 -29 -33h-83q4 70 31 106t70 36q26 0 60 -16t46 -16q22 0 29 33h83q-4 -70 -33 -106t-71 -36zM265 -10q-104 0 -170.5 60.5t-66.5 166.5v86q0 107 66.5 169t171.5 62t171 -61t66 -167v-86q0 -107 -67 -168.5t-171 -61.5zM266 101
q87 0 87 115v92q0 114 -87 114q-88 0 -88 -113v-92q0 -116 88 -116z" />
    <glyph glyph-name="odieresis" unicode="&#xf6;" horiz-adv-x="531" 
d="M168 582q-32 0 -54 21.5t-22 52.5q0 32 22 53.5t54 21.5t54 -22t22 -53t-22 -52.5t-54 -21.5zM360 582q-32 0 -54 21.5t-22 52.5t22 53t54 22t54.5 -22t22.5 -53t-22.5 -52.5t-54.5 -21.5zM265 -10q-104 0 -170.5 60.5t-66.5 166.5v86q0 107 66.5 169t171.5 62t171 -61
t66 -167v-86q0 -107 -67 -168.5t-171 -61.5zM266 101q87 0 87 115v92q0 114 -87 114q-88 0 -88 -113v-92q0 -116 88 -116z" />
    <glyph glyph-name="divide" unicode="&#xf7;" horiz-adv-x="497" 
d="M249 442q-35 0 -59 23.5t-24 57.5t24 57t59 23q34 0 58 -23t24 -57t-24 -57.5t-58 -23.5zM33 287v107h432v-107h-432zM249 78q-35 0 -59 23t-24 57t24 57.5t59 23.5q34 0 58 -23.5t24 -57.5t-24 -57t-58 -23z" />
    <glyph glyph-name="oslash" unicode="&#xf8;" horiz-adv-x="530" 
d="M65 -33l-45 36l55 68q-49 60 -49 149v79q0 109 67 172t173 63q85 0 147 -42l49 61l46 -34l-53 -65q50 -61 50 -151v-79q0 -109 -67 -171.5t-173 -62.5q-86 0 -148 42zM174 217q0 -15 1 -21l159 197q-24 30 -68 30t-68 -29.5t-24 -85.5v-91zM266 101q91 0 91 117v90
q0 15 -1 22l-159 -199q22 -30 69 -30z" />
    <glyph glyph-name="ugrave" unicode="&#xf9;" horiz-adv-x="530" 
d="M214 583l-96 158h157l49 -158h-110zM483 523v-523h-149v72q-42 -83 -141 -83q-68 0 -109 43.5t-41 126.5v364h150v-342q0 -77 63 -77q36 0 57 21.5t21 63.5v334h149z" />
    <glyph glyph-name="uacute" unicode="&#xfa;" horiz-adv-x="530" 
d="M205 583l48 158h156l-95 -158h-109zM483 523v-523h-149v72q-42 -83 -141 -83q-68 0 -109 43.5t-41 126.5v364h150v-342q0 -77 63 -77q36 0 57 21.5t21 63.5v334h149z" />
    <glyph glyph-name="ucircumflex" unicode="&#xfb;" horiz-adv-x="530" 
d="M103 584l105 156h115l101 -156h-104l-57 59l-58 -59h-102zM483 523v-523h-149v72q-42 -83 -141 -83q-68 0 -109 43.5t-41 126.5v364h150v-342q0 -77 63 -77q36 0 57 21.5t21 63.5v334h149z" />
    <glyph glyph-name="udieresis" unicode="&#xfc;" horiz-adv-x="530" 
d="M167 582q-32 0 -54 21.5t-22 52.5q0 32 22 53.5t54 21.5t54 -22t22 -53t-22 -52.5t-54 -21.5zM359 582q-32 0 -54 21.5t-22 52.5t22 53t54 22t54.5 -22t22.5 -53t-22.5 -52.5t-54.5 -21.5zM483 523v-523h-149v72q-42 -83 -141 -83q-68 0 -109 43.5t-41 126.5v364h150
v-342q0 -77 63 -77q36 0 57 21.5t21 63.5v334h149z" />
    <glyph glyph-name="yacute" unicode="&#xfd;" horiz-adv-x="502" 
d="M200 583l48 158h156l-95 -158h-109zM169 523l94 -300l88 300h142l-237 -698h-144l74 220l-177 478h160z" />
    <glyph glyph-name="thorn" unicode="&#xfe;" horiz-adv-x="551" 
d="M47 -175v926h151v-299q45 82 142 82q81 0 132.5 -59.5t51.5 -170.5v-84q0 -111 -51.5 -170.5t-135.5 -59.5q-50 0 -86 21.5t-53 57.5v-244h-151zM284 104q87 0 87 115v86q0 116 -86 116q-43 0 -66.5 -30t-23.5 -87v-84q0 -116 89 -116z" />
    <glyph glyph-name="ydieresis" unicode="&#xff;" horiz-adv-x="502" 
d="M162 582q-32 0 -54 21.5t-22 52.5q0 32 22 53.5t54 21.5t54 -22t22 -53t-22 -52.5t-54 -21.5zM354 582q-32 0 -54 21.5t-22 52.5t22 53t54 22t54.5 -22t22.5 -53t-22.5 -52.5t-54.5 -21.5zM169 523l94 -300l88 300h142l-237 -698h-144l74 220l-177 478h160z" />
    <glyph glyph-name="Amacron" unicode="&#x100;" horiz-adv-x="616" 
d="M164 769v96h286v-96h-286zM429 0l-33 147h-195l-33 -147h-154l182 715h225l181 -715h-173zM298 576l-70 -312h141z" />
    <glyph glyph-name="amacron" unicode="&#x101;" horiz-adv-x="499" 
d="M112 607v91h273v-91h-273zM178 -10q-67 0 -109.5 38t-42.5 113v12q0 85 58.5 122t170.5 37h52v37q0 40 -13 59t-48 19q-58 0 -63 -64h-141q4 85 60 128t151 43q202 0 202 -179v-355h-145v56q-41 -66 -132 -66zM230 92q36 0 56.5 18.5t20.5 54.5v55h-46q-46 0 -67 -13.5
t-21 -45.5v-11q0 -58 57 -58z" />
    <glyph glyph-name="Abreve" unicode="&#x102;" horiz-adv-x="616" 
d="M306 752q-64 0 -103 37t-43 103h98q5 -44 48 -44q45 0 50 44h98q-4 -66 -44 -103t-104 -37zM429 0l-33 147h-195l-33 -147h-154l182 715h225l181 -715h-173zM298 576l-70 -312h141z" />
    <glyph glyph-name="abreve" unicode="&#x103;" horiz-adv-x="499" 
d="M248 585q-63 0 -101.5 38.5t-41.5 109.5h95q5 -49 48 -49q46 0 51 49h94q-4 -71 -43.5 -109.5t-101.5 -38.5zM178 -10q-67 0 -109.5 38t-42.5 113v12q0 85 58.5 122t170.5 37h52v37q0 40 -13 59t-48 19q-58 0 -63 -64h-141q4 85 60 128t151 43q202 0 202 -179v-355h-145
v56q-41 -66 -132 -66zM230 92q36 0 56.5 18.5t20.5 54.5v55h-46q-46 0 -67 -13.5t-21 -45.5v-11q0 -58 57 -58z" />
    <glyph glyph-name="Aogonek" unicode="&#x104;" horiz-adv-x="616" 
d="M421 -104q0 62 78 104h-70l-33 147h-195l-33 -147h-154l182 715h225l181 -715h-14q-42 -37 -42 -68q0 -28 30 -28q18 0 29 5v-75q-30 -15 -77 -15q-46 0 -76.5 20.5t-30.5 56.5zM298 576l-70 -312h141z" />
    <glyph glyph-name="aogonek" unicode="&#x105;" horiz-adv-x="499" 
d="M274 -104q0 62 78 104h-42v56q-41 -66 -132 -66q-67 0 -109.5 38t-42.5 113v12q0 85 58.5 122t170.5 37h52v37q0 40 -13 59t-48 19q-58 0 -63 -64h-141q4 85 60 128t151 43q202 0 202 -179v-355h-14q-42 -37 -42 -68q0 -28 30 -28q18 0 29 5v-75q-30 -15 -77 -15
q-46 0 -76.5 20.5t-30.5 56.5zM230 92q36 0 56.5 18.5t20.5 54.5v55h-46q-46 0 -67 -13.5t-21 -45.5v-11q0 -58 57 -58z" />
    <glyph glyph-name="Cacute" unicode="&#x106;" horiz-adv-x="631" 
d="M264 758l46 138h160l-92 -138h-114zM335 -11q-144 0 -221.5 79t-77.5 221v136q0 138 82.5 219t211.5 81q121 0 193 -59t80 -183h-170q-5 58 -30 84.5t-73 26.5q-58 0 -89 -42.5t-31 -123.5v-140q0 -166 123 -166q104 0 112 117h164q-7 -124 -80 -187t-194 -63z" />
    <glyph glyph-name="cacute" unicode="&#x107;" horiz-adv-x="500" 
d="M198 583l48 158h156l-95 -158h-109zM259 -10q-104 0 -167.5 57.5t-63.5 168.5v86q0 111 65 171.5t166 60.5q93 0 152 -45.5t64 -147.5h-140q-5 78 -73 78q-84 0 -84 -112v-92q0 -115 87 -115q74 0 78 89h134q-2 -97 -58.5 -148t-159.5 -51z" />
    <glyph glyph-name="Ccircumflex" unicode="&#x108;" horiz-adv-x="631" 
d="M166 758l100 138h128l98 -138h-107l-57 49l-58 -49h-104zM335 -11q-144 0 -221.5 79t-77.5 221v136q0 138 82.5 219t211.5 81q121 0 193 -59t80 -183h-170q-5 58 -30 84.5t-73 26.5q-58 0 -89 -42.5t-31 -123.5v-140q0 -166 123 -166q104 0 112 117h164q-7 -124 -80 -187
t-194 -63z" />
    <glyph glyph-name="ccircumflex" unicode="&#x109;" horiz-adv-x="500" 
d="M96 584l105 156h115l101 -156h-104l-57 59l-58 -59h-102zM259 -10q-104 0 -167.5 57.5t-63.5 168.5v86q0 111 65 171.5t166 60.5q93 0 152 -45.5t64 -147.5h-140q-5 78 -73 78q-84 0 -84 -112v-92q0 -115 87 -115q74 0 78 89h134q-2 -97 -58.5 -148t-159.5 -51z" />
    <glyph glyph-name="Cdotaccent" unicode="&#x10a;" horiz-adv-x="631" 
d="M328 759q-35 0 -58.5 22.5t-23.5 55.5t23.5 55.5t58.5 22.5q34 0 57.5 -22.5t23.5 -55.5t-23.5 -55.5t-57.5 -22.5zM335 -11q-144 0 -221.5 79t-77.5 221v136q0 138 82.5 219t211.5 81q121 0 193 -59t80 -183h-170q-5 58 -30 84.5t-73 26.5q-58 0 -89 -42.5t-31 -123.5
v-140q0 -166 123 -166q104 0 112 117h164q-7 -124 -80 -187t-194 -63z" />
    <glyph glyph-name="cdotaccent" unicode="&#x10b;" horiz-adv-x="500" 
d="M258 581q-35 0 -59 22.5t-24 55.5q0 34 24 56.5t59 22.5t58.5 -22.5t23.5 -56.5q0 -33 -23.5 -55.5t-58.5 -22.5zM259 -10q-104 0 -167.5 57.5t-63.5 168.5v86q0 111 65 171.5t166 60.5q93 0 152 -45.5t64 -147.5h-140q-5 78 -73 78q-84 0 -84 -112v-92q0 -115 87 -115
q74 0 78 89h134q-2 -97 -58.5 -148t-159.5 -51z" />
    <glyph glyph-name="Ccaron" unicode="&#x10c;" horiz-adv-x="631" 
d="M263 758l-98 138h107l57 -50l58 50h104l-100 -138h-128zM335 -11q-144 0 -221.5 79t-77.5 221v136q0 138 82.5 219t211.5 81q121 0 193 -59t80 -183h-170q-5 58 -30 84.5t-73 26.5q-58 0 -89 -42.5t-31 -123.5v-140q0 -166 123 -166q104 0 112 117h164q-7 -124 -80 -187
t-194 -63z" />
    <glyph glyph-name="ccaron" unicode="&#x10d;" horiz-adv-x="500" 
d="M196 584l-101 156h104l57 -59l59 59h101l-105 -156h-115zM259 -10q-104 0 -167.5 57.5t-63.5 168.5v86q0 111 65 171.5t166 60.5q93 0 152 -45.5t64 -147.5h-140q-5 78 -73 78q-84 0 -84 -112v-92q0 -115 87 -115q74 0 78 89h134q-2 -97 -58.5 -148t-159.5 -51z" />
    <glyph glyph-name="Dcaron" unicode="&#x10e;" horiz-adv-x="634" 
d="M219 758l-98 138h107l57 -50l58 50h104l-100 -138h-128zM58 715h226q314 0 314 -291v-128q0 -144 -79.5 -220t-234.5 -76h-226v715zM277 586h-52v-457h54q77 0 111.5 40t34.5 127v125q0 87 -34 126t-114 39z" />
    <glyph glyph-name="dcaron" unicode="&#x10f;" horiz-adv-x="547" 
d="M531 585l8 166h116l-44 -166h-80zM500 750v-750h-149v74q-18 -37 -55 -60.5t-86 -23.5q-80 0 -130 57t-50 166v94q0 109 51 168t134 59q96 0 136 -78v294h149zM353 218v89q0 116 -87 116q-86 0 -86 -114v-96q0 -109 83 -109q43 0 66.5 29t23.5 85z" />
    <glyph glyph-name="Dcroat" unicode="&#x110;" horiz-adv-x="653" 
d="M75 0v303h-51v119h51v293h224q158 0 238 -74.5t80 -220.5v-120q0 -146 -80.5 -223t-236.5 -77h-225zM242 131h52q78 0 113.5 40.5t35.5 127.5v118q0 89 -35 128t-115 39h-51v-162h107v-119h-107v-172z" />
    <glyph glyph-name="dcroat" unicode="&#x111;" horiz-adv-x="547" 
d="M215 590v82h136v78h149v-78h55v-82h-55v-590h-149v74q-18 -37 -55 -60.5t-86 -23.5q-80 0 -130 57t-50 166v94q0 109 51 168t134 59q96 0 136 -78v134h-136zM353 218v89q0 116 -87 116q-86 0 -86 -114v-96q0 -109 83 -109q43 0 66.5 29t23.5 85z" />
    <glyph glyph-name="Emacron" unicode="&#x112;" horiz-adv-x="515" 
d="M125 769v96h286v-96h-286zM58 0v715h413v-130h-247v-156h197v-121h-197v-178h261v-130h-427z" />
    <glyph glyph-name="emacron" unicode="&#x113;" horiz-adv-x="512" 
d="M121 607v91h273v-91h-273zM264 -10q-108 0 -172 59.5t-64 168.5v84q0 108 65.5 170t167.5 62q100 0 162 -56.5t62 -171.5v-80h-309v-11q0 -119 91 -119q71 0 79 67h140q-7 -85 -64 -129t-158 -44zM262 432q-81 0 -86 -112h166v7q0 105 -80 105z" />
    <glyph glyph-name="Ebreve" unicode="&#x114;" horiz-adv-x="515" 
d="M268 752q-64 0 -103 37t-43 103h98q5 -44 48 -44q45 0 50 44h98q-4 -66 -44 -103t-104 -37zM58 0v715h413v-130h-247v-156h197v-121h-197v-178h261v-130h-427z" />
    <glyph glyph-name="ebreve" unicode="&#x115;" horiz-adv-x="512" 
d="M254 585q-63 0 -101.5 38.5t-41.5 109.5h95q5 -49 48 -49q46 0 51 49h94q-4 -71 -43.5 -109.5t-101.5 -38.5zM264 -10q-108 0 -172 59.5t-64 168.5v84q0 108 65.5 170t167.5 62q100 0 162 -56.5t62 -171.5v-80h-309v-11q0 -119 91 -119q71 0 79 67h140q-7 -85 -64 -129
t-158 -44zM262 432q-81 0 -86 -112h166v7q0 105 -80 105z" />
    <glyph glyph-name="Edotaccent" unicode="&#x116;" horiz-adv-x="515" 
d="M269 759q-35 0 -58.5 22.5t-23.5 55.5t23.5 55.5t58.5 22.5q34 0 57.5 -22.5t23.5 -55.5t-23.5 -55.5t-57.5 -22.5zM58 0v715h413v-130h-247v-156h197v-121h-197v-178h261v-130h-427z" />
    <glyph glyph-name="edotaccent" unicode="&#x117;" horiz-adv-x="512" 
d="M258 581q-35 0 -59 22.5t-24 55.5q0 34 24 56.5t59 22.5t58.5 -22.5t23.5 -56.5q0 -33 -23.5 -55.5t-58.5 -22.5zM264 -10q-108 0 -172 59.5t-64 168.5v84q0 108 65.5 170t167.5 62q100 0 162 -56.5t62 -171.5v-80h-309v-11q0 -119 91 -119q71 0 79 67h140
q-7 -85 -64 -129t-158 -44zM262 432q-81 0 -86 -112h166v7q0 105 -80 105z" />
    <glyph glyph-name="Eogonek" unicode="&#x118;" horiz-adv-x="515" 
d="M279 -104q0 62 78 104h-299v715h413v-130h-247v-156h197v-121h-197v-178h261v-130h-39q-42 -37 -42 -68q0 -28 30 -28q18 0 29 5v-75q-30 -15 -77 -15q-46 0 -76.5 20.5t-30.5 56.5z" />
    <glyph glyph-name="eogonek" unicode="&#x119;" horiz-adv-x="512" 
d="M409 -166q-30 -15 -77 -15q-46 0 -76.5 20.5t-30.5 56.5q0 56 62 95q-7 -1 -23 -1q-108 0 -172 59.5t-64 168.5v84q0 108 65.5 170t167.5 62q100 0 162 -56.5t62 -171.5v-80h-309v-11q0 -119 91 -119q71 0 79 67h140q-7 -68 -44 -110q-9 -10 -36.5 -35.5t-41.5 -45.5
t-14 -40q0 -28 30 -28q18 0 29 5v-75zM262 432q-81 0 -86 -112h166v7q0 105 -80 105z" />
    <glyph glyph-name="Ecaron" unicode="&#x11a;" horiz-adv-x="515" 
d="M204 758l-98 138h107l57 -50l58 50h104l-100 -138h-128zM58 0v715h413v-130h-247v-156h197v-121h-197v-178h261v-130h-427z" />
    <glyph glyph-name="ecaron" unicode="&#x11b;" horiz-adv-x="512" 
d="M198 584l-101 156h104l57 -59l59 59h101l-105 -156h-115zM264 -10q-108 0 -172 59.5t-64 168.5v84q0 108 65.5 170t167.5 62q100 0 162 -56.5t62 -171.5v-80h-309v-11q0 -119 91 -119q71 0 79 67h140q-7 -85 -64 -129t-158 -44zM262 432q-81 0 -86 -112h166v7
q0 105 -80 105z" />
    <glyph glyph-name="Gcircumflex" unicode="&#x11c;" horiz-adv-x="656" 
d="M171 758l100 138h128l98 -138h-107l-57 49l-58 -49h-104zM349 270v113h274v-122q0 -130 -73 -201t-212 -71q-145 0 -223.5 79.5t-78.5 219.5v138q0 138 83.5 218.5t217.5 80.5q118 0 192.5 -57t81.5 -179h-165q-10 105 -108 105q-62 0 -96 -43.5t-34 -123.5v-142
q0 -167 134 -167q116 0 119 124v28h-112z" />
    <glyph glyph-name="gcircumflex" unicode="&#x11d;" horiz-adv-x="547" 
d="M101 584l105 156h115l101 -156h-104l-57 59l-58 -59h-102zM258 -188q-213 0 -228 166h147q9 -59 82 -59q92 0 92 97v81q-18 -36 -54.5 -58.5t-85.5 -22.5q-80 0 -130.5 55.5t-50.5 155.5v92q0 100 51.5 157.5t133.5 57.5q96 0 136 -78v67h149v-504q0 -103 -62.5 -155
t-179.5 -52zM264 123q41 0 65 28t24 78v88q0 51 -22.5 78.5t-64.5 27.5q-86 0 -86 -104v-95q0 -49 22 -75t62 -26z" />
    <glyph glyph-name="Gbreve" unicode="&#x11e;" horiz-adv-x="656" 
d="M333 752q-64 0 -103 37t-43 103h98q5 -44 48 -44q45 0 50 44h98q-4 -66 -44 -103t-104 -37zM349 270v113h274v-122q0 -130 -73 -201t-212 -71q-145 0 -223.5 79.5t-78.5 219.5v138q0 138 83.5 218.5t217.5 80.5q118 0 192.5 -57t81.5 -179h-165q-10 105 -108 105
q-62 0 -96 -43.5t-34 -123.5v-142q0 -167 134 -167q116 0 119 124v28h-112z" />
    <glyph glyph-name="gbreve" unicode="&#x11f;" horiz-adv-x="547" 
d="M261 585q-63 0 -101.5 38.5t-41.5 109.5h95q5 -49 48 -49q46 0 51 49h94q-4 -71 -43.5 -109.5t-101.5 -38.5zM258 -188q-213 0 -228 166h147q9 -59 82 -59q92 0 92 97v81q-18 -36 -54.5 -58.5t-85.5 -22.5q-80 0 -130.5 55.5t-50.5 155.5v92q0 100 51.5 157.5t133.5 57.5
q96 0 136 -78v67h149v-504q0 -103 -62.5 -155t-179.5 -52zM264 123q41 0 65 28t24 78v88q0 51 -22.5 78.5t-64.5 27.5q-86 0 -86 -104v-95q0 -49 22 -75t62 -26z" />
    <glyph glyph-name="Gdotaccent" unicode="&#x120;" horiz-adv-x="656" 
d="M335 759q-35 0 -58.5 22.5t-23.5 55.5t23.5 55.5t58.5 22.5q34 0 57.5 -22.5t23.5 -55.5t-23.5 -55.5t-57.5 -22.5zM349 270v113h274v-122q0 -130 -73 -201t-212 -71q-145 0 -223.5 79.5t-78.5 219.5v138q0 138 83.5 218.5t217.5 80.5q118 0 192.5 -57t81.5 -179h-165
q-10 105 -108 105q-62 0 -96 -43.5t-34 -123.5v-142q0 -167 134 -167q116 0 119 124v28h-112z" />
    <glyph glyph-name="gdotaccent" unicode="&#x121;" horiz-adv-x="547" 
d="M262 581q-35 0 -59 22.5t-24 55.5q0 34 24 56.5t59 22.5t58.5 -22.5t23.5 -56.5q0 -33 -23.5 -55.5t-58.5 -22.5zM258 -188q-213 0 -228 166h147q9 -59 82 -59q92 0 92 97v81q-18 -36 -54.5 -58.5t-85.5 -22.5q-80 0 -130.5 55.5t-50.5 155.5v92q0 100 51.5 157.5
t133.5 57.5q96 0 136 -78v67h149v-504q0 -103 -62.5 -155t-179.5 -52zM264 123q41 0 65 28t24 78v88q0 51 -22.5 78.5t-64.5 27.5q-86 0 -86 -104v-95q0 -49 22 -75t62 -26z" />
    <glyph glyph-name="uni0122" unicode="&#x122;" horiz-adv-x="656" 
d="M349 270v113h274v-122q0 -130 -73 -201t-212 -71q-145 0 -223.5 79.5t-78.5 219.5v138q0 138 83.5 218.5t217.5 80.5q118 0 192.5 -57t81.5 -179h-165q-10 105 -108 105q-62 0 -96 -43.5t-34 -123.5v-142q0 -167 134 -167q116 0 119 124v28h-112zM320 -214l-87 23l38 156
l136 -9z" />
    <glyph glyph-name="uni0123" unicode="&#x123;" horiz-adv-x="547" 
d="M333 579l-135 9l86 170l86 -24zM258 -188q-213 0 -228 166h147q9 -59 82 -59q92 0 92 97v81q-18 -36 -54.5 -58.5t-85.5 -22.5q-80 0 -130.5 55.5t-50.5 155.5v92q0 100 51.5 157.5t133.5 57.5q96 0 136 -78v67h149v-504q0 -103 -62.5 -155t-179.5 -52zM264 123
q41 0 65 28t24 78v88q0 51 -22.5 78.5t-64.5 27.5q-86 0 -86 -104v-95q0 -49 22 -75t62 -26z" />
    <glyph glyph-name="Hcircumflex" unicode="&#x124;" horiz-adv-x="651" 
d="M163 758l100 138h128l98 -138h-107l-57 49l-58 -49h-104zM58 0v715h166v-286h202v286h166v-715h-166v296h-202v-296h-166z" />
    <glyph glyph-name="hcircumflex" unicode="&#x125;" horiz-adv-x="531" 
d="M109 795l100 138h128l98 -138h-107l-57 49l-58 -49h-104zM47 0v750h149v-301q42 85 145 85q68 0 107 -43.5t39 -128.5v-362h-149v337q0 78 -65 78q-35 0 -56 -22t-21 -64v-329h-149z" />
    <glyph glyph-name="Hbar" unicode="&#x126;" horiz-adv-x="651" 
d="M59 0v515h-52v87h52v113h166v-113h202v113h166v-113h61v-87h-61v-515h-166v296h-202v-296h-166zM225 429h202v86h-202v-86z" />
    <glyph glyph-name="hbar" unicode="&#x127;" horiz-adv-x="531" 
d="M48 0v590h-51v82h51v78h149v-78h139v-82h-139v-141q43 85 145 85q68 0 107 -43.5t39 -128.5v-362h-149v337q0 78 -65 78q-35 0 -56 -22t-21 -64v-329h-149z" />
    <glyph glyph-name="Itilde" unicode="&#x128;" horiz-adv-x="292" 
d="M205 758q-27 0 -62 16t-46 16q-23 0 -30 -32h-86q5 68 34.5 103.5t72.5 35.5q26 0 62 -15.5t48 -15.5q23 0 29 32h86q-5 -69 -35 -104.5t-73 -35.5zM62 0v715h168v-715h-168z" />
    <glyph glyph-name="itilde" unicode="&#x129;" horiz-adv-x="249" 
d="M182 588q-27 0 -60 16t-43 16q-24 0 -29 -33h-83q4 70 31 106t70 36q26 0 60 -16t46 -16q22 0 29 33h83q-4 -70 -33 -106t-71 -36zM50 0v523h149v-523h-149z" />
    <glyph glyph-name="Imacron" unicode="&#x12a;" horiz-adv-x="292" 
d="M3 769v96h286v-96h-286zM62 0v715h168v-715h-168z" />
    <glyph glyph-name="imacron" unicode="&#x12b;" horiz-adv-x="249" 
d="M17 607v91h216v-91h-216zM50 0v523h149v-523h-149z" />
    <glyph glyph-name="Ibreve" unicode="&#x12c;" horiz-adv-x="292" 
d="M146 752q-64 0 -103 37t-43 103h98q5 -44 48 -44q45 0 50 44h98q-4 -66 -44 -103t-104 -37zM62 0v715h168v-715h-168z" />
    <glyph glyph-name="ibreve" unicode="&#x12d;" horiz-adv-x="249" 
d="M125 585q-63 0 -101.5 38.5t-41.5 109.5h95q5 -49 48 -49q46 0 51 49h94q-4 -71 -43.5 -109.5t-101.5 -38.5zM50 0v523h149v-523h-149z" />
    <glyph glyph-name="Iogonek" unicode="&#x12e;" horiz-adv-x="292" 
d="M49 -104q0 62 78 104h-65v715h168v-715h-14q-42 -37 -42 -68q0 -28 30 -28q18 0 29 5v-75q-30 -15 -77 -15q-46 0 -76.5 20.5t-30.5 56.5z" />
    <glyph glyph-name="iogonek" unicode="&#x12f;" horiz-adv-x="249" 
d="M124 578q-36 0 -60 23t-24 57t24 56.5t60 22.5q35 0 59.5 -22.5t24.5 -56.5t-24 -57t-60 -23zM21 -104q0 62 78 104h-49v523h149v-523h-11q-42 -37 -42 -68q0 -28 30 -28q18 0 29 5v-75q-30 -15 -77 -15q-46 0 -76.5 20.5t-30.5 56.5z" />
    <glyph glyph-name="Idotaccent" unicode="&#x130;" horiz-adv-x="292" 
d="M147 759q-35 0 -58.5 22.5t-23.5 55.5t23.5 55.5t58.5 22.5q34 0 57.5 -22.5t23.5 -55.5t-23.5 -55.5t-57.5 -22.5zM62 0v715h168v-715h-168z" />
    <glyph glyph-name="dotlessi" unicode="&#x131;" horiz-adv-x="249" 
d="M50 0v523h149v-523h-149z" />
    <glyph glyph-name="IJ" unicode="&#x132;" horiz-adv-x="675" 
d="M63 0v715h169v-715h-169zM406 -8q-64 0 -108 20v128q34 -12 73 -12q83 0 83 91v496h169v-499q0 -111 -56 -167.5t-161 -56.5z" />
    <glyph glyph-name="ij" unicode="&#x133;" horiz-adv-x="504" 
d="M124 578q-36 0 -60 23t-24 57t24 56.5t60 22.5q35 0 59.5 -22.5t24.5 -56.5t-24 -57t-60 -23zM377 578q-36 0 -60 23t-24 57t24 56.5t60 22.5q35 0 59.5 -22.5t24.5 -56.5t-24 -57t-60 -23zM50 0v523h149v-523h-149zM238 -181v111q35 3 50 17.5t15 45.5v530h148v-533
q0 -84 -48.5 -127t-164.5 -44z" />
    <glyph glyph-name="Jcircumflex" unicode="&#x134;" horiz-adv-x="397" 
d="M100 758l100 138h128l98 -138h-107l-57 49l-58 -49h-104zM131 -8q-64 0 -106 20v127q33 -12 71 -12q83 0 83 91v497h167v-501q0 -110 -55 -166t-160 -56z" />
    <glyph glyph-name="jcircumflex" unicode="&#x135;" horiz-adv-x="248" 
d="M-36 584l105 156h115l101 -156h-104l-57 59l-58 -59h-102zM-15 -182v111q34 3 49.5 18t15.5 45v531h148v-534q0 -84 -48.5 -127t-164.5 -44z" />
    <glyph glyph-name="uni0136" unicode="&#x136;" horiz-adv-x="606" 
d="M58 0v715h167v-297l189 297h172l-218 -331l229 -384h-187l-185 319v-319h-167zM298 -214l-87 23l38 156l136 -9z" />
    <glyph glyph-name="uni0137" unicode="&#x137;" horiz-adv-x="496" 
d="M47 0v750h149v-443l131 216h153l-152 -238l162 -285h-164l-130 237v-237h-149zM242 -214l-87 23l38 156l136 -9z" />
    <glyph glyph-name="Lacute" unicode="&#x139;" horiz-adv-x="486" 
d="M80 758l46 138h160l-92 -138h-114zM58 0v715h167v-584h233v-131h-400z" />
    <glyph glyph-name="lacute" unicode="&#x13a;" horiz-adv-x="250" 
d="M63 795l46 138h160l-92 -138h-114zM50 0v750h149v-750h-149z" />
    <glyph glyph-name="uni013B" unicode="&#x13b;" horiz-adv-x="486" 
d="M58 0v715h167v-584h233v-131h-400zM242 -214l-87 23l38 156l136 -9z" />
    <glyph glyph-name="uni013C" unicode="&#x13c;" horiz-adv-x="250" 
d="M50 0v750h149v-750h-149zM111 -214l-87 23l38 156l136 -9z" />
    <glyph glyph-name="Lcaron" unicode="&#x13d;" horiz-adv-x="486" 
d="M281 546l8 170h119l-45 -170h-82zM58 0v715h167v-584h233v-131h-400z" />
    <glyph glyph-name="lcaron" unicode="&#x13e;" horiz-adv-x="250" 
d="M231 585l8 166h116l-44 -166h-80zM50 0v750h149v-750h-149z" />
    <glyph glyph-name="Ldot" unicode="&#x13f;" horiz-adv-x="510" 
d="M58 0v715h167v-584h233v-131h-400zM400 302q-37 0 -62 24.5t-25 60.5t25 60.5t62 24.5t62.5 -24.5t25.5 -60.5t-25.5 -60.5t-62.5 -24.5z" />
    <glyph glyph-name="ldot" unicode="&#x140;" horiz-adv-x="392" 
d="M50 0v750h149v-750h-149zM320 280q-36 0 -61 25t-25 60q0 36 25 60.5t61 24.5q38 0 63.5 -24.5t25.5 -60.5t-25.5 -60.5t-63.5 -24.5z" />
    <glyph glyph-name="Lslash" unicode="&#x141;" horiz-adv-x="507" 
d="M73 0v253l-52 -20v100l52 20v362h167v-299l157 60v-100l-157 -60v-185h233v-131h-400z" />
    <glyph glyph-name="lslash" unicode="&#x142;" horiz-adv-x="279" 
d="M65 0v314l-53 -27v102l53 27v334h149v-258l60 31v-102l-60 -31v-390h-149z" />
    <glyph glyph-name="Nacute" unicode="&#x143;" horiz-adv-x="649" 
d="M273 758l46 138h160l-92 -138h-114zM58 0v715h189l195 -433v433h148v-715h-163l-220 482v-482h-149z" />
    <glyph glyph-name="nacute" unicode="&#x144;" horiz-adv-x="531" 
d="M208 583l48 158h156l-95 -158h-109zM47 0v523h149v-74q42 85 145 85q68 0 107 -43.5t39 -128.5v-362h-149v337q0 78 -65 78q-35 0 -56 -22t-21 -64v-329h-149z" />
    <glyph glyph-name="uni0145" unicode="&#x145;" horiz-adv-x="649" 
d="M58 0v715h189l195 -433v433h148v-715h-163l-220 482v-482h-149zM306 -214l-87 23l38 156l136 -9z" />
    <glyph glyph-name="uni0146" unicode="&#x146;" horiz-adv-x="531" 
d="M47 0v523h149v-74q42 85 145 85q68 0 107 -43.5t39 -128.5v-362h-149v337q0 78 -65 78q-35 0 -56 -22t-21 -64v-329h-149zM251 -214l-87 23l38 156l136 -9z" />
    <glyph glyph-name="Ncaron" unicode="&#x147;" horiz-adv-x="649" 
d="M272 758l-98 138h107l57 -50l58 50h104l-100 -138h-128zM58 0v715h189l195 -433v433h148v-715h-163l-220 482v-482h-149z" />
    <glyph glyph-name="ncaron" unicode="&#x148;" horiz-adv-x="531" 
d="M207 584l-101 156h104l57 -59l59 59h101l-105 -156h-115zM47 0v523h149v-74q42 85 145 85q68 0 107 -43.5t39 -128.5v-362h-149v337q0 78 -65 78q-35 0 -56 -22t-21 -64v-329h-149z" />
    <glyph glyph-name="napostrophe" unicode="&#x149;" horiz-adv-x="616" 
d="M51 461l-86 32l68 234l134 -43zM127 0v523h149v-74q42 85 145 85q68 0 107 -43.5t39 -128.5v-362h-149v337q0 78 -65 78q-35 0 -56 -22t-21 -64v-329h-149z" />
    <glyph glyph-name="Eng" unicode="&#x14a;" horiz-adv-x="657" 
d="M394 -175q-67 0 -103 19v120q40 -12 68 -12q64 0 74 55l-224 475v-482h-150v715h191l197 -424v424h150v-696q0 -93 -51.5 -143.5t-151.5 -50.5z" />
    <glyph glyph-name="eng" unicode="&#x14b;" horiz-adv-x="536" 
d="M281 -182v111q33 4 46.5 18.5t13.5 46.5v342q0 40 -15 58.5t-49 18.5q-36 0 -57.5 -22t-21.5 -64v-327h-151v523h151v-75q43 86 147 86q68 0 107.5 -43.5t39.5 -129.5v-371q0 -84 -48.5 -127.5t-162.5 -44.5z" />
    <glyph glyph-name="Omacron" unicode="&#x14c;" horiz-adv-x="681" 
d="M197 769v96h286v-96h-286zM339 -11q-139 0 -220.5 80.5t-81.5 217.5v139q0 136 85 217.5t219 81.5q136 0 219.5 -78.5t83.5 -217.5v-138q0 -139 -82.5 -220.5t-222.5 -81.5zM341 122q62 0 96.5 43.5t34.5 123.5v138q0 78 -34.5 122t-96.5 44q-63 0 -97.5 -43t-34.5 -123
v-139q0 -80 35 -123t97 -43z" />
    <glyph glyph-name="omacron" unicode="&#x14d;" horiz-adv-x="531" 
d="M127 607v91h273v-91h-273zM265 -10q-104 0 -170.5 60.5t-66.5 166.5v86q0 107 66.5 169t171.5 62t171 -61t66 -167v-86q0 -107 -67 -168.5t-171 -61.5zM266 101q87 0 87 115v92q0 114 -87 114q-88 0 -88 -113v-92q0 -116 88 -116z" />
    <glyph glyph-name="Obreve" unicode="&#x14e;" horiz-adv-x="681" 
d="M339 752q-64 0 -103 37t-43 103h98q5 -44 48 -44q45 0 50 44h98q-4 -66 -44 -103t-104 -37zM339 -11q-139 0 -220.5 80.5t-81.5 217.5v139q0 136 85 217.5t219 81.5q136 0 219.5 -78.5t83.5 -217.5v-138q0 -139 -82.5 -220.5t-222.5 -81.5zM341 122q62 0 96.5 43.5
t34.5 123.5v138q0 78 -34.5 122t-96.5 44q-63 0 -97.5 -43t-34.5 -123v-139q0 -80 35 -123t97 -43z" />
    <glyph glyph-name="obreve" unicode="&#x14f;" horiz-adv-x="531" 
d="M263 585q-63 0 -101.5 38.5t-41.5 109.5h95q5 -49 48 -49q46 0 51 49h94q-4 -71 -43.5 -109.5t-101.5 -38.5zM265 -10q-104 0 -170.5 60.5t-66.5 166.5v86q0 107 66.5 169t171.5 62t171 -61t66 -167v-86q0 -107 -67 -168.5t-171 -61.5zM266 101q87 0 87 115v92
q0 114 -87 114q-88 0 -88 -113v-92q0 -116 88 -116z" />
    <glyph glyph-name="Ohungarumlaut" unicode="&#x150;" horiz-adv-x="681" 
d="M195 758l32 138h134l-65 -138h-101zM366 758l33 138h134l-65 -138h-102zM339 -11q-139 0 -220.5 80.5t-81.5 217.5v139q0 136 85 217.5t219 81.5q136 0 219.5 -78.5t83.5 -217.5v-138q0 -139 -82.5 -220.5t-222.5 -81.5zM341 122q62 0 96.5 43.5t34.5 123.5v138
q0 78 -34.5 122t-96.5 44q-63 0 -97.5 -43t-34.5 -123v-139q0 -80 35 -123t97 -43z" />
    <glyph glyph-name="ohungarumlaut" unicode="&#x151;" horiz-adv-x="531" 
d="M131 583l34 158h125l-66 -158h-93zM291 583l33 158h125l-66 -158h-92zM265 -10q-104 0 -170.5 60.5t-66.5 166.5v86q0 107 66.5 169t171.5 62t171 -61t66 -167v-86q0 -107 -67 -168.5t-171 -61.5zM266 101q87 0 87 115v92q0 114 -87 114q-88 0 -88 -113v-92
q0 -116 88 -116z" />
    <glyph glyph-name="OE" unicode="&#x152;" horiz-adv-x="827" 
d="M350 0q-156 0 -237 75t-81 222v115q0 147 81.5 225t236.5 78h434v-130h-231v-156h183v-121h-183v-178h245v-130h-448zM356 129h31v456h-33q-78 0 -113.5 -42t-35.5 -131v-112q0 -89 35.5 -130t115.5 -41z" />
    <glyph glyph-name="oe" unicode="&#x153;" horiz-adv-x="840" 
d="M264 -10q-103 0 -169.5 62t-66.5 168v79q0 109 66.5 172t170.5 63q109 0 166 -72q58 72 162 72q98 0 159 -56.5t61 -171.5v-80h-309v-11q0 -119 91 -119q71 0 79 67h139q-7 -85 -63 -129t-155 -44q-110 0 -166 70q-56 -70 -165 -70zM590 432q-81 0 -86 -113h165v8
q0 105 -79 105zM268 101q43 0 66 30.5t23 86.5v88q0 56 -23 86t-66 30q-42 0 -65.5 -29.5t-23.5 -85.5v-88q0 -118 89 -118z" />
    <glyph glyph-name="Racute" unicode="&#x154;" horiz-adv-x="591" 
d="M223 758l46 138h160l-92 -138h-114zM58 0v715h234q252 0 252 -205v-26q0 -130 -113 -173l144 -311h-175l-126 281h-50v-281h-166zM224 392h62q49 0 72.5 21t23.5 68v24q0 44 -23.5 63.5t-72.5 19.5h-62v-196z" />
    <glyph glyph-name="racute" unicode="&#x155;" horiz-adv-x="364" 
d="M142 583l48 158h156l-95 -158h-109zM47 0v523h149v-91q40 97 146 97v-144q-73 1 -109.5 -23.5t-36.5 -79.5v-282h-149z" />
    <glyph glyph-name="uni0156" unicode="&#x156;" horiz-adv-x="591" 
d="M58 0v715h234q252 0 252 -205v-26q0 -130 -113 -173l144 -311h-175l-126 281h-50v-281h-166zM224 392h62q49 0 72.5 21t23.5 68v24q0 44 -23.5 63.5t-72.5 19.5h-62v-196zM291 -214l-87 23l38 156l136 -9z" />
    <glyph glyph-name="uni0157" unicode="&#x157;" horiz-adv-x="364" 
d="M47 0v523h149v-91q40 97 146 97v-144q-73 1 -109.5 -23.5t-36.5 -79.5v-282h-149zM109 -214l-87 23l38 156l136 -9z" />
    <glyph glyph-name="Rcaron" unicode="&#x158;" horiz-adv-x="591" 
d="M221 758l-98 138h107l57 -50l58 50h104l-100 -138h-128zM58 0v715h234q252 0 252 -205v-26q0 -130 -113 -173l144 -311h-175l-126 281h-50v-281h-166zM224 392h62q49 0 72.5 21t23.5 68v24q0 44 -23.5 63.5t-72.5 19.5h-62v-196z" />
    <glyph glyph-name="rcaron" unicode="&#x159;" horiz-adv-x="364" 
d="M141 584l-101 156h104l57 -59l59 59h101l-105 -156h-115zM47 0v523h149v-91q40 97 146 97v-144q-73 1 -109.5 -23.5t-36.5 -79.5v-282h-149z" />
    <glyph glyph-name="Sacute" unicode="&#x15a;" horiz-adv-x="561" 
d="M208 758l46 138h160l-92 -138h-114zM284 -11q-251 0 -257 226h160q2 -54 24 -78.5t73 -24.5q39 0 60.5 20.5t21.5 59.5q0 42 -24.5 62t-90.5 39q-112 34 -161 83.5t-49 144.5q0 92 63 148t171 56q228 0 238 -208h-156q-5 85 -83 85q-36 0 -55 -18t-19 -51q0 -37 22 -56
t85 -38q55 -15 91 -31t68 -42t47 -65t15 -93q0 -101 -65 -160t-179 -59z" />
    <glyph glyph-name="sacute" unicode="&#x15b;" horiz-adv-x="455" 
d="M163 583l48 158h156l-95 -158h-109zM229 -10q-98 0 -152 43.5t-55 127.5h139q2 -36 17.5 -53t49.5 -17q58 0 58 51q0 26 -20.5 38t-75.5 27q-88 24 -124.5 61t-36.5 109q0 75 54.5 116t137.5 41q187 0 197 -161h-137q-6 61 -60 61q-26 0 -40 -12.5t-14 -33.5
q0 -24 18 -35.5t69 -25.5q92 -24 134.5 -60t42.5 -109q0 -83 -52.5 -125.5t-149.5 -42.5z" />
    <glyph glyph-name="Scircumflex" unicode="&#x15c;" horiz-adv-x="561" 
d="M110 758l100 138h128l98 -138h-107l-57 49l-58 -49h-104zM284 -11q-251 0 -257 226h160q2 -54 24 -78.5t73 -24.5q39 0 60.5 20.5t21.5 59.5q0 42 -24.5 62t-90.5 39q-112 34 -161 83.5t-49 144.5q0 92 63 148t171 56q228 0 238 -208h-156q-5 85 -83 85q-36 0 -55 -18
t-19 -51q0 -37 22 -56t85 -38q55 -15 91 -31t68 -42t47 -65t15 -93q0 -101 -65 -160t-179 -59z" />
    <glyph glyph-name="scircumflex" unicode="&#x15d;" horiz-adv-x="455" 
d="M60 584l105 156h115l101 -156h-104l-57 59l-58 -59h-102zM229 -10q-98 0 -152 43.5t-55 127.5h139q2 -36 17.5 -53t49.5 -17q58 0 58 51q0 26 -20.5 38t-75.5 27q-88 24 -124.5 61t-36.5 109q0 75 54.5 116t137.5 41q187 0 197 -161h-137q-6 61 -60 61q-26 0 -40 -12.5
t-14 -33.5q0 -24 18 -35.5t69 -25.5q92 -24 134.5 -60t42.5 -109q0 -83 -52.5 -125.5t-149.5 -42.5z" />
    <glyph glyph-name="Scedilla" unicode="&#x15e;" horiz-adv-x="561" 
d="M274 -216q-50 0 -81 23t-36 65h77q4 -27 33 -27q15 0 23.5 8t8.5 21q0 14 -8.5 22.5t-23.5 8.5q-17 0 -30 -11l-36 35l39 62q-207 20 -213 224h160q2 -54 24 -78.5t73 -24.5q39 0 60.5 20.5t21.5 59.5q0 42 -24.5 62t-90.5 39q-112 34 -161 83.5t-49 144.5q0 92 63 148
t171 56q228 0 238 -208h-156q-5 85 -83 85q-36 0 -55 -18t-19 -51q0 -37 22 -56t85 -38q55 -15 91 -31t68 -42t47 -65t15 -93q0 -96 -59 -154.5t-165 -63.5l-21 -34q42 5 71.5 -16.5t29.5 -65.5q0 -43 -30 -66.5t-80 -23.5z" />
    <glyph glyph-name="scedilla" unicode="&#x15f;" horiz-adv-x="455" 
d="M221 -216q-50 0 -81 23t-36 65h77q4 -27 33 -27q15 0 23.5 8t8.5 21q0 14 -8.5 22.5t-23.5 8.5q-17 0 -30 -11l-36 35l40 63q-79 8 -122 51t-44 118h139q2 -36 17.5 -53t49.5 -17q58 0 58 51q0 26 -20.5 38t-75.5 27q-88 24 -124.5 61t-36.5 109q0 75 54.5 116t137.5 41
q187 0 197 -161h-137q-6 61 -60 61q-26 0 -40 -12.5t-14 -33.5q0 -24 18 -35.5t69 -25.5q92 -24 134.5 -60t42.5 -109q0 -78 -46.5 -120t-132.5 -47l-22 -35q42 5 71.5 -16.5t29.5 -65.5q0 -43 -30 -66.5t-80 -23.5z" />
    <glyph glyph-name="Scaron" unicode="&#x160;" horiz-adv-x="561" 
d="M207 758l-98 138h107l57 -50l58 50h104l-100 -138h-128zM284 -11q-251 0 -257 226h160q2 -54 24 -78.5t73 -24.5q39 0 60.5 20.5t21.5 59.5q0 42 -24.5 62t-90.5 39q-112 34 -161 83.5t-49 144.5q0 92 63 148t171 56q228 0 238 -208h-156q-5 85 -83 85q-36 0 -55 -18
t-19 -51q0 -37 22 -56t85 -38q55 -15 91 -31t68 -42t47 -65t15 -93q0 -101 -65 -160t-179 -59z" />
    <glyph glyph-name="scaron" unicode="&#x161;" horiz-adv-x="455" 
d="M159 584l-101 156h104l57 -59l59 59h101l-105 -156h-115zM229 -10q-98 0 -152 43.5t-55 127.5h139q2 -36 17.5 -53t49.5 -17q58 0 58 51q0 26 -20.5 38t-75.5 27q-88 24 -124.5 61t-36.5 109q0 75 54.5 116t137.5 41q187 0 197 -161h-137q-6 61 -60 61q-26 0 -40 -12.5
t-14 -33.5q0 -24 18 -35.5t69 -25.5q92 -24 134.5 -60t42.5 -109q0 -83 -52.5 -125.5t-149.5 -42.5z" />
    <glyph glyph-name="uni0162" unicode="&#x162;" horiz-adv-x="523" 
d="M177 0v585h-157v130h483v-130h-158l-1 -585h-167zM246 -214l-87 23l38 156l136 -9z" />
    <glyph glyph-name="uni0163" unicode="&#x163;" horiz-adv-x="339" 
d="M70 630h150v-107h92v-105h-92v-254q0 -53 49 -53q29 0 44 7v-114q-33 -11 -78 -11q-165 0 -165 157v268h-56v105h56v107zM173 -214l-87 23l38 156l136 -9z" />
    <glyph glyph-name="Tcaron" unicode="&#x164;" horiz-adv-x="523" 
d="M194 758l-98 138h107l57 -50l58 50h104l-100 -138h-128zM177 0v585h-157v130h483v-130h-158l-1 -585h-167z" />
    <glyph glyph-name="tcaron" unicode="&#x165;" horiz-adv-x="339" 
d="M260 585l8 166h116l-44 -166h-80zM70 630h150v-107h92v-105h-92v-254q0 -53 49 -53q29 0 44 7v-114q-33 -11 -78 -11q-165 0 -165 157v268h-56v105h56v107z" />
    <glyph glyph-name="Tbar" unicode="&#x166;" horiz-adv-x="523" 
d="M177 0v311h-109v111h109v163h-157v130h483v-130h-158v-163h115v-111h-115l-1 -311h-167z" />
    <glyph glyph-name="tbar" unicode="&#x167;" horiz-adv-x="339" 
d="M14 267v75h56v76h-56v105h56v107h150v-107h92v-105h-92v-76h95v-75h-95v-103q0 -53 49 -53q29 0 44 7v-114q-33 -11 -78 -11q-165 0 -165 157v117h-56z" />
    <glyph glyph-name="Utilde" unicode="&#x168;" horiz-adv-x="640" 
d="M374 758q-27 0 -62 16t-46 16q-23 0 -30 -32h-86q5 68 34.5 103.5t72.5 35.5q26 0 62 -15.5t48 -15.5q23 0 29 32h86q-5 -69 -35 -104.5t-73 -35.5zM417 715h168v-469q0 -128 -69.5 -192.5t-197.5 -64.5q-127 0 -195 64.5t-68 190.5v471h167v-465q0 -68 22 -98t75 -30
t75.5 30.5t22.5 100.5v462z" />
    <glyph glyph-name="utilde" unicode="&#x169;" horiz-adv-x="530" 
d="M320 588q-27 0 -60 16t-43 16q-24 0 -29 -33h-83q4 70 31 106t70 36q26 0 60 -16t46 -16q22 0 29 33h83q-4 -70 -33 -106t-71 -36zM483 523v-523h-149v72q-42 -83 -141 -83q-68 0 -109 43.5t-41 126.5v364h150v-342q0 -77 63 -77q36 0 57 21.5t21 63.5v334h149z" />
    <glyph glyph-name="Umacron" unicode="&#x16a;" horiz-adv-x="640" 
d="M173 769v96h286v-96h-286zM417 715h168v-469q0 -128 -69.5 -192.5t-197.5 -64.5q-127 0 -195 64.5t-68 190.5v471h167v-465q0 -68 22 -98t75 -30t75.5 30.5t22.5 100.5v462z" />
    <glyph glyph-name="umacron" unicode="&#x16b;" horiz-adv-x="530" 
d="M127 607v91h273v-91h-273zM483 523v-523h-149v72q-42 -83 -141 -83q-68 0 -109 43.5t-41 126.5v364h150v-342q0 -77 63 -77q36 0 57 21.5t21 63.5v334h149z" />
    <glyph glyph-name="Ubreve" unicode="&#x16c;" horiz-adv-x="640" 
d="M315 752q-64 0 -103 37t-43 103h98q5 -44 48 -44q45 0 50 44h98q-4 -66 -44 -103t-104 -37zM417 715h168v-469q0 -128 -69.5 -192.5t-197.5 -64.5q-127 0 -195 64.5t-68 190.5v471h167v-465q0 -68 22 -98t75 -30t75.5 30.5t22.5 100.5v462z" />
    <glyph glyph-name="ubreve" unicode="&#x16d;" horiz-adv-x="530" 
d="M263 585q-63 0 -101.5 38.5t-41.5 109.5h95q5 -49 48 -49q46 0 51 49h94q-4 -71 -43.5 -109.5t-101.5 -38.5zM483 523v-523h-149v72q-42 -83 -141 -83q-68 0 -109 43.5t-41 126.5v364h150v-342q0 -77 63 -77q36 0 57 21.5t21 63.5v334h149z" />
    <glyph glyph-name="Uring" unicode="&#x16e;" horiz-adv-x="640" 
d="M316 729q-46 0 -77.5 30.5t-31.5 74.5t31.5 74.5t77.5 30.5t77.5 -30.5t31.5 -74.5t-31.5 -74.5t-77.5 -30.5zM316 787q19 0 31 13.5t12 33.5t-12 33.5t-31 13.5t-31 -13t-12 -34t12 -34t31 -13zM417 715h168v-469q0 -128 -69.5 -192.5t-197.5 -64.5q-127 0 -195 64.5
t-68 190.5v471h167v-465q0 -68 22 -98t75 -30t75.5 30.5t22.5 100.5v462z" />
    <glyph glyph-name="uring" unicode="&#x16f;" horiz-adv-x="530" 
d="M262 562q-45 0 -76.5 30.5t-31.5 73.5q0 44 31.5 75t76.5 31t76.5 -31t31.5 -75q0 -43 -31.5 -73.5t-76.5 -30.5zM262 620q19 0 31 13t12 33q0 21 -12 34t-31 13t-31 -13t-12 -34q0 -20 12 -33t31 -13zM483 523v-523h-149v72q-42 -83 -141 -83q-68 0 -109 43.5t-41 126.5
v364h150v-342q0 -77 63 -77q36 0 57 21.5t21 63.5v334h149z" />
    <glyph glyph-name="Uhungarumlaut" unicode="&#x170;" horiz-adv-x="640" 
d="M172 758l32 138h134l-65 -138h-101zM343 758l33 138h134l-65 -138h-102zM417 715h168v-469q0 -128 -69.5 -192.5t-197.5 -64.5q-127 0 -195 64.5t-68 190.5v471h167v-465q0 -68 22 -98t75 -30t75.5 30.5t22.5 100.5v462z" />
    <glyph glyph-name="uhungarumlaut" unicode="&#x171;" horiz-adv-x="530" 
d="M129 583l34 158h125l-66 -158h-93zM289 583l33 158h125l-66 -158h-92zM483 523v-523h-149v72q-42 -83 -141 -83q-68 0 -109 43.5t-41 126.5v364h150v-342q0 -77 63 -77q36 0 57 21.5t21 63.5v334h149z" />
    <glyph glyph-name="Uogonek" unicode="&#x172;" horiz-adv-x="640" 
d="M361 -181q-46 0 -76.5 20.5t-30.5 56.5q0 54 60 93q-124 0 -191.5 65t-67.5 190v471h167v-465q0 -68 22 -98t75 -30t75.5 30.5t22.5 100.5v462h168v-469q0 -167 -120 -228q-21 -11 -31.5 -17t-25.5 -17.5t-22 -24t-7 -27.5q0 -28 30 -28q18 0 29 5v-75q-30 -15 -77 -15z
" />
    <glyph glyph-name="uogonek" unicode="&#x173;" horiz-adv-x="530" 
d="M304 -104q0 62 78 104h-48v72q-42 -83 -141 -83q-68 0 -109 43.5t-41 126.5v364h150v-342q0 -77 63 -77q36 0 57 21.5t21 63.5v334h149v-523h-12q-42 -37 -42 -68q0 -28 30 -28q18 0 29 5v-75q-30 -15 -77 -15q-46 0 -76.5 20.5t-30.5 56.5z" />
    <glyph glyph-name="Wcircumflex" unicode="&#x174;" horiz-adv-x="839" 
d="M259 758l100 138h128l98 -138h-107l-57 49l-58 -49h-104zM157 0l-142 715h168l80 -469l95 469h129l101 -472l82 472h154l-143 -715h-159l-98 446l-99 -446h-168z" />
    <glyph glyph-name="wcircumflex" unicode="&#x175;" horiz-adv-x="727" 
d="M203 584l105 156h115l101 -156h-104l-57 59l-58 -59h-102zM141 0l-131 523h155l66 -329l82 329h115l76 -329l72 329h140l-137 -523h-146l-70 302l-74 -302h-148z" />
    <glyph glyph-name="Ycircumflex" unicode="&#x176;" horiz-adv-x="569" 
d="M128 758l100 138h128l98 -138h-107l-57 49l-58 -49h-104zM205 0v305l-197 410h181l107 -259l107 259h158l-188 -410v-305h-168z" />
    <glyph glyph-name="ycircumflex" unicode="&#x177;" horiz-adv-x="502" 
d="M95 584l105 156h115l101 -156h-104l-57 59l-58 -59h-102zM169 523l94 -300l88 300h142l-237 -698h-144l74 220l-177 478h160z" />
    <glyph glyph-name="Ydieresis" unicode="&#x178;" horiz-adv-x="569" 
d="M191 760q-31 0 -53 21t-22 52t22 52t53 21t53.5 -21.5t22.5 -51.5t-22.5 -51.5t-53.5 -21.5zM390 760q-31 0 -52.5 21t-21.5 52t21.5 52t52.5 21q32 0 54 -21t22 -52t-22 -52t-54 -21zM205 0v305l-197 410h181l107 -259l107 259h158l-188 -410v-305h-168z" />
    <glyph glyph-name="Zacute" unicode="&#x179;" horiz-adv-x="522" 
d="M201 758l46 138h160l-92 -138h-114zM12 0v19l270 570h-236v126h458v-19l-269 -568h256v-128h-479z" />
    <glyph glyph-name="zacute" unicode="&#x17a;" horiz-adv-x="434" 
d="M166 583l48 158h156l-95 -158h-109zM11 0v15l205 393h-182v115h387v-17l-209 -391h198v-115h-399z" />
    <glyph glyph-name="Zdotaccent" unicode="&#x17b;" horiz-adv-x="522" 
d="M266 759q-35 0 -58.5 22.5t-23.5 55.5t23.5 55.5t58.5 22.5q34 0 57.5 -22.5t23.5 -55.5t-23.5 -55.5t-57.5 -22.5zM12 0v19l270 570h-236v126h458v-19l-269 -568h256v-128h-479z" />
    <glyph glyph-name="zdotaccent" unicode="&#x17c;" horiz-adv-x="434" 
d="M225 581q-35 0 -59 22.5t-24 55.5q0 34 24 56.5t59 22.5t58.5 -22.5t23.5 -56.5q0 -33 -23.5 -55.5t-58.5 -22.5zM11 0v15l205 393h-182v115h387v-17l-209 -391h198v-115h-399z" />
    <glyph glyph-name="Zcaron" unicode="&#x17d;" horiz-adv-x="522" 
d="M200 758l-98 138h107l57 -50l58 50h104l-100 -138h-128zM12 0v19l270 570h-236v126h458v-19l-269 -568h256v-128h-479z" />
    <glyph glyph-name="zcaron" unicode="&#x17e;" horiz-adv-x="434" 
d="M165 584l-101 156h104l57 -59l59 59h101l-105 -156h-115zM11 0v15l205 393h-182v115h387v-17l-209 -391h198v-115h-399z" />
    <glyph glyph-name="florin" unicode="&#x192;" horiz-adv-x="392" 
d="M27 -167l61 482h-67v106h80l16 127q22 174 198 174q37 0 64 -8v-116q-15 6 -44 6q-58 0 -67 -67l-15 -116h102v-106h-115l-62 -482h-151z" />
    <glyph glyph-name="Aringacute" unicode="&#x1fa;" horiz-adv-x="616" 
d="M251 966l46 138h160l-92 -138h-114zM310 739q-46 0 -77.5 30.5t-31.5 74.5t31.5 74.5t77.5 30.5t77.5 -30.5t31.5 -74.5t-31.5 -74.5t-77.5 -30.5zM310 797q19 0 31 13.5t12 33.5t-12 33.5t-31 13.5t-31 -13t-12 -34t12 -34t31 -13zM429 0l-33 147h-195l-33 -147h-154
l182 715h225l181 -715h-173zM298 576l-70 -312h141z" />
    <glyph glyph-name="aringacute" unicode="&#x1fb;" horiz-adv-x="499" 
d="M193 804l46 138h160l-92 -138h-114zM249 572q-45 0 -76.5 30.5t-31.5 73.5q0 44 31.5 75t76.5 31t76.5 -31t31.5 -75q0 -43 -31.5 -73.5t-76.5 -30.5zM249 630q19 0 31 13t12 33q0 21 -12 34t-31 13t-31 -13t-12 -34q0 -20 12 -33t31 -13zM178 -10q-67 0 -109.5 38
t-42.5 113v12q0 85 58.5 122t170.5 37h52v37q0 40 -13 59t-48 19q-58 0 -63 -64h-141q4 85 60 128t151 43q202 0 202 -179v-355h-145v56q-41 -66 -132 -66zM230 92q36 0 56.5 18.5t20.5 54.5v55h-46q-46 0 -67 -13.5t-21 -45.5v-11q0 -58 57 -58z" />
    <glyph glyph-name="AEacute" unicode="&#x1fc;" horiz-adv-x="833" 
d="M444 758l46 138h160l-92 -138h-114zM12 0l254 715h525v-130h-238v-156h188v-121h-188v-178h251v-130h-417v155h-166l-52 -155h-157zM366 585l-106 -316h127v316h-21z" />
    <glyph glyph-name="aeacute" unicode="&#x1fd;" horiz-adv-x="780" 
d="M339 583l48 158h156l-95 -158h-109zM198 -10q-78 0 -125 39.5t-47 113.5v13q0 162 228 162h53v32q0 40 -13.5 58.5t-47.5 18.5q-57 0 -63 -64h-140q4 83 59.5 127t147.5 44q101 0 140 -54q54 54 143 54q98 0 159 -57t61 -171v-79h-304v-11q0 -120 86 -120q70 0 79 67h140
q-17 -173 -221 -173q-119 0 -171 79q-53 -79 -164 -79zM531 432q-78 0 -82 -114h160v16q0 98 -78 98zM230 92q36 0 56.5 19t20.5 54v62h-46q-47 0 -68 -13.5t-21 -48.5v-15q0 -58 58 -58z" />
    <glyph glyph-name="Oslashacute" unicode="&#x1fe;" horiz-adv-x="680" 
d="M275 758l46 138h160l-92 -138h-114zM75 -29l-48 39l66 85q-61 80 -61 196v132q0 137 87 219.5t221 82.5q118 0 198 -59l54 70l48 -39l-57 -73q66 -79 66 -198v-131q0 -140 -85 -223t-225 -83q-121 0 -202 62zM202 288q0 -28 4 -48l239 307q-36 47 -105 47
q-65 0 -101.5 -44.5t-36.5 -125.5v-136zM342 121q63 0 99.5 45.5t36.5 126.5v137q0 27 -5 52l-240 -308q36 -53 109 -53z" />
    <glyph glyph-name="oslashacute" unicode="&#x1ff;" horiz-adv-x="530" 
d="M206 583l48 158h156l-95 -158h-109zM65 -33l-45 36l55 68q-49 60 -49 149v79q0 109 67 172t173 63q85 0 147 -42l49 61l46 -34l-53 -65q50 -61 50 -151v-79q0 -109 -67 -171.5t-173 -62.5q-86 0 -148 42zM174 217q0 -15 1 -21l159 197q-24 30 -68 30t-68 -29.5t-24 -85.5
v-91zM266 101q91 0 91 117v90q0 15 -1 22l-159 -199q22 -30 69 -30z" />
    <glyph glyph-name="uni0218" unicode="&#x218;" horiz-adv-x="561" 
d="M284 -11q-251 0 -257 226h160q2 -54 24 -78.5t73 -24.5q39 0 60.5 20.5t21.5 59.5q0 42 -24.5 62t-90.5 39q-112 34 -161 83.5t-49 144.5q0 92 63 148t171 56q228 0 238 -208h-156q-5 85 -83 85q-36 0 -55 -18t-19 -51q0 -37 22 -56t85 -38q55 -15 91 -31t68 -42t47 -65
t15 -93q0 -101 -65 -160t-179 -59zM257 -214l-87 23l38 156l136 -9z" />
    <glyph glyph-name="uni0219" unicode="&#x219;" horiz-adv-x="455" 
d="M228 -10q-98 0 -152 43.5t-55 127.5h139q2 -36 17.5 -53t49.5 -17q58 0 58 51q0 26 -20.5 38t-75.5 27q-88 24 -124.5 61t-36.5 109q0 75 54.5 116t137.5 41q187 0 197 -161h-137q-6 61 -60 61q-26 0 -40 -12.5t-14 -33.5q0 -24 18 -35.5t69 -25.5q92 -24 134.5 -60
t42.5 -109q0 -83 -52.5 -125.5t-149.5 -42.5zM206 -214l-87 23l38 156l136 -9z" />
    <glyph glyph-name="uni021A" unicode="&#x21a;" horiz-adv-x="523" 
d="M177 0v585h-157v130h483v-130h-158l-1 -585h-167zM246 -214l-87 23l38 156l136 -9z" />
    <glyph glyph-name="uni021B" unicode="&#x21b;" horiz-adv-x="339" 
d="M70 630h150v-107h92v-105h-92v-254q0 -53 49 -53q29 0 44 7v-114q-33 -11 -78 -11q-165 0 -165 157v268h-56v105h56v107zM173 -214l-87 23l38 156l136 -9z" />
    <glyph glyph-name="uni0237" unicode="&#x237;" horiz-adv-x="248" 
d="M-15 -182v111q34 3 49.5 18t15.5 45v531h148v-534q0 -84 -48.5 -127t-164.5 -44z" />
    <glyph glyph-name="circumflex" unicode="&#x2c6;" horiz-adv-x="400" 
d="M39 584l105 156h115l101 -156h-104l-57 59l-58 -59h-102z" />
    <glyph glyph-name="caron" unicode="&#x2c7;" horiz-adv-x="400" 
d="M140 584l-101 156h104l57 -59l59 59h101l-105 -156h-115z" />
    <glyph glyph-name="breve" unicode="&#x2d8;" horiz-adv-x="400" 
d="M199 585q-63 0 -101.5 38.5t-41.5 109.5h95q5 -49 48 -49q46 0 51 49h94q-4 -71 -43.5 -109.5t-101.5 -38.5z" />
    <glyph glyph-name="dotaccent" unicode="&#x2d9;" horiz-adv-x="400" 
d="M200 581q-35 0 -59 22.5t-24 55.5q0 34 24 56.5t59 22.5t58.5 -22.5t23.5 -56.5q0 -33 -23.5 -55.5t-58.5 -22.5z" />
    <glyph glyph-name="ring" unicode="&#x2da;" horiz-adv-x="400" 
d="M200 578q-45 0 -76.5 30.5t-31.5 73.5q0 44 31.5 75t76.5 31t76.5 -31t31.5 -75q0 -43 -31.5 -73.5t-76.5 -30.5zM200 636q19 0 31 13t12 33q0 21 -12 34t-31 13t-31 -13t-12 -34q0 -20 12 -33t31 -13z" />
    <glyph glyph-name="ogonek" unicode="&#x2db;" horiz-adv-x="400" 
d="M208 -181q-46 0 -76.5 20.5t-30.5 56.5q0 62 78 104h89q-42 -37 -42 -68q0 -28 30 -28q18 0 29 5v-75q-30 -15 -77 -15z" />
    <glyph glyph-name="tilde" unicode="&#x2dc;" horiz-adv-x="400" 
d="M256 588q-27 0 -60 16t-43 16q-24 0 -29 -33h-83q4 70 31 106t70 36q26 0 60 -16t46 -16q22 0 29 33h83q-4 -70 -33 -106t-71 -36z" />
    <glyph glyph-name="hungarumlaut" unicode="&#x2dd;" horiz-adv-x="400" 
d="M70 583l34 158h125l-66 -158h-93zM230 583l33 158h125l-66 -158h-92z" />
    <glyph glyph-name="Wgrave" unicode="&#x1e80;" horiz-adv-x="839" 
d="M373 758l-90 138h160l44 -138h-114zM157 0l-142 715h168l80 -469l95 469h129l101 -472l82 472h154l-143 -715h-159l-98 446l-99 -446h-168z" />
    <glyph glyph-name="wgrave" unicode="&#x1e81;" horiz-adv-x="727" 
d="M320 583l-96 158h157l49 -158h-110zM141 0l-131 523h155l66 -329l82 329h115l76 -329l72 329h140l-137 -523h-146l-70 302l-74 -302h-148z" />
    <glyph glyph-name="Wacute" unicode="&#x1e82;" horiz-adv-x="839" 
d="M364 758l46 138h160l-92 -138h-114zM157 0l-142 715h168l80 -469l95 469h129l101 -472l82 472h154l-143 -715h-159l-98 446l-99 -446h-168z" />
    <glyph glyph-name="wacute" unicode="&#x1e83;" horiz-adv-x="727" 
d="M314 583l48 158h156l-95 -158h-109zM141 0l-131 523h155l66 -329l82 329h115l76 -329l72 329h140l-137 -523h-146l-70 302l-74 -302h-148z" />
    <glyph glyph-name="Wdieresis" unicode="&#x1e84;" horiz-adv-x="839" 
d="M323 760q-31 0 -53 21t-22 52t22 52t53 21t53.5 -21.5t22.5 -51.5t-22.5 -51.5t-53.5 -21.5zM522 760q-31 0 -52.5 21t-21.5 52t21.5 52t52.5 21q32 0 54 -21t22 -52t-22 -52t-54 -21zM157 0l-142 715h168l80 -469l95 469h129l101 -472l82 472h154l-143 -715h-159
l-98 446l-99 -446h-168z" />
    <glyph glyph-name="wdieresis" unicode="&#x1e85;" horiz-adv-x="727" 
d="M273 582q-32 0 -54 21.5t-22 52.5q0 32 22 53.5t54 21.5t54 -22t22 -53t-22 -52.5t-54 -21.5zM465 582q-32 0 -54 21.5t-22 52.5t22 53t54 22t54.5 -22t22.5 -53t-22.5 -52.5t-54.5 -21.5zM141 0l-131 523h155l66 -329l82 329h115l76 -329l72 329h140l-137 -523h-146
l-70 302l-74 -302h-148z" />
    <glyph glyph-name="Ygrave" unicode="&#x1ef2;" horiz-adv-x="569" 
d="M243 758l-90 138h160l44 -138h-114zM205 0v305l-197 410h181l107 -259l107 259h158l-188 -410v-305h-168z" />
    <glyph glyph-name="ygrave" unicode="&#x1ef3;" horiz-adv-x="502" 
d="M209 583l-96 158h157l49 -158h-110zM169 523l94 -300l88 300h142l-237 -698h-144l74 220l-177 478h160z" />
    <glyph glyph-name="uni2009" unicode="&#x2009;" horiz-adv-x="84" 
 />
    <glyph glyph-name="endash" unicode="&#x2013;" horiz-adv-x="528" 
d="M42 241v93h444v-93h-444z" />
    <glyph glyph-name="emdash" unicode="&#x2014;" horiz-adv-x="920" 
d="M42 241v93h837v-93h-837z" />
    <glyph glyph-name="quoteleft" unicode="&#x2018;" horiz-adv-x="264" 
d="M144 726l86 -31l-69 -234l-134 43z" />
    <glyph glyph-name="quoteright" unicode="&#x2019;" horiz-adv-x="264" 
d="M121 461l-86 32l68 234l134 -43z" />
    <glyph glyph-name="quotesinglbase" unicode="&#x201a;" horiz-adv-x="261" 
d="M118 -97l-86 32l68 235l134 -42z" />
    <glyph glyph-name="quotedblleft" unicode="&#x201c;" horiz-adv-x="458" 
d="M144 726l86 -31l-69 -234l-134 43zM338 726l86 -31l-68 -234l-135 43z" />
    <glyph glyph-name="quotedblright" unicode="&#x201d;" horiz-adv-x="459" 
d="M121 461l-86 32l68 234l134 -43zM316 461l-86 32l69 234l134 -43z" />
    <glyph glyph-name="quotedblbase" unicode="&#x201e;" horiz-adv-x="456" 
d="M118 -97l-86 32l68 235l134 -42zM313 -97l-85 32l67 235l134 -42z" />
    <glyph glyph-name="dagger" unicode="&#x2020;" horiz-adv-x="358" 
d="M119 249v252h-94v105h94v109h121v-109h93v-105h-93v-252h-121z" />
    <glyph glyph-name="daggerdbl" unicode="&#x2021;" horiz-adv-x="358" 
d="M119 249v98h-94v98h94v74h-94v98h94v98h121v-98h93v-98h-93v-74h93v-98h-93v-98h-121z" />
    <glyph glyph-name="bullet" unicode="&#x2022;" horiz-adv-x="330" 
d="M165 181q-54 0 -91 37t-37 91t37 91t91 37q55 0 91.5 -37t36.5 -91t-36.5 -91t-91.5 -37z" />
    <glyph glyph-name="ellipsis" unicode="&#x2026;" horiz-adv-x="771" 
d="M129 -8q-37 0 -62.5 24.5t-25.5 60.5t25.5 61.5t62.5 25.5t62.5 -25.5t25.5 -61.5t-25.5 -60.5t-62.5 -24.5zM385 -8q-37 0 -62.5 24.5t-25.5 60.5t25.5 61.5t62.5 25.5t63 -25.5t26 -61.5t-25.5 -60.5t-63.5 -24.5zM641 -8q-37 0 -62.5 24.5t-25.5 60.5t25.5 61.5
t62.5 25.5t63 -25.5t26 -61.5t-25.5 -60.5t-63.5 -24.5z" />
    <glyph glyph-name="perthousand" unicode="&#x2030;" horiz-adv-x="1081" 
d="M193 398q-76 0 -122 45.5t-46 117.5q0 70 48.5 116t119.5 46q72 0 120.5 -45t48.5 -114q0 -72 -47 -119t-122 -47zM88 0l457 715h87l-456 -715h-88zM193 490q26 0 40.5 19t14.5 53q0 33 -14.5 51.5t-40.5 18.5q-25 0 -39.5 -18.5t-14.5 -51.5q0 -34 14 -53t40 -19z
M524 -10q-76 0 -122 45.5t-46 117.5q0 69 48.5 115t119.5 46q72 0 120.5 -44.5t48.5 -114.5q0 -72 -47 -118.5t-122 -46.5zM887 -10q-75 0 -121.5 45.5t-46.5 117.5q0 69 49 115t120 46q72 0 120 -44.5t48 -114.5q0 -72 -47 -118.5t-122 -46.5zM524 81q55 0 55 72
q0 34 -14 53t-41 19q-25 0 -39.5 -19t-14.5 -53t14 -53t40 -19zM888 81q26 0 40.5 19t14.5 53q0 33 -14.5 52.5t-40.5 19.5t-40.5 -19t-14.5 -53t14.5 -53t40.5 -19z" />
    <glyph glyph-name="minute" unicode="&#x2032;" horiz-adv-x="215" 
d="M31 466l18 249h142l-56 -249h-104z" />
    <glyph glyph-name="second" unicode="&#x2033;" horiz-adv-x="398" 
d="M31 466l18 249h142l-56 -249h-104zM215 466l18 249h141l-55 -249h-104z" />
    <glyph glyph-name="guilsinglleft" unicode="&#x2039;" horiz-adv-x="276" 
d="M139 81l-108 180l108 180h107l-104 -180l104 -180h-107z" />
    <glyph glyph-name="guilsinglright" unicode="&#x203a;" horiz-adv-x="276" 
d="M29 81l106 180l-106 180h108l108 -180l-108 -180h-108z" />
    <glyph glyph-name="fraction" unicode="&#x2044;" horiz-adv-x="159" 
d="M-220 0l514 715h84l-513 -715h-85z" />
    <glyph glyph-name="Euro" unicode="&#x20ac;" horiz-adv-x="611" 
d="M19 266v68h52v47h-52v68h52q4 125 75.5 200.5t189.5 75.5q229 0 244 -230v-2h-157v4q-9 99 -88 99q-97 0 -100 -147h155l-12 -68h-143v-47h136l-12 -68h-124q2 -145 100 -145q44 0 66.5 25.5t27.5 83.5v6h156v-6q-20 -241 -253 -241q-123 0 -191 75t-70 202h-52z" />
    <glyph glyph-name="trademark" unicode="&#x2122;" horiz-adv-x="636" 
d="M289 411v304h104l50 -156l51 156h106v-304h-85v186l-63 -186h-27l-62 186v-186h-74zM97 411v236h-71v68h228v-68h-71v-236h-86z" />
    <glyph glyph-name="onethird" unicode="&#x2153;" horiz-adv-x="748" 
d="M97 332v270l-74 -47v96l89 64h100v-383h-115zM50 0l514 715h84l-513 -715h-85zM576 -6q-146 0 -149 126h101q3 -46 41 -46t38 40v8q0 40 -46 40h-24v67h24q46 0 46 39v5q0 35 -33 35q-36 0 -39 -43h-101q3 59 39.5 91.5t103.5 32.5q65 0 101 -26.5t36 -76.5v-6
q0 -62 -64 -79q33 -6 52 -27.5t19 -55.5v-9q0 -54 -37 -84.5t-108 -30.5z" />
    <glyph glyph-name="twothirds" unicode="&#x2154;" horiz-adv-x="801" 
d="M8 332v15l114 133q35 42 50 67t15 49v4q0 36 -31 36q-34 0 -38 -54h-104q2 68 40.5 103.5t106.5 35.5t102.5 -31t34.5 -83v-4q0 -37 -18 -69t-54 -72l-41 -48h115v-82h-292zM113 0l514 715h84l-513 -715h-85zM629 -6q-146 0 -149 126h101q3 -46 41 -46t38 40v8
q0 40 -46 40h-24v67h24q46 0 46 39v5q0 35 -33 35q-36 0 -39 -43h-101q3 59 39.5 91.5t103.5 32.5q65 0 101 -26.5t36 -76.5v-6q0 -62 -64 -79q33 -6 52 -27.5t19 -55.5v-9q0 -54 -37 -84.5t-108 -30.5z" />
    <glyph glyph-name="oneeighth" unicode="&#x215b;" horiz-adv-x="755" 
d="M97 332v270l-74 -47v96l89 64h100v-383h-115zM47 0l514 715h84l-513 -715h-85zM579 -6q-73 0 -111.5 27.5t-38.5 81.5v12q0 66 65 87q-52 23 -52 75v8q0 49 38.5 76.5t99.5 27.5q63 0 101 -27t38 -77v-7q0 -56 -53 -75q65 -20 65 -87v-11q0 -53 -39.5 -82t-112.5 -29z
M580 230q36 0 36 38v10q0 17 -10 26.5t-26 9.5q-15 0 -25 -10t-10 -27v-10q0 -17 10 -27t25 -10zM580 71q18 0 29 11t11 30v15q0 19 -11 30.5t-29 11.5t-29 -11t-11 -31v-15q0 -19 11 -30t29 -11z" />
    <glyph glyph-name="threeeighths" unicode="&#x215c;" horiz-adv-x="785" 
d="M169 326q-146 0 -149 126h101q3 -46 41 -46t38 39v9q0 39 -46 39h-24v68h24q46 0 46 39v4q0 37 -33 37q-36 0 -39 -44h-101q3 58 39.5 91t103.5 33q65 0 101 -27t36 -76v-6q0 -62 -64 -79q33 -6 52 -28t19 -56v-8q0 -54 -37 -84.5t-108 -30.5zM93 0l514 715h84l-513 -715
h-85zM609 -6q-73 0 -111.5 27.5t-38.5 81.5v12q0 66 65 87q-52 23 -52 75v8q0 49 38.5 76.5t99.5 27.5q63 0 101 -27t38 -77v-7q0 -56 -53 -75q65 -20 65 -87v-11q0 -53 -39.5 -82t-112.5 -29zM610 230q36 0 36 38v10q0 17 -10 26.5t-26 9.5q-15 0 -25 -10t-10 -27v-10
q0 -17 10 -27t25 -10zM610 71q18 0 29 11t11 30v15q0 19 -11 30.5t-29 11.5t-29 -11t-11 -31v-15q0 -19 11 -30t29 -11z" />
    <glyph glyph-name="fiveeighths" unicode="&#x215d;" horiz-adv-x="779" 
d="M164 326q-140 0 -143 121h102q5 -38 38 -38q35 0 35 44v16q0 46 -44 46q-31 0 -46 -24h-73l8 224h248v-82h-167l-2 -85q25 37 83 37q49 0 77.5 -29.5t28.5 -86.5v-16q0 -60 -37.5 -93.5t-107.5 -33.5zM84 0l514 715h84l-513 -715h-85zM603 -6q-73 0 -111.5 27.5
t-38.5 81.5v12q0 66 65 87q-52 23 -52 75v8q0 49 38.5 76.5t99.5 27.5q63 0 101 -27t38 -77v-7q0 -56 -53 -75q65 -20 65 -87v-11q0 -53 -39.5 -82t-112.5 -29zM604 230q36 0 36 38v10q0 17 -10 26.5t-26 9.5q-15 0 -25 -10t-10 -27v-10q0 -17 10 -27t25 -10zM604 71
q18 0 29 11t11 30v15q0 19 -11 30.5t-29 11.5t-29 -11t-11 -31v-15q0 -19 11 -30t29 -11z" />
    <glyph glyph-name="seveneighths" unicode="&#x215e;" horiz-adv-x="747" 
d="M63 332l96 292h-139v91h278v-13l-122 -370h-113zM37 0l514 715h84l-513 -715h-85zM572 -6q-73 0 -111.5 27.5t-38.5 81.5v12q0 66 65 87q-52 23 -52 75v8q0 49 38.5 76.5t99.5 27.5q63 0 101 -27t38 -77v-7q0 -56 -53 -75q65 -20 65 -87v-11q0 -53 -39.5 -82t-112.5 -29z
M573 230q36 0 36 38v10q0 17 -10 26.5t-26 9.5q-15 0 -25 -10t-10 -27v-10q0 -17 10 -27t25 -10zM573 71q18 0 29 11t11 30v15q0 19 -11 30.5t-29 11.5t-29 -11t-11 -31v-15q0 -19 11 -30t29 -11z" />
    <glyph glyph-name="minus" unicode="&#x2212;" horiz-adv-x="497" 
d="M464 283h-431v115h431v-115z" />
    <glyph glyph-name="approxequal" unicode="&#x2248;" horiz-adv-x="502" 
d="M32 338q5 77 38.5 114.5t83.5 37.5q39 0 103 -17.5t83 -17.5q34 0 39 40h90q-4 -75 -38 -114t-83 -39q-40 0 -104.5 17.5t-82.5 17.5q-34 0 -40 -39h-89zM32 145q5 76 38.5 114.5t83.5 38.5q39 0 103 -18t83 -18q34 0 39 40h90q-4 -75 -38 -114t-83 -39q-40 0 -104.5 18
t-82.5 18q-34 0 -40 -40h-89z" />
    <glyph glyph-name="notequal" unicode="&#x2260;" horiz-adv-x="487" 
d="M105 91l34 89h-105v106h146l28 72h-174v107h216l34 89h100l-34 -89h103v-107h-145l-28 -72h173v-106h-214l-34 -89h-100z" />
    <glyph glyph-name="lessequal" unicode="&#x2264;" horiz-adv-x="457" 
d="M411 150l-375 201v29l375 200v-134l-163 -80l163 -81v-135zM36 18v104h375v-104h-375z" />
    <glyph glyph-name="greaterequal" unicode="&#x2265;" horiz-adv-x="457" 
d="M45 150v135l164 81l-164 80v134l375 -200v-29zM45 18v104h375v-104h-375z" />
    <glyph glyph-name="uni24C5" unicode="&#x24c5;" horiz-adv-x="759" 
d="M379 19q-146 0 -246 99t-100 246q0 146 100.5 246t247.5 100t246 -99.5t99 -245.5q0 -147 -100 -246.5t-247 -99.5zM379 67q122 0 206 83t84 215t-82.5 215t-205.5 83q-125 0 -208 -83.5t-83 -215.5t84 -214.5t205 -82.5zM254 176v381h140q143 0 143 -123v-8
q0 -118 -139 -118h-37v-132h-107zM361 382h28q46 0 46 45v6q0 43 -45 43h-29v-94z" />
    <glyph glyph-name="commaaccent" unicode="&#xf6c3;" horiz-adv-x="400" 
d="M196 -214l-87 23l38 156l136 -9z" />
    <glyph glyph-name="uniFB01" unicode="&#xfb01;" horiz-adv-x="570" 
d="M72 0v418h-58v105h58v65q0 82 46 124.5t126 42.5q41 0 64 -7v-111q-13 5 -35 5q-52 0 -52 -56v-63h88v-105h-88v-418h-149zM445 578q-36 0 -60 23t-24 57t24 56.5t60 22.5q35 0 59.5 -22.5t24.5 -56.5t-24 -57t-60 -23zM371 0v523h149v-523h-149z" />
    <glyph glyph-name="uniFB02" unicode="&#xfb02;" horiz-adv-x="571" 
d="M72 0v418h-58v105h58v65q0 82 46 124.5t126 42.5q41 0 64 -7v-111q-13 5 -35 5q-52 0 -52 -56v-63h88v-105h-88v-418h-149zM371 0v750h149v-750h-149z" />
    <glyph glyph-name="idotaccent" horiz-adv-x="249" 
d="M124 578q-36 0 -60 23t-24 57t24 56.5t60 22.5q35 0 59.5 -22.5t24.5 -56.5t-24 -57t-60 -23zM50 0v523h149v-523h-149z" />
    <glyph glyph-name="commaaccent.alt1alt" horiz-adv-x="393" 
d="M198 579q-32 0 -51 17t-19 49v8q0 102 128 106v-44q-57 -5 -60 -37q31 1 48 -12t17 -38q0 -22 -18 -35.5t-45 -13.5z" />
    <glyph glyph-name="hyphen.uc" horiz-adv-x="347" 
d="M44 272v120h259v-120h-259z" />
    <glyph glyph-name="endash.uc" horiz-adv-x="497" 
d="M37 284v94h423v-94h-423z" />
    <glyph glyph-name="emdash.uc" horiz-adv-x="882" 
d="M37 284v94h807v-94h-807z" />
    <glyph glyph-name="parenleft.uc" horiz-adv-x="319" 
d="M189 -98q-152 201 -152 441t152 441h119q-126 -202 -126 -441q0 -237 126 -441h-119z" />
    <glyph glyph-name="parenright.uc" horiz-adv-x="319" 
d="M11 -98q126 207 126 441q0 236 -126 441h119q151 -200 151 -441t-151 -441h-119z" />
    <glyph glyph-name="bracketleft.uc" horiz-adv-x="349" 
d="M59 -90v871h258v-109h-110v-652h110v-110h-258z" />
    <glyph glyph-name="bracketright.uc" horiz-adv-x="349" 
d="M33 -90v110h109v652h-109v109h258v-871h-258z" />
    <glyph glyph-name="braceleft.uc" horiz-adv-x="364" 
d="M332 -90q-132 0 -189 49t-41 154l16 94q6 41 -16 64t-75 24v105q53 0 75 23t16 64l-16 91q-17 107 40 155t190 48v-109q-53 -2 -72 -21.5t-12 -68.5l14 -104q11 -103 -98 -130q110 -25 98 -130l-14 -106q-7 -50 12 -70.5t72 -23.5v-108z" />
    <glyph glyph-name="braceright.uc" horiz-adv-x="364" 
d="M32 -90v108q54 3 73 23.5t12 70.5l-14 106q-13 104 98 130q-111 28 -98 130l14 104q7 49 -12 68.5t-73 21.5v109q133 0 190 -48t40 -155l-15 -91q-6 -41 15.5 -64t75.5 -23v-105q-54 -1 -75.5 -24t-15.5 -64l15 -94q16 -105 -41 -154t-189 -49z" />
    <glyph glyph-name="guilsinglleft.uc" horiz-adv-x="276" 
d="M139 124l-108 182l108 183h107l-104 -183l104 -182h-107z" />
    <glyph glyph-name="guilsinglright.uc" horiz-adv-x="276" 
d="M29 124l106 182l-106 183h108l108 -183l-108 -182h-108z" />
    <glyph glyph-name="guillemotleft.uc" horiz-adv-x="435" 
d="M139 124l-108 182l108 183h103l-104 -183l104 -182h-103zM302 124l-108 182l108 183h103l-104 -183l104 -182h-103z" />
    <glyph glyph-name="guillemotright.uc" horiz-adv-x="435" 
d="M29 124l106 182l-106 183h104l108 -183l-108 -182h-104zM192 124l105 182l-105 183h104l108 -183l-108 -182h-104z" />
    <glyph glyph-name="slash.uc" horiz-adv-x="390" 
d="M0 -78l266 851h121l-265 -851h-122z" />
    <glyph glyph-name="backslash.uc" horiz-adv-x="390" 
d="M268 -78l-266 851h121l266 -851h-121z" />
    <glyph glyph-name="bar.uc" horiz-adv-x="233" 
d="M63 -78v851h107v-851h-107z" />
    <glyph glyph-name="at.uc" horiz-adv-x="811" 
d="M408 -68q-173 0 -274 103t-101 266v61q0 174 111.5 284t273.5 110q160 0 260 -92.5t100 -241.5v-60q0 -118 -49 -174.5t-130 -56.5q-112 0 -131 76q-37 -78 -119 -78q-66 0 -106 45.5t-35 123.5l3 48q6 92 50 146t114 54q75 0 100 -54l5 46h126l-30 -274q-8 -67 40 -67
q38 0 62.5 42t24.5 124v60q0 122 -75.5 194t-207.5 72q-139 0 -224 -89t-85 -240v-59q0 -137 77 -220.5t222 -83.5q142 0 220 82h83q-39 -66 -120.5 -106.5t-184.5 -40.5zM388 229q29 0 47.5 28t22.5 75l4 46q3 33 -12.5 51t-44.5 18t-46 -26t-20 -71l-3 -48
q-2 -33 11.5 -53t40.5 -20z" />
    <glyph glyph-name="exclamdown.uc" horiz-adv-x="285" 
d="M144 723q38 0 64 -24.5t26 -59.5q0 -36 -26 -61t-64 -25q-37 0 -63 25t-26 61q0 35 26 59.5t63 24.5zM205 497l23 -497h-168l23 497h122z" />
    <glyph glyph-name="questiondown.uc" horiz-adv-x="484" 
d="M268 723q38 0 64 -24.5t26 -60.5q0 -37 -26 -61.5t-64 -24.5t-64 24.5t-26 61.5q0 36 26 60.5t64 24.5zM338 497v-33q0 -36 -14 -69t-26.5 -49t-44.5 -54q-2 -3 -7 -8q-20 -23 -29 -34.5t-17 -31t-8 -40.5q0 -64 58 -64q64 0 71 85h146q-3 -101 -62.5 -155t-163.5 -54
q-101 0 -155 46t-54 133q0 48 17.5 83t53.5 77q6 7 22.5 24t23 24t18 21.5t16.5 24t9.5 23t5.5 26.5v25h140z" />
    <glyph glyph-name="acute.uc" horiz-adv-x="400" 
d="M133 758l46 138h160l-92 -138h-114z" />
    <glyph glyph-name="grave.uc" horiz-adv-x="400" 
d="M153 758l-90 138h160l44 -138h-114z" />
    <glyph glyph-name="hungarumlaut.uc" horiz-adv-x="400" 
d="M60 758l32 138h134l-65 -138h-101zM231 758l33 138h134l-65 -138h-102z" />
    <glyph glyph-name="circumflex.uc" horiz-adv-x="400" 
d="M37 758l100 138h128l98 -138h-107l-57 49l-58 -49h-104z" />
    <glyph glyph-name="caron.uc" horiz-adv-x="400" 
d="M134 758l-98 138h107l57 -50l58 50h104l-100 -138h-128z" />
    <glyph glyph-name="breve.uc" horiz-adv-x="400" 
d="M199 752q-64 0 -103 37t-43 103h98q5 -44 48 -44q45 0 50 44h98q-4 -66 -44 -103t-104 -37z" />
    <glyph glyph-name="tilde.uc" horiz-adv-x="400" 
d="M258 758q-27 0 -62 16t-46 16q-23 0 -30 -32h-86q5 68 34.5 103.5t72.5 35.5q26 0 62 -15.5t48 -15.5q23 0 29 32h86q-5 -69 -35 -104.5t-73 -35.5z" />
    <glyph glyph-name="macron.uc" horiz-adv-x="400" 
d="M57 769v96h286v-96h-286z" />
    <glyph glyph-name="dieresis.uc" horiz-adv-x="400" 
d="M100 760q-31 0 -53 21t-22 52t22 52t53 21t53.5 -21.5t22.5 -51.5t-22.5 -51.5t-53.5 -21.5zM299 760q-31 0 -52.5 21t-21.5 52t21.5 52t52.5 21q32 0 54 -21t22 -52t-22 -52t-54 -21z" />
    <glyph glyph-name="dotaccent.uc" horiz-adv-x="400" 
d="M200 759q-35 0 -58.5 22.5t-23.5 55.5t23.5 55.5t58.5 22.5q34 0 57.5 -22.5t23.5 -55.5t-23.5 -55.5t-57.5 -22.5z" />
    <glyph glyph-name="ring.uc" horiz-adv-x="400" 
d="M200 744q-46 0 -77.5 30.5t-31.5 74.5t31.5 74.5t77.5 30.5t77.5 -30.5t31.5 -74.5t-31.5 -74.5t-77.5 -30.5zM200 802q19 0 31 13.5t12 33.5t-12 33.5t-31 13.5t-31 -13t-12 -34t12 -34t31 -13z" />
    <glyph glyph-name="zero.den" horiz-adv-x="374" 
d="M186 -7q-78 0 -120.5 43.5t-42.5 124.5v61q0 80 45 123.5t118 43.5q75 0 120 -41.5t45 -123.5v-61q0 -81 -43.5 -125.5t-121.5 -44.5zM187 81q51 0 51 81v60q0 81 -52 81q-49 0 -49 -81v-61q0 -42 12 -61t38 -19z" />
    <glyph glyph-name="one.den" horiz-adv-x="256" 
d="M94 0v271l-74 -47v96l89 63h100v-383h-115z" />
    <glyph glyph-name="two.den" horiz-adv-x="318" 
d="M5 0v14l114 135q65 76 65 115v4q0 36 -31 36q-34 0 -38 -54h-104q2 68 40.5 103.5t106.5 35.5t102.5 -30.5t34.5 -83.5v-4q0 -37 -18 -69t-54 -72l-41 -47h115v-83h-292z" />
    <glyph glyph-name="three.den" horiz-adv-x="334" 
d="M166 -6q-146 0 -149 126h101q3 -46 41 -46t38 40v8q0 40 -46 40h-24v67h24q46 0 46 39v5q0 35 -33 35q-36 0 -39 -43h-101q3 59 39.5 91.5t103.5 32.5q65 0 101 -26.5t36 -76.5v-6q0 -62 -64 -79q33 -6 52 -27.5t19 -55.5v-9q0 -54 -37 -84.5t-108 -30.5z" />
    <glyph glyph-name="four.den" horiz-adv-x="354" 
d="M181 0v76h-170v39l143 268h137v-230h44v-77h-44v-76h-110zM110 153h74v150z" />
    <glyph glyph-name="five.den" horiz-adv-x="328" 
d="M161 -6q-140 0 -143 121h102q5 -38 38 -38q36 0 36 44v16q0 46 -45 46q-31 0 -46 -23h-73l8 223h248v-82h-167l-2 -85q26 38 83 38q49 0 77.5 -30t28.5 -86v-17q0 -60 -37.5 -93.5t-107.5 -33.5z" />
    <glyph glyph-name="six.den" horiz-adv-x="350" 
d="M182 -6q-159 0 -159 166v60q0 79 44 124t118 45q129 0 138 -115h-104q-3 33 -34 33q-46 0 -48 -82v-22q24 41 81 41q49 0 80.5 -26.5t31.5 -81.5v-18q0 -58 -39 -91t-109 -33zM181 70q39 0 39 44v19q0 21 -10.5 33t-28.5 12q-19 0 -30 -11.5t-11 -31.5v-20q0 -45 41 -45z
" />
    <glyph glyph-name="seven.den" horiz-adv-x="305" 
d="M60 0l96 292h-139v91h278v-13l-122 -370h-113z" />
    <glyph glyph-name="eight.den" horiz-adv-x="343" 
d="M170 -6q-73 0 -111.5 27.5t-38.5 81.5v12q0 66 65 87q-52 23 -52 75v8q0 49 38.5 76.5t99.5 27.5q63 0 101 -27t38 -77v-7q0 -56 -53 -75q65 -20 65 -87v-11q0 -53 -39.5 -82t-112.5 -29zM171 230q36 0 36 38v10q0 17 -10 26.5t-26 9.5q-15 0 -25 -10t-10 -27v-10
q0 -17 10 -27t25 -10zM171 71q18 0 29 11t11 30v15q0 19 -11 30.5t-29 11.5t-29 -11t-11 -31v-15q0 -19 11 -30t29 -11z" />
    <glyph glyph-name="nine.den" horiz-adv-x="350" 
d="M168 -7q-66 0 -102.5 29.5t-39.5 86.5h103q4 -34 37 -34q47 0 47 77v24q-27 -39 -78 -39t-83 27t-32 83v16q0 58 39.5 92t107.5 34q79 0 119.5 -44.5t40.5 -121.5v-63q0 -81 -40.5 -124t-118.5 -43zM168 204q19 0 29.5 11.5t10.5 31.5v17q0 47 -40 47q-39 0 -39 -47v-15
q0 -45 39 -45z" />
    <glyph glyph-name="zero.num" horiz-adv-x="374" 
d="M186 325q-78 0 -120.5 43t-42.5 124v62q0 79 45 123t118 44q74 0 119.5 -42t45.5 -123v-61q0 -81 -43.5 -125.5t-121.5 -44.5zM187 412q51 0 51 81v61q0 81 -52 81q-26 0 -37.5 -19.5t-11.5 -62.5v-60q0 -81 50 -81z" />
    <glyph glyph-name="one.num" horiz-adv-x="256" 
d="M94 332v270l-74 -47v96l89 64h100v-383h-115z" />
    <glyph glyph-name="two.num" horiz-adv-x="318" 
d="M5 332v15l114 133q35 42 50 67t15 49v4q0 36 -31 36q-34 0 -38 -54h-104q2 68 40.5 103.5t106.5 35.5t102.5 -31t34.5 -83v-4q0 -37 -18 -69t-54 -72l-41 -48h115v-82h-292z" />
    <glyph glyph-name="three.num" horiz-adv-x="334" 
d="M166 326q-146 0 -149 126h101q3 -46 41 -46t38 39v9q0 39 -46 39h-24v68h24q46 0 46 39v4q0 37 -33 37q-36 0 -39 -44h-101q3 58 39.5 91t103.5 33q65 0 101 -27t36 -76v-6q0 -62 -64 -79q33 -6 52 -28t19 -56v-8q0 -54 -37 -84.5t-108 -30.5z" />
    <glyph glyph-name="four.num" horiz-adv-x="353" 
d="M181 332v76h-170v40l143 267h137v-230h44v-77h-44v-76h-110zM110 485h74v149z" />
    <glyph glyph-name="five.num" horiz-adv-x="328" 
d="M161 326q-140 0 -143 121h102q5 -38 38 -38q35 0 35 44v16q0 46 -44 46q-31 0 -46 -24h-73l8 224h248v-82h-167l-2 -85q25 37 83 37q49 0 77.5 -29.5t28.5 -86.5v-16q0 -60 -37.5 -93.5t-107.5 -33.5z" />
    <glyph glyph-name="six.num" horiz-adv-x="350" 
d="M182 326q-159 0 -159 167v60q0 79 44 123.5t118 44.5q129 0 138 -115h-104q-3 33 -34 33q-46 0 -48 -82v-23q25 42 81 42q50 0 81 -26.5t31 -82.5v-17q0 -58 -39 -91t-109 -33zM181 402q39 0 39 45v18q0 20 -10.5 32.5t-28.5 12.5q-19 0 -30 -12t-11 -32v-20
q0 -20 11 -32t30 -12z" />
    <glyph glyph-name="seven.num" horiz-adv-x="305" 
d="M60 332l96 292h-139v91h278v-13l-122 -370h-113z" />
    <glyph glyph-name="eight.num" horiz-adv-x="342" 
d="M170 326q-73 0 -111.5 27.5t-38.5 81.5v11q0 67 65 88q-52 21 -52 76v6q0 49 38.5 77t99.5 28q63 0 101 -27t38 -77v-7q0 -56 -53 -75q65 -20 65 -87v-10q0 -54 -39.5 -83t-112.5 -29zM171 562q36 0 36 38v9q0 36 -36 36q-15 0 -25 -9.5t-10 -27.5v-9q0 -17 10 -27
t25 -10zM171 403q18 0 29 11t11 30v15q0 19 -11 30.5t-29 11.5t-29 -11t-11 -31v-15q0 -19 11 -30t29 -11z" />
    <glyph glyph-name="nine.num" horiz-adv-x="350" 
d="M168 325q-66 0 -102.5 29.5t-39.5 86.5h103q4 -34 37 -34q47 0 47 77v23q-27 -38 -78 -38t-83 27t-32 83v16q0 58 39.5 91.5t107.5 33.5q79 0 119.5 -44.5t40.5 -121.5v-63q0 -81 -40.5 -123.5t-118.5 -42.5zM168 536q19 0 29.5 11.5t10.5 31.5v18q0 46 -40 46
q-39 0 -39 -46v-17q0 -44 39 -44z" />
    <glyph glyph-name="zero.old" horiz-adv-x="575" 
d="M286 -11q-117 0 -186.5 68t-69.5 193v112q0 124 71 193.5t187 69.5q115 0 185.5 -67.5t70.5 -192.5v-110q0 -126 -70 -196t-188 -70zM288 112q96 0 96 141v111q0 139 -96 139q-98 0 -98 -139v-111q0 -141 98 -141z" />
    <glyph glyph-name="one.old" horiz-adv-x="369" 
d="M142 0v456l-115 -77v136l136 100h137v-615h-158z" />
    <glyph glyph-name="two.old" horiz-adv-x="508" 
d="M11 0v23l185 202q61 69 89.5 115t28.5 89v6q0 68 -66 68q-69 0 -79 -94v-3h-144v1q4 103 64 160.5t167 57.5q103 0 160 -48.5t57 -131.5v-10q0 -55 -32 -108.5t-98 -126.5l-74 -81h207v-119h-465z" />
    <glyph glyph-name="three.old" horiz-adv-x="533" 
d="M265 -102q-118 0 -178 56.5t-64 160.5v3h146v-4q6 -96 90 -96q85 0 85 87v26q0 48 -22.5 69t-72.5 21h-46v105h43q92 0 92 85v19q0 76 -71 76q-78 0 -86 -89v-3h-144v3q5 96 65.5 152t168.5 56q102 0 159.5 -48t57.5 -133v-19q0 -109 -109 -145q124 -29 124 -157v-26
q0 -91 -61.5 -145t-176.5 -54z" />
    <glyph glyph-name="four.old" horiz-adv-x="575" 
d="M316 -92v145h-301v52l258 510h199v-453h82v-109h-82v-145h-156zM165 162h154v322z" />
    <glyph glyph-name="five.old" horiz-adv-x="526" 
d="M258 -102q-112 0 -172 55t-62 149v3h147v-4q4 -40 23 -60.5t62 -20.5q39 0 60.5 26t21.5 72v38q0 48 -25 74.5t-69 26.5q-67 0 -106 -48h-89l12 405h403v-126h-285l-4 -177q47 58 139 58q82 0 132 -54t50 -154v-44q0 -102 -63 -160.5t-175 -58.5z" />
    <glyph glyph-name="six.old" horiz-adv-x="556" 
d="M287 -11q-129 0 -191.5 73.5t-62.5 203.5v151q0 142 72 221.5t189 79.5q206 0 222 -189v-4h-150v5q-9 67 -71 67q-99 0 -102 -177v-50q47 78 142 78q84 0 138 -52t54 -147v-45q0 -100 -64 -157.5t-176 -57.5zM286 107q39 0 62 25.5t23 69.5v44q0 45 -22.5 70.5
t-62.5 25.5t-64.5 -26t-24.5 -70v-36q0 -49 24 -76t65 -27z" />
    <glyph glyph-name="seven.old" horiz-adv-x="489" 
d="M88 -92l191 576h-258v131h457v-18l-225 -689h-165z" />
    <glyph glyph-name="eight.old" horiz-adv-x="547" 
d="M273 -11q-111 0 -178 49.5t-67 144.5v34q0 117 119 159q-96 40 -96 140v17q0 88 63.5 136.5t160.5 48.5q98 0 160 -48t62 -136v-17q0 -100 -97 -140q118 -41 118 -157v-33q0 -95 -66.5 -146.5t-178.5 -51.5zM275 423q34 0 54 21t20 61v21q0 37 -20.5 58t-53.5 21
t-54.5 -21t-21.5 -58v-22q0 -38 21.5 -59.5t54.5 -21.5zM274 106q39 0 62.5 23t23.5 66v38q0 42 -23.5 66t-61.5 24q-39 0 -63 -23.5t-24 -66.5v-38q0 -43 23.5 -66t62.5 -23z" />
    <glyph glyph-name="nine.old" horiz-adv-x="556" 
d="M263 -104q-104 0 -162.5 50t-65.5 145v4h150v-5q12 -73 80 -73q52 0 74.5 41t24.5 137v49q-47 -78 -141 -78q-84 0 -139 51.5t-55 144.5v46q0 102 64.5 159.5t176.5 57.5q253 0 253 -286v-144q0 -143 -67.5 -221t-192.5 -78zM271 272q40 0 64 26.5t24 71.5v35
q0 49 -23.5 76t-64.5 27q-39 0 -62 -26t-23 -70v-44q0 -45 22.5 -70.5t62.5 -25.5z" />
    <glyph glyph-name="dollar.old" horiz-adv-x="546" 
d="M243 -120v109q-105 8 -160 62.5t-60 146.5v4h144v-6q5 -83 76 -96v193q-110 29 -158.5 77t-48.5 136v2q0 82 56 134t151 59v81h64v-82q191 -16 201 -189v-5h-140v5q-6 64 -61 77v-172q107 -29 159.5 -75t52.5 -139v-4q0 -89 -55 -145.5t-157 -63.5v-109h-64zM175 519
q0 -30 15.5 -49t52.5 -34v154q-68 -11 -68 -70v-1zM375 184q0 33 -16 53.5t-52 35.5v-173q33 6 50.5 27t17.5 54v3z" />
    <glyph glyph-name="sterling.old" horiz-adv-x="545" 
d="M31 290v96h47q-14 63 -14 113v3q0 94 62.5 147.5t163.5 53.5q215 0 223 -203h-150q-5 41 -21 59.5t-47 18.5q-33 0 -51 -20.5t-18 -59.5v-5q0 -33 8 -107h154v-96h-143q4 -32 4 -75q0 -41 -12 -70q10 -3 26.5 -8.5t25.5 -8t21 -5t20 -2.5q49 0 53 51h141
q-3 -81 -45 -130.5t-118 -49.5q-46 0 -106 22.5t-76 22.5q-35 0 -41 -37h-121q7 109 82 144q9 27 9 69q0 35 -8 77h-69z" />
    <glyph glyph-name="yen.old" horiz-adv-x="538" 
d="M56 172v66h135v46h-135v66h117l-160 344h174l93 -243l92 243h153l-153 -344h118v-66h-135v-46h135v-66h-135v-172h-164v172h-135z" />
    <glyph glyph-name="Euro.old" horiz-adv-x="593" 
d="M18 258v66h51v45h-51v66h51q3 122 72.5 195t184.5 73q108 0 168.5 -55t67.5 -166v-2h-152v3q-9 95 -86 95q-95 0 -95 -143h150l-11 -66h-139v-45h130l-11 -66h-119q1 -70 24 -105.5t74 -35.5q41 0 62.5 25t25.5 81v4h152v-4q-19 -234 -244 -234q-120 0 -186 72.5
t-68 196.5h-51z" />
    <glyph glyph-name="zero.oldtab" 
d="M258 -11q-107 0 -168 63.5t-61 179.5v151q0 114 63.5 178t167.5 64q105 0 168 -61.5t63 -177.5v-151q0 -116 -62 -181t-171 -65zM262 116q40 0 57.5 29t17.5 89v150q0 117 -76 117q-77 0 -77 -117v-151q0 -60 18.5 -88.5t59.5 -28.5z" />
    <glyph glyph-name="one.oldtab" 
d="M230 0v456l-152 -107v135l173 131h137v-615h-158z" />
    <glyph glyph-name="two.oldtab" 
d="M21 0v23l185 202q57 65 84.5 112t27.5 90v7q0 69 -63 69q-34 0 -52.5 -22.5t-23.5 -71.5h-144q5 103 63.5 159.5t164.5 56.5q102 0 158 -48.5t56 -131.5v-10q0 -55 -31.5 -109t-95.5 -126l-75 -81h205v-119h-459z" />
    <glyph glyph-name="three.oldtab" 
d="M255 -103q-114 0 -172.5 57t-60.5 160h145q2 -48 22.5 -72t63.5 -24q81 0 81 86v26q0 47 -21.5 69t-68.5 22h-44v105h42q87 0 87 86v18q0 76 -70 76q-74 0 -81 -88h-142q3 95 63.5 151t164.5 56q101 0 156.5 -47.5t55.5 -133.5v-19q0 -112 -106 -144q120 -26 120 -156
v-26q0 -94 -61.5 -148t-173.5 -54z" />
    <glyph glyph-name="four.oldtab" 
d="M282 -92v145h-271v51l229 511h193v-453h70v-109h-70v-145h-151zM146 162h139v317z" />
    <glyph glyph-name="five.oldtab" 
d="M255 -102q-110 0 -165.5 52.5t-58.5 151.5h143q4 -42 22 -62.5t57 -20.5q77 0 77 99v38q0 50 -23 76t-65 26q-62 0 -101 -48h-86l11 404h386v-125h-270l-3 -178q45 60 130 60q81 0 128 -54t47 -152v-43q0 -105 -60 -164.5t-169 -59.5z" />
    <glyph glyph-name="six.oldtab" 
d="M272 -11q-119 0 -179 69.5t-60 193.5v176q0 138 66.5 214t179.5 76q199 0 209 -188h-143q-8 69 -65 69q-96 0 -96 -178v-50q43 77 135 77q79 0 128.5 -50t49.5 -145v-46q0 -102 -60.5 -160t-164.5 -58zM271 108q36 0 58.5 25t22.5 68v45q0 45 -21.5 70.5t-59.5 25.5
t-62.5 -25t-24.5 -70v-38q0 -49 24 -75t63 -26z" />
    <glyph glyph-name="seven.oldtab" 
d="M99 -92l189 576h-250v131h451v-18l-225 -689h-165z" />
    <glyph glyph-name="eight.oldtab" 
d="M261 -11q-106 0 -169 49.5t-63 144.5v34q0 118 112 159q-91 38 -91 140v17q0 88 59.5 136.5t152.5 48.5t152 -48t59 -136v-17q0 -101 -91 -140q110 -40 110 -157v-33q0 -95 -63 -146.5t-168 -51.5zM262 423q32 0 51.5 21.5t19.5 60.5v21q0 37 -19.5 58t-51.5 21
t-51.5 -21t-19.5 -58v-22q0 -38 20 -59.5t51 -21.5zM261 106q37 0 59 23t22 66v38q0 42 -21.5 66t-58.5 24t-59.5 -23.5t-22.5 -67.5v-38q0 -42 22 -65t59 -23z" />
    <glyph glyph-name="nine.oldtab" 
d="M247 -104q-208 0 -217 195v4h141v-5q8 -74 76 -74q49 0 69.5 40.5t21.5 132.5v49q-42 -72 -133 -72q-79 0 -129.5 49.5t-50.5 144.5v47q0 100 61 159t165 59q118 0 178 -69t60 -193v-177q0 -141 -63 -215.5t-179 -74.5zM253 273q37 0 61 25t24 70v37q0 50 -23.5 76.5
t-61.5 26.5t-60.5 -25.5t-22.5 -69.5v-44q0 -45 22.5 -70.5t60.5 -25.5z" />
    <glyph glyph-name="dollar.oldtab" 
d="M232 -120v109q-101 7 -154 61t-55 148v4h134v-6q7 -83 75 -95v192q-104 29 -151.5 76.5t-47.5 136.5v2q0 82 53.5 134.5t145.5 58.5v81h60v-82q88 -8 138 -55.5t54 -133.5v-5h-132v5q-7 63 -60 76v-170q101 -29 151.5 -76t50.5 -140v-5q0 -88 -52 -144t-150 -63v-109h-60
zM166 519q0 -31 15 -50t51 -33v153q-66 -9 -66 -69v-1zM358 185q0 32 -15.5 52.5t-50.5 35.5v-173q66 14 66 81v4z" />
    <glyph glyph-name="sterling.oldtab" 
d="M33 291v94h45q-14 63 -14 114v3q0 95 58.5 148t153.5 53q202 0 208 -201v-6h-138v6q-4 42 -19 59t-46 17q-67 0 -67 -80v-5q0 -41 9 -108h145v-94h-134q4 -50 4 -76q0 -41 -12 -71q9 -3 24.5 -7.5t24 -7.5t20 -5t19.5 -2q48 0 51 50h131q-3 -84 -42 -132t-111 -48
q-43 0 -98.5 22.5t-70.5 22.5q-33 0 -39 -37h-115q7 109 77 144q9 26 9 69q0 36 -8 78h-65z" />
    <glyph glyph-name="yen.oldtab" 
d="M184 0v180h-128v66h128v46h-128v66h117l-150 336h163l86 -230l83 230h144l-145 -336h120v-66h-131v-46h131v-66h-131v-180h-159z" />
    <glyph glyph-name="Euro.oldtab" 
d="M14 259v65h44v47h-44v65h44v16q0 119 61.5 185t163.5 66q211 0 211 -212v-2h-140v3q0 89 -70 89q-78 0 -78 -126v-19h140l-11 -65h-129v-47h121l-11 -65h-110v-20q0 -66 18.5 -96t61.5 -30q37 0 55.5 22t18.5 75v4h137v-4q0 -221 -216 -221q-105 0 -164 65t-59 187v18
h-44z" />
    <glyph glyph-name="zero.sub" horiz-adv-x="374" 
d="M186 -122q-78 0 -120.5 43t-42.5 124v62q0 79 45 122.5t118 43.5q75 0 120 -41.5t45 -122.5v-61q0 -81 -43.5 -125.5t-121.5 -44.5zM187 -34q51 0 51 80v61q0 80 -52 80q-49 0 -49 -81v-60q0 -42 12 -61t38 -19z" />
    <glyph glyph-name="one.sub" horiz-adv-x="256" 
d="M94 -116v271l-74 -47v96l89 64h100v-384h-115z" />
    <glyph glyph-name="two.sub" horiz-adv-x="318" 
d="M5 -116v16l114 133q34 41 49.5 66.5t15.5 49.5v4q0 35 -31 35q-34 0 -38 -53h-104q2 68 40.5 103t106.5 35t102.5 -30.5t34.5 -83.5v-3q0 -38 -18 -69t-54 -72l-41 -47h115v-84h-292z" />
    <glyph glyph-name="three.sub" horiz-adv-x="334" 
d="M166 -122q-146 0 -149 126h101q3 -45 41 -45t38 39v8q0 21 -10.5 30.5t-35.5 9.5h-24v68h24q46 0 46 39v4q0 37 -33 37q-36 0 -39 -44h-101q3 59 39.5 91t103.5 32q65 0 101 -26.5t36 -76.5v-5q0 -62 -64 -79q33 -6 52 -28t19 -56v-8q0 -54 -37.5 -85t-107.5 -31z" />
    <glyph glyph-name="four.sub" horiz-adv-x="354" 
d="M181 -116v77h-170v39l143 268h137v-230h44v-77h-44v-77h-110zM110 38h74v149z" />
    <glyph glyph-name="five.sub" horiz-adv-x="328" 
d="M161 -122q-140 0 -143 122h102q5 -39 38 -39q35 0 35 45v16q0 46 -44 46q-31 0 -46 -24h-73l8 224h248v-82h-167l-2 -86q26 38 83 38q49 0 77.5 -29.5t28.5 -86.5v-16q0 -61 -37.5 -94.5t-107.5 -33.5z" />
    <glyph glyph-name="six.sub" horiz-adv-x="350" 
d="M182 -122q-81 0 -120 44t-39 123v61q0 78 44 122.5t118 44.5q129 0 138 -114h-104q-3 33 -34 33q-46 0 -48 -83v-21q25 41 81 41q49 0 80.5 -27t31.5 -82v-18q0 -57 -39.5 -90.5t-108.5 -33.5zM181 -46q18 0 28.5 12t10.5 33v19q0 20 -10.5 32t-28.5 12q-19 0 -30 -11.5
t-11 -31.5v-19q0 -46 41 -46z" />
    <glyph glyph-name="seven.sub" horiz-adv-x="305" 
d="M60 -116l96 293h-139v91h278v-14l-122 -370h-113z" />
    <glyph glyph-name="eight.sub" horiz-adv-x="343" 
d="M170 -122q-72 0 -111 28t-39 82v11q0 67 65 88q-52 21 -52 76v6q0 49 38.5 76.5t99.5 27.5q63 0 101 -26.5t38 -76.5v-7q0 -56 -53 -75q65 -20 65 -87v-11q0 -53 -39.5 -82.5t-112.5 -29.5zM171 116q36 0 36 37v9q0 36 -36 36q-15 0 -25 -10t-10 -27v-9q0 -17 10 -26.5
t25 -9.5zM171 -44q18 0 29 11t11 30v15q0 19 -11 30.5t-29 11.5t-29 -11t-11 -31v-15q0 -19 11 -30t29 -11z" />
    <glyph glyph-name="nine.sub" horiz-adv-x="350" 
d="M168 -122q-136 0 -142 116h103q5 -35 37 -35q47 0 47 78v24q-25 -39 -78 -39q-51 0 -83 27t-32 83v16q0 58 39.5 91.5t107.5 33.5q79 0 119.5 -44.5t40.5 -121.5v-63q0 -81 -40.5 -123.5t-118.5 -42.5zM168 89q40 0 40 43v18q0 45 -40 45q-39 0 -39 -45v-17q0 -44 39 -44
z" />
    <glyph glyph-name="plus.sub" horiz-adv-x="331" 
d="M123 -63v96h-91v83h91v96h84v-96h92v-83h-92v-96h-84z" />
    <glyph glyph-name="minus.sub" horiz-adv-x="331" 
d="M32 33v83h267v-83h-267z" />
    <glyph glyph-name="zero.sup" horiz-adv-x="374" 
d="M186 381q-78 0 -120.5 43t-42.5 124v62q0 80 45 123.5t118 43.5q74 0 119.5 -42t45.5 -123v-61q0 -81 -43.5 -125.5t-121.5 -44.5zM187 469q51 0 51 81v60q0 81 -52 81q-26 0 -37.5 -19.5t-11.5 -62.5v-60q0 -42 12 -61t38 -19z" />
    <glyph glyph-name="one.sup" horiz-adv-x="256" 
d="M94 388v271l-74 -48v96l89 64h100v-383h-115z" />
    <glyph glyph-name="two.sup" horiz-adv-x="318" 
d="M5 388v15l114 134q65 76 65 115v4q0 36 -31 36q-34 0 -38 -54h-104q2 69 40 104t107 35q68 0 102.5 -30.5t34.5 -83.5v-4q0 -37 -18 -69t-54 -72l-41 -47h115v-83h-292z" />
    <glyph glyph-name="three.sup" horiz-adv-x="334" 
d="M166 382q-146 0 -149 126h101q3 -46 41 -46t38 39v8q0 21 -10.5 30.5t-35.5 9.5h-24v68h24q46 0 46 39v4q0 36 -33 36q-36 0 -39 -43h-101q3 59 39.5 91.5t103.5 32.5q65 0 101 -27t36 -77v-5q0 -62 -64 -79q33 -6 52 -27.5t19 -55.5v-9q0 -54 -37 -84.5t-108 -30.5z" />
    <glyph glyph-name="four.sup" horiz-adv-x="354" 
d="M181 388v76h-170v40l143 267h137v-231h44v-76h-44v-76h-110zM110 540h74v150z" />
    <glyph glyph-name="five.sup" horiz-adv-x="328" 
d="M161 382q-140 0 -143 121h102q5 -38 38 -38q35 0 35 44v16q0 46 -44 46q-32 0 -46 -24h-73l8 224h248v-82h-167l-2 -85q26 38 83 38q49 0 77.5 -30t28.5 -87v-16q0 -60 -37.5 -93.5t-107.5 -33.5z" />
    <glyph glyph-name="six.sup" horiz-adv-x="350" 
d="M182 382q-159 0 -159 167v60q0 79 44 123.5t118 44.5q129 0 138 -115h-104q-3 32 -34 32q-46 0 -48 -81v-22q24 41 81 41q49 0 80.5 -26.5t31.5 -81.5v-19q0 -57 -39.5 -90t-108.5 -33zM181 458q39 0 39 45v19q0 20 -10.5 32t-28.5 12q-19 0 -30 -12t-11 -31v-20
q0 -45 41 -45z" />
    <glyph glyph-name="seven.sup" horiz-adv-x="305" 
d="M60 388l96 292h-139v91h278v-13l-122 -370h-113z" />
    <glyph glyph-name="eight.sup" horiz-adv-x="343" 
d="M170 382q-72 0 -111 28t-39 81v11q0 67 65 88q-52 23 -52 76v6q0 49 39 77t99 28q63 0 101 -27.5t38 -76.5v-7q0 -54 -53 -75q65 -20 65 -87v-11q0 -53 -39.5 -82t-112.5 -29zM171 619q36 0 36 37v9q0 36 -36 36q-35 0 -35 -37v-8q0 -18 10 -27.5t25 -9.5zM171 459
q18 0 29 11t11 30v16q0 19 -11 30t-29 11t-29 -11t-11 -31v-15q0 -19 11 -30t29 -11z" />
    <glyph glyph-name="nine.sup" horiz-adv-x="350" 
d="M168 381q-66 0 -102.5 29.5t-39.5 86.5h103q4 -34 37 -34q47 0 47 77v23q-27 -38 -78 -38t-83 27t-32 83v16q0 58 39.5 91.5t107.5 33.5q79 0 119.5 -44.5t40.5 -121.5v-62q0 -81 -40.5 -124t-118.5 -43zM168 592q19 0 29.5 11.5t10.5 31.5v18q0 46 -40 46q-39 0 -39 -46
v-17q0 -44 39 -44z" />
    <glyph glyph-name="plus.sup" horiz-adv-x="331" 
d="M123 449v95h-91v83h91v97h84v-97h92v-83h-92v-95h-84z" />
    <glyph glyph-name="minus.sup" horiz-adv-x="331" 
d="M32 544v83h267v-83h-267z" />
    <glyph glyph-name="f.short" horiz-adv-x="319" 
d="M72 0v418h-58v105h58v65q0 82 46 124.5t126 42.5q41 0 64 -7v-111q-13 5 -35 5q-52 0 -52 -56v-63h88v-105h-88v-418h-149z" />
    <glyph glyph-name="f_f.short" horiz-adv-x="598" 
d="M72 0v418h-58v105h58v58q0 83 45.5 125.5t124.5 42.5q39 0 66 -9v-110q-15 5 -36 5q-51 0 -51 -55v-57h130v65q0 82 45.5 124.5t125.5 42.5q40 0 65 -7v-111q-15 5 -36 5q-52 0 -52 -56v-63h88v-105h-88v-418h-148v418h-130v-418h-149z" />
    <glyph glyph-name="uni0163.altalt1" horiz-adv-x="329" 
d="M77 630h150v-107h85v-105h-85v-418h-150v418h-63v105h63v107zM94 -212v44q57 5 60 36q-31 -1 -48 12t-17 38q0 22 17.5 36t45.5 14q32 0 51 -17.5t19 -50.5v-7q0 -102 -128 -105z" />
    <glyph glyph-name="uni0122.alt1" horiz-adv-x="656" 
d="M349 270v113h274v-122q0 -130 -73 -201t-212 -71q-145 0 -223.5 79.5t-78.5 219.5v138q0 138 83.5 218.5t217.5 80.5q118 0 192.5 -57t81.5 -179h-165q-10 105 -108 105q-62 0 -96 -43.5t-34 -123.5v-142q0 -167 134 -167q116 0 119 124v28h-112zM272 -212v44q57 5 60 36
q-31 -1 -48 12t-17 38q0 22 17.5 36t45.5 14q32 0 51 -17.5t19 -50.5v-7q0 -102 -128 -105z" />
    <glyph glyph-name="uni0136.alt1" horiz-adv-x="606" 
d="M58 0v715h167v-297l189 297h172l-218 -331l229 -384h-187l-185 319v-319h-167zM253 -212v44q57 5 60 36q-31 -1 -48 12t-17 38q0 22 17.5 36t45.5 14q32 0 51 -17.5t19 -50.5v-7q0 -102 -128 -105z" />
    <glyph glyph-name="uni013B.alt1" horiz-adv-x="486" 
d="M58 0v715h167v-584h233v-131h-400zM201 -212v44q57 5 60 36q-31 -1 -48 12t-17 38q0 22 17.5 36t45.5 14q32 0 51 -17.5t19 -50.5v-7q0 -102 -128 -105z" />
    <glyph glyph-name="uni0145.alt1" horiz-adv-x="649" 
d="M58 0v715h189l195 -433v433h148v-715h-163l-220 482v-482h-149zM257 -212v44q57 5 60 36q-31 -1 -48 12t-17 38q0 22 17.5 36t45.5 14q32 0 51 -17.5t19 -50.5v-7q0 -102 -128 -105z" />
    <glyph glyph-name="uni0156.alt1" horiz-adv-x="591" 
d="M58 0v715h234q252 0 252 -205v-26q0 -130 -113 -173l144 -311h-175l-126 281h-50v-281h-166zM224 392h62q49 0 72.5 21t23.5 68v24q0 44 -23.5 63.5t-72.5 19.5h-62v-196zM240 -212v44q57 5 60 36q-31 -1 -48 12t-17 38q0 22 17.5 36t45.5 14q32 0 51 -17.5t19 -50.5v-7
q0 -102 -128 -105z" />
    <glyph glyph-name="uni0218.alt1" horiz-adv-x="561" 
d="M284 -11q-251 0 -257 226h160q2 -54 24 -78.5t73 -24.5q39 0 60.5 20.5t21.5 59.5q0 42 -24.5 62t-90.5 39q-112 34 -161 83.5t-49 144.5q0 92 63 148t171 56q228 0 238 -208h-156q-5 85 -83 85q-36 0 -55 -18t-19 -51q0 -37 22 -56t85 -38q55 -15 91 -31t68 -42t47 -65
t15 -93q0 -101 -65 -160t-179 -59zM218 -212v44q57 5 60 36q-31 -1 -48 12t-17 38q0 22 17.5 36t45.5 14q32 0 51 -17.5t19 -50.5v-7q0 -102 -128 -105z" />
    <glyph glyph-name="uni0162.alt1" horiz-adv-x="523" 
d="M177 0v585h-157v130h483v-130h-158l-1 -585h-167zM200 -212v44q57 5 60 36q-31 -1 -48 12t-17 38q0 22 17.5 36t45.5 14q32 0 51 -17.5t19 -50.5v-7q0 -102 -128 -105z" />
    <glyph glyph-name="uni0123.alt1" horiz-adv-x="547" 
d="M266 579q-32 0 -51 17t-19 49v8q0 102 128 106v-44q-57 -5 -60 -37q31 1 48 -12t17 -38q0 -22 -18 -35.5t-45 -13.5zM258 -188q-213 0 -228 166h147q9 -59 82 -59q92 0 92 97v81q-18 -36 -54.5 -58.5t-85.5 -22.5q-80 0 -130.5 55.5t-50.5 155.5v92q0 100 51.5 157.5
t133.5 57.5q96 0 136 -78v67h149v-504q0 -103 -62.5 -155t-179.5 -52zM264 123q41 0 65 28t24 78v88q0 51 -22.5 78.5t-64.5 27.5q-86 0 -86 -104v-95q0 -49 22 -75t62 -26z" />
    <glyph glyph-name="uni0137.alt1" horiz-adv-x="496" 
d="M47 0v750h149v-443l131 216h153l-152 -238l162 -285h-164l-130 237v-237h-149zM192 -212v44q57 5 60 36q-31 -1 -48 12t-17 38q0 22 17.5 36t45.5 14q32 0 51 -17.5t19 -50.5v-7q0 -102 -128 -105z" />
    <glyph glyph-name="uni013C.alt1" horiz-adv-x="250" 
d="M50 0v750h149v-750h-149zM66 -212v44q57 5 60 36q-31 -1 -48 12t-17 38q0 22 17.5 36t45.5 14q32 0 51 -17.5t19 -50.5v-7q0 -102 -128 -105z" />
    <glyph glyph-name="uni0146.alt1" horiz-adv-x="531" 
d="M47 0v523h149v-74q42 85 145 85q68 0 107 -43.5t39 -128.5v-362h-149v337q0 78 -65 78q-35 0 -56 -22t-21 -64v-329h-149zM207 -212v44q57 5 60 36q-31 -1 -48 12t-17 38q0 22 17.5 36t45.5 14q32 0 51 -17.5t19 -50.5v-7q0 -102 -128 -105z" />
    <glyph glyph-name="uni0157.alt1" horiz-adv-x="364" 
d="M47 0v523h149v-91q40 97 146 97v-144q-73 1 -109.5 -23.5t-36.5 -79.5v-282h-149zM61 -212v44q57 5 60 36q-31 -1 -48 12t-17 38q0 22 17.5 36t45.5 14q32 0 51 -17.5t19 -50.5v-7q0 -102 -128 -105z" />
    <glyph glyph-name="uni0219.alt1" horiz-adv-x="455" 
d="M228 -10q-98 0 -152 43.5t-55 127.5h139q2 -36 17.5 -53t49.5 -17q58 0 58 51q0 26 -20.5 38t-75.5 27q-88 24 -124.5 61t-36.5 109q0 75 54.5 116t137.5 41q187 0 197 -161h-137q-6 61 -60 61q-26 0 -40 -12.5t-14 -33.5q0 -24 18 -35.5t69 -25.5q92 -24 134.5 -60
t42.5 -109q0 -83 -52.5 -125.5t-149.5 -42.5zM164 -212v44q57 5 60 36q-31 -1 -48 12t-17 38q0 22 17.5 36t45.5 14q32 0 51 -17.5t19 -50.5v-7q0 -102 -128 -105z" />
    <glyph glyph-name="uni0163.alt1" horiz-adv-x="339" 
d="M70 630h150v-107h92v-105h-92v-254q0 -53 49 -53q29 0 44 7v-114q-33 -11 -78 -11q-165 0 -165 157v268h-56v105h56v107zM132 -212v44q57 5 60 36q-31 -1 -48 12t-17 38q0 22 17.5 36t45.5 14q32 0 51 -17.5t19 -50.5v-7q0 -102 -128 -105z" />
    <glyph glyph-name="quoteleft.alt1" horiz-adv-x="225" 
d="M188 719v-59q-64 -6 -66 -45q34 -1 53.5 -20t19.5 -51q0 -33 -22.5 -52.5t-56.5 -19.5q-37 0 -61 25t-24 67v13q0 67 41 103.5t116 38.5z" />
    <glyph glyph-name="quoteright.alt1" horiz-adv-x="225" 
d="M38 475v58q63 7 66 46q-35 1 -54.5 20t-19.5 51t23 52t56 20q38 0 62 -25t24 -67v-13q0 -67 -41 -103.5t-116 -38.5z" />
    <glyph glyph-name="quotedblleft.alt1" horiz-adv-x="420" 
d="M188 719v-59q-64 -6 -66 -45q34 -1 53.5 -20t19.5 -51q0 -33 -22.5 -52.5t-56.5 -19.5q-37 0 -61 25t-24 67v13q0 67 41 103.5t116 38.5zM382 719v-59q-64 -6 -65 -45q34 -1 53.5 -20t19.5 -51q0 -33 -23 -52.5t-57 -19.5q-37 0 -61 25t-24 67v13q0 67 41 103.5t116 38.5
z" />
    <glyph glyph-name="quotedblright.alt1" horiz-adv-x="420" 
d="M38 475v58q63 7 66 46q-35 1 -54.5 20t-19.5 51t23 52t56 20q38 0 62 -25t24 -67v-13q0 -67 -41 -103.5t-116 -38.5zM232 475v58q63 8 65 46q-34 1 -53.5 20t-19.5 51t23 52t57 20q37 0 61 -25t24 -67v-13q0 -67 -41 -103.5t-116 -38.5z" />
    <glyph glyph-name="quotesinglbase.alt1" horiz-adv-x="226" 
d="M38 -83v59q63 6 66 45q-35 1 -54.5 20t-19.5 51t23 52t56 20q38 0 62 -25t24 -66v-14q0 -66 -41 -103t-116 -39z" />
    <glyph glyph-name="quotedblbase.alt1" horiz-adv-x="420" 
d="M232 -83v59q63 6 65 45q-34 1 -53.5 20t-19.5 51t23 52t57 20q37 0 61 -25t24 -66v-14q0 -67 -41 -103.5t-116 -38.5zM38 -83v59q63 6 66 45q-35 1 -54.5 20t-19.5 51t23 52t56 20q38 0 62 -25t24 -66v-14q0 -66 -41 -103t-116 -39z" />
    <glyph glyph-name="comma.alt1" horiz-adv-x="263" 
d="M49 -101v64q71 8 72 48q-38 2 -59 22t-21 55t25.5 56.5t61.5 21.5q41 0 67 -26.5t26 -72.5v-15q0 -74 -45.5 -112.5t-126.5 -40.5z" />
    <glyph glyph-name="semicolon.alt1" horiz-adv-x="268" 
d="M133 284q-37 0 -63 25.5t-26 62.5t26 62.5t63 25.5q39 0 65 -25.5t26 -62.5t-26 -62.5t-65 -25.5zM51 -101v64q70 7 73 48q-38 1 -59 21.5t-21 55.5t25 56.5t62 21.5q41 0 67 -26.5t26 -72.5v-15q0 -74 -45.5 -112.5t-127.5 -40.5z" />
    <glyph glyph-name="commaaccent.alt1" horiz-adv-x="382" 
d="M128 -212v44q57 5 60 36q-31 -1 -48 12t-17 38q0 22 17.5 36t45.5 14q32 0 51 -17.5t19 -50.5v-7q0 -102 -128 -105z" />
    <glyph glyph-name="a.alt" horiz-adv-x="541" 
d="M493 523v-523h-148v74q-42 -84 -137 -84q-78 0 -128 57.5t-50 165.5v94q0 108 51.5 167.5t130.5 59.5q94 0 133 -77v66h148zM348 219v88q0 116 -85 116q-83 0 -83 -114v-96q0 -109 81 -109q40 0 63.5 29.5t23.5 85.5z" />
    <glyph glyph-name="agrave.alt" horiz-adv-x="541" 
d="M223 583l-96 158h157l49 -158h-110zM493 523v-523h-148v74q-42 -84 -137 -84q-78 0 -128 57.5t-50 165.5v94q0 108 51.5 167.5t130.5 59.5q94 0 133 -77v66h148zM348 219v88q0 116 -85 116q-83 0 -83 -114v-96q0 -109 81 -109q40 0 63.5 29.5t23.5 85.5z" />
    <glyph glyph-name="aacute.alt" horiz-adv-x="541" 
d="M213 583l48 158h156l-95 -158h-109zM493 523v-523h-148v74q-42 -84 -137 -84q-78 0 -128 57.5t-50 165.5v94q0 108 51.5 167.5t130.5 59.5q94 0 133 -77v66h148zM348 219v88q0 116 -85 116q-83 0 -83 -114v-96q0 -109 81 -109q40 0 63.5 29.5t23.5 85.5z" />
    <glyph glyph-name="acircumflex.alt" horiz-adv-x="541" 
d="M112 584l105 156h115l101 -156h-104l-57 59l-58 -59h-102zM493 523v-523h-148v74q-42 -84 -137 -84q-78 0 -128 57.5t-50 165.5v94q0 108 51.5 167.5t130.5 59.5q94 0 133 -77v66h148zM348 219v88q0 116 -85 116q-83 0 -83 -114v-96q0 -109 81 -109q40 0 63.5 29.5
t23.5 85.5z" />
    <glyph glyph-name="atilde.alt" horiz-adv-x="541" 
d="M328 588q-27 0 -60 16t-43 16q-24 0 -29 -33h-83q4 70 31 106t70 36q26 0 60 -16t46 -16q22 0 29 33h83q-4 -70 -33 -106t-71 -36zM493 523v-523h-148v74q-42 -84 -137 -84q-78 0 -128 57.5t-50 165.5v94q0 108 51.5 167.5t130.5 59.5q94 0 133 -77v66h148zM348 219v88
q0 116 -85 116q-83 0 -83 -114v-96q0 -109 81 -109q40 0 63.5 29.5t23.5 85.5z" />
    <glyph glyph-name="adieresis.alt" horiz-adv-x="541" 
d="M177 582q-32 0 -54 21.5t-22 52.5q0 32 22 53.5t54 21.5t54 -22t22 -53t-22 -52.5t-54 -21.5zM369 582q-32 0 -54 21.5t-22 52.5t22 53t54 22t54.5 -22t22.5 -53t-22.5 -52.5t-54.5 -21.5zM493 523v-523h-148v74q-42 -84 -137 -84q-78 0 -128 57.5t-50 165.5v94
q0 108 51.5 167.5t130.5 59.5q94 0 133 -77v66h148zM348 219v88q0 116 -85 116q-83 0 -83 -114v-96q0 -109 81 -109q40 0 63.5 29.5t23.5 85.5z" />
    <glyph glyph-name="aring.alt" horiz-adv-x="541" 
d="M271 578q-45 0 -76.5 30.5t-31.5 73.5q0 44 31.5 75t76.5 31t76.5 -31t31.5 -75q0 -43 -31.5 -73.5t-76.5 -30.5zM271 636q19 0 31 13t12 33q0 21 -12 34t-31 13t-31 -13t-12 -34q0 -20 12 -33t31 -13zM493 523v-523h-148v74q-42 -84 -137 -84q-78 0 -128 57.5t-50 165.5
v94q0 108 51.5 167.5t130.5 59.5q94 0 133 -77v66h148zM348 219v88q0 116 -85 116q-83 0 -83 -114v-96q0 -109 81 -109q40 0 63.5 29.5t23.5 85.5z" />
    <glyph glyph-name="amacron.alt" horiz-adv-x="541" 
d="M136 607v91h273v-91h-273zM493 523v-523h-148v74q-42 -84 -137 -84q-78 0 -128 57.5t-50 165.5v94q0 108 51.5 167.5t130.5 59.5q94 0 133 -77v66h148zM348 219v88q0 116 -85 116q-83 0 -83 -114v-96q0 -109 81 -109q40 0 63.5 29.5t23.5 85.5z" />
    <glyph glyph-name="abreve.alt" horiz-adv-x="541" 
d="M272 585q-63 0 -101.5 38.5t-41.5 109.5h95q5 -49 48 -49q46 0 51 49h94q-4 -71 -43.5 -109.5t-101.5 -38.5zM493 523v-523h-148v74q-42 -84 -137 -84q-78 0 -128 57.5t-50 165.5v94q0 108 51.5 167.5t130.5 59.5q94 0 133 -77v66h148zM348 219v88q0 116 -85 116
q-83 0 -83 -114v-96q0 -109 81 -109q40 0 63.5 29.5t23.5 85.5z" />
    <glyph glyph-name="aogonek.alt" horiz-adv-x="541" 
d="M313 -104q0 62 78 104h-46v74q-42 -84 -137 -84q-78 0 -128 57.5t-50 165.5v94q0 108 51.5 167.5t130.5 59.5q94 0 133 -77v66h148v-523h-13q-42 -37 -42 -68q0 -28 30 -28q18 0 29 5v-75q-30 -15 -77 -15q-46 0 -76.5 20.5t-30.5 56.5zM348 219v88q0 116 -85 116
q-83 0 -83 -114v-96q0 -109 81 -109q40 0 63.5 29.5t23.5 85.5z" />
    <glyph glyph-name="aringacute.alt" horiz-adv-x="541" 
d="M215 804l46 138h160l-92 -138h-114zM271 572q-45 0 -76.5 30.5t-31.5 73.5q0 44 31.5 75t76.5 31t76.5 -31t31.5 -75q0 -43 -31.5 -73.5t-76.5 -30.5zM271 630q19 0 31 13t12 33q0 21 -12 34t-31 13t-31 -13t-12 -34q0 -20 12 -33t31 -13zM493 523v-523h-148v74
q-42 -84 -137 -84q-78 0 -128 57.5t-50 165.5v94q0 108 51.5 167.5t130.5 59.5q94 0 133 -77v66h148zM348 219v88q0 116 -85 116q-83 0 -83 -114v-96q0 -109 81 -109q40 0 63.5 29.5t23.5 85.5z" />
    <glyph glyph-name="t.alt" horiz-adv-x="329" 
d="M77 630h150v-107h85v-105h-85v-418h-150v418h-63v105h63v107z" />
    <glyph glyph-name="uni0163.alt" horiz-adv-x="329" 
d="M77 630h150v-107h85v-105h-85v-418h-150v418h-63v105h63v107zM139 -214l-87 23l38 156l136 -9z" />
    <glyph glyph-name="tcaron.alt" horiz-adv-x="329" 
d="M264 585l8 166h116l-44 -166h-80zM77 630h150v-107h85v-105h-85v-418h-150v418h-63v105h63v107z" />
    <glyph glyph-name="germandbls.alt" horiz-adv-x="597" 
d="M403 -9q-170 0 -173 155h128q2 -54 41 -54q38 0 38 44q0 7 -1 13.5t-4 12.5t-5 10.5t-8 10t-9 9t-11.5 10t-12.5 9.5t-15 11t-16 11q-34 25 -50.5 39.5t-34 43.5t-17.5 62q0 30 16.5 60.5t36 51.5t36 47t16.5 48q0 30 -19.5 46.5t-54.5 16.5q-40 0 -63 -24t-23 -72v-552
h-151v550q0 99 65.5 155t172.5 56q100 0 160 -42t60 -117q0 -37 -17 -70.5t-37.5 -53t-37.5 -40.5t-17 -36t14 -29t52 -42q9 -6 13 -9q51 -38 77.5 -75.5t26.5 -95.5q0 -76 -48 -118t-128 -42z" />
    <glyph glyph-name="tbar.alt" horiz-adv-x="329" 
d="M14 255v87h63v76h-63v105h63v107h150v-107h85v-105h-85v-76h88v-87h-88v-255h-150v255h-63z" />
    <glyph glyph-name="caron.alt" horiz-adv-x="400" 
d="M156 585l8 166h116l-44 -166h-80z" />
    <glyph glyph-name="registered.alt" horiz-adv-x="759" 
d="M379 19q-146 0 -246 99t-100 246q0 146 100.5 246t247.5 100t246 -99.5t99 -245.5q0 -147 -100 -246.5t-247 -99.5zM379 67q122 0 206 83t84 215t-82.5 215t-205.5 83q-125 0 -208 -83.5t-83 -215.5t84 -214.5t205 -82.5zM240 177v380h142q144 0 144 -116v-8
q0 -71 -58 -96l78 -160h-110l-66 140h-24v-140h-106zM346 386h31q46 0 46 43v7q0 41 -45 41h-32v-91z" />
    <glyph glyph-name="commaaccent.alt" horiz-adv-x="400" 
d="M261 579l-135 9l86 170l86 -24z" />
    <glyph glyph-name="space.tab" horiz-adv-x="260" 
 />
    <glyph glyph-name="zero.tab" 
d="M259 -11q-110 0 -171.5 65t-61.5 191v223q0 126 64 191.5t171 65.5q108 0 171 -63t63 -190v-223q0 -128 -62 -194t-174 -66zM262 118q42 0 59 29.5t17 99.5v224q0 67 -18 97t-59 30t-59.5 -30.5t-18.5 -99.5v-222q0 -70 18.5 -99t60.5 -29z" />
    <glyph glyph-name="one.tab" 
d="M225 0v547l-152 -112v144l171 136h150v-715h-169z" />
    <glyph glyph-name="two.tab" 
d="M16 0v25l201 263q55 75 78.5 123.5t23.5 97.5v9q0 81 -63 81q-73 0 -73 -104v-8h-152v3q0 111 58 173t173 62q108 0 165 -52.5t57 -145.5v-10q0 -67 -31 -127.5t-97 -146.5l-95 -115h222v-128h-467z" />
    <glyph glyph-name="three.tab" 
d="M258 -11q-119 0 -179.5 56.5t-60.5 164.5v4h148v-5q0 -95 85 -95q82 0 82 87v19q0 49 -21 71.5t-69 22.5h-43v109h41q88 0 88 87v13q0 78 -72 78q-37 0 -57.5 -22.5t-20.5 -64.5v-5h-145v2q0 101 59.5 157.5t166.5 56.5q103 0 161.5 -49.5t58.5 -138.5v-13
q0 -116 -111 -147q59 -12 92 -53t33 -107v-20q0 -97 -61 -152.5t-175 -55.5z" />
    <glyph glyph-name="four.tab" 
d="M284 0v148h-274v56l233 511h194v-451h67v-116h-67v-148h-153zM151 264h136v313z" />
    <glyph glyph-name="five.tab" 
d="M254 -11q-113 0 -170.5 54t-57.5 156v4h146v-5q0 -80 80 -80q77 0 77 106v28q0 52 -23.5 78.5t-66.5 26.5q-65 0 -103 -50h-88l11 408h396v-127h-277l-4 -178q47 62 132 62t133.5 -55.5t48.5 -159.5v-34q0 -111 -61 -172.5t-173 -61.5z" />
    <glyph glyph-name="six.tab" 
d="M271 -11q-122 0 -184 70t-62 196v176q0 141 68.5 217.5t183.5 76.5q204 0 214 -191h-146q-8 68 -67 68q-99 0 -99 -170v-48q44 77 138 77q81 0 132 -51.5t51 -148.5v-50q0 -105 -60.5 -163.5t-168.5 -58.5zM268 113q38 0 60 25t22 70v48q0 46 -22 70.5t-61 24.5
q-40 0 -64 -24.5t-24 -70.5v-39q0 -52 24 -78t65 -26z" />
    <glyph glyph-name="seven.tab" 
d="M102 0l187 579h-253v136h458v-18l-223 -697h-169z" />
    <glyph glyph-name="eight.tab" 
d="M260 -11q-108 0 -173 50.5t-65 147.5v31q0 121 112 163q-91 40 -91 141v15q0 89 62 138.5t156 49.5q96 0 156.5 -49t60.5 -138v-15q0 -102 -90 -141q110 -41 110 -161v-29q0 -98 -65 -150.5t-173 -52.5zM262 428q33 0 52.5 21.5t19.5 60.5v18q0 38 -19.5 58.5t-52.5 20.5
t-53.5 -21t-20.5 -59v-18q0 -39 20.5 -60t53.5 -21zM261 111q39 0 61 23t22 67v35q0 44 -22 67.5t-61 23.5q-38 0 -61.5 -23.5t-23.5 -67.5v-35q0 -44 23.5 -67t61.5 -23z" />
    <glyph glyph-name="nine.tab" 
d="M249 -11q-213 0 -223 196h145q6 -74 76 -74q49 0 72 39t23 127v53q-44 -77 -138 -77q-80 0 -131.5 51t-51.5 148v49q0 105 62 164.5t170 59.5q118 0 180.5 -68t62.5 -195v-191q0 -138 -65 -210t-182 -72zM255 603q-39 0 -61.5 -26t-22.5 -71v-47q0 -94 82 -94
q40 0 64.5 24t24.5 70v40q0 51 -23.5 77.5t-63.5 26.5z" />
    <glyph glyph-name="parenleft.tab" horiz-adv-x="260" 
d="M156 -144q-133 211 -133 457q0 248 133 457h112q-108 -208 -108 -457t108 -457h-112z" />
    <glyph glyph-name="parenright.tab" horiz-adv-x="260" 
d="M-8 -144q109 206 109 457t-109 457h112q134 -207 134 -457q0 -247 -134 -457h-112z" />
    <glyph glyph-name="bracketleft.tab" horiz-adv-x="260" 
d="M37 -144v914h213v-101h-76v-711h76v-102h-213z" />
    <glyph glyph-name="bracketright.tab" horiz-adv-x="260" 
d="M11 -144v102h76v711h-76v101h213v-914h-213z" />
    <glyph glyph-name="braceleft.tab" horiz-adv-x="260" 
d="M252 -143q-122 0 -171 51.5t-28 160.5l20 109q8 40 -7.5 62t-60.5 28v96q45 6 60.5 28t7.5 61l-20 107q-22 111 26.5 161t172.5 50v-101q-46 -3 -61 -23.5t-6 -72.5l19 -116q9 -56 -13.5 -89t-78.5 -52q56 -18 79 -51t13 -90l-19 -118q-9 -53 6 -75t61 -25v-101z" />
    <glyph glyph-name="braceright.tab" horiz-adv-x="260" 
d="M9 -143v101q45 3 60.5 25t6.5 75l-19 118q-10 56 13 89.5t78 51.5q-55 19 -78 52t-13 89l19 116q8 52 -7 72.5t-60 23.5v101q124 0 172.5 -50t26.5 -161l-21 -107q-15 -78 68 -89v-96q-44 -6 -59.5 -28t-8.5 -62l21 -109q21 -109 -28 -160.5t-171 -51.5z" />
    <glyph glyph-name="percent.tab" horiz-adv-x="700" 
d="M182 392q-71 0 -114.5 42.5t-43.5 112.5v22q0 69 45 111.5t114 42.5t114 -41.5t45 -109.5v-23q0 -71 -44 -114t-116 -43zM83 0l450 715h87l-450 -715h-87zM183 479q50 0 50 68v23q0 67 -50 67q-49 0 -49 -66v-24q0 -68 49 -68zM517 -10q-72 0 -115.5 42.5t-43.5 111.5v23
q0 68 46 110.5t114 42.5t113.5 -41t45.5 -109v-24q0 -70 -44 -113t-116 -43zM518 76q49 0 49 68v24q0 67 -49 67q-50 0 -50 -67v-24q0 -68 50 -68z" />
    <glyph glyph-name="perthousand.tab" horiz-adv-x="900" 
d="M151 396q-64 0 -102.5 40.5t-38.5 111.5v23q0 71 40.5 111.5t101.5 40.5q62 0 101.5 -39.5t39.5 -109.5v-23q0 -72 -39 -113.5t-103 -41.5zM30 0l450 715h86l-451 -715h-85zM152 478q38 0 38 70v24q0 70 -38 70q-39 0 -39 -70v-24q0 -70 39 -70zM440 -10
q-65 0 -103.5 40.5t-38.5 111.5v23q0 70 40.5 110.5t101.5 40.5q62 0 102 -39t40 -110v-22q0 -73 -39 -114t-103 -41zM749 -10q-65 0 -103.5 40.5t-38.5 111.5v23q0 70 40.5 110.5t101.5 40.5q62 0 102 -39t40 -110v-22q0 -73 -39 -114t-103 -41zM440 72q39 0 39 71v23
q0 70 -39 70q-38 0 -38 -70v-24q0 -70 38 -70zM749 72q39 0 39 71v23q0 70 -39 70q-38 0 -38 -70v-24q0 -70 38 -70z" />
    <glyph glyph-name="period.tab" horiz-adv-x="260" 
d="M130 -8q-38 0 -63.5 25t-25.5 62t25.5 62t63.5 25t64 -25t26 -62t-26 -62t-64 -25z" />
    <glyph glyph-name="comma.tab" horiz-adv-x="260" 
d="M100 -111l-89 33l71 239l143 -49z" />
    <glyph glyph-name="colon.tab" horiz-adv-x="260" 
d="M130 284q-38 0 -63.5 25.5t-25.5 62.5t25.5 62.5t63.5 25.5t64 -25.5t26 -62.5t-26 -62.5t-64 -25.5zM130 -8q-38 0 -63.5 25t-25.5 62t25.5 62t63.5 25t64 -25t26 -62t-26 -62t-64 -25z" />
    <glyph glyph-name="semicolon.tab" horiz-adv-x="260" 
d="M134 284q-37 0 -63 25.5t-26 62.5t26 62.5t63 25.5q39 0 65 -25.5t26 -62.5t-26 -62.5t-65 -25.5zM87 -111l-89 33l71 239l142 -49z" />
    <glyph glyph-name="plus.tab" 
d="M200 119v166h-151v111h151v166h122v-166h150v-111h-150v-166h-122z" />
    <glyph glyph-name="minus.tab" 
d="M49 283v115h424v-115h-424z" />
    <glyph glyph-name="plusminus.tab" 
d="M200 178v150h-155v111h155v150h122v-150h154v-111h-154v-150h-122zM45 17v104h432v-104h-432z" />
    <glyph glyph-name="divide.tab" 
d="M260 442q-35 0 -58.5 23.5t-23.5 57.5t23.5 57t58.5 23t59 -23t24 -57t-24 -57.5t-59 -23.5zM45 287v107h432v-107h-432zM260 78q-35 0 -58.5 23t-23.5 57t23.5 57.5t58.5 23.5t59 -23.5t24 -57.5t-24 -57t-59 -23z" />
    <glyph glyph-name="multiply.tab" 
d="M131 122l-80 77l131 135l-132 136l80 79l130 -134l129 132l80 -78l-131 -135l133 -136l-81 -78l-130 134z" />
    <glyph glyph-name="equal.tab" 
d="M55 358v107h411v-107h-411zM55 180v106h411v-106h-411z" />
    <glyph glyph-name="less.tab" 
d="M451 92l-386 215v30l386 215v-137l-187 -93l187 -97v-133z" />
    <glyph glyph-name="greater.tab" 
d="M70 92v137l186 92l-186 98v133l387 -215v-30z" />
    <glyph glyph-name="lessequal.tab" 
d="M444 150l-376 201v29l376 200v-134l-164 -80l164 -81v-135zM68 18v104h376v-104h-376z" />
    <glyph glyph-name="greaterequal.tab" 
d="M77 150v135l163 81l-163 80v134l375 -200v-29zM77 18v104h375v-104h-375z" />
    <glyph glyph-name="approxequal.tab" 
d="M44 338q4 77 37 114.5t84 37.5q39 0 101.5 -17.5t81.5 -17.5q34 0 39 40h90q-4 -75 -38 -114t-83 -39q-41 0 -103.5 17.5t-80.5 17.5q-34 0 -39 -39h-89zM44 145q4 77 37.5 115t83.5 38q39 0 101.5 -18t81.5 -18q34 0 39 40h90q-4 -75 -38 -114t-83 -39q-41 0 -103.5 18
t-80.5 18q-34 0 -39 -40h-89z" />
    <glyph glyph-name="notequal.tab" 
d="M121 91l35 89h-105v106h146l28 72h-174v107h215l35 89h100l-35 -89h104v-107h-145l-28 -72h173v-106h-214l-35 -89h-100z" />
    <glyph glyph-name="dollar.tab" 
d="M293 -123h-62v113q-104 8 -159.5 64t-55.5 154v6h140v-7q0 -87 75 -101v197q-107 30 -155.5 78.5t-48.5 140.5v2q0 86 55 140t149 60v83h62v-84q93 -8 145.5 -58t52.5 -139v-6h-138v6q0 64 -60 80v-176q103 -30 155.5 -78t52.5 -143v-4q0 -93 -53.5 -150.5t-154.5 -64.5
v-113zM164 536q0 -31 15 -50.5t52 -35.5v158q-32 -4 -49.5 -23t-17.5 -48v-1zM361 192q0 32 -16 52.5t-52 36.5v-176q68 14 68 85v2z" />
    <glyph glyph-name="cent.tab" 
d="M245 -123v113q-95 8 -151.5 66.5t-56.5 162.5v80q0 102 57.5 163.5t150.5 70.5v88h56v-88q83 -6 134.5 -53t55.5 -137h-132q-7 65 -58 77v-321q61 12 65 87h127q-2 -86 -52.5 -137.5t-139.5 -58.5v-113h-56zM179 219q0 -103 66 -119v320q-66 -18 -66 -116v-85z" />
    <glyph glyph-name="sterling.tab" 
d="M25 299v95h47q-16 69 -16 122v3q0 97 60.5 151.5t158.5 54.5q215 0 215 -207v-7h-142v5q0 79 -67 79q-69 0 -69 -82v-5q0 -47 10 -114h148v-95h-137q4 -48 4 -74q0 -40 -12 -76q10 -3 31.5 -10t34.5 -10t23 -3q50 0 54 51h135q-3 -86 -44 -135.5t-115 -49.5
q-44 0 -101 23t-73 23q-35 0 -39 -38h-119q7 113 80 150q9 28 9 73q0 36 -8 76h-68z" />
    <glyph glyph-name="yen.tab" 
d="M180 0v178h-130v67h130v48h-130v68h120l-154 354h168l87 -237l85 237h149l-149 -354h123v-68h-134v-48h134v-67h-134v-178h-165z" />
    <glyph glyph-name="Euro.tab" 
d="M5 267v68h43v48h-43v67h43v18q0 121 63.5 189t169.5 68q102 0 159 -53t57 -166v-2h-144v3q0 49 -18 70.5t-54 21.5q-80 0 -80 -128v-21h144l-12 -67h-132v-48h125l-12 -68h-113v-23q0 -66 18.5 -97t62.5 -31q38 0 57.5 23t19.5 77v5h142v-5q0 -227 -224 -227
q-108 0 -168.5 67t-60.5 190v21h-43z" />
    <glyph glyph-name="florin.tab" 
d="M90 -167l61 482h-79v106h93l16 127q22 174 198 174q40 0 67 -9v-116q-18 7 -46 7q-59 0 -68 -67l-15 -116h112v-106h-126l-62 -482h-151z" />
    </font>
</defs>
</svg>
