<svg xmlns="http://www.w3.org/2000/svg" xmlns:xlink="http://www.w3.org/1999/xlink" viewBox="0 0 246 246"><defs><circle id="a" cx="116" cy="116" r="116"/></defs><g fill="none" fill-rule="evenodd" transform="translate(3 3)"><circle cx="120" cy="120" r="116" fill="#FFF" fill-rule="nonzero"/><circle cx="120" cy="120" r="119.5" stroke="#34374C" stroke-width="7"/><rect width="156.683" height="24.07" x="47.347" y="39.23" fill="#F6F8FA" fill-rule="nonzero" rx="12.035"/><path fill="#F6F8FA" d="M41.927 63.3c-6.646 0-12.034 5.388-12.034 12.034 0 6.647 5.388 12.035 12.034 12.035h96.349c-6.646 0-12.034-5.388-12.034-12.035S131.63 63.3 138.276 63.3H41.927z"/><rect width="156.683" height="24.07" x="18.607" y="87.369" fill="#F6F8FA" fill-rule="nonzero" rx="12.035"/><path fill="#F6F8FA" d="M76.275 111.438c-6.647 0-12.035 5.388-12.035 12.035 0 6.646 5.388 12.034 12.035 12.034h90.433c-6.647 0-12.035-5.388-12.035-12.034 0-6.647 5.388-12.035 12.035-12.035H76.275z"/><rect width="156.683" height="24.07" x="41.154" y="135.508" fill="#F6F8FA" fill-rule="nonzero" rx="12.035"/><g transform="translate(4 4)"><mask id="b" fill="#fff"><use xlink:href="#a"/></mask><g mask="url(#b)"><path fill="#DBDBFD" d="M252.622 9.452c.95 0 1.719.77 1.719 1.719v20.621h2.296a2 2 0 0 1 2 2v10.03h4.874a2 2 0 0 1 2 2V59.29h3.156a2 2 0 0 1 2 2v127.748h4.296v-84.008a2 2 0 0 1 1.425-1.916l43.26-12.978a2 2 0 0 1 2.574 1.916v54.882h2.578V81.399a7 7 0 0 1 .88-3.398l7.607-13.703c2.667-4.803 9.574-4.803 12.241 0l7.607 13.703a7 7 0 0 1 .88 3.398v65.534h57.57v44.682h-57.57v26.511a7 7 0 0 1-7 7H331.8a7 7 0 0 1-7-7v-26.511h-2.578v32.37a2 2 0 0 1-2 2h-43.259c-.68 0-1.282-.34-1.643-.859h-49.335v7.311a3 3 0 0 1-3 3h-38.681a3 3 0 0 1-3-3v-21.918h-78.193V199.1a8.004 8.004 0 0 1-6.015-7.752V67.288a8 8 0 0 1 8-8h28.682a8 8 0 0 1 8 8v98.549h6.015V62.496c0-.554.229-1.083.634-1.46l21.629-20.232a2 2 0 0 1 2.733 0l21.629 20.231c.405.378.634.907.634 1.46v23.43h19.341a3 3 0 0 1 3 3V116h5.592a3 3 0 0 1 3 3v70.037h8.593V61.289a2 2 0 0 1 2-2h3.156V45.822a2 2 0 0 1 2-2h4.874v-10.03a2 2 0 0 1 2-2h2.296V11.17c0-.949.769-1.718 1.718-1.718z"/><path fill="#DBDBFD" d="M-32.652-4.296c.95 0 1.719.77 1.719 1.718v20.622h2.296a2 2 0 0 1 2 2v10.03h4.874a2 2 0 0 1 2 2v13.467h3.156a2 2 0 0 1 2 2v127.748h4.296V91.281a2 2 0 0 1 1.425-1.916l43.26-12.978a2 2 0 0 1 2.574 1.916v54.882h2.578V67.651a7 7 0 0 1 .88-3.398l7.607-13.703c2.667-4.803 9.574-4.803 12.24 0l7.608 13.703a7 7 0 0 1 .88 3.398v65.534h57.57v77.334H65.103a6.975 6.975 0 0 1-3.362.859H46.526a6.975 6.975 0 0 1-3.363-.859h-6.235a2 2 0 0 1-1.98 1.718h-43.26c-.68 0-1.28-.34-1.642-.859H-59.29v7.311a3 3 0 0 1-3 3h-38.681a3 3 0 0 1-3-3V196.77h-4.297v12.608a2 2 0 0 1-2 2h-25.214a2 2 0 0 1-2-2V196.77h-44.682v-11.418a8.004 8.004 0 0 1-6.015-7.752V53.54a8 8 0 0 1 8-8h28.682a8 8 0 0 1 8 8v98.549h6.015V66.356c0-.34.086-.674.251-.97l12.607-22.71c.762-1.373 2.736-1.373 3.498 0l12.607 22.71a2 2 0 0 1 .251.97v85.733h4.297v-46.837a3 3 0 0 1 3-3h5.592v-9.03a3 3 0 0 1 3-3h21.497a3 3 0 0 1 3 3v9.03h5.592a3 3 0 0 1 3 3v70.037h8.593V47.541a2 2 0 0 1 2-2h3.155V32.074a2 2 0 0 1 2-2h4.874v-10.03a2 2 0 0 1 2-2h2.297V-2.578c0-.949.769-1.718 1.718-1.718z"/><path fill="#004DFF" d="M91.941 24.06c-.949 0-1.719.769-1.719 1.718V46.4h-2.296a2 2 0 0 0-2 2v10.03h-4.874a2 2 0 0 0-2 2v13.466h-3.156a2 2 0 0 0-2 2v127.749H69.6v-84.009a2 2 0 0 0-1.425-1.916l-43.26-12.977a2 2 0 0 0-2.574 1.915v54.883h-2.578V96.007a7.001 7.001 0 0 0-.88-3.398l-7.607-13.703c-2.667-4.803-9.574-4.803-12.24 0l-7.608 13.703a7 7 0 0 0-.88 3.398v65.534h-57.57v44.681h57.57v26.511a7 7 0 0 0 7 7h15.215a7 7 0 0 0 7-7v-26.511h2.578v32.37a2 2 0 0 0 2 2h43.26c.68 0 1.28-.339 1.642-.858h49.335v7.311a3 3 0 0 0 3 3h38.681a3 3 0 0 0 3-3v-21.919h4.297v12.607a2 2 0 0 0 2 2h25.215a2 2 0 0 0 2-2v-12.607h44.681v-11.419a8.002 8.002 0 0 0 6.015-7.751V81.896a8 8 0 0 0-8-8h-28.682a8 8 0 0 0-8 8v98.548h-6.014V94.712a2 2 0 0 0-.252-.971l-12.607-22.71c-.762-1.372-2.736-1.372-3.498 0l-12.607 22.71a1.998 1.998 0 0 0-.251.971v85.732h-4.297v-46.836a3 3 0 0 0-3-3h-5.592v-9.03a3 3 0 0 0-3-3h-21.496a3 3 0 0 0-3 3v9.03h-5.593a3 3 0 0 0-3 3v70.037h-8.593V75.896a2 2 0 0 0-2-2h-3.155V60.43a2 2 0 0 0-2-2h-4.874V48.4a2 2 0 0 0-2-2h-2.297V25.778c0-.95-.769-1.719-1.718-1.719z"/></g></g><path fill="#004DFF" d="M149.144 57.991a2.507 2.507 0 1 0 0-5.014 2.507 2.507 0 0 0 0 5.014zM75.248 55.414a2.507 2.507 0 1 0 0-5.014 2.507 2.507 0 0 0 0 5.014z" opacity=".1"/><path fill="#004DFF" d="M130.24 41.665a2.507 2.507 0 1 0 0-5.013 2.507 2.507 0 0 0 0 5.013zM60.69 99.233a2.557 2.557 0 1 0 0-5.114 2.557 2.557 0 0 0 0 5.114z"/><path fill="#004DFF" d="M111.156 192.852a2.7 2.7 0 1 0 .001-5.399 2.7 2.7 0 0 0-.001 5.399zM35.573 69.084h1.119a1.118 1.118 0 1 0 0-2.236h-1.119V65.73a1.118 1.118 0 0 0-2.236 0v1.118h-1.118a1.118 1.118 0 1 0 0 2.237h1.118v1.118a1.118 1.118 0 0 0 2.236 0v-1.119z" opacity=".1"/><path fill="#004DFF" d="M200.291 60.231h1.059a1.059 1.059 0 1 0 0-2.118h-1.059v-1.06a1.06 1.06 0 0 0-2.119 0v1.06h-1.059a1.059 1.059 0 1 0 0 2.118h1.059v1.06a1.06 1.06 0 1 0 2.119 0v-1.06zM189.026 105.122h1.059a1.059 1.059 0 1 0 0-2.118h-1.06l.001-1.059a1.06 1.06 0 0 0-2.119 0v1.059h-1.059a1.059 1.059 0 1 0 0 2.118h1.059v1.06a1.06 1.06 0 0 0 2.119 0v-1.06zM183.076 176.661h.959a.958.958 0 0 0 0-1.917h-.959v-.958a.958.958 0 1 0-1.917 0v.958h-.958a.959.959 0 1 0 0 1.917h.958v.958a.959.959 0 1 0 1.917 0v-.958z"/></g></svg>