<svg width="483" height="248" fill="none" xmlns="http://www.w3.org/2000/svg"><path opacity=".2" fill-rule="evenodd" clip-rule="evenodd" d="M167.285 237.284h4.142a4.142 4.142 0 0 0 0-8.284h-4.142v-4.142a4.143 4.143 0 0 0-8.284 0L159 229h-4.142a4.142 4.142 0 0 0 0 8.284H159l.001 4.142a4.141 4.141 0 1 0 8.284 0v-4.142z" fill="#D0DAE8"/><path fill-rule="evenodd" clip-rule="evenodd" d="M26.619 130.619h2.405a2.406 2.406 0 0 0 0-4.812l-2.406.001v-2.406a2.406 2.406 0 0 0-4.81 0v2.405l-2.406.001a2.405 2.405 0 1 0 0 4.811h2.405v2.405a2.406 2.406 0 1 0 4.812 0v-2.405z" fill="#D0DAE8"/><path d="M440.615 33a5.615 5.615 0 1 1-11.23 0 5.615 5.615 0 0 1 11.23 0z" stroke="#D0DAE8" stroke-width="2.769"/><path opacity=".2" d="M13.846 8A5.846 5.846 0 1 1 2.154 8a5.846 5.846 0 0 1 11.692 0z" fill="#D0DAE8" stroke="#004DFF" stroke-width="4.308"/><path d="M392.846 217a5.846 5.846 0 1 1-11.692 0 5.846 5.846 0 1 1 11.692 0z" stroke="#D0DAE8" stroke-width="4.308"/></svg>