<svg xmlns="http://www.w3.org/2000/svg" xmlns:xlink="http://www.w3.org/1999/xlink" viewBox="0 0 167 119"><defs><path id="b" d="M33.5 18c0 8.56-6.94 15.5-15.5 15.5-8.56 0-15.5-6.94-15.5-15.5C2.5 9.44 9.44 2.5 18 2.5c8.56 0 15.5 6.94 15.5 15.5z"/><filter id="a" width="141.9%" height="141.9%" x="-21%" y="-21%" filterUnits="objectBoundingBox"><feOffset dx="-8" in="SourceAlpha" result="shadowOffsetInner1"/><feComposite in="shadowOffsetInner1" in2="SourceAlpha" k2="-1" k3="1" operator="arithmetic" result="shadowInnerInner1"/><feColorMatrix in="shadowInnerInner1" values="0 0 0 0 0.874509804 0 0 0 0 0.88627451 0 0 0 0 0.898039216 0 0 0 1 0"/></filter><path id="d" d="M33.5 18c0 8.56-6.94 15.5-15.5 15.5-8.56 0-15.5-6.94-15.5-15.5C2.5 9.44 9.44 2.5 18 2.5c8.56 0 15.5 6.94 15.5 15.5z"/><filter id="c" width="141.9%" height="141.9%" x="-21%" y="-21%" filterUnits="objectBoundingBox"><feOffset dx="-8" in="SourceAlpha" result="shadowOffsetInner1"/><feComposite in="shadowOffsetInner1" in2="SourceAlpha" k2="-1" k3="1" operator="arithmetic" result="shadowInnerInner1"/><feColorMatrix in="shadowInnerInner1" values="0 0 0 0 0.874509804 0 0 0 0 0.88627451 0 0 0 0 0.898039216 0 0 0 1 0"/></filter><path id="f" d="M44.143 34.985v6.614l-4.273 3.5-3.838.044c-18.28-.009-33.175-14.847-33.175-32.985V4.737c0-1.091.77-1.88 1.907-1.88h7.463c18.243 0 31.916 13.94 31.916 32.128z"/><filter id="e" width="133.2%" height="132.4%" x="-16.6%" y="-16.2%" filterUnits="objectBoundingBox"><feOffset dx="-8" in="SourceAlpha" result="shadowOffsetInner1"/><feComposite in="shadowOffsetInner1" in2="SourceAlpha" k2="-1" k3="1" operator="arithmetic" result="shadowInnerInner1"/><feColorMatrix in="shadowInnerInner1" values="0 0 0 0 0.874509804 0 0 0 0 0.88627451 0 0 0 0 0.898039216 0 0 0 1 0"/></filter><path id="h" d="M37.142 43.263v1.88C18.16 45.106 2.858 30.194 2.858 12.158V4.737c0-1.006.75-1.88 2.06-1.88H12.95c8.952 0 17.417 3.358 23.756 9.464.13.125.247.257.436.475v30.467z"/><filter id="g" width="140%" height="132.4%" x="-20%" y="-16.2%" filterUnits="objectBoundingBox"><feOffset dx="-8" in="SourceAlpha" result="shadowOffsetInner1"/><feComposite in="shadowOffsetInner1" in2="SourceAlpha" k2="-1" k3="1" operator="arithmetic" result="shadowInnerInner1"/><feColorMatrix in="shadowInnerInner1" values="0 0 0 0 0.874509804 0 0 0 0 0.88627451 0 0 0 0 0.898039216 0 0 0 1 0"/></filter><path id="j" d="M0 35.842h2.857V12.85c6.298-6.23 14.906-9.993 24.52-9.993h7.705c1.311 0 2.06.874 2.06 1.88v7.42c0 18.037-15.302 32.95-34.285 32.986v-9.301H0z"/><filter id="i" width="129.2%" height="132.4%" x="-10.8%" y="-16.2%" filterUnits="objectBoundingBox"><feOffset dx="-8" in="SourceAlpha" result="shadowOffsetInner1"/><feComposite in="shadowOffsetInner1" in2="SourceAlpha" k2="-1" k3="1" operator="arithmetic" result="shadowInnerInner1"/><feColorMatrix in="shadowInnerInner1" values="0 0 0 0 0.874509804 0 0 0 0 0.88627451 0 0 0 0 0.898039216 0 0 0 1 0"/></filter></defs><g fill="none" fill-rule="evenodd"><path fill="#FFBF2F" d="M18 77c9.941 0 18-8.059 18-18s-8.059-18-18-18S0 49.059 0 59s8.059 18 18 18z"/><g transform="translate(0 41)"><use fill="#000" filter="url(#a)" xlink:href="#b"/><use stroke="#34374C" stroke-width="5" xlink:href="#b"/></g><path fill="#34374C" d="M19.008 53.12c.576 0 1.173.075 1.792.224.619.15 1.163.41 1.632.784L20.896 56a2.378 2.378 0 0 0-.88-.488 4.357 4.357 0 0 0-1.008-.184v2.544l1.536.448c.704.213 1.267.563 1.688 1.048.421.485.632 1.101.632 1.848 0 .565-.101 1.061-.304 1.488-.203.427-.48.79-.832 1.088a3.994 3.994 0 0 1-1.232.704c-.47.17-.965.283-1.488.336v1.12h-1.056v-1.12a7.908 7.908 0 0 1-2.104-.288A4.51 4.51 0 0 1 14 63.536l1.696-1.904c.277.341.613.584 1.008.728.395.144.81.232 1.248.264V59.92l-1.168-.352c-.81-.256-1.427-.616-1.848-1.08-.421-.464-.632-1.101-.632-1.912 0-.501.101-.955.304-1.36.203-.405.472-.752.808-1.04a4.259 4.259 0 0 1 1.168-.704 5.118 5.118 0 0 1 1.368-.352V52h1.056v1.12zm-1.056 2.256a2.236 2.236 0 0 0-.8.336c-.235.16-.352.41-.352.752 0 .245.048.437.144.576.096.139.208.248.336.328.128.08.256.136.384.168s.224.059.288.08v-2.24zm1.056 7.216c.16-.032.323-.077.488-.136.165-.059.312-.136.44-.232s.232-.21.312-.344a.9.9 0 0 0 .12-.472c0-.17-.03-.315-.088-.432a.91.91 0 0 0-.232-.296 1.494 1.494 0 0 0-.336-.208 6.949 6.949 0 0 0-.4-.168l-.304-.112v2.4z"/><g><path fill="#FFBF2F" d="M149 118c9.941 0 18-8.059 18-18s-8.059-18-18-18-18 8.059-18 18 8.059 18 18 18z"/><g transform="translate(131 82)"><use fill="#000" filter="url(#c)" xlink:href="#d"/><use stroke="#34374C" stroke-width="5" xlink:href="#d"/></g><path fill="#34374C" d="M150.008 94.12c.576 0 1.173.075 1.792.224.619.15 1.163.41 1.632.784L151.896 97a2.378 2.378 0 0 0-.88-.488 4.357 4.357 0 0 0-1.008-.184v2.544l1.536.448c.704.213 1.267.563 1.688 1.048.421.485.632 1.101.632 1.848 0 .565-.101 1.061-.304 1.488-.203.427-.48.79-.832 1.088a3.994 3.994 0 0 1-1.232.704c-.47.17-.965.283-1.488.336v1.12h-1.056v-1.12a7.908 7.908 0 0 1-2.104-.288 4.51 4.51 0 0 1-1.848-1.008l1.696-1.904c.277.341.613.584 1.008.728.395.144.81.232 1.248.264v-2.704l-1.168-.352c-.81-.256-1.427-.616-1.848-1.08-.421-.464-.632-1.101-.632-1.912 0-.501.101-.955.304-1.36.203-.405.472-.752.808-1.04a4.259 4.259 0 0 1 1.168-.704 5.118 5.118 0 0 1 1.368-.352V93h1.056v1.12zm-1.056 2.256a2.236 2.236 0 0 0-.8.336c-.235.16-.352.41-.352.752 0 .245.048.437.144.576.096.139.208.248.336.328.128.08.256.136.384.168s.224.059.288.08v-2.24zm1.056 7.216c.16-.032.323-.077.488-.136.165-.059.312-.136.44-.232s.232-.21.312-.344a.9.9 0 0 0 .12-.472c0-.17-.03-.315-.088-.432a.91.91 0 0 0-.232-.296 1.494 1.494 0 0 0-.336-.208 6.949 6.949 0 0 0-.4-.168l-.304-.112v2.4z"/></g><g><path fill="#00D695" fill-rule="nonzero" d="M97 34.985v7.966l-6.094 4.995-4.859.054C66.197 48 50 31.895 50 12.158V4.737C50 2.053 52.064 0 54.764 0h7.463C82.077 0 97 15.248 97 34.985z"/><g transform="translate(50)"><use fill="#000" filter="url(#e)" xlink:href="#f"/><use stroke="#34374C" stroke-width="5.714" xlink:href="#f"/></g><path fill="#00D695" fill-rule="nonzero" d="M95 113.263V81.684c-.492-.473-.82-.947-1.312-1.42C86.803 73.631 77.623 70 67.951 70h-8.033C57.13 70 55 72.053 55 74.737v7.42C55 101.896 71.721 118 92.213 118H95v-4.737z"/><g transform="translate(55 70)"><use fill="#000" filter="url(#g)" xlink:href="#h"/><use stroke="#34374C" stroke-width="5.714" xlink:href="#h"/></g><g><path fill="#00D695" fill-rule="nonzero" d="M91 70.842V83h2.787C114.279 83 131 66.895 131 47.158v-7.421c0-2.685-2.131-4.737-4.918-4.737h-7.705C107.557 35 97.886 39.421 91 46.684v24.158z"/><g transform="translate(91 35)"><use fill="#000" filter="url(#i)" xlink:href="#j"/><use stroke="#34374C" stroke-width="5.714" xlink:href="#j"/></g></g></g></g></svg>