<svg viewBox="0 0 140 26" xmlns="http://www.w3.org/2000/svg"><defs><linearGradient x1="0%" y1="99.972%" y2="99.972%" id="a"><stop stop-color="#004DFF" offset="0%"/><stop stop-color="#0DF" offset="100%"/></linearGradient><linearGradient x1="0%" y1="100.003%" x2="99.998%" y2="100.003%" id="b"><stop stop-color="#004DFF" offset="0%"/><stop stop-color="#0DF" offset="100%"/></linearGradient></defs><g fill="none" fill-rule="evenodd"><g opacity=".8"><path d="M22.96 24.433c-.991-3.667-4.116-2.43-4.323-2.352-2.697.971-4.76 3.466-8.845 3.466-3.08 0-.79-3.898-2.067-5.148C6.448 19.149 1.708 22.48 0 12.706a23.505 23.505 0 0 0 6.975-1.69c3.046-1.325 11.337-8.032 14.817-8.13h.076c3.08 0 2.724 5.928 6.762 3.995a8.765 8.765 0 0 0 4.164-4.254.053.053 0 0 0 0 .02c3.79 14.15-8.305 27.43-9.834 21.786z" fill="#34374C" opacity=".08"/><path d="M22.96 22.206c-.991-3.667-4.116-2.43-4.323-2.353-2.697.972-4.76 3.467-8.845 3.467-3.08 0-.79-3.898-2.067-5.148-1.277-1.25-6.017 2.082-7.725-7.693a23.508 23.508 0 0 0 6.975-1.69C10.02 7.464 18.312.756 21.792.659h.076c3.08 0 2.724 5.927 6.762 3.995A8.765 8.765 0 0 0 32.794.4a.053.053 0 0 0 0 .02c3.79 14.149-8.305 27.43-9.834 21.786z" fill="#00F"/></g><path d="M22.4.407c-3.307.221-9.126 13.392-16.569 15.277C1.793 16.694 0 10.786 0 10.786a28.856 28.856 0 0 0 7.509-1.83C10.842 7.59 17.569.136 22.4.406z" fill="#34374C" opacity=".08"/><path d="M22.4.408C19.148.634 13.347 13.656 6.029 15.67 2.056 16.764 0 10.57 0 10.57a26.543 26.543 0 0 0 7.383-1.963C10.66 7.146 17.65.12 22.4.409z" fill="url(#a)"/><path d="M32.834.4c3.95 13.87-8.612 26.24-9.551 21.285-.51-2.699-3.015-2.508-4.436-2.166-.161.038-.764.092-.627 0a52.848 52.848 0 0 0 8.986-8.187C32.142 5.593 32.834.4 32.834.4z" fill="#34374C" opacity=".08"/><path d="M32.77.4C37 14.7 23.737 28.213 22.737 23.093c-.77-3.938-4.537-3.04-4.537-3.04a41.323 41.323 0 0 0 9.756-7.963C33.246 6.186 32.77.4 32.77.4z" fill="url(#b)"/><path d="M46.116 21.4V6.756h4.172v2.016c.644-1.288 1.96-2.324 3.864-2.324 1.708 0 2.856.728 3.444 2.24 1.008-1.568 2.548-2.24 4.172-2.24 2.38 0 4.032 1.54 4.032 4.788V21.4h-4.172v-9.548c0-1.428-.588-2.072-1.624-2.072-1.148 0-1.988.784-1.988 2.296V21.4H53.9v-9.548c0-1.428-.616-2.072-1.652-2.072-1.148 0-1.96.784-1.96 2.296V21.4h-4.172zm25.199.28c-2.352 0-4.256-1.288-4.256-4.228v-.336c0-3.304 2.436-4.452 6.412-4.452h1.456v-1.036c0-1.372-.336-2.184-1.708-2.184-1.204 0-1.68.7-1.764 1.792h-3.948c.14-3.276 2.464-4.788 5.908-4.788 3.556 0 5.656 1.512 5.656 5.012v9.94h-4.06v-1.568c-.616.98-1.624 1.848-3.696 1.848zm1.456-2.856c1.288 0 2.156-.672 2.156-2.044v-1.54h-1.288c-1.652 0-2.464.42-2.464 1.652v.308c0 1.092.504 1.624 1.596 1.624zM81.427 3.76h4.2v2.996h2.576v2.94h-2.576v7.112c0 1.036.448 1.484 1.372 1.484.504 0 .924-.056 1.232-.196v3.192c-.42.14-1.232.308-2.184.308-3.108 0-4.62-1.4-4.62-4.396V9.696h-1.568v-2.94h1.568V3.76zm11.812 17.92c-2.352 0-4.256-1.288-4.256-4.228v-.336c0-3.304 2.436-4.452 6.412-4.452h1.456v-1.036c0-1.372-.336-2.184-1.708-2.184-1.204 0-1.68.7-1.764 1.792h-3.948c.14-3.276 2.464-4.788 5.908-4.788 3.556 0 5.656 1.512 5.656 5.012v9.94h-4.06v-1.568c-.616.98-1.624 1.848-3.696 1.848zm1.456-2.856c1.288 0 2.156-.672 2.156-2.044v-1.54h-1.288c-1.652 0-2.464.42-2.464 1.652v.308c0 1.092.504 1.624 1.596 1.624zM115.528.4v21h-4.172v-2.072c-.644 1.288-2.016 2.352-3.948 2.352-2.856 0-5.04-2.016-5.04-6.244v-2.632c0-4.2 2.212-6.356 5.18-6.356 1.932 0 3.136.868 3.808 2.184V.4h4.172zm-4.116 14.896v-2.492c0-2.128-.84-3.248-2.436-3.248-1.568 0-2.408 1.036-2.408 3.192v2.688c0 2.072.868 3.052 2.324 3.052 1.568 0 2.52-1.064 2.52-3.192zm12.148 6.384c-3.78 0-6.636-2.296-6.636-6.356v-2.408c0-4.088 2.856-6.468 6.664-6.468s6.636 2.324 6.636 6.384v2.408c0 4.116-2.884 6.44-6.664 6.44zm.028-3.108c1.596 0 2.436-1.148 2.436-3.22v-2.576c0-2.1-.84-3.192-2.436-3.192-1.568 0-2.464 1.064-2.464 3.164v2.576c0 2.1.84 3.248 2.464 3.248zm8.043 2.828V6.756h4.172v2.548c.784-1.904 2.1-2.716 4.088-2.716v4.032c-2.632-.028-4.088.756-4.088 2.884V21.4h-4.172z" fill="#34374C"/></g></svg>