<svg viewBox="0 0 736 585" xmlns="http://www.w3.org/2000/svg"><g transform="translate(1)" fill="none" fill-rule="evenodd"><path d="M158.997 293.407c5.579-3.221 7.49-10.354 4.269-15.932-3.22-5.578-10.353-7.489-15.931-4.269-5.579 3.221-7.49 10.354-4.269 15.932 3.22 5.578 10.353 7.489 15.931 4.269z" fill="#E4EDFF"/><rect stroke="#004DFF" stroke-width="4.304" opacity=".2" transform="rotate(-45 8.398 83.399)" x="2.898" y="77.899" width="11" height="11" rx="1.826"/><rect stroke="#004DFF" stroke-width="4.304" opacity=".2" transform="rotate(-45 590.778 181.778)" x="585.278" y="176.278" width="11" height="11" rx="1.826"/><path d="M727.839 516.1c6.007-3.468 8.065-11.15 4.597-17.157-3.469-6.007-11.15-8.066-17.157-4.597-6.008 3.468-8.066 11.15-4.598 17.157 3.469 6.007 11.15 8.066 17.158 4.597z" fill="#E4EDFF"/><path d="M247.643 10.456l2.827-1.632a3.265 3.265 0 0 0-3.265-5.654l-2.827 1.632-1.632-2.827a3.265 3.265 0 0 0-5.654 3.265l1.632 2.827-2.827 1.632a3.264 3.264 0 1 0 3.264 5.654l2.827-1.632 1.633 2.827a3.264 3.264 0 0 0 5.654-3.264l-1.632-2.828z" fill="#D0DAE8"/><path d="M111.653 572.342l.845-3.153a3.265 3.265 0 0 0-6.307-1.69l-.845 3.154-3.153-.845a3.265 3.265 0 0 0-1.69 6.306l3.153.845-.844 3.154a3.264 3.264 0 1 0 6.306 1.689l.845-3.153 3.153.845a3.265 3.265 0 1 0 1.69-6.307l-3.153-.845z" fill="#D0DAE8" opacity=".5"/></g></svg>