<svg id="Layer_1" xmlns="http://www.w3.org/2000/svg" viewBox="0 0 215.8 153"><style>.st1{opacity:.5;enable-background:new}.st1,.st3{fill:#004dff}.st6{fill:none;stroke:#34374c;stroke-width:5}</style><path d="M26.4 22.2c0-7.8 6.3-14.1 14.1-14.1h155.3c7.8 0 14.1 6.3 14.1 14.1s-6.3 14.1-14.1 14.1H40.4c-7.7 0-14-6.3-14-14.1zm5.9 28.2c0-7.8 6.3-14.1 14.1-14.1h155.3c7.8 0 14.1 6.3 14.1 14.1s-6.3 14.1-14.1 14.1H46.4c-7.8-.1-14.1-6.4-14.1-14.1zm-5.7 14c-7.8 0-14.1 6.3-14.1 14.1s6.3 14.1 14.1 14.1H14.1C6.3 92.6 0 98.9 0 106.7s6.3 14.1 14.1 14.1h19.1c-7.8 0-14.1 6.3-14.1 14.1S25.4 149 33.2 149h155.3c7.8 0 14.1-6.3 14.1-14.1s-6.3-14.1-14.1-14.1H120c-7.8 0-14.1-6.3-14.1-14.1s6.3-14.1 14.1-14.1h61.9c7.8 0 14.1-6.3 14.1-14.1s-6.3-14.1-14.1-14.1H26.6z" fill="#f6f8fa"/><path class="st1" d="M173.8 19.9c1.6 0 2.9-1.3 2.9-2.9s-1.3-2.9-2.9-2.9c-1.6 0-2.9 1.3-2.9 2.9s1.3 2.9 2.9 2.9z"/><path d="M181.3 107.6c1.6 0 2.9-1.3 2.9-2.9 0-1.6-1.3-2.9-2.9-2.9-1.6 0-2.9 1.3-2.9 2.9 0 1.6 1.3 2.9 2.9 2.9zM108.6 5.8c1.6 0 2.9-1.3 2.9-2.9S110.2 0 108.6 0s-2.9 1.3-2.9 2.9 1.3 2.9 2.9 2.9zM21.8 57c2 0 3.6-1.6 3.6-3.6s-1.6-3.6-3.6-3.6-3.6 1.6-3.6 3.6 1.6 3.6 3.6 3.6z" opacity=".2" fill="#004dff"/><path class="st3" d="M97.1 153c1.6 0 3-1.3 3-3 0-1.6-1.3-3-3-3-1.6 0-3 1.3-3 3s1.4 3 3 3zM63.6 35.3h1.3c.7 0 1.3-.6 1.3-1.3 0-.7-.6-1.3-1.3-1.3h-1.3v-1.3c0-.7-.6-1.3-1.3-1.3-.7 0-1.2.6-1.3 1.3v1.3h-1.3c-.7 0-1.3.6-1.3 1.3 0 .7.6 1.3 1.3 1.3H61v1.3c0 .7.6 1.3 1.3 1.3.7 0 1.3-.6 1.3-1.3v-1.3z"/><path class="st1" d="M57.2 128.5l1.4.1c.8.1 1.3-.5 1.2-1.2-.1-.8-.7-1.4-1.5-1.5l-1.4-.1-.1-1.4c-.1-.8-.7-1.4-1.5-1.5-.8-.1-1.3.5-1.2 1.2l.1 1.4-1.4-.1c-.8-.1-1.3.5-1.2 1.2.1.8.7 1.4 1.5 1.5l1.4.1.1 1.4c.1.8.7 1.4 1.5 1.5.8.1 1.3-.5 1.2-1.2l-.1-1.4z"/><path class="st3" d="M201.1 50.5h1.2c.7 0 1.2-.5 1.3-1.2s-.5-1.2-1.2-1.3h-1.3v-1.2c0-.7-.6-1.2-1.2-1.2s-1.2.6-1.2 1.2V48h-1.2c-.7 0-1.2.5-1.3 1.2s.5 1.2 1.2 1.3h1.3v1.2c0 .7.6 1.2 1.2 1.2s1.2-.6 1.2-1.2v-1.2zm-40 89.8h1.1c.6 0 1.1-.5 1.1-1.1 0-.6-.5-1.1-1.1-1.1h-1.1V137c0-.6-.5-1.1-1.2-1.1-.6 0-1 .5-1.1 1.1v1.1h-1.1c-.6 0-1.1.5-1.1 1.1 0 .6.5 1.1 1.1 1.1h1.1v1.1c0 .6.5 1.1 1.1 1.1.6 0 1.1-.5 1.1-1.1v-1.1z"/><path d="M146 43.2l-36.2-19.3c-1.2-.6-2.6-.6-3.7 0L70.9 43.2c-1.3.6-2.1 1.9-2 3.3v27.3c0 21.7 12.7 41.1 32.5 49.7l4.9 2c.5.1 1 .3 1.5.3s1-.1 1.7-.3l5.6-2.3c20.1-8.5 33-27.9 33-49.6V46.5c-.1-1.4-.8-2.7-2.1-3.3z" fill="#fff"/><path d="M146 43.2l-36.2-19.3c-1.2-.6-2.6-.6-3.7 0L70.9 43.2c-1.3.6-2.1 1.9-2 3.3v27.3c0 21.7 12.7 41.1 32.5 49.7l4.9 2c.5.1 1 .3 1.5.3s1-.1 1.7-.3l5.6-2.3c20.1-8.5 33-27.9 33-49.6V46.5c-.1-1.4-.8-2.7-2.1-3.3z" fill="none"/><path class="st6" d="M144.8 45.4c.5.2.7.6.7 1.1v27.2c0 20.6-12.3 39.2-31.5 47.3l-5.4 2.2h-.2c-.5.1-.6.1-.7.1-.1 0-.3 0-.7-.1l-4.7-2c-18.9-8.2-31-26.8-31-47.4V46.5c0-.5.3-.9.7-1.1L107.2 26c.4-.2.9-.2 1.3 0l36.3 19.4z"/><path d="M139.5 49.9c.3.1.4.4.4.7v23.3c0 17.6-10.5 33.4-26.8 40.2l-4.6 1.9h-.2c-.4.1-.4.1-.5.1-.1 0-.2 0-.5-.1l-4-1.7c-16.1-7-26.4-22.8-26.4-40.4V50.5c0-.3.1-.5.4-.6l30.2-16.6c.2-.1.5-.1.8 0 .1 0 31.2 16.6 31.2 16.6z" fill="#fff" stroke="#34374c" stroke-width="5"/><path d="M107.8 53.8v19.8H77.3L76 49.8l31.1-17.2.7 21.2zm0 62.8s-.7-42.3.7-42.3 25.1-.7 25.1-.7l7.3.7-.7 9.9-5.3 10.9-5.3 8.3-9.9 7.9-11.9 5.3z" fill="#dbdbfd"/><path class="st6" d="M139.5 49.9c.3.1.4.4.4.7v23.3c0 17.6-10.5 33.4-26.8 40.2l-4.6 1.9h-.2c-.4.1-.4.1-.5.1-.1 0-.2 0-.5-.1l-4-1.7c-16.1-7-26.4-22.8-26.4-40.4V50.5c0-.3.1-.5.4-.6l30.2-16.6c.2-.1.5-.1.8 0 .1 0 31.2 16.6 31.2 16.6z"/><path class="st3" d="M108.4 89.5c8.4 0 15.2-6.8 15.2-15.2 0-8.4-6.8-15.2-15.2-15.2-8.4 0-15.2 6.8-15.2 15.2 0 8.4 6.8 15.2 15.2 15.2z"/><path class="st6" d="M121.1 74.3c0 7-5.7 12.7-12.7 12.7s-12.7-5.7-12.7-12.7 5.7-12.7 12.7-12.7 12.7 5.7 12.7 12.7z"/><path d="M101.8 76.3l4.6 2.6 6.6-10.6" fill="none" stroke="#fff" stroke-width="4"/></svg>