<svg viewBox="0 0 500 500" xmlns="http://www.w3.org/2000/svg"><g fill-rule="nonzero" fill="none"><rect fill="#FFF" width="500" height="500" rx="100"/><path d="M72.684 253.259c25.307-24.842 66.33-24.842 91.638 0a62.786 62.786 0 0 1 18.848 41.181c-1.915-15.784-15.62-28.062-32.215-28.062-17.91 0-32.464 14.305-32.464 31.87.008 17.572-14.485 30.45-32.395 30.45-17.88 0-33.08-12.87-33.08-30.435 0-.015-.037-2.125 0-3.17.752-15.213 7.826-30.21 19.668-41.827v-.007zm175.525 45.004l-.052-2.14c-.623-27.327-12.976-51.868-32.343-68.922a97.87 97.87 0 0 1 64.859-24.36c52.761 0 95.677 41.286 97.127 92.756-1.427-33.868-29.918-60.977-64.754-60.977-35.753 0-64.837 28.544-64.837 63.643z" fill="#00F"/><path d="M209.363 221.952A130.319 130.319 0 0 1 313.031 171c71.475 0 130.476 57.087 130.476 127.255 0 17.565-15.349 30.443-33.244 30.443s-32.396-12.878-32.396-30.443c0-.9-.03-1.787-.075-2.666-1.427-51.47-44.343-92.764-97.134-92.741a97.833 97.833 0 0 0-64.822 24.33c19.863 17.497 32.373 42.88 32.373 71.062 0 17.572-14.515 30.09-32.395 30.458-12.338.248-33.215-7.674-32.636-34.265a62.786 62.786 0 0 0-18.856-41.174c-25.307-24.842-66.331-24.842-91.638 0-11.842 11.624-18.916 26.613-19.667 41.827 1.704-51.192 45.394-92.313 97.938-92.313 21.905 0 42.128 7.134 58.408 19.179z" fill="#00E4ED"/></g></svg>